# This file uses centimeters as units for non-parametric coordinates.

v 96.273346 130.467896 16.792450
v 96.273346 130.467896 -16.788750
v -26.543884 130.691849 16.792450
v -26.543884 130.691849 -16.788750
v 96.273262 0.000000 -20.996073
v -26.543884 126.276184 20.053082
v 96.273193 127.153259 20.053082
v 96.273193 0.000000 20.053082
v -99.896774 0.000000 20.007725
v -99.896774 0.000000 -20.996056
v -99.896774 20.685833 -20.996056
v 96.273346 45.689926 -20.996073
v -99.896774 15.400471 20.040188
v 96.273193 47.088390 20.053082
v -76.084366 25.256086 20.044231
v 67.782524 19.558510 20.049210
v -10.164871 13.364143 20.046806
v -73.589706 5.382573 -20.996056
v 51.624992 28.421259 -20.996073
v 1.768646 22.768127 -20.996073
v -5.726089 128.339203 16.792450
v -8.155212 124.745110 20.053082
v -5.726089 131.047058 -16.788750
v 96.273346 125.724083 -20.996073
v -26.543884 125.296310 -20.996073
v -6.940613 126.301857 -20.996073
v 105.991142 48.751553 -17.780838
v 105.991058 49.930943 16.837845
v 105.991058 0.000000 16.837845
v 105.991142 0.000000 -17.780838
v 107.314827 121.659477 13.488674
v 105.991142 120.248817 -14.232616
v 107.879265 116.453255 16.903000
v 107.561104 115.627380 -17.979986
v -107.879105 0.000000 -20.996056
v -107.879105 0.000000 20.007725
v -107.879105 19.726830 20.040188
v -107.879105 36.040047 -20.996056
v -34.526215 122.781883 17.294216
v -33.094940 127.197548 14.471874
v -33.094940 127.197548 -14.595432
v -34.526215 121.802010 -18.237207
v -107.879181 43.358238 -19.566154
v -107.879181 42.094917 18.437805
v -99.896774 38.640045 20.047684
v -99.896774 39.043381 -20.996056
v -50.633774 68.445908 -18.730545
v -51.743164 67.835083 17.741051
v -44.187546 65.649376 20.996056
v -45.095444 65.262375 -20.450668
v -76.879578 68.055099 -19.105433
v -77.491150 67.151527 18.053646
v -75.952606 64.073730 20.464897
v -75.675964 64.332367 -20.749397
v -81.284485 38.494038 -20.881920
v -84.878922 43.595947 -19.231699
v -81.482239 42.574989 18.197708
v -78.321381 40.174492 20.294609
v -50.381775 96.182564 -18.474083
v -50.914459 96.398636 17.508774
v -43.176041 91.128975 20.524044
v -43.626099 91.810577 -20.724297
v -27.787933 97.581955 -20.764389
v -34.718018 100.688843 -18.432426
v -35.168228 100.651917 17.474174
v -27.410126 100.287247 20.457325
vt 0.209794 0.353043
vt 0.209794 0.353043
vt 0.209794 0.353043
vt 0.209794 0.353043
vt 0.208886 0.327684
vt 0.209794 0.353043
vt 0.209794 0.353043
vt 0.209794 0.353043
vt 0.208886 0.327684
vt 0.208886 0.327684
vt 0.209794 0.353043
vt 0.209794 0.353043
vt 0.209794 0.353043
vt 0.209794 0.353043
vt 0.209794 0.353043
vt 0.209794 0.353043
vt 0.209794 0.353043
vt 0.209794 0.353043
vt 0.209794 0.353043
vt 0.209794 0.353043
vt 0.208886 0.327684
vt 0.208886 0.327684
vt 0.208886 0.327684
vt 0.208886 0.327684
vt 0.209794 0.353043
vt 0.208886 0.327684
vt 0.208886 0.327684
vt 0.208886 0.327684
vt 0.208886 0.327684
vt 0.208886 0.327684
vt 0.209794 0.353043
vt 0.209794 0.353043
vt 0.209794 0.353043
vt 0.209794 0.353043
vt 0.208886 0.327684
vt 0.208886 0.327684
vt 0.208886 0.327684
vt 0.208886 0.327684
vt 0.208886 0.327684
vt 0.208886 0.327684
vt 0.209794 0.353043
vt 0.209794 0.353043
vt 0.209794 0.353043
vt 0.209794 0.353043
vt 0.209794 0.353043
vt 0.209794 0.353043
vt 0.208886 0.327684
vt 0.208886 0.327684
vt 0.208886 0.327684
vt 0.208886 0.327684
vt 0.209794 0.353043
vt 0.209794 0.353043
vt 0.209794 0.353043
vt 0.209794 0.353043
vt 0.209794 0.353043
vt 0.209794 0.353043
vt 0.209794 0.353043
vt 0.209794 0.353043
vt 0.209794 0.353043
vt 0.209794 0.353043
vt 0.209794 0.353043
vt 0.209794 0.353043
vt 0.209794 0.353043
vt 0.209794 0.353043
vt 0.209794 0.353043
vt 0.209794 0.353043
vt 0.209794 0.353043
vt 0.209794 0.353043
vt 0.209794 0.353043
vt 0.209794 0.353043
vt 0.209794 0.353043
vt 0.209794 0.353043
vt 0.209794 0.353043
vt 0.209794 0.353043
vt 0.209794 0.353043
vt 0.209794 0.353043
vt 0.209794 0.353043
vt 0.209794 0.353043
vt 0.209794 0.353043
vt 0.209794 0.353043
vn 0.047880 0.998042 0.040239
vn 0.047880 0.998042 0.040239
vn 0.047880 0.998042 0.040239
vn 0.047880 0.998042 0.040239
vn -0.015146 0.689153 0.724458
vn -0.015146 0.689153 0.724458
vn -0.015146 0.689153 0.724458
vn -0.015146 0.689153 0.724458
vn -0.000022 -0.000030 1.000000
vn -0.000022 -0.000030 1.000000
vn -0.000022 -0.000030 1.000000
vn -0.000022 -0.000030 1.000000
vn -0.000000 0.000000 -1.000000
vn -0.000000 0.000000 -1.000000
vn -0.000000 0.000000 -1.000000
vn -0.021544 0.639951 -0.768113
vn -0.021544 0.639951 -0.768113
vn -0.021544 0.639951 -0.768113
vn -0.021544 0.639951 -0.768113
vn 0.000703 -0.002108 0.999998
vn 0.000703 -0.002108 0.999998
vn 0.000703 -0.002108 0.999998
vn -0.000136 0.000000 1.000000
vn -0.000136 0.000000 1.000000
vn -0.000136 0.000000 1.000000
vn -0.000042 0.000137 1.000000
vn -0.000042 0.000137 1.000000
vn -0.000042 0.000137 1.000000
vn -0.000256 -0.001204 0.999999
vn -0.000256 -0.001204 0.999999
vn -0.000256 -0.001204 0.999999
vn -0.000231 -0.001372 0.999999
vn -0.000231 -0.001372 0.999999
vn -0.000231 -0.001372 0.999999
vn -0.000000 0.000000 -1.000000
vn -0.000000 0.000000 -1.000000
vn -0.000000 0.000000 -1.000000
vn -0.000001 0.000009 1.000000
vn -0.000001 0.000009 1.000000
vn -0.000001 0.000009 1.000000
vn 0.000000 0.000000 -1.000000
vn 0.000000 0.000000 -1.000000
vn 0.000000 0.000000 -1.000000
vn -0.000000 -0.000000 -1.000000
vn -0.000000 -0.000000 -1.000000
vn -0.000000 -0.000000 -1.000000
vn 0.061310 0.618934 0.783046
vn 0.061310 0.618934 0.783046
vn 0.061310 0.618934 0.783046
vn 0.061310 0.618934 0.783046
vn -0.007589 0.999159 0.040284
vn -0.007589 0.999160 0.040284
vn -0.007589 0.999160 0.040284
vn -0.007589 0.999160 0.040284
vn 0.000000 0.000000 -1.000000
vn 0.000000 0.000000 -1.000000
vn 0.000000 0.000000 -1.000000
vn 0.000000 0.000000 -1.000000
vn 0.003739 0.663209 -0.748425
vn 0.003739 0.663209 -0.748425
vn 0.003739 0.663209 -0.748425
vn 0.003739 0.663209 -0.748425
vn 1.000000 0.000000 0.000002
vn 1.000000 0.000000 0.000002
vn 1.000000 0.000000 0.000002
vn 1.000000 0.000000 0.000002
vn -1.000000 0.000000 0.000000
vn -1.000000 0.000000 0.000000
vn -1.000000 0.000000 0.000000
vn -1.000000 0.000000 0.000000
vn 0.000000 -1.000000 0.000000
vn 0.000000 -1.000000 0.000000
vn 0.000000 -1.000000 0.000000
vn 0.000000 -1.000000 0.000000
vn -0.959871 0.280410 -0.004253
vn -0.959871 0.280410 -0.004253
vn -0.959871 0.280410 -0.004253
vn -0.959871 0.280410 -0.004253
vn 0.976445 0.213194 -0.033224
vn 0.976445 0.213194 -0.033224
vn 0.976445 0.213194 -0.033224
vn 0.976445 0.213194 -0.033224
vn -0.011421 -0.000323 0.999935
vn -0.011421 -0.000323 0.999935
vn -0.011421 -0.000323 0.999935
vn 0.006132 0.000000 -0.999981
vn 0.006132 0.000000 -0.999981
vn 0.006132 0.000000 -0.999981
vn 0.000000 0.000000 -1.000000
vn 0.000000 0.000000 -1.000000
vn 0.000000 0.000000 -1.000000
vn -0.000026 -0.000056 1.000000
vn -0.000026 -0.000056 1.000000
vn -0.000026 -0.000056 1.000000
vn 0.314112 0.000000 0.949386
vn 0.314112 0.000000 0.949386
vn 0.314112 0.000000 0.949386
vn 0.314112 0.000000 0.949386
vn 0.000000 -1.000000 0.000000
vn 0.000000 -1.000000 0.000000
vn 0.000000 -1.000000 0.000000
vn 0.000000 -1.000000 0.000000
vn 0.314113 -0.000000 -0.949386
vn 0.314113 -0.000000 -0.949386
vn 0.314113 -0.000000 -0.949386
vn 0.314113 -0.000000 -0.949386
vn 0.674735 0.737386 -0.031538
vn 0.674735 0.737386 -0.031538
vn 0.674735 0.737386 -0.031538
vn 0.674735 0.737386 -0.031538
vn 0.612679 0.512126 0.601956
vn 0.612679 0.512126 0.601956
vn 0.612679 0.512126 0.601956
vn 0.612679 0.512126 0.601956
vn 0.284647 -0.004093 0.958624
vn 0.284647 -0.004093 0.958624
vn 0.284647 -0.004093 0.958624
vn 0.284647 -0.004093 0.958624
vn 0.283067 -0.004325 -0.959090
vn 0.283067 -0.004325 -0.959090
vn 0.283067 -0.004325 -0.959090
vn 0.283067 -0.004325 -0.959090
vn 0.663593 0.545799 -0.511613
vn 0.663593 0.545799 -0.511613
vn 0.663593 0.545799 -0.511613
vn 0.663593 0.545799 -0.511613
vn 0.999657 -0.025919 -0.003827
vn 0.999657 -0.025919 -0.003827
vn 0.999657 -0.025919 -0.003827
vn 0.999657 -0.025919 -0.003827
vn 0.000000 -1.000000 0.000000
vn 0.000000 -1.000000 0.000000
vn 0.000000 -1.000000 0.000000
vn 0.000000 -1.000000 0.000000
vn -0.000501 -0.001848 0.999998
vn -0.000501 -0.001848 0.999998
vn -0.000501 -0.001848 0.999998
vn -0.000501 -0.001848 0.999998
vn 0.000000 0.000000 -1.000000
vn 0.000000 0.000000 -1.000000
vn 0.000000 0.000000 -1.000000
vn 0.000000 0.000000 -1.000000
vn -0.346519 0.022247 0.937779
vn -0.346519 0.022247 0.937779
vn -0.346519 0.022247 0.937779
vn -0.346519 0.022247 0.937779
vn -0.497889 0.545226 0.674415
vn -0.497889 0.545226 0.674415
vn -0.497889 0.545226 0.674415
vn -0.497889 0.545226 0.674415
vn -0.470631 0.882330 0.000000
vn -0.470631 0.882330 0.000000
vn -0.470631 0.882330 0.000000
vn -0.470631 0.882330 0.000000
vn -0.494464 0.553221 -0.670412
vn -0.494464 0.553221 -0.670412
vn -0.494464 0.553221 -0.670412
vn -0.494464 0.553221 -0.670412
vn -0.020916 0.055592 -0.998234
vn -0.020916 0.055592 -0.998234
vn -0.020916 0.055592 -0.998234
vn -0.020916 0.055592 -0.998234
vn -0.999793 0.019280 -0.006555
vn -0.999793 0.019280 -0.006555
vn -0.999793 0.019280 -0.006555
vn -0.999793 0.019280 -0.006555
vn -1.000000 -0.000005 -0.000001
vn -1.000000 -0.000005 -0.000001
vn -1.000000 -0.000005 -0.000001
vn -1.000000 -0.000005 -0.000001
vn -0.083452 0.034826 0.995903
vn -0.083452 0.034826 0.995903
vn -0.083452 0.034826 0.995903
vn -0.083452 0.034826 0.995903
vn 0.000468 0.438286 -0.898836
vn 0.000468 0.438286 -0.898836
vn 0.000468 0.438286 -0.898836
vn 0.000468 0.438286 -0.898836
vn -0.020679 0.999585 0.020076
vn -0.020679 0.999585 0.020076
vn -0.020679 0.999585 0.020076
vn -0.020679 0.999585 0.020076
vn -0.030474 0.707468 0.706088
vn -0.030474 0.707468 0.706088
vn -0.030474 0.707468 0.706088
vn -0.030474 0.707468 0.706088
vn -0.302139 0.009279 -0.953219
vn -0.302139 0.009279 -0.953219
vn -0.302139 0.009279 -0.953219
vn -0.302139 0.009279 -0.953219
vn -0.970506 0.237328 0.042362
vn -0.970506 0.237328 0.042362
vn -0.970506 0.237328 0.042362
vn -0.970506 0.237328 0.042362
vn -0.637629 0.083240 0.765833
vn -0.637629 0.083240 0.765833
vn -0.637629 0.083240 0.765833
vn -0.637629 0.083240 0.765833
vn -0.409226 0.115372 -0.905110
vn -0.409225 0.115372 -0.905110
vn -0.409226 0.115372 -0.905110
vn -0.409226 0.115372 -0.905110
vn 0.012627 0.324846 -0.945683
vn 0.012627 0.324846 -0.945683
vn 0.012627 0.324846 -0.945683
vn 0.012627 0.324846 -0.945683
vn -0.014581 0.999415 0.030921
vn -0.014581 0.999415 0.030921
vn -0.014581 0.999415 0.030921
vn -0.014581 0.999415 0.030921
vn -0.021348 0.505445 0.862595
vn -0.021348 0.505445 0.862595
vn -0.021348 0.505445 0.862595
vn -0.021348 0.505445 0.862595
vn -0.000755 0.003272 -0.999994
vn -0.000755 0.003272 -0.999994
vn -0.000755 0.003272 -0.999994
vn 0.009676 0.003028 -0.999949
vn 0.009676 0.003028 -0.999949
vn 0.009676 0.003028 -0.999949
vn 0.000430 -0.008379 -0.999965
vn 0.000430 -0.008379 -0.999965
vn 0.000430 -0.008379 -0.999965
vn 0.008613 -0.014318 -0.999860
vn 0.008613 -0.014318 -0.999860
vn 0.008613 -0.014318 -0.999860
vn 0.001250 -0.010375 -0.999945
vn 0.001250 -0.010375 -0.999945
vn 0.001250 -0.010375 -0.999945
vn 0.002319 0.003986 -0.999989
vn 0.002319 0.003986 -0.999989
vn 0.002319 0.003986 -0.999989
vn -0.016446 -0.005494 0.999850
vn -0.016446 -0.005494 0.999850
vn -0.016446 -0.005494 0.999850
vn 0.001291 0.015510 0.999879
vn 0.001291 0.015510 0.999879
vn 0.001291 0.015510 0.999879
vn 0.003218 0.013993 0.999897
vn 0.003218 0.013993 0.999897
vn 0.003218 0.013993 0.999897
vn -0.006682 0.018787 0.999801
vn -0.006682 0.018787 0.999801
vn -0.006682 0.018787 0.999801
vn 0.027054 -0.000544 0.999634
vn 0.027054 -0.000544 0.999634
vn 0.027054 -0.000544 0.999634
vn -0.007215 -0.017862 0.999814
vn -0.007215 -0.017862 0.999814
vn -0.007215 -0.017862 0.999814
vn 0.006380 -0.015824 0.999854
vn 0.006380 -0.015824 0.999855
vn 0.006380 -0.015824 0.999855
vn -0.003754 -0.020594 0.999781
vn -0.003754 -0.020594 0.999781
vn -0.003754 -0.020594 0.999781
vn -0.012598 -0.001060 -0.999920
vn -0.012598 -0.001060 -0.999920
vn -0.012598 -0.001060 -0.999920
vn 0.001334 0.014305 -0.999897
vn 0.001334 0.014305 -0.999897
vn 0.001334 0.014305 -0.999897
vn -0.999561 0.019197 -0.022549
vn -0.999561 0.019197 -0.022549
vn -0.999561 0.019197 -0.022549
vn -0.999561 0.019197 -0.022549
vn -0.368905 0.024670 0.929140
vn -0.368905 0.024670 0.929140
vn -0.368905 0.024670 0.929140
vn -0.368905 0.024670 0.929140
vn -0.323267 0.008800 -0.946267
vn -0.323267 0.008800 -0.946267
vn -0.323267 0.008800 -0.946267
vn -0.323267 0.008800 -0.946267
vn -0.116040 0.355813 -0.927325
vn -0.116040 0.355813 -0.927325
vn -0.116040 0.355813 -0.927325
vn -0.116040 0.355813 -0.927325
vn -0.268621 0.963227 -0.006073
vn -0.268622 0.963227 -0.006073
vn -0.268622 0.963227 -0.006073
vn -0.268622 0.963227 -0.006073
vn -0.182663 0.435848 0.881289
vn -0.182663 0.435848 0.881289
vn -0.182663 0.435848 0.881289
vn -0.182663 0.435848 0.881289
s off
f 4/1/1 3/2/2 21/3/3 23/4/4
f 21/3/5 22/6/6 7/7/7 1/8/8
f 22/6/9 16/11/10 14/12/11 7/7/12
f 10/5/13 11/9/14 18/10/15
f 23/4/16 26/13/17 25/14/18 4/1/19
f 9/21/20 15/22/21 13/23/22
f 16/24/23 8/26/24 14/27/25
f 17/28/26 8/26/27 16/24/28
f 9/21/29 17/28/30 15/22/31
f 9/21/32 8/26/33 17/28/34
f 5/29/35 19/30/36 12/36/37
f 10/5/38 18/10/39 20/35/40
f 5/29/41 20/35/42 19/30/43
f 10/5/44 20/35/45 5/29/46
f 6/15/47 22/6/48 21/3/49 3/2/50
f 23/4/51 21/3/52 1/8/53 2/16/54
f 19/17/55 26/13/56 24/18/57 12/19/58
f 24/18/59 26/13/60 23/4/61 2/16/62
f 27/40/63 28/37/64 29/38/65 30/39/66
f 35/47/67 36/48/68 37/49/69 38/50/70
f 5/29/71 8/26/72 9/21/73 10/5/74
f 42/55/75 39/52/76 40/53/77 41/54/78
f 32/41/79 31/42/80 33/43/81 34/46/82
f 13/25/83 58/72/84 45/59/85
f 55/69/86 11/20/87 46/60/88
f 20/34/89 26/13/90 19/17/91
f 22/6/92 17/32/93 16/11/94
f 14/27/95 8/26/96 29/38/97 28/37/98
f 8/26/99 5/29/100 30/39/101 29/38/102
f 5/29/103 12/36/104 27/40/105 30/39/106
f 2/16/107 1/8/108 31/42/109 32/41/110
f 1/8/111 7/7/112 33/43/113 31/42/114
f 7/7/115 14/12/116 28/44/117 33/43/118
f 12/19/119 24/18/120 34/46/121 27/45/122
f 24/18/123 2/16/124 32/41/125 34/46/126
f 34/46/127 33/43/128 28/44/129 27/45/130
f 10/5/131 9/21/132 36/48/133 35/47/134
f 9/21/135 13/23/136 37/49/137 36/48/138
f 11/9/139 10/5/140 35/47/141 38/50/142
f 65/79/143 66/80/144 6/15/145 39/52/146
f 6/15/147 3/2/148 40/53/149 39/52/150
f 3/2/151 4/1/152 41/54/153 40/53/154
f 4/1/155 25/14/156 42/55/157 41/54/158
f 43/57/159 46/60/160 11/20/161 38/56/162
f 64/78/163 65/79/164 39/52/165 42/55/166
f 38/56/167 37/51/168 44/58/169 43/57/170
f 13/25/171 45/59/172 44/58/173 37/51/174
f 47/61/175 50/64/176 54/68/177 51/65/178
f 51/65/179 52/66/180 48/62/181 47/61/182
f 52/66/183 53/67/184 49/63/185 48/62/186
f 59/73/187 62/76/188 50/64/189 47/61/190
f 56/70/191 57/71/192 52/66/193 51/65/194
f 57/71/195 58/72/196 53/67/197 52/66/198
f 51/65/199 54/68/200 55/69/201 56/70/202
f 56/70/203 55/69/204 46/60/205 43/57/206
f 43/57/207 44/58/208 57/71/209 56/70/210
f 44/58/211 45/59/212 58/72/213 57/71/214
f 18/33/215 55/69/216 20/34/217
f 50/64/218 55/69/219 54/68/220
f 25/14/221 26/13/222 63/77/223
f 26/13/224 50/64/225 63/77/226
f 50/64/227 62/76/228 63/77/229
f 18/33/230 11/20/231 55/69/232
f 58/72/233 49/63/234 53/67/235
f 6/15/236 66/80/237 22/6/238
f 22/6/239 66/80/240 49/63/241
f 49/63/242 66/80/243 61/75/244
f 22/6/245 49/63/246 17/32/247
f 15/31/248 49/63/249 58/72/250
f 15/31/251 58/72/252 13/25/253
f 17/32/254 49/63/255 15/31/256
f 20/34/257 50/64/258 26/13/259
f 20/34/260 55/69/261 50/64/262
f 47/61/263 48/62/264 60/74/265 59/73/266
f 48/62/267 49/63/268 61/75/269 60/74/270
f 25/14/271 63/77/272 64/78/273 42/55/274
f 64/78/275 63/77/276 62/76/277 59/73/278
f 59/73/279 60/74/280 65/79/281 64/78/282
f 60/74/283 61/75/284 66/80/285 65/79/286
