# This file uses centimeters as units for non-parametric coordinates.

v 6.114740 -5.531490 35.336246
v -12.057039 24.285662 8.063023
v -22.964256 17.875111 -4.097967
v -14.464148 -5.531490 -6.964388
v 21.888132 21.690912 17.441729
v -6.209636 17.883875 30.365194
v 18.634434 0.981035 -25.633116
v 13.089314 18.682755 -24.353325
v 33.435898 18.894575 2.406488
v 12.979987 11.890793 34.122612
v -22.473639 1.786782 -3.079250
v 9.575747 -5.550776 -18.726894
v 30.207582 -5.550776 23.682610
v -1.824794 1.787001 39.364563
v -8.418694 24.141537 -7.309502
v -24.473015 1.444824 15.656967
v -17.587278 1.828280 -13.457363
v 6.410499 1.816139 -25.208363
v 41.340115 0.981860 21.044880
v 14.268517 2.642191 36.907764
v -17.460037 17.852928 -13.300065
v -11.075386 -6.153841 17.543045
v 40.465210 -5.954648 5.751754
v 22.143913 25.154320 -1.256858
v 35.494370 12.255054 20.253084
vt 0.235052 0.326853
vt 0.235052 0.326853
vt 0.235052 0.326853
vt 0.235052 0.326853
vt 0.235052 0.326853
vt 0.235052 0.326853
vt 0.235052 0.326853
vt 0.235052 0.326853
vt 0.235052 0.326853
vt 0.235052 0.326853
vt 0.235052 0.326853
vt 0.235052 0.326853
vt 0.235052 0.326853
vt 0.235052 0.326853
vt 0.235052 0.326853
vt 0.235052 0.326853
vt 0.235052 0.326853
vt 0.235052 0.326853
vt 0.235052 0.326853
vt 0.235052 0.326853
vt 0.235052 0.326853
vt 0.235052 0.326853
vt 0.235052 0.326853
vt 0.235052 0.326853
vt 0.235052 0.326853
vt 0.235052 0.326853
vt 0.235052 0.326853
vt 0.235052 0.326853
vt 0.235052 0.326853
vt 0.235052 0.326853
vt 0.235052 0.326853
vt 0.235052 0.326853
vt 0.235052 0.326853
vt 0.235052 0.326853
vt 0.235052 0.326853
vt 0.235052 0.326853
vn -0.029863 0.999419 -0.016438
vn -0.029863 0.999419 -0.016438
vn -0.029863 0.999419 -0.016438
vn 0.010639 -0.999588 0.026650
vn 0.010639 -0.999588 0.026650
vn 0.010639 -0.999588 0.026650
vn 0.010639 -0.999588 0.026650
vn -0.748958 0.536443 0.388961
vn -0.748958 0.536443 0.388962
vn -0.748958 0.536443 0.388961
vn 0.145910 0.816980 0.557902
vn 0.145910 0.816980 0.557902
vn 0.145910 0.816980 0.557902
vn -0.429839 0.864903 -0.259192
vn -0.429839 0.864903 -0.259192
vn -0.429839 0.864903 -0.259192
vn 0.159558 -0.337532 0.927692
vn 0.159558 -0.337532 0.927692
vn 0.159558 -0.337532 0.927693
vn -0.314517 -0.699576 -0.641617
vn -0.314517 -0.699576 -0.641617
vn -0.314517 -0.699576 -0.641617
vn -0.314517 -0.699576 -0.641618
vn -0.883095 -0.022564 -0.468652
vn -0.883095 -0.022564 -0.468652
vn -0.883095 -0.022564 -0.468652
vn -0.883095 -0.022564 -0.468652
vn -0.571706 -0.820459 0.000073
vn -0.571706 -0.820459 0.000073
vn -0.571706 -0.820459 0.000073
vn -0.571706 -0.820459 0.000073
vn -0.711952 0.184819 0.677471
vn -0.711952 0.184819 0.677471
vn -0.711952 0.184819 0.677471
vn -0.473042 -0.744325 0.471392
vn -0.473042 -0.744325 0.471392
vn -0.473042 -0.744325 0.471392
vn -0.473042 -0.744325 0.471392
vn -0.993600 -0.037057 -0.106705
vn -0.993600 -0.037057 -0.106705
vn -0.993600 -0.037057 -0.106705
vn -0.718881 -0.605805 -0.340896
vn -0.718881 -0.605805 -0.340896
vn -0.718881 -0.605805 -0.340896
vn -0.030386 0.062604 -0.997576
vn -0.030386 0.062604 -0.997576
vn -0.030386 0.062604 -0.997576
vn -0.384841 0.107847 -0.916661
vn -0.384841 0.107847 -0.916661
vn -0.384841 0.107847 -0.916661
vn -0.384841 0.107847 -0.916661
vn -0.071668 -0.676028 -0.733382
vn -0.071668 -0.676028 -0.733382
vn -0.071668 -0.676028 -0.733383
vn 0.826539 0.161208 -0.539301
vn 0.826539 0.161208 -0.539301
vn 0.826539 0.161208 -0.539301
vn 0.941527 0.325708 -0.086259
vn 0.941527 0.325708 -0.086259
vn 0.941527 0.325708 -0.086259
vn 0.941527 0.325708 -0.086259
vn 0.404865 -0.474275 0.781759
vn 0.404865 -0.474275 0.781760
vn 0.404865 -0.474275 0.781760
vn 0.404865 -0.474275 0.781760
vn 0.494386 0.313202 0.810856
vn 0.494386 0.313202 0.810856
vn 0.494386 0.313202 0.810856
vn 0.494386 0.313202 0.810856
vn 0.028820 0.426733 0.903918
vn 0.028820 0.426733 0.903918
vn 0.028820 0.426733 0.903918
vn 0.028820 0.426733 0.903918
vn -0.002972 0.960974 0.276625
vn -0.002972 0.960974 0.276625
vn -0.002972 0.960974 0.276625
vn -0.413114 0.904460 -0.106255
vn -0.413114 0.904460 -0.106255
vn -0.413114 0.904460 -0.106255
vn -0.766965 0.534808 0.354606
vn -0.766965 0.534808 0.354606
vn -0.766965 0.534808 0.354606
vn 0.540404 0.730988 -0.416677
vn 0.540404 0.730988 -0.416677
vn 0.540404 0.730988 -0.416677
vn 0.762869 0.281067 -0.582265
vn 0.762868 0.281067 -0.582265
vn 0.762869 0.281067 -0.582265
vn 0.394309 0.875239 0.280137
vn 0.394309 0.875239 0.280137
vn 0.394309 0.875239 0.280137
vn 0.310395 -0.859608 -0.405869
vn 0.310395 -0.859608 -0.405869
vn 0.310395 -0.859608 -0.405869
vn -0.003405 -0.999822 -0.018563
vn -0.003405 -0.999822 -0.018563
vn -0.003405 -0.999822 -0.018563
vn -0.003405 -0.999822 -0.018563
vn 0.534736 -0.780650 0.323487
vn 0.534736 -0.780649 0.323487
vn 0.534736 -0.780649 0.323487
vn -0.215290 0.817861 -0.533623
vn -0.215290 0.817861 -0.533623
vn -0.215290 0.817861 -0.533623
vn 0.539889 0.826305 0.160436
vn 0.539889 0.826305 0.160436
vn 0.539889 0.826305 0.160436
vn 0.024739 0.982914 0.182396
vn 0.024739 0.982914 0.182396
vn 0.024739 0.982914 0.182396
vn 0.023271 0.960247 -0.278181
vn 0.023271 0.960247 -0.278181
vn 0.023271 0.960247 -0.278181
vn 0.363458 0.705403 0.608527
vn 0.363458 0.705403 0.608527
vn 0.363458 0.705403 0.608527
s off
f 15/26/1 2/2/2 24/35/3
f 1/5/4 22/33/5 23/34/6 13/21/7
f 3/9/8 16/27/9 2/2/10
f 6/11/11 10/16/12 5/10/13
f 3/3/14 15/26/15 21/32/16
f 1/1/17 20/31/18 14/25/19
f 4/4/20 17/28/21 18/29/22 12/19/23
f 3/3/24 21/32/25 17/28/26 11/18/27
f 4/8/28 22/23/29 16/27/30 11/17/31
f 16/27/32 14/25/33 6/11/34
f 14/25/35 16/27/36 22/23/37 1/1/38
f 11/17/39 16/27/40 3/9/41
f 11/18/42 17/28/43 4/4/44
f 7/12/45 18/29/46 8/14/47
f 8/14/48 18/29/49 17/28/50 21/32/51
f 12/19/52 18/29/53 7/12/54
f 9/15/55 23/22/56 7/13/57
f 19/30/58 23/22/59 9/15/60 25/36/61
f 13/20/62 19/30/63 20/31/64 1/1/65
f 20/31/66 19/30/67 25/36/68 10/16/69
f 14/25/70 20/31/71 10/16/72 6/11/73
f 6/11/74 5/10/75 2/2/76
f 2/2/77 15/26/78 3/3/79
f 6/11/80 2/2/81 16/27/82
f 24/24/83 9/15/84 8/7/85
f 8/7/86 9/15/87 7/13/88
f 25/36/89 9/15/90 24/24/91
f 23/34/92 12/19/93 7/12/94
f 12/19/95 23/34/96 22/33/97 4/4/98
f 13/21/99 23/34/100 19/6/101
f 15/26/102 8/14/103 21/32/104
f 24/35/105 5/10/106 25/36/107
f 5/10/108 24/35/109 2/2/110
f 15/26/111 24/35/112 8/14/113
f 25/36/114 5/10/115 10/16/116
