# This file uses centimeters as units for non-parametric coordinates.

v -14.897926 -11.574673 2.389282
v -17.806244 -11.574673 -0.987381
v -15.883904 27.899975 2.546440
v -17.444443 27.899975 0.734596
v -18.348083 27.899975 2.712975
v -19.653656 -11.574673 3.108658
v -10.230133 6.487182 -0.562408
v -14.643799 10.192769 -2.355835
v -12.419235 9.361014 3.734779
v -18.061119 11.078273 2.590820
v -28.941208 4.312453 1.713112
v -24.390610 9.358571 5.942932
v -24.309425 9.683200 -2.566742
v -17.983513 11.578776 1.602112
v -16.283440 8.834291 -6.717674
v -21.128128 16.500626 -3.277420
v -13.495941 16.371548 -3.348610
v -17.056427 21.388596 1.316849
v -16.033722 31.641098 2.975670
v -20.879272 28.677784 9.916878
v -14.754105 25.044964 9.811050
v -10.274254 26.418377 4.131744
v -14.048515 26.658482 -2.983368
v -21.428284 28.596359 -1.941635
v -23.186615 27.893909 4.101883
v -11.852165 21.753990 5.838257
v -16.437111 22.105099 6.490234
v -13.400734 18.040798 9.750397
v -10.306488 17.260376 7.323082
v -9.848808 16.909348 2.203339
v -13.092033 19.915409 0.037849
v -15.987366 21.084846 2.616104
v -24.832466 25.456863 3.328308
v -28.862381 19.946171 6.305847
v -22.038277 21.515327 9.755310
v -19.619606 24.182198 6.017586
v -19.546951 23.667179 -0.630890
v -25.147369 21.410690 -2.671181
v -27.879578 19.225826 1.231979
v -9.443787 -11.574673 16.122803
v -9.092293 -11.574673 18.306107
v -8.721489 18.513962 15.381119
v -8.532883 18.513962 16.552635
v -7.636635 18.513962 15.951324
v -7.246613 -11.574673 17.055038
v -13.589203 7.222888 14.191315
v -12.571236 9.475227 17.321396
v -10.120499 9.408636 13.756546
v -8.535378 10.043327 17.325714
v -8.912071 20.427496 15.915070
v -3.677353 18.386553 13.640129
v -7.232574 16.057396 11.537354
v -11.811523 16.937950 13.216721
v -12.157104 17.091892 18.636261
v -7.550766 18.334349 20.644684
v -4.406181 17.883978 17.794830
v -9.086113 12.251852 16.271210
v -7.758331 12.251852 16.920486
v -8.861938 12.251852 17.663712
v 2.028679 -11.574672 5.438232
v 4.360001 -11.574672 1.640190
v -0.243507 31.811146 5.272324
v 1.007423 31.811146 3.234383
v -1.152122 31.811146 2.975739
v -0.103981 -11.574672 1.127052
v 6.260994 10.846107 8.986229
v 6.626038 14.551695 4.236115
v 1.501404 13.719940 8.208832
v 0.873978 15.437199 2.486435
v -1.601326 8.671379 -8.144630
v -4.245499 13.717497 -2.522560
v 3.885178 14.042126 -5.035164
v 1.839401 15.937702 2.259445
v 11.788139 19.375984 1.776894
v 5.264313 23.111008 -1.898125
v 7.241028 23.396812 5.469566
v 0.634926 24.508102 3.290703
v 1.124428 36.000023 4.534782
v -6.962242 33.036709 2.031677
v -4.997223 29.403889 7.834053
v 1.776108 30.777302 10.372871
v 7.404968 31.017406 4.612167
v 4.166611 32.955284 -2.100449
v -2.125351 32.252834 -1.936012
v -0.329697 26.112915 9.389206
v -2.346176 26.464024 5.220192
v -4.527557 22.399723 9.104759
v -1.273643 21.619301 11.313454
v 3.742508 21.268272 10.191223
v 4.818184 24.274334 6.442780
v 1.481041 25.443771 4.469505
v 22.505234 -11.574672 -5.999146
v 20.548141 -11.574672 -4.154556
v 23.744812 26.874321 -5.778725
v 22.694679 26.874321 -4.788963
v 23.911804 26.874321 -4.297653
v 23.067436 -11.574672 -3.151497
v 26.842705 9.348728 -8.841560
v 22.919434 12.213818 -8.753784
v 26.754185 11.829412 -5.034035
v 22.173210 13.198191 -3.931412
v 22.255089 12.955383 1.988434
v 24.740044 15.920137 -0.937469
v 19.485184 16.110867 -0.752129
v 21.883392 17.224579 -4.772163
v 23.077354 29.201427 -5.605919
v 28.941208 26.719376 -1.891525
v 28.629608 23.886818 -6.905113
v 23.812881 24.957684 -10.366272
v 18.123077 25.144897 -7.013298
v 19.247398 26.655888 -1.006371
v 24.262543 26.108177 0.212067
v 25.250320 21.766792 -8.907051
v 26.700371 20.153120 -5.183868
v 28.179935 17.978136 -9.241959
v 25.689430 18.695219 -11.255020
v 21.526276 19.098200 -10.667381
v 20.770920 20.350271 -6.982178
v 23.414024 19.959587 -5.033157
v 22.600113 19.258780 -5.537865
v 22.853416 19.258780 -3.758331
v 21.351898 19.258780 -4.361404
v -0.019226 -11.574672 -17.002769
v -1.617798 -11.574672 -18.530819
v -0.147110 22.872887 -15.975422
v -1.004868 22.872887 -16.795341
v -1.356155 22.872887 -15.774830
v -2.333519 -11.574672 -16.419083
v 4.451408 11.581814 -17.966393
v 1.749878 13.834153 -19.846676
v 1.949043 13.767562 -15.525269
v -1.469696 14.402253 -17.413055
v -0.317612 24.786423 -16.516109
v -3.116463 22.745480 -11.541771
v 0.987152 20.416321 -12.012478
v 3.622925 21.296875 -16.116108
v 0.625786 21.450817 -20.644684
v -4.258698 22.693275 -19.464039
v -5.044342 22.242905 -15.293575
v -0.393944 16.610779 -16.905090
v -1.844376 16.610779 -16.620831
v -1.413498 16.610779 -17.879669
v 0.137688 17.619003 0.925163
v 1.167328 17.619003 3.240509
v 2.423965 17.619003 1.193260
vt 0.177103 0.299713
vt 0.177103 0.299713
vt 0.177103 0.299713
vt 0.177103 0.299713
vt 0.177103 0.299713
vt 0.177103 0.299713
vt 0.177103 0.299713
vt 0.177103 0.299713
vt 0.176088 0.276370
vt 0.176088 0.276370
vt 0.176088 0.276370
vt 0.176088 0.276370
vt 0.176088 0.276370
vt 0.176088 0.276370
vt 0.176088 0.276370
vt 0.176088 0.276370
vt 0.176088 0.276370
vt 0.176088 0.276370
vt 0.176088 0.276370
vt 0.176088 0.276370
vt 0.070537 0.379891
vt 0.070537 0.379891
vt 0.070537 0.379891
vt 0.070537 0.379891
vt 0.070537 0.379891
vt 0.070537 0.379891
vt 0.070537 0.379891
vt 0.070537 0.379891
vt 0.070537 0.379891
vt 0.070537 0.379891
vt 0.070537 0.379891
vt 0.070537 0.379891
vt 0.070537 0.379891
vt 0.070537 0.379891
vt 0.070537 0.379891
vt 0.070537 0.379891
vt 0.070537 0.379891
vt 0.070537 0.379891
vt 0.070537 0.379891
vt 0.070537 0.379891
vt 0.070537 0.379891
vt 0.070537 0.379891
vt 0.070537 0.379891
vt 0.070537 0.379891
vt 0.070537 0.379891
vt 0.070537 0.379891
vt 0.070537 0.379891
vt 0.070537 0.379891
vt 0.070537 0.379891
vt 0.070537 0.379891
vt 0.177103 0.299713
vt 0.177103 0.299713
vt 0.177103 0.299713
vt 0.177103 0.299713
vt 0.177103 0.299713
vt 0.177103 0.299713
vt 0.177103 0.299713
vt 0.177103 0.299713
vt 0.176088 0.276370
vt 0.176088 0.276370
vt 0.176088 0.276370
vt 0.070537 0.379891
vt 0.070537 0.379891
vt 0.070537 0.379891
vt 0.070537 0.379891
vt 0.070537 0.379891
vt 0.070537 0.379891
vt 0.070537 0.379891
vt 0.070537 0.379891
vt 0.070537 0.379891
vt 0.070537 0.379891
vt 0.176088 0.276370
vt 0.177103 0.299713
vt 0.177103 0.299713
vt 0.177103 0.299713
vt 0.177103 0.299713
vt 0.177103 0.299713
vt 0.177103 0.299713
vt 0.177103 0.299713
vt 0.177103 0.299713
vt 0.177103 0.299713
vt 0.177103 0.299713
vt 0.177103 0.299713
vt 0.177103 0.299713
vt 0.176088 0.276370
vt 0.176088 0.276370
vt 0.176088 0.276370
vt 0.176088 0.276370
vt 0.176088 0.276370
vt 0.176088 0.276370
vt 0.176088 0.276370
vt 0.176088 0.276370
vt 0.176088 0.276370
vt 0.070537 0.379891
vt 0.070537 0.379891
vt 0.070537 0.379891
vt 0.070537 0.379891
vt 0.070537 0.379891
vt 0.070537 0.379891
vt 0.070537 0.379891
vt 0.070537 0.379891
vt 0.070537 0.379891
vt 0.070537 0.379891
vt 0.070537 0.379891
vt 0.070537 0.379891
vt 0.070537 0.379891
vt 0.070537 0.379891
vt 0.070537 0.379891
vt 0.070537 0.379891
vt 0.070537 0.379891
vt 0.070537 0.379891
vt 0.070537 0.379891
vt 0.070537 0.379891
vt 0.176088 0.276370
vt 0.176088 0.276370
vt 0.176088 0.276370
vt 0.177103 0.299713
vt 0.177103 0.299713
vt 0.177103 0.299713
vt 0.177103 0.299713
vt 0.177103 0.299713
vt 0.177103 0.299713
vt 0.177103 0.299713
vt 0.177103 0.299713
vt 0.176088 0.276370
vt 0.176088 0.276370
vt 0.176088 0.276370
vt 0.176088 0.276370
vt 0.176088 0.276370
vt 0.176088 0.276370
vt 0.070537 0.379891
vt 0.070537 0.379891
vt 0.070537 0.379891
vt 0.070537 0.379891
vt 0.070537 0.379891
vt 0.070537 0.379891
vt 0.070537 0.379891
vt 0.070537 0.379891
vt 0.070537 0.379891
vt 0.070537 0.379891
vt 0.070537 0.379891
vt 0.070537 0.379891
vt 0.070537 0.379891
vt 0.070537 0.379891
vt 0.070537 0.379891
vt 0.070537 0.379891
vt 0.070537 0.379891
vt 0.070537 0.379891
vt 0.070537 0.379891
vt 0.070537 0.379891
vt 0.176088 0.276370
vt 0.176088 0.276370
vt 0.177103 0.299713
vt 0.177103 0.299713
vt 0.177103 0.299713
vt 0.177103 0.299713
vt 0.177103 0.299713
vt 0.177103 0.299713
vt 0.177103 0.299713
vt 0.177103 0.299713
vt 0.177103 0.299713
vt 0.177103 0.299713
vt 0.177103 0.299713
vt 0.177103 0.299713
vt 0.176088 0.276370
vt 0.176088 0.276370
vt 0.176088 0.276370
vt 0.070537 0.379891
vt 0.070537 0.379891
vt 0.070537 0.379891
vt 0.070537 0.379891
vt 0.070537 0.379891
vt 0.070537 0.379891
vt 0.070537 0.379891
vt 0.070537 0.379891
vt 0.070537 0.379891
vt 0.070537 0.379891
vt 0.176088 0.276370
vt 0.177103 0.299713
vt 0.177103 0.299713
vt 0.177103 0.299713
vt 0.177103 0.299713
vt 0.177103 0.299713
vt 0.177103 0.299713
vt 0.177103 0.299713
vt 0.177103 0.299713
vn 0.757523 0.021519 -0.652454
vn 0.757523 0.021519 -0.652454
vn 0.757523 0.021519 -0.652454
vn 0.757523 0.021519 -0.652454
vn -0.910621 0.026160 -0.412413
vn -0.910621 0.026160 -0.412413
vn -0.910621 0.026160 -0.412413
vn -0.910621 0.026160 -0.412413
vn 0.121790 0.002506 0.992553
vn 0.121790 0.002506 0.992553
vn 0.121790 0.002506 0.992553
vn 0.121790 0.002506 0.992553
vn 0.286209 0.957807 0.026265
vn 0.286209 0.957807 0.026265
vn 0.286209 0.957807 0.026265
vn -0.306990 0.951128 0.033355
vn -0.306990 0.951128 0.033355
vn -0.306990 0.951128 0.033355
vn 0.004732 0.682773 -0.730615
vn 0.004732 0.682773 -0.730615
vn 0.004732 0.682773 -0.730615
vn -0.455621 0.888076 0.061072
vn -0.455621 0.888076 0.061072
vn -0.455621 0.888076 0.061072
vn 0.669267 0.664426 -0.332596
vn 0.669267 0.664426 -0.332596
vn 0.669267 0.664426 -0.332596
vn 0.420026 0.691055 0.588236
vn 0.420026 0.691055 0.588236
vn 0.420026 0.691055 0.588236
vn 0.118448 0.780823 -0.613421
vn 0.118448 0.780823 -0.613421
vn 0.118448 0.780823 -0.613421
vn -0.467922 0.883135 -0.033491
vn -0.467922 0.883135 -0.033491
vn -0.467922 0.883135 -0.033491
vn 0.495980 0.669386 0.553106
vn 0.495980 0.669386 0.553106
vn 0.495980 0.669386 0.553106
vn 0.038490 0.967404 -0.250297
vn 0.038490 0.967404 -0.250297
vn 0.038490 0.967404 -0.250297
vn 0.937598 0.342445 0.060337
vn 0.937598 0.342445 0.060337
vn 0.937598 0.342445 0.060337
vn 0.153687 0.685601 0.711570
vn 0.153687 0.685601 0.711570
vn 0.153687 0.685601 0.711570
vn 0.751293 0.565705 -0.339907
vn 0.751293 0.565705 -0.339907
vn 0.751293 0.565705 -0.339907
vn 0.096336 0.942708 -0.319407
vn 0.096336 0.942708 -0.319407
vn 0.096336 0.942708 -0.319407
vn 0.621858 0.430143 0.654423
vn 0.621858 0.430143 0.654423
vn 0.621858 0.430143 0.654423
vn -0.840644 0.489243 -0.232291
vn -0.840644 0.489243 -0.232291
vn -0.840644 0.489243 -0.232291
vn 0.271515 0.959784 -0.071382
vn 0.271515 0.959783 -0.071382
vn 0.271515 0.959784 -0.071382
vn -0.454871 0.657304 0.600869
vn -0.454871 0.657304 0.600869
vn -0.454871 0.657304 0.600869
vn -0.132231 0.824995 -0.549452
vn -0.132231 0.824995 -0.549452
vn -0.132231 0.824995 -0.549452
vn -0.816386 0.497752 -0.292843
vn -0.816386 0.497752 -0.292843
vn -0.816386 0.497752 -0.292843
vn -0.077316 0.834576 0.545440
vn -0.077316 0.834576 0.545440
vn -0.077316 0.834576 0.545440
vn 0.670151 0.727849 -0.145371
vn 0.670151 0.727849 -0.145371
vn 0.670151 0.727849 -0.145371
vn -0.001604 0.408570 -0.912725
vn -0.001604 0.408570 -0.912725
vn -0.001604 0.408570 -0.912725
vn -0.749993 0.661199 0.018068
vn -0.749993 0.661199 0.018068
vn -0.749993 0.661199 0.018068
vn -0.987193 0.013829 0.158928
vn -0.987193 0.013829 0.158928
vn -0.987193 0.013829 0.158928
vn -0.987193 0.013829 0.158928
vn 0.560074 0.016811 0.828272
vn 0.560074 0.016811 0.828272
vn 0.560074 0.016811 0.828272
vn 0.560074 0.016811 0.828272
vn 0.409348 0.001589 -0.912377
vn 0.409348 0.001589 -0.912377
vn 0.409349 0.001589 -0.912377
vn 0.409348 0.001589 -0.912377
vn -0.138369 0.983855 -0.113503
vn -0.138369 0.983855 -0.113503
vn -0.138369 0.983855 -0.113503
vn 0.424778 0.886856 0.181794
vn 0.424778 0.886856 0.181794
vn 0.424778 0.886856 0.181794
vn -0.741672 0.667483 -0.066252
vn -0.741672 0.667483 -0.066252
vn -0.741672 0.667483 -0.066252
vn -0.036923 0.700121 -0.713069
vn -0.036923 0.700121 -0.713069
vn -0.036923 0.700121 -0.713069
vn -0.413935 0.782354 0.465382
vn -0.413935 0.782354 0.465382
vn -0.413935 0.782354 0.465382
vn 0.380429 0.881243 0.280508
vn 0.380429 0.881243 0.280508
vn 0.380429 0.881243 0.280508
vn -0.136425 0.674445 -0.725611
vn -0.136425 0.674445 -0.725611
vn -0.136425 0.674445 -0.725612
vn -0.527189 0.761709 -0.376657
vn -0.527189 0.761709 -0.376657
vn -0.527189 0.761709 -0.376657
vn 0.446114 -0.148346 -0.882596
vn 0.446114 -0.148346 -0.882596
vn 0.446114 -0.148346 -0.882596
vn 0.446114 -0.148346 -0.882596
vn 0.554113 0.116952 0.824185
vn 0.554113 0.116952 0.824185
vn 0.554113 0.116952 0.824185
vn 0.554113 0.116952 0.824185
vn -0.984137 0.079824 0.158436
vn -0.984137 0.079824 0.158436
vn -0.984137 0.079824 0.158436
vn -0.984137 0.079824 0.158436
vn 0.852212 0.009828 0.523104
vn 0.852212 0.009828 0.523104
vn 0.852212 0.009828 0.523104
vn 0.852212 0.009828 0.523104
vn 0.116280 0.152564 -0.981429
vn 0.116280 0.152563 -0.981429
vn 0.116280 0.152563 -0.981429
vn 0.116280 0.152563 -0.981429
vn -0.912553 -0.141985 0.383519
vn -0.912553 -0.141985 0.383519
vn -0.912553 -0.141985 0.383519
vn -0.912553 -0.141985 0.383519
vn 0.062089 0.957807 0.280625
vn 0.062089 0.957807 0.280625
vn 0.062089 0.957807 0.280625
vn -0.125206 0.951128 -0.282274
vn -0.125206 0.951128 -0.282274
vn -0.125206 0.951128 -0.282274
vn 0.193996 0.976870 -0.089942
vn 0.193996 0.976870 -0.089942
vn 0.193996 0.976870 -0.089942
vn -0.196844 0.888076 -0.415419
vn -0.196844 0.888076 -0.415419
vn -0.196844 0.888076 -0.415419
vn 0.520510 0.664427 0.536289
vn 0.520510 0.664427 0.536289
vn 0.520510 0.664427 0.536289
vn -0.432494 0.691055 0.579130
vn -0.432494 0.691055 0.579130
vn -0.432494 0.691055 0.579130
vn 0.620370 0.780823 -0.073866
vn 0.620370 0.780823 -0.073866
vn 0.620370 0.780823 -0.073866
vn -0.110510 0.883135 -0.455916
vn -0.110510 0.883135 -0.455916
vn -0.110510 0.883135 -0.455916
vn -0.375914 0.669385 0.640790
vn -0.375914 0.669385 0.640790
vn -0.375914 0.669385 0.640790
vn 0.250138 0.967404 -0.039514
vn 0.250138 0.967404 -0.039514
vn 0.250138 0.967404 -0.039514
vn 0.227884 0.342443 0.911483
vn 0.227884 0.342443 0.911483
vn 0.227884 0.342443 0.911483
vn -0.631038 0.685601 0.362963
vn -0.631038 0.685601 0.362963
vn -0.631038 0.685601 0.362963
vn 0.552440 0.565706 0.612199
vn 0.552440 0.565706 0.612199
vn 0.552440 0.565706 0.612199
vn 0.333574 0.942708 -0.005446
vn 0.333574 0.942708 -0.005446
vn 0.333574 0.942708 -0.005446
vn -0.434112 0.430141 0.791534
vn -0.434112 0.430141 0.791534
vn -0.434112 0.430141 0.791534
vn 0.342436 0.727849 0.594115
vn 0.342436 0.727849 0.594115
vn 0.342436 0.727850 0.594115
vn 0.563934 0.805392 -0.182543
vn 0.563934 0.805392 -0.182543
vn 0.563934 0.805392 -0.182543
vn -0.245473 0.661199 -0.708914
vn -0.245473 0.661199 -0.708914
vn -0.245473 0.661199 -0.708914
vn -0.685823 0.012996 -0.727652
vn -0.685823 0.012996 -0.727652
vn -0.685823 0.012996 -0.727652
vn -0.685823 0.012996 -0.727652
vn -0.370908 0.015799 0.928535
vn -0.370908 0.015799 0.928535
vn -0.370908 0.015799 0.928535
vn -0.370908 0.015799 0.928535
vn 0.984821 0.001493 -0.173567
vn 0.984821 0.001493 -0.173567
vn 0.984821 0.001493 -0.173567
vn 0.984821 0.001493 -0.173567
vn 0.247915 0.956011 -0.156784
vn 0.247915 0.956011 -0.156784
vn 0.247915 0.956011 -0.156784
vn 0.044963 0.955503 0.291535
vn 0.044963 0.955503 0.291535
vn 0.044963 0.955503 0.291535
vn 0.088078 0.886856 0.453573
vn 0.088078 0.886856 0.453573
vn 0.088078 0.886856 0.453573
vn -0.361622 0.667483 -0.650920
vn -0.361622 0.667483 -0.650920
vn -0.361622 0.667483 -0.650919
vn 0.569319 0.700121 -0.430936
vn 0.569319 0.700121 -0.430936
vn 0.569319 0.700121 -0.430936
vn -0.617516 0.782354 -0.081214
vn -0.617516 0.782354 -0.081214
vn -0.617516 0.782354 -0.081214
vn -0.018504 0.881244 0.472300
vn -0.018504 0.881244 0.472300
vn -0.018504 0.881244 0.472300
vn 0.523828 0.674445 -0.520315
vn 0.523828 0.674446 -0.520315
vn 0.523828 0.674446 -0.520315
vn -0.034954 0.911930 0.408854
vn -0.034954 0.911930 0.408854
vn -0.034954 0.911930 0.408854
vn -0.054279 0.601502 -0.797025
vn -0.054279 0.601502 -0.797025
vn -0.054279 0.601502 -0.797025
vn 0.788639 0.613470 -0.041263
vn 0.788639 0.613470 -0.041263
vn 0.788639 0.613470 -0.041263
vn -0.420393 0.829384 -0.367957
vn -0.420393 0.829384 -0.367957
vn -0.420393 0.829384 -0.367957
vn -0.133873 0.920880 0.366140
vn -0.133873 0.920880 0.366140
vn -0.133873 0.920880 0.366140
vn 0.619996 0.530517 -0.578063
vn 0.619996 0.530517 -0.578063
vn 0.619996 0.530517 -0.578063
vn 0.517346 0.722473 -0.458679
vn 0.517346 0.722473 -0.458679
vn 0.517346 0.722473 -0.458679
vn 0.050480 0.679779 0.731678
vn 0.050480 0.679779 0.731678
vn 0.050480 0.679779 0.731678
vn 0.980821 -0.148346 -0.126429
vn 0.980821 -0.148346 -0.126429
vn 0.980821 -0.148346 -0.126429
vn 0.980821 -0.148346 -0.126429
vn -0.370864 0.116951 0.921294
vn -0.370864 0.116951 0.921294
vn -0.370864 0.116951 0.921294
vn -0.370864 0.116951 0.921294
vn -0.683692 0.079824 -0.725392
vn -0.683692 0.079824 -0.725392
vn -0.683692 0.079824 -0.725392
vn -0.683692 0.079824 -0.725392
vn 0.690936 0.011691 -0.722822
vn 0.690936 0.011691 -0.722822
vn 0.690936 0.011691 -0.722822
vn 0.690936 0.011691 -0.722822
vn -0.946626 0.014212 -0.322022
vn -0.946626 0.014212 -0.322022
vn -0.946625 0.014212 -0.322022
vn -0.946626 0.014212 -0.322022
vn 0.224654 0.001343 0.974438
vn 0.224654 0.001343 0.974438
vn 0.224654 0.001343 0.974438
vn 0.224654 0.001343 0.974438
vn 0.178833 0.983855 0.006919
vn 0.178833 0.983855 0.006919
vn 0.178833 0.983855 0.006919
vn -0.448366 0.886856 0.111595
vn -0.448366 0.886856 0.111595
vn -0.448366 0.886856 0.111595
vn 0.631191 0.667483 -0.395050
vn 0.631191 0.667483 -0.395050
vn 0.631191 0.667483 -0.395050
vn 0.460019 0.700121 0.546089
vn 0.460019 0.700121 0.546089
vn 0.460019 0.700121 0.546089
vn 0.048924 0.782354 -0.620909
vn 0.048924 0.782354 -0.620910
vn 0.048924 0.782354 -0.620909
vn -0.472623 0.881243 0.006132
vn -0.472623 0.881243 0.006132
vn -0.472623 0.881243 0.006132
vn 0.546907 0.674445 0.496001
vn 0.546907 0.674445 0.496001
vn 0.546907 0.674445 0.496001
vn 0.647664 0.761710 -0.018113
vn 0.647664 0.761710 -0.018113
vn 0.647664 0.761710 -0.018113
vn 0.177370 -0.148347 0.972899
vn 0.177370 -0.148347 0.972899
vn 0.177370 -0.148347 0.972899
vn 0.177370 -0.148347 0.972899
vn -0.939369 0.116950 -0.322347
vn -0.939369 0.116950 -0.322347
vn -0.939369 0.116950 -0.322347
vn -0.939369 0.116950 -0.322347
vn 0.688778 0.079825 -0.720564
vn 0.688778 0.079825 -0.720564
vn 0.688778 0.079825 -0.720564
vn 0.688778 0.079825 -0.720564
vn -0.902470 0.008122 0.430675
vn -0.902470 0.008122 0.430675
vn -0.902470 0.008122 0.430675
vn -0.902470 0.008122 0.430675
vn 0.850484 0.064393 0.522044
vn 0.850484 0.064393 0.522044
vn 0.850484 0.064393 0.522044
vn 0.850484 0.064393 0.522044
vn 0.114963 -0.007702 -0.993340
vn 0.114963 -0.007702 -0.993340
vn 0.114963 -0.007702 -0.993340
vn 0.114963 -0.007702 -0.993340
s off
f 1/1/1 2/2/2 4/4/3 3/3/4
f 2/2/5 6/7/6 5/8/7 4/4/8
f 6/6/9 1/1/10 3/3/11 5/5/12
f 9/12/13 8/9/14 10/11/15
f 13/16/16 12/13/17 14/15/18
f 17/20/19 16/17/20 18/19/21
f 25/21/22 20/22/23 19/23/24
f 22/24/25 23/25/26 19/23/27
f 20/26/28 21/27/29 19/28/30
f 23/25/31 24/29/32 19/23/33
f 24/29/34 25/21/35 19/23/36
f 21/27/37 22/30/38 19/28/39
f 32/31/40 27/32/41 26/33/42
f 29/34/43 30/35/44 26/33/45
f 27/36/46 28/37/47 26/38/48
f 30/35/49 31/39/50 26/33/51
f 31/39/52 32/31/53 26/33/54
f 28/37/55 29/40/56 26/38/57
f 39/41/58 34/42/59 33/43/60
f 36/44/61 37/45/62 33/43/63
f 34/46/64 35/47/65 33/48/66
f 37/45/67 38/49/68 33/43/69
f 38/49/70 39/41/71 33/43/72
f 35/47/73 36/50/74 33/48/75
f 7/10/76 8/9/77 9/12/78
f 15/18/79 16/17/80 17/20/81
f 11/14/82 12/13/83 13/16/84
f 40/51/85 41/52/86 59/53/87 57/54/88
f 41/52/89 45/55/90 58/56/91 59/53/92
f 45/57/93 40/51/94 57/54/95 58/58/96
f 48/59/97 47/60/98 49/61/99
f 56/62/100 51/63/101 50/64/102
f 53/65/103 54/66/104 50/64/105
f 51/67/106 52/68/107 50/69/108
f 54/66/109 55/70/110 50/64/111
f 55/70/112 56/62/113 50/64/114
f 52/68/115 53/71/116 50/69/117
f 46/72/118 47/60/119 48/59/120
f 58/58/121 57/54/122 42/73/123 44/74/124
f 59/53/125 58/56/126 44/75/127 43/76/128
f 57/54/129 59/53/130 43/76/131 42/73/132
f 144/77/133 145/78/134 63/79/135 62/80/136
f 145/78/137 143/81/138 64/82/139 63/79/140
f 143/83/141 144/77/142 62/80/143 64/84/144
f 68/85/145 67/86/146 69/87/147
f 72/88/148 71/89/149 73/90/150
f 76/91/151 75/92/152 77/93/153
f 84/94/154 79/95/155 78/96/156
f 81/97/157 82/98/158 78/96/159
f 79/99/160 80/100/161 78/101/162
f 82/98/163 83/102/164 78/96/165
f 83/102/166 84/94/167 78/96/168
f 80/100/169 81/103/170 78/101/171
f 91/104/172 86/105/173 85/106/174
f 88/107/175 89/108/176 85/106/177
f 86/109/178 87/110/179 85/111/180
f 89/108/181 90/112/182 85/106/183
f 90/112/184 91/104/185 85/106/186
f 87/110/187 88/113/188 85/111/189
f 66/114/190 67/86/191 68/85/192
f 74/115/193 75/92/194 76/91/195
f 70/116/196 71/89/197 72/88/198
f 92/117/199 93/118/200 122/119/201 120/120/202
f 93/118/203 97/121/204 121/122/205 122/119/206
f 97/123/207 92/117/208 120/120/209 121/124/210
f 100/125/211 99/126/212 101/127/213
f 104/128/214 103/129/215 105/130/216
f 112/131/217 107/132/218 106/133/219
f 109/134/220 110/135/221 106/133/222
f 107/136/223 108/137/224 106/138/225
f 110/135/226 111/139/227 106/133/228
f 111/139/229 112/131/230 106/133/231
f 108/137/232 109/140/233 106/138/234
f 119/141/235 114/142/236 113/143/237
f 116/144/238 117/145/239 113/143/240
f 114/146/241 115/147/242 113/148/243
f 117/145/244 118/149/245 113/143/246
f 118/149/247 119/141/248 113/143/249
f 115/147/250 116/150/251 113/148/252
f 98/151/253 99/126/254 100/125/255
f 102/152/256 103/129/257 104/128/258
f 121/124/259 120/120/260 94/153/261 96/154/262
f 122/119/263 121/122/264 96/155/265 95/156/266
f 120/120/267 122/119/268 95/156/269 94/153/270
f 123/157/271 124/158/272 142/159/273 140/160/274
f 124/158/275 128/161/276 141/162/277 142/159/278
f 128/163/279 123/157/280 140/160/281 141/164/282
f 131/165/283 130/166/284 132/167/285
f 139/168/286 134/169/287 133/170/288
f 136/171/289 137/172/290 133/170/291
f 134/173/292 135/174/293 133/175/294
f 137/172/295 138/176/296 133/170/297
f 138/176/298 139/168/299 133/170/300
f 135/174/301 136/177/302 133/175/303
f 129/178/304 130/166/305 131/165/306
f 141/164/307 140/160/308 125/179/309 127/180/310
f 142/159/311 141/162/312 127/181/313 126/182/314
f 140/160/315 142/159/316 126/182/317 125/179/318
f 65/183/319 60/184/320 144/77/321 143/83/322
f 60/184/323 61/185/324 145/78/325 144/77/326
f 61/185/327 65/186/328 143/81/329 145/78/330
