# This file uses centimeters as units for non-parametric coordinates.

v -150.000000 -124.810875 150.000000
v 150.000000 -124.810875 150.000000
v -150.000000 124.810875 149.999985
v 150.000000 124.810875 149.999985
v -150.000000 274.810852 -149.999985
v 150.000000 274.810852 -150.000000
v -150.000000 25.189129 -150.000000
v 150.000000 25.189129 -149.999969
v -150.000000 240.471313 -68.012589
v 137.410751 233.596161 -71.324219
v 150.000000 3.358485 -60.842552
v -150.000000 2.340020 -57.702297
v -143.848770 193.025681 8.670165
v 150.000000 201.968689 12.977841
v 150.000000 -60.645554 20.961250
v -150.000000 -59.710915 18.079466
v -150.000000 169.421570 80.547684
v 137.410751 162.546432 77.236053
v 150.000000 -67.691254 87.717720
v -150.000000 -68.709717 90.857979
v 75.000000 299.999969 -149.999985
v 75.000000 251.944016 -62.486408
v 75.000000 224.662354 23.908957
v 75.000000 180.894302 86.073868
v 75.000000 149.999985 149.999985
v -0.000009 299.999969 -149.999985
v -0.000009 263.164978 -57.081486
v -0.000009 224.662354 23.908957
v -0.000009 180.894302 86.073868
v -0.000009 149.999985 149.999985
v -75.000000 300.000031 -150.000031
v -75.000000 251.944016 -62.486408
v -75.000000 224.662354 23.908957
v -97.992500 181.904434 86.560440
v -75.000000 149.999985 149.999985
v -75.000000 -0.000003 -149.999985
v -111.302658 -45.610348 -71.317268
v -75.000000 -92.169571 4.786808
v -111.576103 -129.869705 66.406143
v -75.000000 -150.000000 150.000000
v 0.000018 -0.000018 -149.999954
v 0.000009 -60.527180 -58.594501
v 0.000009 -92.356255 5.362381
v 0.000009 -130.936798 68.732689
v 0.000009 -150.000000 150.000000
v 75.000000 -0.000003 -149.999985
v 109.167000 -44.623199 -73.637459
v 75.000000 -92.356255 5.362381
v 98.182808 -132.699432 72.081284
v 75.000000 -150.000000 150.000000
v -150.000000 225.000000 -150.000000
v -141.558044 190.058548 -80.761391
v -150.000000 155.197144 -2.794087
v -141.558044 119.008812 67.798882
v -150.000000 75.000000 150.000000
v -150.000000 149.999985 -150.000000
v -141.558044 109.401871 -72.957664
v -150.000000 75.836624 1.013099
v -150.000000 41.253799 74.859787
v -150.000000 -0.000011 150.000000
v -150.000000 74.999992 -149.999985
v -150.000000 29.363901 -58.857624
v -150.000000 -7.353815 16.629395
v -141.558044 -44.460201 90.053024
v -150.000000 -75.000000 150.000000
v 150.000000 74.999992 -150.000031
v 144.021469 31.080843 -63.079758
v 150.000000 -9.138718 22.132803
v 144.021469 -39.968891 85.480515
v 150.000000 -75.000000 150.000000
v 150.000000 150.000015 -150.000031
v 150.000000 113.760307 -78.192154
v 144.021469 74.141724 7.310886
v 150.000000 42.710575 70.368126
v 150.000000 0.000011 149.999985
v 150.000000 225.000000 -150.000000
v 144.021469 193.810440 -83.054108
v 150.000000 154.229660 0.188947
v 144.021469 122.760704 65.506180
v 150.000000 75.000000 150.000015
v -93.621040 -143.593155 102.345802
v 0.000009 -143.436752 100.547508
v 84.550537 -146.714355 112.803894
v -124.454033 -2.775071 -90.516403
v -94.191261 -19.970798 -118.616043
v 0.000013 -24.411970 -109.235085
v 90.344772 -17.035492 -126.464523
v 127.683701 4.186440 -101.507988
vt 0.254707 0.326553
vt 0.254707 0.326553
vt 0.254707 0.326554
vt 0.254707 0.326554
vt 0.254707 0.326553
vt 0.254707 0.326553
vt 0.254707 0.326553
vt 0.254707 0.326553
vt 0.254707 0.326553
vt 0.254707 0.326553
vt 0.254707 0.326553
vt 0.254707 0.326554
vt 0.254707 0.326553
vt 0.254707 0.326554
vt 0.254707 0.326553
vt 0.254707 0.326554
vt 0.254707 0.326554
vt 0.254707 0.326553
vt 0.254707 0.326553
vt 0.254707 0.326553
vt 0.254707 0.326553
vt 0.254707 0.326553
vt 0.254707 0.326554
vt 0.254707 0.326554
vt 0.254707 0.326554
vt 0.254707 0.326554
vt 0.254707 0.326553
vt 0.254707 0.326553
vt 0.254707 0.326553
vt 0.254707 0.326553
vt 0.254707 0.326554
vt 0.254707 0.326554
vt 0.254707 0.326554
vt 0.254707 0.326554
vt 0.254707 0.326553
vt 0.254707 0.326553
vt 0.254707 0.326553
vt 0.254707 0.326553
vt 0.254707 0.326553
vt 0.254707 0.326553
vt 0.254707 0.326554
vt 0.254707 0.326554
vt 0.254707 0.326554
vt 0.254707 0.326553
vt 0.254707 0.326553
vt 0.254707 0.326554
vt 0.254707 0.326554
vt 0.254707 0.326554
vt 0.254707 0.326553
vt 0.254707 0.326553
vt 0.254707 0.326554
vt 0.254707 0.326554
vt 0.254707 0.326554
vt 0.254707 0.326553
vt 0.254707 0.326553
vt 0.254707 0.326553
vt 0.254707 0.326553
vt 0.254707 0.326553
vt 0.254707 0.326553
vt 0.254707 0.326553
vt 0.254707 0.326553
vt 0.254707 0.326553
vt 0.254707 0.326553
vt 0.254707 0.326553
vt 0.254707 0.326553
vt 0.254707 0.326553
vt 0.254707 0.326553
vt 0.254707 0.326553
vt 0.254707 0.326553
vt 0.254707 0.326553
vt 0.254707 0.326553
vt 0.254707 0.326553
vt 0.254707 0.326553
vt 0.254707 0.326553
vt 0.254707 0.326553
vt 0.254707 0.326553
vt 0.254707 0.326553
vt 0.254707 0.326553
vt 0.254707 0.326553
vt 0.254707 0.326553
vt 0.254707 0.326553
vt 0.254707 0.326553
vt 0.254707 0.326553
vt 0.254707 0.326553
vt 0.254707 0.326553
vt 0.254707 0.326553
vt 0.254707 0.326553
vt 0.254707 0.326553
vt 0.254707 0.326553
vt 0.254707 0.326553
vt 0.254707 0.326553
vt 0.254707 0.326553
vt 0.254707 0.326553
vt 0.254707 0.326553
vt 0.254707 0.326553
vt 0.254707 0.326553
vt 0.254707 0.326553
vt 0.254707 0.326553
vt 0.254707 0.326553
vt 0.254707 0.326553
vt 0.254707 0.326553
vt 0.254707 0.326553
vt 0.254707 0.326553
vt 0.254707 0.326553
vt 0.254707 0.326553
vt 0.254707 0.326553
vn 0.266056 -0.814762 -0.515148
vn 0.266056 -0.814762 -0.515148
vn 0.266056 -0.814762 -0.515148
vn 0.266056 -0.814762 -0.515148
vn -0.400634 0.899296 0.175382
vn -0.400633 0.899296 0.175382
vn -0.400634 0.899296 0.175382
vn -0.748453 0.488764 0.448250
vn -0.748453 0.488764 0.448250
vn -0.748453 0.488764 0.448250
vn -0.993937 -0.082806 0.072337
vn -0.993937 -0.082806 0.072337
vn -0.993937 -0.082806 0.072337
vn -0.993937 -0.082806 0.072337
vn 0.993479 -0.113375 -0.012058
vn 0.993479 -0.113375 -0.012058
vn 0.993479 -0.113375 -0.012058
vn 0.993479 -0.113375 -0.012058
vn 0.229620 -0.875339 -0.425508
vn 0.229620 -0.875339 -0.425508
vn 0.229620 -0.875339 -0.425508
vn 0.229620 -0.875339 -0.425508
vn -0.986942 -0.052901 -0.152145
vn -0.986942 -0.052901 -0.152145
vn -0.986942 -0.052901 -0.152145
vn -0.986942 -0.052901 -0.152145
vn -0.424281 0.817042 0.390419
vn -0.424281 0.817042 0.390419
vn -0.424281 0.817042 0.390419
vn -0.424281 0.817042 0.390419
vn -0.369262 0.902660 0.221021
vn -0.369262 0.902660 0.221021
vn -0.369262 0.902660 0.221021
vn 1.000000 0.000000 0.000000
vn 1.000000 0.000000 0.000000
vn 1.000000 0.000000 0.000000
vn 1.000000 0.000000 0.000000
vn 0.315627 -0.858066 -0.405097
vn 0.315627 -0.858066 -0.405097
vn 0.315627 -0.858066 -0.405097
vn 0.315627 -0.858065 -0.405097
vn -0.993064 -0.094576 0.069858
vn -0.993064 -0.094576 0.069858
vn -0.993064 -0.094576 0.069858
vn -0.993064 -0.094576 0.069858
vn -0.424888 0.844350 0.326409
vn -0.424888 0.844350 0.326409
vn -0.424888 0.844350 0.326409
vn -0.745509 0.524919 0.410701
vn -0.745510 0.524919 0.410701
vn -0.745510 0.524919 0.410701
vn 1.000000 -0.000000 0.000000
vn 1.000000 -0.000000 0.000000
vn 1.000000 -0.000000 0.000000
vn 1.000000 -0.000000 0.000000
vn 0.374769 -0.861102 -0.343587
vn 0.374769 -0.861102 -0.343587
vn 0.374769 -0.861102 -0.343587
vn 0.374769 -0.861102 -0.343587
vn -0.986975 -0.030285 -0.157999
vn -0.986975 -0.030285 -0.157999
vn -0.986975 -0.030285 -0.157999
vn -0.986975 -0.030285 -0.157999
vn -0.417494 0.706055 0.572000
vn -0.417494 0.706056 0.572000
vn -0.417494 0.706056 0.572000
vn -0.787864 0.612448 0.064640
vn -0.787864 0.612448 0.064640
vn -0.787864 0.612448 0.064640
vn 0.989433 -0.111753 -0.092373
vn 0.989433 -0.111753 -0.092373
vn 0.989433 -0.111753 -0.092373
vn 0.989433 -0.111753 -0.092373
vn -0.293983 -0.832559 -0.469489
vn -0.293983 -0.832559 -0.469489
vn -0.293983 -0.832559 -0.469489
vn -0.293983 -0.832559 -0.469489
vn -0.311922 -0.904987 -0.289314
vn -0.311922 -0.904987 -0.289314
vn -0.311922 -0.904987 -0.289314
vn -0.311922 -0.904987 -0.289314
vn -0.311035 -0.779413 -0.543850
vn -0.311036 -0.779413 -0.543850
vn -0.311035 -0.779413 -0.543850
vn -0.311035 -0.779413 -0.543850
vn -0.299662 -0.863394 -0.405897
vn -0.299662 -0.863394 -0.405897
vn -0.299662 -0.863394 -0.405897
vn -0.299662 -0.863394 -0.405897
vn -0.082744 -0.901751 -0.424262
vn -0.082744 -0.901751 -0.424262
vn -0.082744 -0.901751 -0.424262
vn -0.082744 -0.901751 -0.424262
vn -0.082520 -0.927529 -0.364528
vn -0.082520 -0.927529 -0.364528
vn -0.082520 -0.927529 -0.364528
vn -0.082520 -0.927529 -0.364528
vn 0.000000 -0.817668 -0.575690
vn 0.000000 -0.817668 -0.575690
vn 0.000000 -0.817668 -0.575690
vn 0.000000 -0.817668 -0.575690
vn 0.000000 -0.900367 -0.435131
vn 0.000000 -0.900367 -0.435131
vn 0.000000 -0.900367 -0.435131
vn 0.000000 -0.900367 -0.435131
vn 0.082744 -0.901751 -0.424262
vn 0.082744 -0.901751 -0.424262
vn 0.082744 -0.901751 -0.424262
vn 0.082744 -0.901751 -0.424262
vn 0.082520 -0.927529 -0.364528
vn 0.082520 -0.927529 -0.364528
vn 0.082520 -0.927529 -0.364528
vn 0.082520 -0.927529 -0.364528
vn -0.006400 -0.821270 -0.570504
vn -0.006400 -0.821270 -0.570504
vn -0.006400 -0.821270 -0.570505
vn -0.006400 -0.821270 -0.570504
vn -0.006481 -0.897348 -0.441275
vn -0.006481 -0.897348 -0.441275
vn -0.006481 -0.897348 -0.441275
vn -0.006481 -0.897348 -0.441275
vn 0.449383 0.867162 0.214674
vn 0.449383 0.867162 0.214674
vn 0.449383 0.867162 0.214674
vn 0.432038 0.809789 0.396971
vn 0.432038 0.809789 0.396970
vn 0.432038 0.809789 0.396970
vn 0.432038 0.809789 0.396971
vn 0.763333 0.499826 0.409263
vn 0.763333 0.499826 0.409263
vn 0.763333 0.499826 0.409263
vn 0.423462 0.848584 0.317152
vn 0.423462 0.848584 0.317152
vn 0.423462 0.848584 0.317152
vn 0.856275 0.512616 0.063383
vn 0.856275 0.512616 0.063383
vn 0.856275 0.512616 0.063383
vn 0.398101 0.658180 0.638995
vn 0.398101 0.658180 0.638995
vn 0.398101 0.658180 0.638995
vn 0.846916 0.385774 0.365939
vn 0.846916 0.385774 0.365939
vn 0.846916 0.385774 0.365939
vn 0.414870 0.899621 0.136253
vn 0.414870 0.899621 0.136253
vn 0.414870 0.899621 0.136253
vn -0.006602 0.852510 0.522670
vn -0.006602 0.852510 0.522670
vn -0.006602 0.852510 0.522670
vn -0.006602 0.852510 0.522670
vn 0.036703 0.876064 0.480796
vn 0.036703 0.876064 0.480796
vn 0.036703 0.876064 0.480796
vn 0.036703 0.876064 0.480796
vn -0.002357 0.853895 0.520439
vn -0.002357 0.853895 0.520439
vn -0.002357 0.853895 0.520439
vn -0.002357 0.853895 0.520439
vn 0.003213 0.932869 0.360202
vn 0.003213 0.932869 0.360202
vn 0.003213 0.932869 0.360202
vn 0.003213 0.932869 0.360202
vn 0.018540 0.842379 0.538566
vn 0.018540 0.842379 0.538566
vn 0.018540 0.842379 0.538566
vn 0.018540 0.842379 0.538566
vn -0.036576 0.876894 0.479291
vn -0.036576 0.876894 0.479291
vn -0.036576 0.876894 0.479291
vn -0.036576 0.876894 0.479291
vn -0.001332 0.854854 0.518868
vn -0.001332 0.854853 0.518868
vn -0.001332 0.854853 0.518868
vn -0.001332 0.854854 0.518868
vn -0.003359 0.939418 0.342758
vn -0.003359 0.939418 0.342758
vn -0.003359 0.939418 0.342758
vn -0.003359 0.939418 0.342758
vn 0.996166 0.085972 -0.016223
vn 0.996165 0.085972 -0.016223
vn 0.996166 0.085972 -0.016223
vn 0.996166 0.085972 -0.016223
vn 0.999506 0.019096 0.024968
vn 0.999506 0.019096 0.024968
vn 0.999506 0.019096 0.024968
vn 0.999506 0.019096 0.024968
vn 0.999619 0.027224 -0.004647
vn 0.999619 0.027224 -0.004647
vn 0.999619 0.027224 -0.004647
vn 0.999619 0.027224 -0.004647
vn 0.992736 0.071291 0.096921
vn 0.992736 0.071291 0.096921
vn 0.992736 0.071291 0.096921
vn 0.992736 0.071291 0.096921
vn 0.993036 -0.005899 -0.117664
vn 0.993036 -0.005899 -0.117664
vn 0.993036 -0.005899 -0.117664
vn 0.993036 -0.005899 -0.117664
vn 0.993432 0.008281 0.114123
vn 0.993432 0.008281 0.114123
vn 0.993432 0.008281 0.114123
vn 0.993432 0.008281 0.114123
vn 0.994410 -0.059466 -0.087256
vn 0.994409 -0.059466 -0.087256
vn 0.994410 -0.059466 -0.087256
vn 0.994410 -0.059466 -0.087256
vn 0.998243 -0.054046 0.024272
vn 0.998243 -0.054046 0.024272
vn 0.998243 -0.054046 0.024272
vn 0.998243 -0.054046 0.024272
vn 0.994769 -0.061579 -0.081506
vn 0.994769 -0.061579 -0.081505
vn 0.994769 -0.061579 -0.081505
vn 0.994769 -0.061579 -0.081505
vn 0.998359 -0.045240 0.035117
vn 0.998359 -0.045240 0.035117
vn 0.998359 -0.045240 0.035117
vn 0.998359 -0.045240 0.035117
vn 0.998408 0.043307 -0.036150
vn 0.998408 0.043307 -0.036150
vn 0.998408 0.043307 -0.036150
vn 0.998408 0.043307 -0.036150
vn 0.993638 0.061135 0.094586
vn 0.993638 0.061135 0.094586
vn 0.993638 0.061135 0.094586
vn 0.993638 0.061135 0.094586
vn -0.994912 -0.078537 -0.063108
vn -0.994912 -0.078537 -0.063108
vn -0.994912 -0.078537 -0.063108
vn -0.994912 -0.078537 -0.063108
vn -0.997089 -0.075391 -0.011355
vn -0.997089 -0.075391 -0.011355
vn -0.997089 -0.075391 -0.011355
vn -0.997089 -0.075391 -0.011355
vn -0.994800 -0.075979 -0.067832
vn -0.994800 -0.075979 -0.067832
vn -0.994800 -0.075979 -0.067832
vn -0.994800 -0.075979 -0.067832
vn -0.996979 -0.077137 -0.009052
vn -0.996979 -0.077137 -0.009052
vn -0.996979 -0.077137 -0.009052
vn -0.996979 -0.077137 -0.009052
vn -0.999162 0.036020 -0.019443
vn -0.999162 0.036020 -0.019443
vn -0.999162 0.036020 -0.019443
vn -0.999162 0.036020 -0.019443
vn -1.000000 -0.000000 -0.000000
vn -1.000000 -0.000000 -0.000000
vn -1.000000 -0.000000 -0.000000
vn -1.000000 -0.000000 -0.000000
vn -1.000000 0.000000 -0.000000
vn -1.000000 0.000000 -0.000000
vn -1.000000 0.000000 -0.000000
vn -1.000000 0.000000 -0.000000
vn -0.996907 0.044037 0.065095
vn -0.996907 0.044037 0.065095
vn -0.996907 0.044037 0.065095
vn -0.996907 0.044037 0.065095
vn -0.997220 -0.040414 -0.062608
vn -0.997220 -0.040414 -0.062608
vn -0.997220 -0.040414 -0.062608
vn -0.997220 -0.040414 -0.062608
vn -1.000000 0.000000 0.000000
vn -1.000000 0.000000 0.000000
vn -1.000000 0.000000 0.000000
vn -1.000000 0.000000 0.000000
vn -1.000000 0.000000 0.000000
vn -1.000000 0.000000 0.000000
vn -1.000000 0.000000 0.000000
vn -1.000000 0.000000 0.000000
vn -0.999157 -0.038043 0.015426
vn -0.999157 -0.038043 0.015426
vn -0.999157 -0.038043 0.015426
vn -0.999157 -0.038043 0.015426
vn 0.318377 0.947959 0.003041
vn 0.318377 0.947959 0.003041
vn 0.318377 0.947959 0.003041
vn 0.000492 0.991210 0.132297
vn 0.000492 0.991210 0.132297
vn 0.000492 0.991210 0.132297
vn 0.000492 0.991210 0.132297
vn 0.011635 0.993390 0.114196
vn 0.011635 0.993390 0.114196
vn 0.011635 0.993390 0.114196
vn 0.011635 0.993390 0.114196
vn -0.318378 0.947962 0.001989
vn -0.318378 0.947962 0.001989
vn -0.318378 0.947962 0.001989
vn 0.736748 0.451713 0.503148
vn 0.736748 0.451713 0.503148
vn 0.736748 0.451713 0.503148
vn 0.731096 0.453094 0.510102
vn 0.731096 0.453094 0.510102
vn 0.731096 0.453094 0.510102
vn 0.021852 0.843956 0.535967
vn 0.021852 0.843956 0.535967
vn 0.021852 0.843956 0.535967
vn 0.021852 0.843956 0.535967
vn -0.014122 0.850312 0.526089
vn -0.014122 0.850312 0.526089
vn -0.014122 0.850312 0.526089
vn -0.014122 0.850312 0.526089
vn -0.657423 0.545956 0.519352
vn -0.657423 0.545956 0.519352
vn -0.657423 0.545956 0.519352
vn -0.743656 0.521205 0.418714
vn -0.743656 0.521205 0.418714
vn -0.743656 0.521205 0.418714
s off
f 3/3/1 17/31/2 34/52/3 35/53/4
f 83/101/5 2/10/6 49/67/7
f 49/67/8 2/10/9 19/36/10
f 80/98/11 4/4/12 18/33/13 79/97/14
f 20/38/15 64/82/16 65/83/17 1/1/18
f 9/15/19 5/5/20 31/49/21 32/50/22
f 77/95/23 10/17/24 6/12/25 76/94/26
f 46/64/27 87/105/28 88/106/29 8/8/30
f 8/8/31 88/106/32 11/20/33
f 7/13/34 61/79/35 62/80/36 12/22/37
f 13/23/38 9/15/39 32/50/40 33/51/41
f 78/96/42 14/25/43 10/17/44 77/95/45
f 48/66/46 15/28/47 47/65/48
f 47/65/49 15/28/50 11/20/51
f 12/22/52 62/80/53 63/81/54 16/30/55
f 17/31/56 13/23/57 33/51/58 34/52/59
f 79/97/60 18/33/61 14/25/62 78/96/63
f 48/66/64 49/67/65 15/28/66
f 15/28/67 49/67/68 19/36/69
f 16/30/70 63/81/71 64/82/72 20/38/73
f 22/40/74 21/39/75 6/6/76 10/18/77
f 23/41/78 22/40/79 10/18/80 14/26/81
f 24/42/82 23/41/83 14/26/84 18/34/85
f 25/43/86 24/42/87 18/34/88 4/4/89
f 27/45/90 26/44/91 21/39/92 22/40/93
f 28/46/94 27/45/95 22/40/96 23/41/97
f 29/47/98 28/46/99 23/41/100 24/42/101
f 30/48/102 29/47/103 24/42/104 25/43/105
f 32/50/106 31/49/107 26/44/108 27/45/109
f 33/51/110 32/50/111 27/45/112 28/46/113
f 34/52/114 33/51/115 28/46/116 29/47/117
f 35/53/118 34/52/119 29/47/120 30/48/121
f 12/21/122 84/102/123 7/7/124
f 7/7/125 84/102/126 85/103/127 36/54/128
f 12/21/129 16/29/130 37/55/131
f 37/55/132 16/29/133 38/56/134
f 20/37/135 39/57/136 16/29/137
f 16/29/138 39/57/139 38/56/140
f 20/37/141 1/9/142 39/57/143
f 39/57/144 1/9/145 81/99/146
f 36/54/147 85/103/148 86/104/149 41/59/150
f 37/55/151 38/56/152 43/61/153 42/60/154
f 38/56/155 39/57/156 44/62/157 43/61/158
f 39/57/159 81/99/160 82/100/161 44/62/162
f 41/59/163 86/104/164 87/105/165 46/64/166
f 42/60/167 43/61/168 48/66/169 47/65/170
f 43/61/171 44/62/172 49/67/173 48/66/174
f 44/62/175 82/100/176 83/101/177 49/67/178
f 51/69/179 5/14/180 9/16/181 52/70/182
f 53/71/183 52/70/184 9/16/185 13/24/186
f 54/72/187 53/71/188 13/24/189 17/32/190
f 55/73/191 54/72/192 17/32/193 3/3/194
f 56/74/195 51/69/196 52/70/197 57/75/198
f 58/76/199 57/75/200 52/70/201 53/71/202
f 59/77/203 58/76/204 53/71/205 54/72/206
f 60/78/207 59/77/208 54/72/209 55/73/210
f 61/79/211 56/74/212 57/75/213 62/80/214
f 63/81/215 62/80/216 57/75/217 58/76/218
f 64/82/219 63/81/220 58/76/221 59/77/222
f 65/83/223 64/82/224 59/77/225 60/78/226
f 11/19/227 67/85/228 66/84/229 8/11/230
f 15/27/231 68/86/232 67/85/233 11/19/234
f 19/35/235 69/87/236 68/86/237 15/27/238
f 2/2/239 70/88/240 69/87/241 19/35/242
f 67/85/243 72/90/244 71/89/245 66/84/246
f 68/86/247 73/91/248 72/90/249 67/85/250
f 69/87/251 74/92/252 73/91/253 68/86/254
f 70/88/255 75/93/256 74/92/257 69/87/258
f 72/90/259 77/95/260 76/94/261 71/89/262
f 73/91/263 78/96/264 77/95/265 72/90/266
f 74/92/267 79/97/268 78/96/269 73/91/270
f 75/93/271 80/98/272 79/97/273 74/92/274
f 81/99/275 1/9/276 40/58/277
f 82/100/278 81/99/279 40/58/280 45/63/281
f 83/101/282 82/100/283 45/63/284 50/68/285
f 50/68/286 2/10/287 83/101/288
f 12/21/289 37/55/290 84/102/291
f 85/103/292 84/102/293 37/55/294
f 86/104/295 85/103/296 37/55/297 42/60/298
f 87/105/299 86/104/300 42/60/301 47/65/302
f 88/106/303 87/105/304 47/65/305
f 11/20/306 88/106/307 47/65/308
