# This file uses centimeters as units for non-parametric coordinates.

v -1.687558 -13.728969 -3.675171
v 22.527414 2.811458 -23.516907
v 38.116444 -1.223366 10.463501
v 3.778713 -1.223366 33.431152
v -35.339222 -1.223366 21.642944
v -28.602245 -1.358856 -19.595398
v -2.313357 -1.342324 -37.321106
v -20.964859 40.366154 -11.013611
v -18.069283 47.567047 9.586060
v 1.557959 42.752419 16.438477
v 17.927746 48.707619 3.661255
v 14.654996 47.195084 -17.223633
v -3.694153 41.165474 -21.651001
v 35.884171 -1.223366 -3.122437
v 24.766907 2.811458 -9.887085
v 15.944500 43.765221 -8.994690
v 19.575354 2.811458 19.407715
v 16.331165 -1.223366 27.375854
v -21.773266 -1.223366 29.533813
v -7.631527 2.811458 22.192871
v -6.909511 43.887863 16.895233
v -11.747995 0.580223 27.017822
v 8.643535 48.508572 10.907959
v -9.934319 -0.975142 -28.287964
v 13.706847 -1.575765 -35.711365
v -39.086781 -1.133211 2.215332
v -25.738701 46.431278 -0.909180
v -29.190783 2.372702 -7.224976
v 12.011888 44.910324 -7.657806
v 10.977857 46.297318 -14.256439
v -3.736020 44.366779 -17.806671
v -17.585110 44.199657 -9.276733
v -21.413172 45.467731 -1.174164
v -15.263192 46.865009 7.241791
v -6.295956 44.483513 13.313263
v 0.475561 43.472736 12.736633
v 6.157364 45.902046 8.301788
v 13.602217 46.953312 2.490784
v -2.106856 39.267784 -0.608765
vt 0.199216 0.327583
vt 0.199216 0.327583
vt 0.199216 0.327583
vt 0.199216 0.327583
vt 0.199216 0.327583
vt 0.199216 0.327583
vt 0.199216 0.327583
vt 0.199216 0.327583
vt 0.199216 0.327583
vt 0.199216 0.327583
vt 0.199216 0.327583
vt 0.199216 0.327583
vt 0.199216 0.327583
vt 0.199216 0.327583
vt 0.199216 0.327583
vt 0.199216 0.327583
vt 0.199216 0.327583
vt 0.199216 0.327583
vt 0.199216 0.327583
vt 0.199216 0.327583
vt 0.199216 0.327583
vt 0.199216 0.327583
vt 0.199216 0.327583
vt 0.199216 0.327583
vt 0.199216 0.327583
vt 0.199216 0.327583
vt 0.199216 0.327583
vt 0.199216 0.327583
vt 0.199216 0.327583
vt 0.199216 0.327583
vt 0.199216 0.327583
vt 0.199216 0.327583
vt 0.199216 0.327583
vt 0.199216 0.327583
vt 0.199216 0.327583
vt 0.199216 0.327583
vt 0.199216 0.327583
vt 0.199216 0.327583
vt 0.004376 0.352535
vt 0.004509 0.352250
vt 0.004995 0.352960
vt 0.005287 0.352226
vt 0.005874 0.352796
vt 0.005965 0.353248
vt 0.005555 0.353599
vt 0.005033 0.353751
vt 0.004702 0.353630
vt 0.004473 0.353384
vt 0.004173 0.353032
vn -0.407450 -0.859428 -0.308817
vn -0.407449 -0.859428 -0.308817
vn -0.407450 -0.859428 -0.308817
vn -0.589539 -0.735171 0.334615
vn -0.589539 -0.735171 0.334615
vn -0.589539 -0.735171 0.334615
vn 0.513922 -0.853671 -0.084442
vn 0.513922 -0.853671 -0.084442
vn 0.513922 -0.853671 -0.084442
vn -0.336722 -0.711201 -0.617099
vn -0.336722 -0.711201 -0.617099
vn -0.336722 -0.711201 -0.617099
vn 0.074639 -0.841867 0.534499
vn 0.074639 -0.841867 0.534499
vn 0.074639 -0.841867 0.534499
vn 0.021072 -0.938091 -0.345747
vn 0.021072 -0.938091 -0.345747
vn 0.021072 -0.938091 -0.345747
vn -0.973920 0.200219 -0.106732
vn -0.973920 0.200219 -0.106732
vn -0.973920 0.200219 -0.106732
vn -0.420319 0.370543 0.828269
vn -0.420319 0.370543 0.828269
vn -0.420319 0.370543 0.828269
vn 0.407492 0.346986 0.844719
vn 0.407492 0.346986 0.844719
vn 0.407492 0.346986 0.844719
vn 0.890773 0.358320 -0.279519
vn 0.890773 0.358320 -0.279519
vn 0.890773 0.358320 -0.279519
vn 0.109268 0.350480 -0.930174
vn 0.109268 0.350480 -0.930174
vn 0.109268 0.350480 -0.930174
vn -0.743037 0.210104 -0.635416
vn -0.743037 0.210104 -0.635415
vn -0.743037 0.210104 -0.635416
vn 0.923364 0.352677 -0.151716
vn 0.923364 0.352677 -0.151716
vn 0.923364 0.352677 -0.151716
vn 0.316073 -0.947312 -0.051933
vn 0.316073 -0.947312 -0.051933
vn 0.316073 -0.947312 -0.051933
vn 0.221605 -0.633003 -0.741753
vn 0.221605 -0.633003 -0.741753
vn 0.221605 -0.633003 -0.741753
vn 0.964504 0.211230 -0.158476
vn 0.964504 0.211230 -0.158476
vn 0.964504 0.211230 -0.158476
vn 0.466712 0.301953 0.831267
vn 0.466712 0.301953 0.831267
vn 0.466712 0.301953 0.831267
vn 0.674178 -0.732263 -0.096307
vn 0.674178 -0.732263 -0.096307
vn 0.674178 -0.732263 -0.096307
vn 0.143299 -0.944047 0.297054
vn 0.143298 -0.944047 0.297054
vn 0.143299 -0.944047 0.297054
vn 0.586643 0.281574 0.759320
vn 0.586643 0.281574 0.759320
vn 0.586643 0.281574 0.759320
vn 0.770059 0.385182 0.508570
vn 0.770059 0.385182 0.508570
vn 0.770059 0.385182 0.508570
vn 0.550644 0.136566 -0.823493
vn 0.550644 0.136566 -0.823493
vn 0.550644 0.136566 -0.823493
vn 0.979816 0.184650 -0.076578
vn 0.979816 0.184650 -0.076577
vn 0.979816 0.184650 -0.076577
vn -0.468182 0.364621 0.804896
vn -0.468182 0.364621 0.804896
vn -0.468181 0.364621 0.804896
vn -0.154224 -0.951796 0.265142
vn -0.154224 -0.951796 0.265142
vn -0.154224 -0.951796 0.265142
vn 0.466087 -0.733490 0.494728
vn 0.466087 -0.733490 0.494728
vn 0.466087 -0.733490 0.494728
vn 0.466086 -0.733490 0.494728
vn -0.632709 0.251111 0.732545
vn -0.632709 0.251111 0.732545
vn -0.632709 0.251111 0.732545
vn 0.070322 0.126378 0.989486
vn 0.070322 0.126378 0.989486
vn 0.070322 0.126378 0.989486
vn 0.204254 0.201109 0.958037
vn 0.204254 0.201109 0.958037
vn 0.204254 0.201109 0.958037
vn 0.741820 0.072935 0.666621
vn 0.741820 0.072935 0.666621
vn 0.741820 0.072935 0.666621
vn 0.449414 0.266126 0.852763
vn 0.449414 0.266126 0.852763
vn 0.449414 0.266126 0.852763
vn -0.171279 -0.897030 -0.407433
vn -0.171280 -0.897030 -0.407433
vn -0.171279 -0.897029 -0.407433
vn -0.466669 0.232091 -0.853436
vn -0.466669 0.232091 -0.853436
vn -0.466669 0.232091 -0.853436
vn -0.466669 0.232091 -0.853436
vn 0.098771 0.347019 -0.932643
vn 0.098771 0.347019 -0.932643
vn 0.098771 0.347019 -0.932643
vn 0.750585 0.221410 -0.622575
vn 0.750585 0.221410 -0.622575
vn 0.750585 0.221410 -0.622575
vn 0.521876 -0.850005 -0.071679
vn 0.521876 -0.850005 -0.071679
vn 0.521876 -0.850005 -0.071679
vn -0.310814 -0.948846 0.055552
vn -0.310814 -0.948846 0.055552
vn -0.310814 -0.948846 0.055552
vn -0.884934 0.332567 0.326023
vn -0.884934 0.332567 0.326023
vn -0.884934 0.332567 0.326023
vn -0.884934 0.332567 0.326023
vn -0.513735 -0.827844 0.225279
vn -0.513735 -0.827844 0.225279
vn -0.513735 -0.827844 0.225279
vn -0.781550 0.148107 -0.606007
vn -0.781550 0.148107 -0.606007
vn -0.781550 0.148107 -0.606007
vn -0.781550 0.148107 -0.606007
vn 0.187216 0.942502 0.276841
vn 0.187216 0.942502 0.276841
vn 0.187216 0.942502 0.276841
vn 0.187216 0.942502 0.276841
vn -0.128810 0.915939 -0.380084
vn -0.128810 0.915939 -0.380084
vn -0.128810 0.915939 -0.380084
vn -0.128810 0.915939 -0.380084
vn -0.400379 0.678559 -0.615836
vn -0.400379 0.678559 -0.615836
vn -0.400380 0.678559 -0.615836
vn -0.400379 0.678559 -0.615836
vn -0.232842 0.858991 -0.455981
vn -0.232842 0.858991 -0.455981
vn -0.232842 0.858991 -0.455981
vn -0.232842 0.858991 -0.455981
vn 0.140182 0.962709 -0.231387
vn 0.140182 0.962709 -0.231387
vn 0.140182 0.962709 -0.231387
vn 0.140182 0.962709 -0.231387
vn 0.219362 0.969516 0.109175
vn 0.219362 0.969516 0.109175
vn 0.219362 0.969516 0.109175
vn 0.219362 0.969516 0.109175
vn 0.148579 0.974775 0.166549
vn 0.148579 0.974775 0.166548
vn 0.148579 0.974775 0.166549
vn 0.148579 0.974775 0.166548
vn -0.518297 0.854367 0.037741
vn -0.518297 0.854367 0.037741
vn -0.518297 0.854367 0.037741
vn -0.518297 0.854367 0.037741
vn -0.349687 0.862670 -0.365403
vn -0.349687 0.862670 -0.365403
vn -0.349687 0.862670 -0.365403
vn -0.349687 0.862670 -0.365403
vn -0.076236 0.956649 -0.281090
vn -0.076236 0.956649 -0.281090
vn -0.076236 0.956649 -0.281090
vn -0.076236 0.956649 -0.281090
vn -0.256132 0.937109 0.237112
vn -0.256132 0.937109 0.237112
vn -0.256132 0.937109 0.237112
vn -0.194074 0.935357 0.295707
vn -0.194074 0.935357 0.295707
vn -0.194074 0.935357 0.295707
vn 0.153293 0.951279 0.267523
vn 0.153293 0.951280 0.267523
vn 0.153293 0.951280 0.267523
vn 0.305873 0.952062 -0.004492
vn 0.305872 0.952062 -0.004492
vn 0.305872 0.952062 -0.004492
vn 0.294603 0.884357 -0.362108
vn 0.294603 0.884356 -0.362109
vn 0.294603 0.884356 -0.362109
vn 0.386432 0.895856 -0.219346
vn 0.386432 0.895856 -0.219346
vn 0.386432 0.895856 -0.219346
vn 0.113362 0.941129 -0.318473
vn 0.113362 0.941129 -0.318473
vn 0.113362 0.941129 -0.318473
vn -0.497526 0.850298 -0.171643
vn -0.497526 0.850298 -0.171643
vn -0.497526 0.850298 -0.171643
vn -0.367183 0.876300 -0.311890
vn -0.367183 0.876300 -0.311890
vn -0.367183 0.876300 -0.311890
vn -0.417961 0.901043 -0.115891
vn -0.417961 0.901043 -0.115891
vn -0.417961 0.901043 -0.115891
s off
f 1/1/1 24/2/2 7/3/3
f 1/1/4 4/4/5 20/5/6
f 1/1/7 2/6/8 15/7/9
f 1/1/10 26/18/11 28/19/12
f 3/20/13 17/21/14 1/1/15
f 7/3/16 25/22/17 1/1/18
f 6/23/19 28/19/20 8/14/21
f 9/12/22 19/24/23 21/13/24
f 4/4/25 18/25/26 10/10/27
f 11/8/28 14/26/29 16/9/30
f 12/17/31 25/22/32 13/16/33
f 7/3/34 24/2/35 13/16/36
f 3/20/37 14/26/38 11/8/39
f 1/1/40 14/26/41 3/20/42
f 1/1/43 15/7/44 14/26/45
f 16/9/46 15/7/47 2/6/48
f 11/8/49 17/21/50 3/20/51
f 1/1/52 17/21/53 18/25/54
f 1/1/55 18/25/56 4/4/57
f 23/11/58 17/21/59 11/8/60
f 10/10/61 18/25/62 17/21/63
f 16/9/64 14/26/65 15/7/66
f 16/9/67 2/6/68 12/17/69
f 5/27/70 19/24/71 9/12/72
f 1/1/73 19/24/74 5/27/75
f 1/1/76 20/5/77 22/28/78 19/24/79
f 10/10/80 20/5/81 4/4/82
f 21/13/83 20/5/84 10/10/85
f 21/13/86 19/24/87 22/28/88
f 21/13/89 22/28/90 20/5/91
f 10/10/92 17/21/93 23/11/94
f 1/1/95 6/23/96 24/2/97
f 13/16/98 24/2/99 6/23/100 8/14/101
f 13/16/102 25/22/103 7/3/104
f 2/6/105 25/22/106 12/17/107
f 1/1/108 25/22/109 2/6/110
f 5/27/111 26/18/112 1/1/113
f 27/15/114 26/18/115 5/27/116 9/12/117
f 1/1/118 28/19/119 6/23/120
f 8/14/121 28/19/122 26/18/123 27/15/124
f 16/9/125 12/17/126 30/30/127 29/29/128
f 12/17/129 13/16/130 31/31/131 30/30/132
f 13/16/133 8/14/134 32/32/135 31/31/136
f 8/14/137 27/15/138 33/33/139 32/32/140
f 27/15/141 9/12/142 34/34/143 33/33/144
f 9/12/145 21/13/146 35/35/147 34/34/148
f 21/13/149 10/10/150 36/36/151 35/35/152
f 10/10/153 23/11/154 37/37/155 36/36/156
f 23/11/157 11/8/158 38/38/159 37/37/160
f 11/8/161 16/9/162 29/29/163 38/38/164
f 29/39/165 30/40/166 39/41/167
f 30/40/168 31/42/169 39/41/170
f 31/42/171 32/43/172 39/41/173
f 32/43/174 33/44/175 39/41/176
f 33/44/177 34/45/178 39/41/179
f 34/45/180 35/46/181 39/41/182
f 35/46/183 36/47/184 39/41/185
f 36/47/186 37/48/187 39/41/188
f 37/48/189 38/49/190 39/41/191
f 38/49/192 29/39/193 39/41/194
