# This file uses centimeters as units for non-parametric coordinates.

v -163.246475 -17.951202 -14.535828
v 211.970673 -13.933220 3.785667
v -164.963058 -16.726723 13.559723
v -169.773285 18.064995 13.559723
v 215.490463 17.829857 -12.698479
v 31.964180 13.919144 13.559723
v 31.964180 -13.658257 13.559723
v 31.964180 -13.658257 -14.535828
v -44.231590 -14.961166 -14.535828
v -44.231590 15.222168 13.559723
v -44.231590 15.222168 -14.535828
v 195.900955 -16.319351 -14.535828
v 195.900955 18.042908 3.785667
v 215.490463 -17.015762 -3.972244
v 215.490463 9.800606 3.785667
v 215.490463 18.739433 -3.452492
v -168.435303 18.064995 -3.972244
v 215.490463 -8.077049 -14.535828
v -168.435303 10.115318 -14.535828
v -1.746757 15.222168 -14.535828
v 31.964180 7.024727 -14.535828
v 31.964180 13.919144 -3.972244
v -65.700256 -15.657730 13.559723
v -144.960907 17.368507 -14.535828
v -44.231590 -14.961166 2.996216
v -44.231590 -7.415428 13.559723
v -157.498764 8.953171 13.559723
v -166.429581 5.737915 13.559723
v -169.773285 11.451073 13.559723
v 129.520096 -1.594582 5.492554
v 136.411606 8.514481 5.492554
v 139.629150 -8.486061 5.492554
v 145.688309 2.187500 5.492554
v 140.079910 -10.162163 10.972557
v 147.193085 2.618027 10.972557
v 128.041412 -1.955338 10.972557
v 136.248245 10.083199 10.972557
v -79.855278 -8.426514 13.218307
v -91.737122 -5.509758 13.218307
v -76.938461 3.455276 13.218307
v -89.057701 5.394821 13.218307
v -75.526192 4.464226 18.698311
v -89.987770 6.653671 18.698311
v -78.999718 -9.685402 18.698311
v -93.149376 -6.211891 18.698311
v 129.466568 -8.472824 -13.128204
v 141.348404 -5.556030 -13.128204
v 126.549751 3.408966 -13.128204
v 138.668991 5.348511 -13.128204
v 125.137489 4.417953 -18.608208
v 139.599075 6.607361 -18.608208
v 128.611008 -9.731712 -18.608208
v 142.760666 -6.258202 -18.608208
v -79.908783 -1.640892 -13.218307
v -86.800301 8.468170 -13.218307
v -90.017853 -8.532333 -13.218307
v -96.076988 2.141151 -13.218307
v -90.468597 -10.208473 -18.698311
v -97.581772 2.571754 -18.698311
v -78.430099 -2.001648 -18.698311
v -86.636932 10.036850 -18.698311
vt 0.211164 0.277003
vt 0.211164 0.277003
vt 0.211164 0.277003
vt 0.211164 0.277003
vt 0.211164 0.277003
vt 0.211164 0.277003
vt 0.211164 0.277003
vt 0.211164 0.277003
vt 0.211164 0.277003
vt 0.211164 0.277003
vt 0.211164 0.277003
vt 0.211164 0.277003
vt 0.211164 0.277003
vt 0.211164 0.277003
vt 0.211164 0.277003
vt 0.211164 0.277003
vt 0.211164 0.277003
vt 0.211164 0.277003
vt 0.211164 0.277003
vt 0.211164 0.277003
vt 0.211164 0.277003
vt 0.211164 0.277003
vt 0.211164 0.277003
vt 0.211164 0.277003
vt 0.211164 0.277003
vt 0.211164 0.277003
vt 0.211164 0.277003
vt 0.211164 0.277003
vt 0.211164 0.277003
vt 0.211164 0.277003
vt 0.211164 0.277003
vt 0.211164 0.277003
vt 0.211164 0.277003
vt 0.211164 0.277003
vt 0.211164 0.277003
vt 0.211164 0.277003
vt 0.211164 0.277003
vt 0.211164 0.277003
vt 0.211164 0.277003
vt 0.211164 0.277003
vt 0.211164 0.277003
vt 0.211164 0.277003
vt 0.211164 0.277003
vt 0.080235 0.329115
vt 0.080235 0.329115
vt 0.080235 0.329115
vt 0.080235 0.329115
vt 0.080235 0.329115
vt 0.080235 0.329115
vt 0.080235 0.329115
vt 0.080235 0.329115
vt 0.080235 0.329115
vt 0.080235 0.329115
vt 0.080235 0.329115
vt 0.080235 0.329115
vt 0.080235 0.329115
vt 0.080235 0.329115
vt 0.080235 0.329115
vt 0.080235 0.329115
vt 0.080235 0.329115
vt 0.080235 0.329115
vt 0.080235 0.329115
vt 0.080235 0.329115
vt 0.080235 0.329115
vt 0.080235 0.329115
vt 0.080235 0.329115
vt 0.080235 0.329115
vt 0.080235 0.329115
vt 0.080235 0.329115
vt 0.080235 0.329115
vt 0.080235 0.329115
vt 0.080235 0.329115
vt 0.080235 0.329115
vt 0.080235 0.329115
vt 0.080235 0.329115
vt 0.080235 0.329115
vt 0.080235 0.329115
vt 0.080235 0.329115
vt 0.080235 0.329115
vt 0.080235 0.329115
vt 0.080235 0.329115
vt 0.080235 0.329115
vt 0.080235 0.329115
vt 0.080235 0.329115
vt 0.080235 0.329115
vt 0.080235 0.329115
vt 0.080235 0.329115
vt 0.080235 0.329115
vt 0.080235 0.329115
vt 0.080235 0.329115
vt 0.080235 0.329115
vt 0.080235 0.329115
vt 0.080235 0.329115
vt 0.080235 0.329115
vt 0.080235 0.329115
vt 0.080235 0.329115
vt 0.080235 0.329115
vt 0.080235 0.329115
vt 0.080235 0.329115
vn -0.066522 -0.811917 0.579970
vn -0.066522 -0.811917 0.579970
vn -0.066522 -0.811917 0.579970
vn 0.305804 -0.726806 -0.615010
vn 0.305804 -0.726806 -0.615010
vn 0.305804 -0.726806 -0.615010
vn -0.239687 0.775728 -0.583778
vn -0.239687 0.775728 -0.583778
vn -0.239687 0.775728 -0.583778
vn 0.199540 0.820584 -0.535561
vn 0.199540 0.820584 -0.535561
vn 0.199540 0.820584 -0.535561
vn -0.011427 -0.998162 0.059510
vn -0.011427 -0.998162 0.059510
vn -0.011427 -0.998162 0.059510
vn -0.011427 -0.998162 0.059510
vn -0.011427 -0.998162 0.059510
vn 0.255959 0.608338 0.751272
vn 0.255959 0.608338 0.751272
vn 0.255959 0.608338 0.751272
vn 0.053980 0.014566 0.998436
vn 0.053980 0.014566 0.998436
vn 0.053980 0.014566 0.998436
vn 0.053980 0.014566 0.998436
vn 0.053980 0.014566 0.998436
vn 0.976739 -0.059591 0.205983
vn 0.976739 -0.059591 0.205983
vn 0.976739 -0.059591 0.205983
vn 0.976739 -0.059591 0.205983
vn 0.022554 0.999743 -0.002364
vn 0.022554 0.999743 -0.002364
vn 0.022554 0.999743 -0.002364
vn 0.022554 0.999743 -0.002364
vn 0.022554 0.999743 -0.002364
vn -0.997271 0.043344 -0.059757
vn -0.997272 0.043344 -0.059757
vn -0.997271 0.043344 -0.059757
vn -0.997272 0.043344 -0.059757
vn -0.000000 0.000000 -1.000000
vn -0.000000 0.000000 -1.000000
vn -0.000000 0.000000 -1.000000
vn -0.000000 0.000000 -1.000000
vn -0.000000 0.000000 -1.000000
vn 0.002786 0.033857 -0.999423
vn 0.002786 0.033857 -0.999423
vn 0.002786 0.033857 -0.999423
vn 0.002786 0.033857 -0.999423
vn 0.002786 0.033857 -0.999423
vn -0.025646 0.999416 -0.022582
vn -0.025646 0.999416 -0.022582
vn -0.025646 0.999416 -0.022582
vn -0.025646 0.999416 -0.022582
vn -0.025646 0.999416 -0.022582
vn 0.015143 0.999786 0.014100
vn 0.015143 0.999786 0.014100
vn 0.015143 0.999786 0.014100
vn 0.015143 0.999786 0.014100
vn 0.015143 0.999786 0.014100
vn 0.000000 0.000000 -1.000000
vn 0.000000 0.000000 -1.000000
vn 0.000000 0.000000 -1.000000
vn 0.000000 0.000000 -1.000000
vn 0.000000 0.000000 -1.000000
vn 0.019390 -0.999683 0.016076
vn 0.019390 -0.999683 0.016076
vn 0.019390 -0.999683 0.016076
vn 0.019390 -0.999683 0.016076
vn 0.019390 -0.999683 0.016076
vn 0.000000 0.000000 1.000000
vn 0.000000 0.000000 1.000000
vn 0.000000 0.000000 1.000000
vn 0.000000 0.000000 1.000000
vn 0.000000 0.000000 1.000000
vn 0.000000 0.000000 1.000000
vn 0.000000 0.000000 1.000000
vn 0.017097 -0.999854 0.000000
vn 0.017097 -0.999854 0.000000
vn 0.017097 -0.999854 0.000000
vn 0.017097 -0.999854 0.000000
vn 0.298193 -0.776700 0.554813
vn 0.298193 -0.776700 0.554813
vn 0.298193 -0.776700 0.554813
vn -0.043790 0.836621 -0.546028
vn -0.043790 0.836622 -0.546028
vn -0.043790 0.836621 -0.546028
vn 1.000000 0.000000 0.000000
vn 1.000000 0.000000 0.000000
vn 1.000000 0.000000 0.000000
vn 1.000000 0.000000 0.000000
vn 0.000000 0.000000 1.000000
vn 0.000000 0.000000 1.000000
vn 0.000000 0.000000 1.000000
vn 0.000000 0.000000 1.000000
vn -0.199279 -0.979241 0.037066
vn -0.199279 -0.979241 0.037066
vn -0.199279 -0.979241 0.037066
vn -0.333902 0.927454 0.168339
vn -0.333902 0.927454 0.168339
vn -0.333902 0.927454 0.168339
vn 0.000000 0.000000 1.000000
vn 0.000000 0.000000 1.000000
vn 0.000000 0.000000 1.000000
vn -0.991435 -0.130580 -0.002225
vn -0.991435 -0.130580 -0.002225
vn -0.991435 -0.130580 -0.002225
vn -0.991435 -0.130580 -0.002225
vn 0.000000 0.000000 1.000000
vn 0.000000 0.000000 1.000000
vn 0.000000 0.000000 1.000000
vn 0.000000 0.000000 1.000000
vn 0.853077 -0.479115 -0.206660
vn 0.853077 -0.479115 -0.206660
vn 0.853077 -0.479115 -0.206660
vn 0.853077 -0.479115 -0.206660
vn 0.000000 0.000000 1.000000
vn 0.000000 0.000000 1.000000
vn 0.000000 0.000000 1.000000
vn 0.000000 0.000000 1.000000
vn -0.812353 0.553793 -0.182745
vn -0.812353 0.553793 -0.182745
vn -0.812353 0.553793 -0.182745
vn -0.812353 0.553793 -0.182745
vn 0.550348 0.806900 -0.214547
vn 0.550348 0.806900 -0.214547
vn 0.550348 0.806900 -0.214547
vn 0.550348 0.806900 -0.214547
vn -0.551652 -0.809212 -0.202127
vn -0.551652 -0.809212 -0.202127
vn -0.551652 -0.809212 -0.202127
vn -0.551652 -0.809212 -0.202127
vn 0.150183 0.966818 -0.206658
vn 0.150183 0.966818 -0.206658
vn 0.150183 0.966818 -0.206658
vn 0.150183 0.966818 -0.206658
vn 0.000000 0.000000 1.000000
vn 0.000000 0.000000 1.000000
vn 0.000000 0.000000 1.000000
vn 0.000000 0.000000 1.000000
vn -0.234389 -0.954812 -0.182745
vn -0.234389 -0.954812 -0.182745
vn -0.234389 -0.954812 -0.182745
vn -0.234389 -0.954812 -0.182745
vn -0.948497 0.233074 -0.214548
vn -0.948497 0.233074 -0.214548
vn -0.948497 0.233074 -0.214548
vn -0.948497 0.233074 -0.214548
vn 0.951119 -0.233486 -0.202129
vn 0.951119 -0.233486 -0.202129
vn 0.951119 -0.233486 -0.202129
vn 0.951119 -0.233486 -0.202129
vn -0.150181 0.966818 0.206661
vn -0.150181 0.966818 0.206661
vn -0.150181 0.966818 0.206661
vn -0.150181 0.966818 0.206661
vn 0.000000 0.000000 -1.000000
vn 0.000000 0.000000 -1.000000
vn 0.000000 0.000000 -1.000000
vn 0.000000 0.000000 -1.000000
vn 0.234390 -0.954811 0.182749
vn 0.234390 -0.954811 0.182749
vn 0.234390 -0.954811 0.182749
vn 0.234390 -0.954811 0.182749
vn 0.948497 0.233074 0.214549
vn 0.948497 0.233074 0.214549
vn 0.948497 0.233074 0.214549
vn 0.948497 0.233074 0.214549
vn -0.951120 -0.233486 0.202128
vn -0.951120 -0.233486 0.202128
vn -0.951120 -0.233486 0.202128
vn -0.951120 -0.233486 0.202128
vn -0.853078 -0.479114 0.206658
vn -0.853078 -0.479114 0.206658
vn -0.853078 -0.479114 0.206658
vn -0.853078 -0.479114 0.206658
vn 0.000000 0.000000 -1.000000
vn 0.000000 0.000000 -1.000000
vn 0.000000 0.000000 -1.000000
vn 0.000000 0.000000 -1.000000
vn 0.812353 0.553794 0.182743
vn 0.812353 0.553794 0.182743
vn 0.812353 0.553794 0.182743
vn 0.812353 0.553794 0.182743
vn -0.550347 0.806900 0.214549
vn -0.550347 0.806900 0.214549
vn -0.550347 0.806900 0.214549
vn -0.550347 0.806900 0.214549
vn 0.551650 -0.809213 0.202130
vn 0.551650 -0.809213 0.202130
vn 0.551650 -0.809213 0.202130
vn 0.551650 -0.809213 0.202130
s off
f 25/1/1 7/2/2 26/3/3
f 14/4/4 12/5/5 18/6/6
f 24/7/7 19/8/8 17/9/9
f 21/10/10 20/11/11 22/12/12
f 14/4/13 2/13/14 7/2/15 8/14/16 12/5/17
f 16/15/18 13/16/19 15/17/20
f 2/13/21 15/17/22 13/16/23 6/18/24 7/2/25
f 16/15/26 15/19/27 2/13/28 14/4/29
f 11/20/30 24/7/31 17/21/32 4/22/33 10/23/34
f 29/24/35 4/25/36 17/9/37 19/26/38
f 9/27/39 1/28/40 19/8/41 24/7/42 11/20/43
f 5/29/44 18/6/45 12/30/46 8/31/47 21/10/48
f 16/32/49 5/29/50 22/12/51 6/18/52 13/16/53
f 20/11/54 11/20/55 10/23/56 6/18/57 22/12/58
f 8/31/59 9/27/60 11/20/61 20/11/62 21/10/63
f 23/33/64 3/34/65 1/35/66 9/36/67 25/1/68
f 10/23/69 27/37/70 26/3/71
f 6/18/72 10/23/73 26/3/74 7/2/75
f 7/2/76 25/1/77 9/36/78 8/14/79
f 25/1/80 26/3/81 23/33/82
f 21/10/83 22/12/84 5/29/85
f 5/38/86 16/15/87 14/4/88 18/39/89
f 28/40/90 23/33/91 26/3/92 27/37/93
f 19/26/94 27/41/95 29/24/96
f 27/41/97 19/26/98 28/42/99
f 28/40/100 3/34/101 23/33/102
f 1/35/103 3/34/104 28/42/105 19/26/106
f 10/23/107 4/22/108 29/43/109 27/37/110
f 32/44/111 33/45/112 35/46/113 34/47/114
f 34/47/115 35/46/116 37/48/117 36/49/118
f 36/49/119 37/48/120 31/50/121 30/51/122
f 31/52/123 37/53/124 35/54/125 33/45/126
f 36/55/127 30/56/128 32/44/129 34/57/130
f 40/58/131 41/59/132 43/60/133 42/61/134
f 42/61/135 43/60/136 45/62/137 44/63/138
f 44/63/139 45/62/140 39/64/141 38/65/142
f 39/66/143 45/67/144 43/68/145 41/59/146
f 44/69/147 38/70/148 40/58/149 42/71/150
f 48/72/151 49/73/152 51/74/153 50/75/154
f 50/75/155 51/74/156 53/76/157 52/77/158
f 52/77/159 53/76/160 47/78/161 46/79/162
f 47/80/163 53/81/164 51/82/165 49/73/166
f 52/83/167 46/84/168 48/72/169 50/85/170
f 56/86/171 57/87/172 59/88/173 58/89/174
f 58/89/175 59/88/176 61/90/177 60/91/178
f 60/91/179 61/90/180 55/92/181 54/93/182
f 55/94/183 61/95/184 59/96/185 57/87/186
f 60/97/187 54/98/188 56/86/189 58/99/190
