# This file uses centimeters as units for non-parametric coordinates.

v -201.245636 -96.001839 93.296570
v -191.507538 -106.115974 93.296570
v -191.507538 -96.001839 106.114563
v 191.507523 -106.115974 93.296570
v 201.245682 -96.001839 93.296570
v 191.507523 -96.001839 106.114563
v -191.507538 106.115845 93.296570
v -201.245636 98.034943 93.296570
v -191.507538 98.034943 106.114563
v 201.245682 98.034943 93.296570
v 191.507523 106.115845 93.296570
v 191.507523 98.034943 106.114563
v -191.507538 98.034943 -106.117493
v -201.245636 98.034943 -93.300110
v -191.507538 106.115845 -93.300110
v 201.245682 98.034943 -93.300110
v 191.507523 98.034943 -106.117493
v 191.507523 106.115845 -93.300110
v -191.507538 -106.115974 -93.300110
v -201.245636 -96.001839 -93.300110
v -191.507538 -96.001839 -106.117493
v 201.245682 -96.001839 -93.300110
v 191.507523 -106.115974 -93.300110
v 191.507523 -96.001839 -106.117493
v 62.809402 106.115845 93.296570
v 82.741974 106.115845 -82.294250
v 62.809402 98.034943 -106.117493
v 121.685059 -96.001839 -106.117493
v 122.084000 -106.115974 -88.002258
v 121.685059 -106.115974 93.296570
v 127.516357 -89.807457 106.114563
v 62.809402 98.034943 106.114563
v -62.809418 106.115845 93.296570
v -62.809418 106.115845 -93.300110
v -70.695694 91.201385 -106.117493
v -145.944275 -89.916290 -106.117493
v -57.858242 -106.115974 -89.313293
v -85.054520 -106.115974 84.561218
v -62.809418 -96.001839 106.114563
v -83.157242 90.728973 106.114563
v -181.858582 106.115845 69.022278
v -62.809418 110.053223 -17.452942
v 62.809402 99.099792 -9.202820
v 191.507523 106.115845 -0.001770
v 201.245682 98.034943 -0.001770
v 201.245682 -96.001839 -0.001770
v 191.507523 -106.115974 -0.001770
v 121.685059 -99.496521 -0.352722
v -98.852966 -112.391953 -9.228455
v -191.507538 -106.115974 -0.001770
v -201.245636 -90.724388 -47.643982
v -201.245636 93.102615 -14.651428
v -201.245636 60.970276 87.168640
v -194.742249 -3.390221 -0.001770
v -201.245636 -0.000023 -93.300110
v -191.507538 -0.000023 -106.117493
v -80.339172 -33.430428 -95.577942
v 65.895798 -0.000023 -96.022888
v 185.365158 55.170341 -106.117493
v 201.245682 -44.113945 -86.409241
v 193.222244 0.715080 -0.001770
v 201.245682 -5.938972 85.976624
v 186.017502 66.234573 106.114563
v 62.809402 -0.000023 106.114563
v -62.809418 -1.273674 100.964417
v -191.507538 63.928574 106.114563
vt 0.611509 0.249960
vt 0.611509 0.249960
vt 0.611509 0.249960
vt 0.611509 0.249960
vt 0.611509 0.249960
vt 0.611509 0.249960
vt 0.611509 0.249960
vt 0.611509 0.249960
vt 0.611509 0.249960
vt 0.611509 0.249960
vt 0.611509 0.249960
vt 0.611509 0.249960
vt 0.611509 0.249960
vt 0.611509 0.249960
vt 0.611509 0.249960
vt 0.611509 0.249960
vt 0.611509 0.249960
vt 0.611509 0.249960
vt 0.611509 0.249960
vt 0.611509 0.249960
vt 0.611509 0.249960
vt 0.611509 0.249960
vt 0.611509 0.249960
vt 0.611509 0.249960
vt 0.611509 0.249960
vt 0.611509 0.249960
vt 0.611509 0.249960
vt 0.611509 0.249960
vt 0.611509 0.249960
vt 0.611509 0.249960
vt 0.611509 0.249960
vt 0.611509 0.249960
vt 0.611509 0.249960
vt 0.611509 0.249960
vt 0.611509 0.249960
vt 0.611509 0.249960
vt 0.611509 0.249960
vt 0.611509 0.249960
vt 0.611509 0.249960
vt 0.611509 0.249960
vt 0.611509 0.249960
vt 0.611509 0.249960
vt 0.611509 0.249960
vt 0.611509 0.249960
vt 0.611509 0.249960
vt 0.611509 0.249960
vt 0.611509 0.249960
vt 0.611509 0.249960
vt 0.611509 0.249960
vt 0.611509 0.249960
vt 0.611509 0.249960
vt 0.611509 0.249960
vt 0.611509 0.249960
vt 0.611509 0.249960
vt 0.611509 0.249960
vt 0.611509 0.249960
vt 0.611509 0.249960
vt 0.611509 0.249960
vt 0.611509 0.249960
vt 0.611509 0.249960
vt 0.611509 0.249960
vt 0.611509 0.249960
vt 0.611509 0.249960
vt 0.611509 0.249960
vt 0.611509 0.249960
vt 0.611509 0.249960
vt 0.611509 0.249960
vt 0.611509 0.249960
vt 0.611509 0.249960
vt 0.611509 0.249960
vt 0.611509 0.249960
vt 0.611509 0.249960
vt 0.611509 0.249960
vt 0.611509 0.249960
vt 0.611509 0.249960
vt 0.611509 0.249960
vt 0.611509 0.249960
vt 0.611509 0.249960
vt 0.611509 0.249960
vt 0.611509 0.249960
vt 0.611509 0.249960
vt 0.611509 0.249960
vt 0.611509 0.249960
vt 0.611509 0.249960
vt 0.611509 0.249960
vt 0.611509 0.249960
vt 0.611509 0.249960
vt 0.611509 0.249960
vn -0.028690 -0.998666 -0.042932
vn -0.028690 -0.998666 -0.042932
vn -0.028690 -0.998666 -0.042932
vn -0.028690 -0.998666 -0.042932
vn 0.025118 0.020213 0.999480
vn 0.025118 0.020213 0.999480
vn 0.025118 0.020213 0.999480
vn 0.025118 0.020213 0.999480
vn -0.998649 0.023361 0.046422
vn -0.998649 0.023361 0.046422
vn -0.998649 0.023361 0.046422
vn -0.998649 0.023361 0.046422
vn 0.998128 0.052431 0.031485
vn 0.998128 0.052431 0.031485
vn 0.998128 0.052431 0.031485
vn 0.998128 0.052431 0.031485
vn -0.021354 0.999649 -0.015661
vn -0.021354 0.999649 -0.015661
vn -0.021354 0.999649 -0.015661
vn -0.021354 0.999649 -0.015661
vn 0.073517 0.037253 -0.996598
vn 0.073517 0.037253 -0.996598
vn 0.073517 0.037253 -0.996598
vn 0.073517 0.037253 -0.996598
vn -0.814024 -0.580413 0.022044
vn -0.814024 -0.580413 0.022044
vn -0.814024 -0.580413 0.022044
vn -0.814024 -0.580413 0.022044
vn 0.018507 -0.866869 0.498193
vn 0.018507 -0.866869 0.498193
vn 0.018507 -0.866869 0.498193
vn 0.018507 -0.866869 0.498193
vn -0.852881 0.010094 0.522008
vn -0.852881 0.010094 0.522008
vn -0.852881 0.010094 0.522008
vn -0.852881 0.010094 0.522008
vn 0.720369 -0.693591 0.000000
vn 0.720369 -0.693591 0.000000
vn 0.720369 -0.693591 0.000000
vn 0.720369 -0.693591 0.000000
vn 0.831246 0.034186 0.554853
vn 0.831245 0.034186 0.554853
vn 0.831246 0.034186 0.554853
vn 0.831246 0.034186 0.554853
vn -0.662094 0.748253 0.041827
vn -0.662094 0.748253 0.041827
vn -0.662094 0.748253 0.041827
vn -0.662094 0.748253 0.041827
vn 0.022452 0.728485 0.684694
vn 0.022452 0.728485 0.684694
vn 0.022452 0.728485 0.684694
vn 0.022452 0.728485 0.684694
vn 0.638586 0.769550 0.000000
vn 0.638586 0.769550 0.000000
vn 0.638586 0.769550 0.000000
vn 0.638586 0.769550 0.000000
vn -0.796256 0.000000 -0.604960
vn -0.796256 0.000000 -0.604960
vn -0.796256 0.000000 -0.604960
vn -0.796256 0.000000 -0.604960
vn 0.020298 0.741124 -0.671061
vn 0.020298 0.741124 -0.671061
vn 0.020298 0.741124 -0.671061
vn 0.020298 0.741124 -0.671061
vn 0.845269 0.043641 -0.532556
vn 0.845269 0.043641 -0.532556
vn 0.845269 0.043641 -0.532556
vn 0.845269 0.043641 -0.532556
vn 0.039455 -0.685893 -0.726632
vn 0.039455 -0.685893 -0.726632
vn 0.039455 -0.685893 -0.726632
vn 0.039455 -0.685893 -0.726632
vn -0.631924 -0.608431 0.480087
vn -0.631924 -0.608431 0.480087
vn -0.631924 -0.608431 0.480087
vn 0.631921 -0.608433 0.480088
vn 0.631921 -0.608433 0.480088
vn 0.631921 -0.608433 0.480088
vn -0.574544 0.692368 0.436493
vn -0.574544 0.692368 0.436493
vn -0.574544 0.692368 0.436493
vn 0.574541 0.692370 0.436493
vn 0.574541 0.692370 0.436493
vn 0.574541 0.692370 0.436493
vn -0.574538 0.692362 -0.436509
vn -0.574538 0.692362 -0.436509
vn -0.574538 0.692362 -0.436509
vn 0.574536 0.692364 -0.436510
vn 0.574536 0.692364 -0.436510
vn 0.574536 0.692364 -0.436510
vn -0.631918 -0.608425 -0.480104
vn -0.631918 -0.608425 -0.480104
vn -0.631918 -0.608425 -0.480104
vn 0.631915 -0.608426 -0.480105
vn 0.631915 -0.608426 -0.480105
vn 0.631915 -0.608426 -0.480105
vn -0.029218 0.998827 0.038617
vn -0.029218 0.998827 0.038617
vn -0.029218 0.998827 0.038617
vn -0.029218 0.998827 0.038617
vn -0.018314 0.918434 -0.395149
vn -0.018314 0.918434 -0.395149
vn -0.018314 0.918434 -0.395149
vn -0.018314 0.918434 -0.395149
vn -0.060660 0.025553 -0.997831
vn -0.060660 0.025553 -0.997831
vn -0.060660 0.025553 -0.997831
vn -0.060660 0.025553 -0.997831
vn -0.020812 -0.836873 -0.547002
vn -0.020812 -0.836873 -0.547002
vn -0.020812 -0.836873 -0.547002
vn -0.020812 -0.836873 -0.547002
vn -0.046162 -0.998270 0.036417
vn -0.046162 -0.998270 0.036417
vn -0.046162 -0.998270 0.036417
vn -0.046162 -0.998270 0.036417
vn -0.032049 -0.692332 0.720867
vn -0.032049 -0.692332 0.720867
vn -0.032049 -0.692332 0.720867
vn -0.032049 -0.692332 0.720867
vn -0.000002 0.000000 1.000000
vn -0.000002 0.000000 1.000000
vn -0.000002 0.000000 1.000000
vn -0.000002 0.000000 1.000000
vn 0.000000 0.845926 0.533301
vn 0.000000 0.845926 0.533301
vn 0.000000 0.845926 0.533301
vn 0.000000 0.845926 0.533301
vn 0.038517 0.998925 0.025803
vn 0.038517 0.998925 0.025803
vn 0.038517 0.998925 0.025803
vn 0.038517 0.998925 0.025803
vn 0.000230 0.846931 -0.531702
vn 0.000230 0.846931 -0.531702
vn 0.000230 0.846931 -0.531702
vn 0.000230 0.846931 -0.531702
vn -0.009966 0.134718 -0.990834
vn -0.009966 0.134718 -0.990834
vn -0.009966 0.134718 -0.990834
vn -0.009966 0.134718 -0.990834
vn -0.009292 -0.809775 -0.586667
vn -0.009292 -0.809775 -0.586667
vn -0.009292 -0.809775 -0.586667
vn -0.009292 -0.809775 -0.586667
vn 0.031929 -0.999441 0.009926
vn 0.031929 -0.999441 0.009926
vn 0.031929 -0.999441 0.009926
vn 0.031929 -0.999441 0.009926
vn -0.001059 -0.792393 0.610010
vn -0.001059 -0.792393 0.610010
vn -0.001059 -0.792393 0.610010
vn -0.001059 -0.792393 0.610010
vn -0.016814 0.022002 0.999617
vn -0.016814 0.022002 0.999617
vn -0.016814 0.022002 0.999617
vn -0.016814 0.022002 0.999617
vn -0.020050 0.745338 0.666386
vn -0.020050 0.745338 0.666386
vn -0.020050 0.745338 0.666386
vn -0.020050 0.745338 0.666386
vn -0.005858 0.999570 0.028729
vn -0.005858 0.999570 0.028729
vn -0.005858 0.999570 0.028729
vn -0.005858 0.999570 0.028729
vn 0.044025 0.998926 -0.014422
vn 0.044025 0.998926 -0.014422
vn 0.044025 0.998926 -0.014422
vn 0.044025 0.998926 -0.014422
vn -0.025952 0.999022 -0.035798
vn -0.025952 0.999022 -0.035798
vn -0.025952 0.999022 -0.035798
vn -0.025952 0.999022 -0.035798
vn 0.638586 0.769550 0.000000
vn 0.638586 0.769550 0.000000
vn 0.638586 0.769550 0.000000
vn 0.638586 0.769550 0.000000
vn 0.998219 0.041189 -0.043146
vn 0.998219 0.041189 -0.043146
vn 0.998219 0.041189 -0.043146
vn 0.998219 0.041189 -0.043146
vn 0.720369 -0.693591 0.000000
vn 0.720369 -0.693591 0.000000
vn 0.720369 -0.693591 0.000000
vn 0.720369 -0.693591 0.000000
vn -0.047231 -0.998258 -0.035346
vn -0.047231 -0.998258 -0.035346
vn -0.047231 -0.998258 -0.035346
vn -0.047231 -0.998258 -0.035346
vn 0.030334 -0.999532 -0.004065
vn 0.030334 -0.999532 -0.004065
vn 0.030334 -0.999532 -0.004065
vn 0.030334 -0.999532 -0.004065
vn -0.028277 -0.998966 0.035596
vn -0.028277 -0.998966 0.035596
vn -0.028277 -0.998966 0.035596
vn -0.028277 -0.998966 0.035596
vn -0.781878 -0.623273 -0.014042
vn -0.781878 -0.623273 -0.014042
vn -0.781878 -0.623273 -0.014042
vn -0.781878 -0.623273 -0.014042
vn -0.998775 0.032873 -0.036989
vn -0.998775 0.032873 -0.036989
vn -0.998775 0.032873 -0.036989
vn -0.998775 0.032873 -0.036989
vn -0.453426 0.888829 -0.066245
vn -0.453426 0.888829 -0.066245
vn -0.453426 0.888829 -0.066245
vn -0.453426 0.888829 -0.066245
vn -0.998645 -0.049627 -0.015661
vn -0.998645 -0.049627 -0.015661
vn -0.998645 -0.049627 -0.015661
vn -0.998645 -0.049627 -0.015661
vn -0.998871 -0.030661 0.036295
vn -0.998871 -0.030661 0.036295
vn -0.998871 -0.030661 0.036295
vn -0.998871 -0.030661 0.036295
vn -0.796256 0.000000 -0.604959
vn -0.796256 0.000000 -0.604959
vn -0.796256 0.000000 -0.604959
vn -0.796256 0.000000 -0.604959
vn 0.036871 -0.048841 -0.998126
vn 0.036871 -0.048841 -0.998126
vn 0.036871 -0.048841 -0.998126
vn 0.036871 -0.048841 -0.998126
vn 0.011746 -0.092610 -0.995633
vn 0.011746 -0.092610 -0.995633
vn 0.011746 -0.092610 -0.995633
vn 0.011746 -0.092610 -0.995633
vn -0.024799 -0.070904 -0.997175
vn -0.024799 -0.070904 -0.997175
vn -0.024799 -0.070904 -0.997175
vn -0.024799 -0.070904 -0.997175
vn 0.705167 -0.049754 -0.707294
vn 0.705167 -0.049754 -0.707294
vn 0.705167 -0.049754 -0.707294
vn 0.705167 -0.049754 -0.707294
vn 0.998109 -0.031930 0.052529
vn 0.998109 -0.031930 0.052529
vn 0.998109 -0.031930 0.052529
vn 0.998109 -0.031930 0.052529
vn 0.998210 -0.038112 -0.046089
vn 0.998210 -0.038112 -0.046089
vn 0.998210 -0.038112 -0.046089
vn 0.998210 -0.038112 -0.046089
vn 0.720014 -0.066355 0.690780
vn 0.720014 -0.066355 0.690780
vn 0.720014 -0.066355 0.690780
vn 0.720014 -0.066355 0.690780
vn 0.000000 0.000000 1.000000
vn 0.000000 0.000000 1.000000
vn 0.000000 0.000000 1.000000
vn 0.000000 0.000000 1.000000
vn -0.018035 -0.029016 0.999416
vn -0.018035 -0.029016 0.999416
vn -0.018035 -0.029016 0.999416
vn -0.018035 -0.029016 0.999416
vn 0.009706 -0.039239 0.999183
vn 0.009706 -0.039239 0.999183
vn 0.009706 -0.039239 0.999183
vn 0.009706 -0.039239 0.999183
vn -0.849751 -0.045224 0.525241
vn -0.849751 -0.045224 0.525241
vn -0.849751 -0.045224 0.525241
vn -0.849751 -0.045224 0.525241
s off
f 19/26/1 37/52/2 49/67/3 50/68/4
f 39/55/5 65/87/6 66/88/7 3/29/8
f 54/74/9 55/75/10 20/4/11 51/69/12
f 22/5/13 60/81/14 61/83/15 46/63/16
f 42/58/17 34/49/18 15/34/19 41/57/20
f 57/78/21 36/51/22 21/37/23 56/77/24
f 50/68/25 51/70/26 20/9/27 19/26/28
f 3/29/29 2/28/30 38/54/31 39/55/32
f 1/10/33 3/29/34 66/88/35 53/73/36
f 46/64/37 47/65/38 23/38/39 22/12/40
f 6/13/41 5/31/42 62/84/43 63/85/44
f 52/72/45 41/57/46 15/34/47 14/15/48
f 7/16/49 9/32/50 40/56/51 33/48/52
f 44/60/53 45/62/54 16/35/55 18/22/56
f 55/76/57 56/77/58 21/37/59 20/36/60
f 13/21/61 15/34/62 34/49/63 35/50/64
f 59/80/65 60/82/66 22/25/67 24/27/68
f 19/26/69 21/37/70 36/51/71 37/52/72
f 1/10/73 2/28/74 3/29/75
f 4/30/76 5/31/77 6/13/78
f 7/16/79 8/2/80 9/32/81
f 10/33/82 11/18/83 12/17/84
f 13/21/85 14/15/86 15/34/87
f 16/35/88 17/23/89 18/22/90
f 19/26/91 20/36/92 21/37/93
f 22/25/94 23/38/95 24/27/96
f 44/60/97 18/22/98 26/40/99 43/59/100
f 27/41/101 26/40/102 18/22/103 17/23/104
f 59/80/105 24/27/106 28/42/107 58/79/108
f 29/43/109 28/42/110 24/27/111 23/38/112
f 48/66/113 29/43/114 23/38/115 47/65/116
f 31/46/117 30/45/118 4/30/119 6/13/120
f 6/13/121 63/85/122 64/86/123 31/46/124
f 25/39/125 32/47/126 12/17/127 11/18/128
f 43/59/129 26/40/130 34/49/131 42/58/132
f 35/50/133 34/49/134 26/40/135 27/41/136
f 58/79/137 28/42/138 36/51/139 57/78/140
f 37/52/141 36/51/142 28/42/143 29/43/144
f 49/67/145 37/52/146 29/43/147 48/66/148
f 39/55/149 38/54/150 30/45/151 31/46/152
f 31/46/153 64/86/154 65/87/155 39/55/156
f 33/48/157 40/56/158 32/47/159 25/39/160
f 33/48/161 42/58/162 41/57/163 7/16/164
f 25/39/165 43/59/166 42/58/167 33/48/168
f 11/18/169 44/60/170 43/59/171 25/39/172
f 11/18/173 10/19/174 45/62/175 44/60/176
f 46/63/177 61/83/178 62/84/179 5/31/180
f 5/11/181 4/1/182 47/65/183 46/64/184
f 30/44/185 48/66/186 47/65/187 4/1/188
f 38/53/189 49/67/190 48/66/191 30/44/192
f 50/68/193 49/67/194 38/53/195 2/7/196
f 2/7/197 1/8/198 51/70/199 50/68/200
f 53/73/201 54/74/202 51/69/203 1/10/204
f 8/14/205 7/16/206 41/57/207 52/72/208
f 8/2/209 52/71/210 54/74/211 53/73/212
f 52/71/213 14/3/214 55/75/215 54/74/216
f 14/20/217 13/21/218 56/77/219 55/76/220
f 35/50/221 57/78/222 56/77/223 13/21/224
f 27/41/225 58/79/226 57/78/227 35/50/228
f 17/23/229 59/80/230 58/79/231 27/41/232
f 17/23/233 16/24/234 60/82/235 59/80/236
f 61/83/237 60/81/238 16/6/239 45/61/240
f 62/84/241 61/83/242 45/61/243 10/33/244
f 63/85/245 62/84/246 10/33/247 12/17/248
f 64/86/249 63/85/250 12/17/251 32/47/252
f 65/87/253 64/86/254 32/47/255 40/56/256
f 66/88/257 65/87/258 40/56/259 9/32/260
f 53/73/261 66/88/262 9/32/263 8/2/264
