# This file uses centimeters as units for non-parametric coordinates.

v -10.787464 -15.657232 8.628296
v -0.941273 -15.657232 8.628296
v 9.161282 25.279430 15.653534
v 13.134884 24.482475 14.554108
v 8.150906 26.002750 11.646912
v 12.124508 25.205801 10.547455
v -10.787464 -15.657232 -1.217896
v -0.941273 -15.657232 -1.217896
v -15.452785 -15.657232 -6.195984
v -14.399830 -15.657232 3.593750
v -16.394787 34.686562 5.108398
v -14.876713 33.889610 8.941650
v -12.519169 35.409885 3.675354
v -11.001102 34.612934 7.508575
v -5.663044 -15.657232 -7.248932
v -5.002232 -15.657232 2.963165
v 1.551037 -15.657232 4.528046
v -3.917789 -15.657232 -3.659698
v -3.280369 40.517242 -14.901398
v -6.401661 39.720287 -17.595062
v -6.050953 41.240566 -11.835815
v -9.172253 40.443615 -14.529480
v -6.636723 -15.657232 9.996857
v -12.105549 -15.657232 1.809113
v 4.929379 11.409086 15.179932
v 10.975155 11.117128 14.487701
v 3.763378 10.791925 8.856445
v 9.949841 10.500702 8.220245
v -20.862377 11.482674 3.084869
v -19.569080 12.133993 9.780182
v -14.155849 11.090248 1.659637
v -13.178379 11.781833 8.630951
v 0.324657 16.252392 -10.580383
v -4.106403 15.814749 -16.320496
v -5.469639 16.907713 -6.316650
v -9.894756 16.473293 -12.023865
vt 0.177103 0.307832
vt 0.177103 0.307832
vt 0.177103 0.307832
vt 0.177103 0.307832
vt 0.177103 0.307832
vt 0.177103 0.307832
vt 0.177103 0.307832
vt 0.177103 0.307832
vt 0.177103 0.307832
vt 0.177103 0.307832
vt 0.177103 0.307832
vt 0.177103 0.307832
vt 0.177103 0.307832
vt 0.177103 0.307832
vt 0.177103 0.307832
vt 0.177103 0.307832
vt 0.177103 0.307832
vt 0.177103 0.307832
vt 0.177103 0.307832
vt 0.177103 0.307832
vt 0.177103 0.307832
vt 0.177103 0.307832
vt 0.177103 0.307832
vt 0.177103 0.307832
vt 0.177103 0.307832
vt 0.177103 0.307832
vt 0.177103 0.307832
vt 0.177103 0.307832
vt 0.177103 0.307832
vt 0.177103 0.307832
vt 0.177103 0.307832
vt 0.177103 0.307832
vt 0.177103 0.307832
vt 0.177103 0.307832
vt 0.177103 0.307832
vt 0.177103 0.307832
vt 0.177103 0.307832
vt 0.177103 0.307832
vt 0.177103 0.307832
vt 0.177103 0.307832
vt 0.177103 0.307832
vt 0.177103 0.307832
vt 0.177103 0.307832
vt 0.177103 0.307832
vt 0.177103 0.307832
vt 0.177103 0.307832
vt 0.177103 0.307832
vt 0.177103 0.307832
vt 0.177103 0.307832
vt 0.177103 0.307832
vt 0.177103 0.307832
vt 0.177103 0.307832
vt 0.177103 0.307832
vt 0.177103 0.307832
vn 0.037762 -0.242826 0.969335
vn 0.037762 -0.242826 0.969335
vn 0.037762 -0.242826 0.969335
vn 0.037762 -0.242826 0.969335
vn 0.226427 0.966920 0.117460
vn 0.226427 0.966920 0.117460
vn 0.226427 0.966920 0.117460
vn 0.226427 0.966920 0.117460
vn -0.144477 0.197557 -0.969586
vn -0.144477 0.197557 -0.969586
vn -0.144477 0.197557 -0.969586
vn -0.144477 0.197557 -0.969586
vn 0.922042 -0.384587 -0.043957
vn 0.922042 -0.384587 -0.043957
vn 0.922042 -0.384587 -0.043957
vn 0.922042 -0.384587 -0.043957
vn -0.875448 0.481236 0.044761
vn -0.875448 0.481236 0.044761
vn -0.875447 0.481236 0.044761
vn -0.875448 0.481236 0.044761
vn -0.962989 -0.226569 0.146010
vn -0.962989 -0.226569 0.146010
vn -0.962989 -0.226569 0.146010
vn -0.962989 -0.226569 0.146010
vn -0.092572 0.966920 0.237689
vn -0.092572 0.966920 0.237689
vn -0.092572 0.966920 0.237689
vn -0.092572 0.966920 0.237689
vn 0.971494 -0.074318 -0.225112
vn 0.971494 -0.074318 -0.225112
vn 0.971494 -0.074318 -0.225112
vn 0.971494 -0.074318 -0.225112
vn 0.106050 -0.184107 0.977168
vn 0.106050 -0.184107 0.977168
vn 0.106050 -0.184107 0.977168
vn 0.106050 -0.184107 0.977168
vn -0.135749 0.285239 -0.948794
vn -0.135749 0.285239 -0.948795
vn -0.135749 0.285239 -0.948794
vn -0.135749 0.285239 -0.948794
vn 0.797098 -0.227308 -0.559433
vn 0.797098 -0.227308 -0.559433
vn 0.797098 -0.227308 -0.559433
vn 0.797098 -0.227308 -0.559433
vn -0.028087 0.966920 -0.253530
vn -0.028087 0.966920 -0.253530
vn -0.028087 0.966920 -0.253530
vn -0.028087 0.966920 -0.253530
vn -0.747363 0.111015 0.655076
vn -0.747363 0.111015 0.655076
vn -0.747363 0.111015 0.655076
vn -0.747363 0.111015 0.655076
vn -0.555125 -0.304734 -0.773934
vn -0.555125 -0.304734 -0.773934
vn -0.555125 -0.304734 -0.773934
vn -0.555125 -0.304734 -0.773934
vn 0.542691 0.368374 0.754842
vn 0.542691 0.368374 0.754842
vn 0.542691 0.368374 0.754842
vn 0.542691 0.368374 0.754842
vn 0.169472 -0.059276 0.983751
vn 0.169472 -0.059276 0.983751
vn 0.169472 -0.059276 0.983751
vn 0.169472 -0.059276 0.983751
vn -0.030445 0.360508 -0.932259
vn -0.030445 0.360508 -0.932259
vn -0.030445 0.360508 -0.932259
vn -0.030445 0.360508 -0.932259
vn 0.971880 -0.133530 -0.193956
vn 0.971880 -0.133530 -0.193956
vn 0.971880 -0.133530 -0.193956
vn 0.971880 -0.133530 -0.193956
vn -0.944998 0.257447 0.201741
vn -0.944998 0.257447 0.201741
vn -0.944998 0.257447 0.201741
vn -0.944998 0.257447 0.201741
vn -0.948550 0.186512 0.255865
vn -0.948550 0.186512 0.255865
vn -0.948550 0.186512 0.255865
vn -0.948550 0.186512 0.255865
vn 0.942653 0.317595 -0.102656
vn 0.942653 0.317595 -0.102656
vn 0.942653 0.317595 -0.102656
vn 0.942653 0.317595 -0.102656
vn 0.243757 0.005096 0.969823
vn 0.243757 0.005096 0.969823
vn 0.243757 0.005096 0.969823
vn 0.243757 0.005096 0.969823
vn -0.262379 0.115133 -0.958072
vn -0.262379 0.115133 -0.958072
vn -0.262379 0.115133 -0.958072
vn -0.262379 0.115133 -0.958072
vn 0.743911 0.013507 -0.668142
vn 0.743911 0.013507 -0.668142
vn 0.743911 0.013507 -0.668142
vn 0.743911 0.013507 -0.668142
vn -0.782405 0.296138 0.547855
vn -0.782405 0.296138 0.547855
vn -0.782405 0.296138 0.547855
vn -0.782405 0.296138 0.547855
vn -0.657448 -0.080750 -0.749160
vn -0.657448 -0.080750 -0.749160
vn -0.657448 -0.080750 -0.749160
vn -0.657448 -0.080750 -0.749160
vn 0.655265 0.203733 0.727407
vn 0.655265 0.203733 0.727407
vn 0.655265 0.203733 0.727407
vn 0.655265 0.203733 0.727407
s off
f 1/1/1 2/2/2 26/38/3 25/37/4
f 3/3/5 4/4/6 6/6/7 5/5/8
f 5/5/9 6/6/10 28/41/11 27/40/12
f 2/2/13 8/9/14 28/42/15 26/38/16
f 7/11/17 1/1/18 25/37/19 27/39/20
f 9/13/21 10/14/22 30/44/23 29/43/24
f 11/16/25 12/15/26 14/17/27 13/18/28
f 13/18/29 14/17/30 32/47/31 31/46/32
f 10/14/33 16/21/34 32/48/35 30/44/36
f 15/23/37 9/13/38 29/43/39 31/45/40
f 17/25/41 18/26/42 34/50/43 33/49/44
f 19/28/45 20/27/46 22/29/47 21/30/48
f 21/30/49 22/29/50 36/53/51 35/52/52
f 18/26/53 24/33/54 36/54/55 34/50/56
f 23/35/57 17/25/58 33/49/59 35/51/60
f 25/37/61 26/38/62 4/4/63 3/3/64
f 27/40/65 28/41/66 8/8/67 7/7/68
f 26/38/69 28/42/70 6/10/71 4/4/72
f 27/39/73 25/37/74 3/3/75 5/12/76
f 29/43/77 30/44/78 12/15/79 11/16/80
f 31/46/81 32/47/82 16/19/83 15/20/84
f 30/44/85 32/48/86 14/22/87 12/15/88
f 31/45/89 29/43/90 11/16/91 13/24/92
f 33/49/93 34/50/94 20/27/95 19/28/96
f 35/52/97 36/53/98 24/31/99 23/32/100
f 34/50/101 36/54/102 22/34/103 20/27/104
f 35/51/105 33/49/106 19/28/107 21/36/108
