# This file uses centimeters as units for non-parametric coordinates.

v -11.206882 0.000000 7.863274
v 11.206882 0.000000 12.374153
v -11.206882 150.000000 12.374153
v 11.206882 150.000000 17.244949
v -11.206882 150.000000 -12.374149
v 11.206882 150.000000 -12.374149
v -11.206882 0.000000 -12.374149
v 11.206882 0.000000 -12.374149
v -11.678661 67.172691 9.978371
v -11.206882 67.172691 -12.374149
v 11.206882 67.172691 -12.374149
v 11.206882 67.172691 12.374153
v -11.206882 17.245197 11.489830
v -11.206882 17.245197 -12.374149
v 8.508751 17.245197 -12.374149
v 8.508751 17.245197 12.374153
v -5.864603 17.245197 12.374153
v -5.864603 0.000000 12.374153
v -5.864603 0.000000 -14.906803
v -5.864603 17.245197 -14.906803
v -5.864603 67.172691 -14.906803
v -5.864603 150.000000 -14.906803
v -5.864603 150.000000 17.244949
v -1.940605 71.352623 12.374153
v -127.275749 0.000000 -12.374149
v -150.000000 0.000000 -12.374149
v -129.843399 128.002884 -12.374149
v -150.000000 128.623337 -12.374149
v -131.456467 126.531853 12.374153
v -150.000000 129.801208 9.037094
v -127.275749 0.000000 12.374153
v -150.000000 0.000000 12.374153
v -150.000000 39.571487 -12.374149
v -150.000000 111.574455 -12.374149
v -150.000000 60.402969 -2.305489
v -144.007736 78.076935 -12.374149
v -127.275749 150.345474 -12.374149
v -150.000000 150.345474 -12.374149
v -150.000000 150.452377 7.243614
v -127.275749 150.345474 12.374153
v -143.949387 150.345474 -12.374149
v -143.949387 150.345474 12.374153
v -140.066376 127.876808 12.374153
v -143.949387 0.000000 12.374153
v -143.949387 0.000000 -12.374149
v 127.275749 0.000000 12.374153
v 150.000000 0.000000 12.374153
v 127.275749 128.623337 12.374153
v 150.000000 128.623337 12.374153
v 131.773148 111.946434 -12.374149
v 150.000000 128.623337 -12.374149
v 127.275749 0.000000 -12.374149
v 150.000000 0.000000 -12.374149
v 150.000000 39.571487 12.374153
v 150.000000 111.574455 12.374153
v 150.000000 60.402969 2.305489
v 144.007736 78.076935 12.374153
v 127.275749 150.345474 12.374153
v 150.000000 150.345474 12.374153
v 150.000000 150.345474 -12.374149
v 127.275749 150.345474 -12.374149
v -139.882126 0.000000 7.215576
v 138.482620 0.000000 7.215576
v -139.882126 148.418243 7.215576
v 138.482620 148.418243 7.215576
v -139.882126 148.418243 -7.215576
v 138.482620 148.418243 -7.215576
v -139.882126 0.000000 -7.215576
v 138.482620 0.000000 -7.215576
vt 0.590440 0.447238
vt 0.590440 0.447238
vt 0.590440 0.447238
vt 0.590440 0.447238
vt 0.590440 0.447238
vt 0.590440 0.447238
vt 0.590440 0.447238
vt 0.590440 0.447238
vt 0.590440 0.447238
vt 0.590440 0.447238
vt 0.590440 0.447238
vt 0.590440 0.447238
vt 0.590440 0.447238
vt 0.590440 0.447238
vt 0.590440 0.447238
vt 0.590440 0.447238
vt 0.590440 0.447238
vt 0.590440 0.447238
vt 0.590440 0.447238
vt 0.590440 0.447238
vt 0.590440 0.447238
vt 0.590440 0.447238
vt 0.590440 0.447238
vt 0.590440 0.447238
vt 0.590440 0.447238
vt 0.590440 0.447238
vt 0.590440 0.447238
vt 0.590440 0.447238
vt 0.590440 0.447238
vt 0.590440 0.447238
vt 0.590440 0.447238
vt 0.590440 0.447238
vt 0.590440 0.447238
vt 0.590440 0.447238
vt 0.590440 0.447238
vt 0.590440 0.447238
vt 0.590440 0.447238
vt 0.590440 0.447238
vt 0.590440 0.447238
vt 0.590440 0.447238
vt 0.590440 0.447238
vt 0.590440 0.447238
vt 0.590440 0.447238
vt 0.590440 0.447238
vt 0.590440 0.447238
vt 0.590440 0.447238
vt 0.590440 0.447238
vt 0.590440 0.447238
vt 0.590440 0.447238
vt 0.590440 0.447238
vt 0.590440 0.447238
vt 0.590440 0.447238
vt 0.590440 0.447238
vt 0.590440 0.447238
vt 0.590440 0.447238
vt 0.590440 0.447238
vt 0.590440 0.447238
vt 0.590440 0.447238
vt 0.590440 0.447238
vt 0.590440 0.447238
vt 0.590440 0.447238
vt 0.590440 0.447238
vt 0.590440 0.447238
vt 0.590440 0.447238
vt 0.590440 0.447238
vt 0.590440 0.447238
vt 0.590440 0.447238
vt 0.590440 0.447238
vt 0.590440 0.447238
vt 0.590440 0.447238
vt 0.590440 0.447238
vt 0.590440 0.447238
vt 0.590440 0.447238
vt 0.590440 0.447238
vt 0.590440 0.447238
vt 0.590440 0.447238
vt 0.590440 0.447238
vt 0.590440 0.447238
vt 0.590440 0.447238
vt 0.590440 0.447238
vt 0.590440 0.447238
vt 0.590440 0.447238
vt 0.590440 0.447238
vt 0.590440 0.447238
vt 0.590440 0.447238
vt 0.590440 0.447238
vt 0.590440 0.447238
vt 0.590440 0.447238
vt 0.590440 0.447238
vt 0.590440 0.447238
vt 0.590440 0.447238
vt 0.590440 0.447238
vt 0.590440 0.447238
vt 0.590440 0.447238
vt 0.590440 0.447238
vt 0.590440 0.447238
vt 0.590440 0.447238
vt 0.590440 0.447238
vt 0.590440 0.447238
vt 0.590440 0.447238
vt 0.590440 0.447238
vt 0.590440 0.447238
vt 0.590440 0.447238
vt 0.590440 0.447238
vt 0.590440 0.447238
vt 0.590440 0.447238
vt 0.590440 0.447238
vt 0.590440 0.447238
vt 0.590440 0.447238
vt 0.590440 0.447238
vt 0.590440 0.447238
vt 0.590440 0.447238
vt 0.590440 0.447238
vt 0.590440 0.447238
vt 0.590440 0.447238
vt 0.590440 0.447238
vt 0.590440 0.447238
vt 0.590440 0.447238
vt 0.590440 0.447238
vt 0.590440 0.447238
vt 0.590440 0.447238
vt 0.590440 0.447238
vt 0.590440 0.447238
vt 0.590440 0.447238
vt 0.590440 0.447238
vt 0.590440 0.447238
vt 0.590440 0.447238
vt 0.590440 0.447238
vt 0.590440 0.447238
vt 0.590440 0.447238
vt 0.695642 0.494047
vt 0.695642 0.396395
vt 0.801591 0.396395
vt 0.801591 0.494047
vt 0.809117 0.396395
vt 0.809117 0.494047
vt 0.696652 0.396395
vt 0.696652 0.494047
vt 0.590440 0.447238
vt 0.590440 0.447238
vt 0.590440 0.447238
vt 0.590440 0.447238
vn 0.000000 0.000000 1.000000
vn 0.000000 0.000000 1.000000
vn 0.000000 0.000000 1.000000
vn 0.000000 0.000000 1.000000
vn 0.000000 1.000000 0.000000
vn 0.000000 1.000000 0.000000
vn 0.000000 1.000000 0.000000
vn 0.000000 1.000000 0.000000
vn 0.159023 0.012440 -0.987197
vn 0.159023 0.012440 -0.987197
vn 0.159023 0.012440 -0.987197
vn 0.159023 0.012440 -0.987197
vn 0.000000 -1.000000 0.000000
vn 0.000000 -1.000000 0.000000
vn 0.000000 -1.000000 0.000000
vn 0.000000 -1.000000 0.000000
vn 0.987981 0.154576 0.000000
vn 0.987981 0.154576 0.000000
vn 0.987981 0.154576 0.000000
vn 0.987981 0.154576 0.000000
vn -1.000000 0.000000 0.000000
vn -1.000000 0.000000 0.000000
vn -1.000000 0.000000 0.000000
vn -1.000000 0.000000 0.000000
vn -0.999945 0.002993 -0.010016
vn -0.999945 0.002993 -0.010016
vn -0.999945 0.002993 -0.010016
vn -0.999945 0.002993 -0.010016
vn 0.146750 0.000000 -0.989174
vn 0.146750 0.000000 -0.989174
vn 0.146750 0.000000 -0.989174
vn 0.146750 0.000000 -0.989174
vn 1.000000 -0.000000 0.000000
vn 1.000000 -0.000000 0.000000
vn 1.000000 -0.000000 0.000000
vn 1.000000 -0.000000 0.000000
vn -0.008357 -0.060420 0.998138
vn -0.008357 -0.060420 0.998138
vn -0.008357 -0.060420 0.998138
vn -0.008357 -0.060420 0.998138
vn -0.999936 -0.004879 -0.010207
vn -0.999936 -0.004879 -0.010207
vn -0.999936 -0.004879 -0.010207
vn -0.999936 -0.004879 -0.010207
vn 0.159034 -0.004297 -0.987264
vn 0.159034 -0.004297 -0.987264
vn 0.159034 -0.004297 -0.987264
vn 0.159034 -0.004297 -0.987264
vn 0.998543 -0.053962 0.000000
vn 0.998543 -0.053962 0.000000
vn 0.998543 -0.053962 0.000000
vn 0.998543 -0.053962 0.000000
vn -0.000000 0.000000 1.000000
vn -0.000000 0.000000 1.000000
vn -0.000000 0.000000 1.000000
vn -0.000000 0.000000 1.000000
vn -0.448775 -0.093449 0.888745
vn -0.448775 -0.093449 0.888745
vn -0.448775 -0.093449 0.888745
vn -0.448775 -0.093449 0.888745
vn 0.000000 -1.000000 0.000000
vn 0.000000 -1.000000 0.000000
vn 0.000000 -1.000000 0.000000
vn 0.000000 -1.000000 0.000000
vn -0.428377 0.000000 -0.903600
vn -0.428377 0.000000 -0.903600
vn -0.428377 0.000000 -0.903600
vn -0.428377 0.000000 -0.903600
vn -0.428377 0.000000 -0.903600
vn -0.428377 0.000000 -0.903600
vn -0.428377 0.000000 -0.903600
vn -0.428377 0.000000 -0.903600
vn -0.428377 0.000000 -0.903600
vn -0.428377 0.000000 -0.903600
vn -0.428377 0.000000 -0.903600
vn -0.428377 0.000000 -0.903600
vn 0.000000 1.000000 0.000000
vn 0.000000 1.000000 0.000000
vn 0.000000 1.000000 0.000000
vn 0.000000 1.000000 0.000000
vn -0.422327 -0.049759 0.905077
vn -0.422326 -0.049759 0.905077
vn -0.422326 -0.049759 0.905077
vn -0.422327 -0.049759 0.905077
vn -0.218154 0.021414 0.975679
vn -0.218154 0.021414 0.975679
vn -0.218154 0.021414 0.975679
vn -0.218154 0.021414 0.975679
vn 0.000000 0.000000 -1.000000
vn 0.000000 0.000000 -1.000000
vn 0.000000 0.000000 -1.000000
vn 0.000000 0.000000 -1.000000
vn 0.000000 0.000000 -1.000000
vn 0.000000 0.000000 -1.000000
vn 0.000000 0.000000 -1.000000
vn 0.000000 0.000000 -1.000000
vn 0.000000 0.000000 -1.000000
vn 0.000000 0.000000 -1.000000
vn 0.000000 0.000000 -1.000000
vn 0.000000 0.000000 -1.000000
vn 0.000000 0.000000 -1.000000
vn 0.000000 0.000000 -1.000000
vn 0.000000 0.000000 -1.000000
vn 0.000000 0.000000 -1.000000
vn 0.000000 1.000000 0.000000
vn 0.000000 1.000000 0.000000
vn 0.000000 1.000000 0.000000
vn 0.000000 1.000000 0.000000
vn 0.000000 0.000000 1.000000
vn 0.000000 0.000000 1.000000
vn 0.000000 0.000000 1.000000
vn 0.000000 0.000000 1.000000
vn 0.000000 -1.000000 0.000000
vn 0.000000 -1.000000 0.000000
vn 0.000000 -1.000000 0.000000
vn 0.000000 -1.000000 0.000000
vn -1.000000 0.000000 0.000000
vn -1.000000 0.000000 0.000000
vn -1.000000 0.000000 0.000000
vn -1.000000 0.000000 0.000000
vn -1.000000 0.000000 0.000000
vn -1.000000 0.000000 0.000000
vn -1.000000 0.000000 0.000000
vn -1.000000 0.000000 0.000000
vn -1.000000 0.000000 0.000000
vn -1.000000 0.000000 0.000000
vn -1.000000 0.000000 0.000000
vn -1.000000 0.000000 0.000000
vn -1.000000 0.000000 0.000000
vn -1.000000 0.000000 0.000000
vn -1.000000 0.000000 0.000000
vn 0.999093 0.026489 0.033347
vn 0.999093 0.026489 0.033347
vn 0.999093 0.026489 0.033347
vn 0.999093 0.026489 0.033347
vn -0.733522 -0.131217 -0.666880
vn -0.733522 -0.131217 -0.666880
vn -0.733522 -0.131217 -0.666880
vn -0.941603 0.146533 -0.303169
vn -0.941603 0.146533 -0.303169
vn -0.941603 0.146533 -0.303169
vn 0.000000 0.000000 -1.000000
vn 0.000000 0.000000 -1.000000
vn 0.000000 0.000000 -1.000000
vn -1.000000 0.000000 0.000000
vn -1.000000 0.000000 0.000000
vn -1.000000 0.000000 0.000000
vn -1.000000 0.000000 0.000000
vn 0.000000 0.000000 1.000000
vn 0.000000 0.000000 1.000000
vn 0.000000 0.000000 1.000000
vn 0.000000 0.000000 1.000000
vn 0.989094 -0.144613 0.027936
vn 0.989094 -0.144613 0.027936
vn 0.989094 -0.144613 0.027936
vn 0.989094 -0.144613 0.027936
vn 0.000000 0.000000 -1.000000
vn 0.000000 0.000000 -1.000000
vn 0.000000 0.000000 -1.000000
vn 0.000000 0.000000 -1.000000
vn 0.009855 0.999949 -0.002410
vn 0.009855 0.999949 -0.002410
vn 0.009855 0.999949 -0.002410
vn 0.009855 0.999949 -0.002410
vn -0.468654 -0.005462 0.883365
vn -0.468654 -0.005462 0.883365
vn -0.468654 -0.005462 0.883365
vn -0.468654 -0.005462 0.883365
vn -0.202525 0.015732 0.979151
vn -0.202525 0.015732 0.979151
vn -0.202525 0.015732 0.979151
vn -0.202525 0.015732 0.979151
vn 0.000000 -1.000000 0.000000
vn 0.000000 -1.000000 0.000000
vn 0.000000 -1.000000 0.000000
vn 0.000000 -1.000000 0.000000
vn 0.000000 0.000000 1.000000
vn 0.000000 0.000000 1.000000
vn 0.000000 0.000000 1.000000
vn 0.000000 0.000000 1.000000
vn 0.000000 0.000000 1.000000
vn 0.000000 0.000000 1.000000
vn 0.000000 0.000000 1.000000
vn 0.000000 0.000000 1.000000
vn 0.000000 0.000000 1.000000
vn 0.000000 0.000000 1.000000
vn 0.000000 0.000000 1.000000
vn 0.000000 0.000000 1.000000
vn 0.000000 0.000000 1.000000
vn 0.000000 0.000000 1.000000
vn 0.000000 0.000000 1.000000
vn 0.000000 1.000000 0.000000
vn 0.000000 1.000000 0.000000
vn 0.000000 1.000000 0.000000
vn 0.000000 1.000000 0.000000
vn 0.000000 0.000000 -1.000000
vn 0.000000 0.000000 -1.000000
vn 0.000000 0.000000 -1.000000
vn 0.000000 0.000000 -1.000000
vn 0.000000 -1.000000 0.000000
vn 0.000000 -1.000000 0.000000
vn 0.000000 -1.000000 0.000000
vn 0.000000 -1.000000 0.000000
vn 1.000000 0.000000 0.000000
vn 1.000000 0.000000 0.000000
vn 1.000000 0.000000 0.000000
vn 1.000000 0.000000 0.000000
vn 1.000000 0.000000 0.000000
vn 1.000000 0.000000 0.000000
vn 1.000000 0.000000 0.000000
vn 1.000000 0.000000 0.000000
vn 1.000000 0.000000 0.000000
vn 1.000000 -0.000000 0.000000
vn 1.000000 -0.000000 0.000000
vn 1.000000 -0.000000 0.000000
vn 1.000000 0.000000 0.000000
vn 1.000000 0.000000 0.000000
vn 1.000000 0.000000 0.000000
vn -0.995141 0.018604 -0.096689
vn -0.995141 0.018604 -0.096689
vn -0.995141 0.018604 -0.096689
vn -0.995141 0.018604 -0.096689
vn 0.733522 -0.131217 0.666879
vn 0.733522 -0.131217 0.666879
vn 0.733522 -0.131217 0.666879
vn 0.941603 0.146533 0.303169
vn 0.941603 0.146533 0.303169
vn 0.941603 0.146533 0.303169
vn 0.000000 0.000000 1.000000
vn 0.000000 0.000000 1.000000
vn 0.000000 0.000000 1.000000
vn 0.000000 0.000000 1.000000
vn 1.000000 0.000000 0.000000
vn 1.000000 0.000000 0.000000
vn 1.000000 0.000000 0.000000
vn 1.000000 0.000000 0.000000
vn 0.000000 0.000000 -1.000000
vn 0.000000 0.000000 -1.000000
vn 0.000000 0.000000 -1.000000
vn 0.000000 0.000000 -1.000000
vn -0.995083 -0.074438 -0.065336
vn -0.995083 -0.074438 -0.065336
vn -0.995083 -0.074438 -0.065336
vn -0.995083 -0.074438 -0.065336
vn 0.000000 0.000000 1.000000
vn 0.000000 0.000000 1.000000
vn 0.000000 0.000000 1.000000
vn 0.000000 0.000000 1.000000
vn 0.000000 1.000000 0.000000
vn 0.000000 1.000000 0.000000
vn 0.000000 1.000000 0.000000
vn 0.000000 1.000000 0.000000
vn 0.000000 0.000000 -1.000000
vn 0.000000 0.000000 -1.000000
vn 0.000000 0.000000 -1.000000
vn 0.000000 0.000000 -1.000000
vn 0.000000 -1.000000 0.000000
vn 0.000000 -1.000000 0.000000
vn 0.000000 -1.000000 0.000000
vn 0.000000 -1.000000 0.000000
s off
f 18/42/1 2/2/2 16/39/3 17/41/4
f 23/50/5 4/6/6 6/7/7 22/49/8
f 20/46/9 15/37/10 8/11/11 19/45/12
f 19/44/13 8/14/14 2/15/15 18/43/16
f 2/17/17 8/18/18 15/38/19 16/40/20
f 7/21/21 1/22/22 13/33/23 14/35/24
f 10/27/25 9/25/26 3/23/27 5/24/28
f 22/48/29 6/10/30 11/29/31 21/47/32
f 12/32/33 11/30/34 6/19/35 4/20/36
f 24/52/37 12/31/38 4/3/39 23/51/40
f 14/35/41 13/33/42 9/25/43 10/27/44
f 21/47/45 11/29/46 15/37/47 20/46/48
f 16/40/49 15/38/50 11/30/51 12/32/52
f 24/52/53 17/41/54 16/39/55 12/31/56
f 1/1/57 18/42/58 17/41/59 13/34/60
f 7/13/61 19/44/62 18/43/63 1/16/64
f 14/36/65 20/46/66 19/45/67 7/12/68
f 10/28/69 21/47/70 20/46/71 14/36/72
f 5/9/73 22/48/74 21/47/75 10/28/76
f 3/5/77 23/50/78 22/49/79 5/8/80
f 9/26/81 24/52/82 23/51/83 3/4/84
f 13/34/85 17/41/86 24/52/87 9/26/88
f 25/53/89 45/54/90 26/55/91 27/56/92
f 28/57/93 27/56/94 34/58/95
f 34/58/96 27/56/97 36/59/98
f 27/56/99 26/55/100 36/59/101
f 26/55/102 33/60/103 36/59/104
f 37/61/105 41/62/106 42/63/107 40/64/108
f 29/65/109 43/66/110 44/67/111 31/68/112
f 31/69/113 44/70/114 45/71/115 25/72/116
f 32/73/117 30/74/118 35/75/119
f 35/75/120 30/74/121 28/76/122
f 26/77/123 32/73/124 33/78/125
f 33/78/126 32/73/127 35/75/128
f 28/76/129 34/79/130 35/75/131
f 31/80/132 25/81/133 27/82/134 29/83/135
f 36/84/136 35/75/137 34/79/138
f 33/78/139 35/75/140 36/84/141
f 27/85/142 41/62/143 37/61/144
f 28/86/145 30/87/146 39/88/147 38/89/148
f 43/90/149 29/91/150 40/64/151 42/63/152
f 29/91/153 27/85/154 37/61/155 40/64/156
f 27/85/157 28/86/158 38/89/159 41/62/160
f 42/63/161 41/62/162 38/89/163 39/88/164
f 30/87/165 43/90/166 42/63/167 39/88/168
f 44/67/169 43/66/170 30/92/171 32/93/172
f 45/71/173 44/70/174 32/94/175 26/95/176
f 46/96/177 47/97/178 48/98/179
f 49/99/180 48/98/181 55/100/182
f 55/100/183 48/98/184 57/101/185
f 48/98/186 47/97/187 57/101/188
f 47/97/189 54/102/190 57/101/191
f 58/103/192 59/104/193 60/105/194 61/106/195
f 50/107/196 51/108/197 53/109/198 52/110/199
f 52/111/200 53/112/201 47/113/202 46/114/203
f 53/115/204 51/116/205 56/117/206
f 56/117/207 51/116/208 49/118/209
f 47/119/210 53/115/211 54/120/212
f 54/120/213 53/115/214 56/117/215
f 49/118/216 55/121/217 56/117/218
f 52/122/219 46/123/220 48/124/221 50/125/222
f 57/126/223 56/117/224 55/121/225
f 54/120/226 56/117/227 57/126/228
f 48/127/229 49/128/230 59/104/231 58/103/232
f 49/128/233 51/129/234 60/105/235 59/104/236
f 51/129/237 50/130/238 61/106/239 60/105/240
f 50/130/241 48/127/242 58/103/243 61/106/244
f 62/131/245 63/132/246 65/133/247 64/134/248
f 64/134/249 65/133/250 67/135/251 66/136/252
f 66/136/253 67/135/254 69/137/255 68/138/256
f 68/139/257 69/140/258 63/141/259 62/142/260
