# This file uses centimeters as units for non-parametric coordinates.

v -150.000000 274.810852 150.000000
v 150.000000 274.810852 150.000000
v -150.000000 274.810852 -150.000000
v 150.000000 274.810852 -150.000000
v -150.000000 299.999969 -75.000000
v 150.000000 300.000000 -75.000000
v -150.000000 300.000000 0.000000
v 150.000000 300.000000 0.000000
v -150.000000 300.000000 75.000000
v 150.000000 300.000000 75.000000
v 75.000000 300.000000 -150.000000
v 75.000000 287.545166 -75.000000
v 75.000000 300.000000 0.000000
v 75.000000 287.545166 75.000000
v 75.000000 300.000000 150.000000
v 0.000000 300.000000 -150.000000
v 0.000000 300.000000 -75.000000
v 0.000000 300.000000 0.000000
v 0.000000 287.545166 75.000000
v 0.000000 300.000000 150.000000
v -75.000000 300.000000 -150.000000
v -75.000000 287.545166 -75.000000
v -75.000000 300.000000 0.000000
v -97.992485 288.666382 75.000000
v -75.000000 300.000000 150.000000
v -150.000000 25.189125 150.000000
v 150.000000 25.189125 150.000000
v -150.000000 25.189125 -150.000000
v 150.000000 25.189125 -150.000000
v 150.000000 0.000000 -75.000000
v -150.000000 0.000000 -75.000000
v 150.000000 0.000000 0.000000
v -150.000000 0.000000 0.000000
v 150.000000 0.000000 75.000000
v -150.000000 0.000000 75.000000
v -75.000000 0.000000 -150.000000
v -111.302643 0.000000 -84.126350
v -75.000000 0.000000 0.000000
v -111.576080 0.000000 72.795258
v -75.000000 0.000000 150.000000
v 0.000000 0.000000 -150.000000
v 0.000000 0.000000 -75.000000
v 0.000000 0.000000 0.000000
v 0.000000 0.000000 75.000000
v 0.000000 0.000000 150.000000
v 75.000000 0.000000 -150.000000
v 109.167023 0.000000 -85.781624
v 75.000000 0.000000 0.000000
v 98.182831 0.000000 79.772797
v 75.000000 0.000000 150.000000
vt 0.254707 0.326554
vt 0.254707 0.326554
vt 0.254707 0.326553
vt 0.254707 0.326553
vt 0.254707 0.326553
vt 0.254707 0.326553
vt 0.254707 0.326554
vt 0.254707 0.326554
vt 0.254707 0.326554
vt 0.254707 0.326554
vt 0.254707 0.326553
vt 0.254707 0.326553
vt 0.254707 0.326554
vt 0.254707 0.326554
vt 0.254707 0.326554
vt 0.254707 0.326553
vt 0.254707 0.326553
vt 0.254707 0.326554
vt 0.254707 0.326554
vt 0.254707 0.326554
vt 0.254707 0.326553
vt 0.254707 0.326553
vt 0.254707 0.326554
vt 0.254707 0.326554
vt 0.254707 0.326554
vt 0.254707 0.326553
vt 0.254707 0.326553
vt 0.254707 0.326553
vt 0.254707 0.326553
vt 0.254707 0.326553
vt 0.254707 0.326553
vt 0.254707 0.326553
vt 0.254707 0.326553
vt 0.254707 0.326553
vt 0.254707 0.326553
vt 0.254707 0.326553
vt 0.254707 0.326553
vt 0.254707 0.326553
vt 0.254707 0.326553
vt 0.254707 0.326553
vt 0.254707 0.326553
vt 0.254707 0.326553
vt 0.254707 0.326553
vt 0.254707 0.326553
vt 0.254707 0.326553
vt 0.254707 0.326553
vt 0.254707 0.326553
vt 0.254707 0.326553
vt 0.254707 0.326553
vt 0.254707 0.326553
vn 0.107817 -0.988307 -0.107817
vn 0.107817 -0.988307 -0.107817
vn 0.107817 -0.988307 -0.107817
vn 0.107817 -0.988307 -0.107817
vn 0.084290 -0.992870 0.084290
vn 0.084290 -0.992870 0.084290
vn 0.084290 -0.992870 0.084290
vn 0.084290 -0.992870 0.084290
vn -0.082465 -0.993176 0.082466
vn -0.082465 -0.993176 0.082466
vn -0.082465 -0.993176 0.082466
vn -0.082465 -0.993176 0.082466
vn -0.088534 -0.992131 -0.088534
vn -0.088534 -0.992131 -0.088534
vn -0.088534 -0.992131 -0.088534
vn -0.088534 -0.992131 -0.088534
vn -0.084290 -0.992870 0.084290
vn -0.084290 -0.992870 0.084290
vn -0.084290 -0.992870 0.084290
vn -0.084290 -0.992870 0.084290
vn 0.082466 -0.993176 0.082466
vn 0.082466 -0.993176 0.082466
vn 0.082466 -0.993176 0.082466
vn 0.082466 -0.993176 0.082466
vn 0.082466 -0.993176 -0.082466
vn 0.082466 -0.993176 -0.082466
vn 0.082466 -0.993176 -0.082466
vn 0.082466 -0.993176 -0.082466
vn -0.084290 -0.992870 -0.084290
vn -0.084290 -0.992870 -0.084290
vn -0.084290 -0.992870 -0.084290
vn -0.084290 -0.992870 -0.084290
vn -0.082466 -0.993176 -0.082466
vn -0.082466 -0.993176 -0.082466
vn -0.082466 -0.993176 -0.082466
vn -0.082466 -0.993176 -0.082466
vn -0.082466 -0.993176 0.082466
vn -0.082466 -0.993176 0.082466
vn -0.082466 -0.993176 0.082466
vn -0.082466 -0.993176 0.082466
vn 0.000000 -0.986490 -0.163821
vn 0.000000 -0.986490 -0.163821
vn 0.000000 -0.986490 -0.163821
vn 0.000000 -0.986490 -0.163821
vn 0.000000 -0.986490 0.163821
vn 0.000000 -0.986490 0.163821
vn 0.000000 -0.986490 0.163821
vn 0.000000 -0.986490 0.163821
vn 0.082466 -0.993176 -0.082466
vn 0.082466 -0.993176 -0.082466
vn 0.082466 -0.993176 -0.082466
vn 0.082466 -0.993176 -0.082466
vn 0.082466 -0.993176 0.082466
vn 0.082466 -0.993176 0.082466
vn 0.082466 -0.993176 0.082466
vn 0.082466 -0.993176 0.082466
vn -0.006400 -0.987485 -0.157586
vn -0.006400 -0.987485 -0.157586
vn -0.006400 -0.987485 -0.157586
vn -0.006400 -0.987485 -0.157586
vn -0.006400 -0.987485 0.157586
vn -0.006400 -0.987485 0.157586
vn -0.006400 -0.987485 0.157586
vn -0.006400 -0.987485 0.157586
vn -0.316634 0.942771 -0.104525
vn -0.316634 0.942771 -0.104525
vn -0.316634 0.942771 -0.104525
vn -0.029313 0.947556 -0.318241
vn -0.029313 0.947556 -0.318241
vn -0.029313 0.947556 -0.318241
vn -0.313907 0.934649 0.167012
vn -0.313907 0.934649 0.167012
vn -0.313907 0.934649 0.167012
vn -0.083770 0.944632 0.317259
vn -0.083770 0.944632 0.317259
vn -0.083770 0.944632 0.317259
vn 0.000000 1.000000 0.000000
vn 0.000000 1.000000 0.000000
vn 0.000000 1.000000 0.000000
vn 0.000000 1.000000 0.000000
vn 0.000000 1.000000 0.000000
vn 0.000000 1.000000 0.000000
vn 0.000000 1.000000 0.000000
vn 0.000000 1.000000 0.000000
vn 0.000000 1.000000 0.000000
vn 0.000000 1.000000 0.000000
vn 0.000000 1.000000 0.000000
vn 0.000000 1.000000 0.000000
vn 0.074875 0.945303 0.317485
vn 0.074875 0.945303 0.317485
vn 0.074875 0.945303 0.317485
vn 0.313588 0.933701 0.172817
vn 0.313588 0.933701 0.172817
vn 0.313588 0.933701 0.172817
vn 0.000000 1.000000 0.000000
vn 0.000000 1.000000 0.000000
vn 0.000000 1.000000 0.000000
vn 0.000000 1.000000 0.000000
vn 0.000000 1.000000 0.000000
vn 0.000000 1.000000 0.000000
vn 0.000000 1.000000 0.000000
vn 0.000000 1.000000 0.000000
vn 0.000000 1.000000 0.000000
vn 0.000000 1.000000 0.000000
vn 0.000000 1.000000 0.000000
vn 0.000000 1.000000 0.000000
vn -0.018265 0.947806 -0.318325
vn -0.018265 0.947806 -0.318325
vn -0.018265 0.947806 -0.318325
vn 0.314817 0.937361 -0.149146
vn 0.314817 0.937361 -0.149146
vn 0.314817 0.937361 -0.149146
vn 0.000000 1.000000 0.000000
vn 0.000000 1.000000 0.000000
vn 0.000000 1.000000 0.000000
vn 0.000000 1.000000 0.000000
vn 0.000000 1.000000 0.000000
vn 0.000000 1.000000 0.000000
vn 0.000000 1.000000 0.000000
vn 0.000000 1.000000 0.000000
vn 0.000000 1.000000 0.000000
vn 0.000000 1.000000 0.000000
vn 0.000000 1.000000 0.000000
vn 0.000000 1.000000 0.000000
vn 0.000000 1.000000 0.000000
vn 0.000000 1.000000 0.000000
vn 0.000000 1.000000 0.000000
vn 0.000000 1.000000 0.000000
vn 0.000000 1.000000 0.000000
vn 0.000000 1.000000 0.000000
vn 0.000000 1.000000 0.000000
vn 0.000000 1.000000 0.000000
vn 0.000000 1.000000 0.000000
vn 0.000000 1.000000 0.000000
vn 0.000000 1.000000 0.000000
vn 0.000000 1.000000 0.000000
vn 0.000000 1.000000 0.000000
vn 0.000000 1.000000 0.000000
vn 0.000000 1.000000 0.000000
vn 0.000000 1.000000 0.000000
vn 0.000000 1.000000 0.000000
vn 0.000000 1.000000 0.000000
vn 0.000000 1.000000 0.000000
vn 0.000000 1.000000 0.000000
s off
f 1/1/1 9/9/2 24/24/3 25/25/4
f 5/5/5 3/3/6 21/21/7 22/22/8
f 7/7/9 5/5/10 22/22/11 23/23/12
f 9/9/13 7/7/14 23/23/15 24/24/16
f 12/12/17 11/11/18 4/4/19 6/6/20
f 13/13/21 12/12/22 6/6/23 8/8/24
f 14/14/25 13/13/26 8/8/27 10/10/28
f 15/15/29 14/14/30 10/10/31 2/2/32
f 17/17/33 16/16/34 11/11/35 12/12/36
f 18/18/37 17/17/38 12/12/39 13/13/40
f 19/19/41 18/18/42 13/13/43 14/14/44
f 20/20/45 19/19/46 14/14/47 15/15/48
f 22/22/49 21/21/50 16/16/51 17/17/52
f 23/23/53 22/22/54 17/17/55 18/18/56
f 24/24/57 23/23/58 18/18/59 19/19/60
f 25/25/61 24/24/62 19/19/63 20/20/64
f 50/26/65 27/27/66 49/28/67
f 49/28/68 27/27/69 34/29/70
f 46/30/71 47/31/72 29/32/73
f 29/32/74 47/31/75 30/33/76
f 48/34/77 32/35/78 47/31/79
f 47/31/80 32/35/81 30/33/82
f 48/34/83 49/28/84 32/35/85
f 32/35/86 49/28/87 34/29/88
f 31/36/89 37/37/90 28/38/91
f 28/38/92 37/37/93 36/39/94
f 31/36/95 33/40/96 37/37/97
f 37/37/98 33/40/99 38/41/100
f 35/42/101 39/43/102 33/40/103
f 33/40/104 39/43/105 38/41/106
f 35/42/107 26/44/108 39/43/109
f 39/43/110 26/44/111 40/45/112
f 36/39/113 37/37/114 42/46/115 41/47/116
f 37/37/117 38/41/118 43/48/119 42/46/120
f 38/41/121 39/43/122 44/49/123 43/48/124
f 39/43/125 40/45/126 45/50/127 44/49/128
f 41/47/129 42/46/130 47/31/131 46/30/132
f 42/46/133 43/48/134 48/34/135 47/31/136
f 43/48/137 44/49/138 49/28/139 48/34/140
f 44/49/141 45/50/142 50/26/143 49/28/144
