# This file uses centimeters as units for non-parametric coordinates.

v -7.863274 -71.136520 -11.206898
v -12.374152 -71.136520 11.206894
v -12.374153 78.863480 -11.206890
v -17.244949 78.863480 11.206894
v 12.374152 78.863480 -11.206898
v 12.374153 78.863480 11.206894
v 12.374152 -71.136520 -11.206898
v 12.374153 -71.136520 11.206894
v -9.978371 -3.963828 -11.678661
v 12.374152 -3.963828 -11.206898
v 12.374153 -3.963828 11.206894
v -12.374152 -3.963828 11.206894
v -11.489830 -53.891319 -11.206898
v 12.374152 -53.891319 -11.206898
v 12.374153 -53.891319 8.508759
v -12.374153 -53.891319 8.508759
v -12.374153 -53.891319 -5.864601
v -12.374153 -71.136520 -5.864601
v 12.374153 -71.136520 -5.864601
v 12.374153 -53.891319 -5.864601
v 12.374153 -3.963828 -5.864601
v 12.374153 78.863480 -5.864601
v -17.244949 78.863480 -5.864601
v -12.374153 0.216107 -1.940613
v 12.374152 0.000000 -127.275726
v 12.374153 0.000000 -150.000031
v 12.374154 128.002884 -129.843399
v 12.374153 128.623337 -150.000031
v -12.374153 126.531853 -131.456497
v -9.037094 129.801208 -150.000000
v -12.374153 0.000000 -127.275742
v -12.374153 0.000000 -149.999969
v 12.374153 39.571487 -150.000031
v 12.374153 111.574455 -150.000031
v 2.305489 60.402969 -150.000031
v 12.374153 78.076935 -144.007751
v 12.374152 150.345474 -127.275726
v 12.374153 150.345474 -150.000031
v -7.243614 150.452377 -150.000031
v -12.374153 150.345474 -127.275742
v 12.374154 150.345474 -143.949387
v -12.374153 150.345474 -143.949402
v -12.374153 127.876808 -140.066345
v -12.374153 0.000000 -143.949402
v 12.374154 0.000000 -143.949387
v -12.374152 -148.657242 127.275726
v -12.374153 -148.657242 150.000000
v -12.374152 -20.033894 127.275726
v -12.374153 -20.033894 150.000000
v 12.374153 -36.710796 131.773148
v 12.374153 -20.033894 150.000000
v 12.374153 -148.657242 127.275726
v 12.374153 -148.657242 150.000000
v -12.374153 -109.085754 150.000000
v -12.374153 -37.082787 150.000000
v -2.305489 -88.254265 150.000000
v -12.374153 -70.580299 144.007751
v -12.374152 1.688232 127.275726
v -12.374153 1.688232 150.000000
v 12.374153 1.688232 150.000000
v 12.374153 1.688232 127.275726
v -3.294182 0.000000 -139.882080
v -3.294183 -148.657242 138.482635
v -3.294182 148.418243 -139.882080
v -3.294183 -0.238972 138.482635
v 3.294182 148.418243 -139.882172
v 3.294182 -0.238972 138.482635
v 3.294182 0.000000 -139.882172
v 3.294182 -148.657242 138.482635
vt 0.590440 0.447238
vt 0.590440 0.447238
vt 0.590440 0.447238
vt 0.590440 0.447238
vt 0.590440 0.447238
vt 0.590440 0.447238
vt 0.590440 0.447238
vt 0.590440 0.447238
vt 0.590440 0.447238
vt 0.590440 0.447238
vt 0.590440 0.447238
vt 0.590440 0.447238
vt 0.590440 0.447238
vt 0.590440 0.447238
vt 0.590440 0.447238
vt 0.590440 0.447238
vt 0.590440 0.447238
vt 0.590440 0.447238
vt 0.590440 0.447238
vt 0.590440 0.447238
vt 0.590440 0.447238
vt 0.590440 0.447238
vt 0.590440 0.447238
vt 0.590440 0.447238
vt 0.590440 0.447238
vt 0.590440 0.447238
vt 0.590440 0.447238
vt 0.590440 0.447238
vt 0.590440 0.447238
vt 0.590440 0.447238
vt 0.590440 0.447238
vt 0.590440 0.447238
vt 0.590440 0.447238
vt 0.590440 0.447238
vt 0.590440 0.447238
vt 0.590440 0.447238
vt 0.590440 0.447238
vt 0.590440 0.447238
vt 0.590440 0.447238
vt 0.590440 0.447238
vt 0.590440 0.447238
vt 0.590440 0.447238
vt 0.590440 0.447238
vt 0.590440 0.447238
vt 0.590440 0.447238
vt 0.590440 0.447238
vt 0.590440 0.447238
vt 0.590440 0.447238
vt 0.590440 0.447238
vt 0.590440 0.447238
vt 0.590440 0.447238
vt 0.590440 0.447238
vt 0.590440 0.447238
vt 0.590440 0.447238
vt 0.590440 0.447238
vt 0.590440 0.447238
vt 0.590440 0.447238
vt 0.590440 0.447238
vt 0.590440 0.447238
vt 0.590440 0.447238
vt 0.590440 0.447238
vt 0.590440 0.447238
vt 0.590440 0.447238
vt 0.590440 0.447238
vt 0.590440 0.447238
vt 0.590440 0.447238
vt 0.590440 0.447238
vt 0.590440 0.447238
vt 0.590440 0.447238
vt 0.590440 0.447238
vt 0.590440 0.447238
vt 0.590440 0.447238
vt 0.590440 0.447238
vt 0.590440 0.447238
vt 0.590440 0.447238
vt 0.590440 0.447238
vt 0.590440 0.447238
vt 0.590440 0.447238
vt 0.590440 0.447238
vt 0.590440 0.447238
vt 0.590440 0.447238
vt 0.590440 0.447238
vt 0.590440 0.447238
vt 0.590440 0.447238
vt 0.590440 0.447238
vt 0.590440 0.447238
vt 0.590440 0.447238
vt 0.590440 0.447238
vt 0.590440 0.447238
vt 0.590440 0.447238
vt 0.590440 0.447238
vt 0.590440 0.447238
vt 0.590440 0.447238
vt 0.590440 0.447238
vt 0.590440 0.447238
vt 0.590440 0.447238
vt 0.590440 0.447238
vt 0.590440 0.447238
vt 0.590440 0.447238
vt 0.590440 0.447238
vt 0.590440 0.447238
vt 0.590440 0.447238
vt 0.590440 0.447238
vt 0.590440 0.447238
vt 0.590440 0.447238
vt 0.590440 0.447238
vt 0.590440 0.447238
vt 0.590440 0.447238
vt 0.590440 0.447238
vt 0.590440 0.447238
vt 0.590440 0.447238
vt 0.590440 0.447238
vt 0.590440 0.447238
vt 0.590440 0.447238
vt 0.590440 0.447238
vt 0.590440 0.447238
vt 0.590440 0.447238
vt 0.590440 0.447238
vt 0.590440 0.447238
vt 0.590440 0.447238
vt 0.590440 0.447238
vt 0.590440 0.447238
vt 0.590440 0.447238
vt 0.590440 0.447238
vt 0.590440 0.447238
vt 0.590440 0.447238
vt 0.590440 0.447238
vt 0.590440 0.447238
vt 0.590440 0.447238
vt 0.590440 0.447238
vt 0.695642 0.494047
vt 0.695642 0.396395
vt 0.801591 0.396395
vt 0.801591 0.494047
vt 0.809117 0.396395
vt 0.809117 0.494047
vt 0.696652 0.396395
vt 0.696652 0.494047
vt 0.590440 0.447238
vt 0.590440 0.447238
vt 0.590440 0.447238
vt 0.590440 0.447238
vn -1.000000 0.000000 0.000000
vn -1.000000 0.000000 0.000000
vn -1.000000 0.000000 0.000000
vn -1.000000 0.000000 0.000000
vn 0.000000 1.000000 0.000000
vn 0.000000 1.000000 0.000000
vn 0.000000 1.000000 0.000000
vn 0.000000 1.000000 0.000000
vn 1.000000 0.000000 0.000000
vn 1.000000 0.000000 0.000000
vn 1.000000 0.000000 0.000000
vn 1.000000 0.000000 0.000000
vn 0.000000 -1.000000 -0.000000
vn 0.000000 -1.000000 -0.000000
vn 0.000000 -1.000000 -0.000000
vn 0.000000 -1.000000 -0.000000
vn 0.000000 0.154577 0.987981
vn 0.000000 0.154577 0.987981
vn 0.000000 0.154577 0.987981
vn 0.000000 0.154577 0.987981
vn 0.000000 0.000000 -1.000000
vn 0.000000 0.000000 -1.000000
vn 0.000000 0.000000 -1.000000
vn 0.000000 0.000000 -1.000000
vn 0.010015 0.002993 -0.999945
vn 0.010015 0.002993 -0.999945
vn 0.010015 0.002993 -0.999945
vn 0.010015 0.002993 -0.999945
vn 1.000000 0.000000 0.000000
vn 1.000000 0.000000 0.000000
vn 1.000000 0.000000 0.000000
vn 1.000000 0.000000 0.000000
vn 0.000000 0.000000 1.000000
vn 0.000000 0.000000 1.000000
vn 0.000000 0.000000 1.000000
vn 0.000000 0.000000 1.000000
vn -0.998138 -0.060420 -0.008357
vn -0.998138 -0.060420 -0.008357
vn -0.998138 -0.060420 -0.008357
vn -0.998138 -0.060420 -0.008357
vn 0.010207 -0.004879 -0.999936
vn 0.010207 -0.004879 -0.999936
vn 0.010207 -0.004879 -0.999936
vn 0.010207 -0.004879 -0.999936
vn 1.000000 0.000000 0.000000
vn 1.000000 0.000000 0.000000
vn 1.000000 0.000000 0.000000
vn 1.000000 0.000000 0.000000
vn 0.000000 -0.053962 0.998543
vn 0.000000 -0.053962 0.998543
vn 0.000000 -0.053962 0.998543
vn 0.000000 -0.053962 0.998543
vn -1.000000 0.000000 0.000000
vn -1.000000 0.000000 0.000000
vn -1.000000 0.000000 0.000000
vn -1.000000 0.000000 0.000000
vn -0.888746 -0.093449 -0.448774
vn -0.888746 -0.093449 -0.448774
vn -0.888746 -0.093449 -0.448774
vn -0.888746 -0.093449 -0.448774
vn 0.000000 -1.000000 0.000001
vn 0.000000 -1.000000 0.000001
vn 0.000000 -1.000000 0.000001
vn 0.000000 -1.000000 0.000001
vn 1.000000 0.000000 -0.000000
vn 1.000000 0.000000 -0.000000
vn 1.000000 0.000000 -0.000000
vn 1.000000 0.000000 -0.000000
vn 1.000000 0.000000 -0.000000
vn 1.000000 0.000000 -0.000000
vn 1.000000 0.000000 -0.000000
vn 1.000000 0.000000 -0.000000
vn 1.000000 0.000000 -0.000000
vn 1.000000 0.000000 -0.000000
vn 1.000000 0.000000 -0.000000
vn 1.000000 0.000000 -0.000000
vn 0.000000 1.000000 0.000001
vn 0.000000 1.000000 0.000001
vn 0.000000 1.000000 0.000001
vn 0.000000 1.000000 0.000001
vn -0.905077 -0.049759 -0.422326
vn -0.905077 -0.049759 -0.422326
vn -0.905077 -0.049759 -0.422326
vn -0.905077 -0.049759 -0.422326
vn -0.975679 0.021414 -0.218154
vn -0.975679 0.021414 -0.218154
vn -0.975679 0.021414 -0.218154
vn -0.975679 0.021414 -0.218154
vn 1.000000 0.000000 0.000000
vn 1.000000 0.000000 0.000000
vn 1.000000 0.000000 0.000000
vn 1.000000 0.000000 0.000000
vn 1.000000 0.000000 -0.000000
vn 1.000000 0.000000 -0.000000
vn 1.000000 0.000000 -0.000000
vn 1.000000 -0.000000 -0.000000
vn 1.000000 -0.000000 -0.000000
vn 1.000000 -0.000000 -0.000000
vn 1.000000 0.000000 -0.000000
vn 1.000000 0.000000 -0.000000
vn 1.000000 0.000000 -0.000000
vn 1.000000 0.000000 0.000000
vn 1.000000 0.000000 0.000000
vn 1.000000 0.000000 0.000000
vn 0.000000 1.000000 -0.000001
vn 0.000000 1.000000 -0.000001
vn 0.000000 1.000000 -0.000001
vn 0.000000 1.000000 -0.000001
vn -1.000000 -0.000000 0.000000
vn -1.000000 -0.000000 0.000000
vn -1.000000 -0.000000 0.000000
vn -1.000000 -0.000000 0.000000
vn 0.000000 -1.000000 0.000000
vn 0.000000 -1.000000 0.000000
vn 0.000000 -1.000000 0.000000
vn 0.000000 -1.000000 0.000000
vn -0.000003 -0.000000 -1.000000
vn -0.000003 -0.000000 -1.000000
vn -0.000003 -0.000000 -1.000000
vn -0.000001 0.000000 -1.000000
vn -0.000001 0.000000 -1.000000
vn -0.000001 0.000000 -1.000000
vn -0.000002 0.000000 -1.000000
vn -0.000002 0.000000 -1.000000
vn -0.000002 0.000000 -1.000000
vn -0.000002 -0.000001 -1.000000
vn -0.000002 -0.000001 -1.000000
vn -0.000002 -0.000001 -1.000000
vn 0.000000 0.000000 -1.000000
vn 0.000000 0.000000 -1.000000
vn 0.000000 0.000000 -1.000000
vn -0.033348 0.026489 0.999093
vn -0.033348 0.026489 0.999093
vn -0.033348 0.026489 0.999093
vn -0.033348 0.026489 0.999093
vn 0.666882 -0.131217 -0.733520
vn 0.666882 -0.131217 -0.733520
vn 0.666882 -0.131217 -0.733520
vn 0.303168 0.146534 -0.941604
vn 0.303168 0.146534 -0.941603
vn 0.303168 0.146534 -0.941604
vn 1.000000 0.000000 0.000000
vn 1.000000 0.000000 0.000000
vn 1.000000 0.000000 0.000000
vn -0.000001 -0.000001 -1.000000
vn -0.000001 -0.000001 -1.000000
vn -0.000001 -0.000001 -1.000000
vn -0.000001 -0.000001 -1.000000
vn -1.000000 0.000000 0.000000
vn -1.000000 0.000000 0.000000
vn -1.000000 0.000000 0.000000
vn -1.000000 0.000000 0.000000
vn -0.027937 -0.144614 0.989094
vn -0.027937 -0.144614 0.989094
vn -0.027937 -0.144614 0.989094
vn -0.027937 -0.144614 0.989094
vn 1.000000 -0.000000 -0.000000
vn 1.000000 -0.000000 -0.000000
vn 1.000000 -0.000000 -0.000000
vn 1.000000 -0.000000 -0.000000
vn 0.002409 0.999949 0.009857
vn 0.002409 0.999949 0.009857
vn 0.002409 0.999949 0.009857
vn 0.002409 0.999949 0.009857
vn -0.883365 -0.005462 -0.468654
vn -0.883365 -0.005462 -0.468654
vn -0.883365 -0.005462 -0.468654
vn -0.883365 -0.005462 -0.468654
vn -0.979151 0.015732 -0.202525
vn -0.979151 0.015732 -0.202525
vn -0.979151 0.015732 -0.202525
vn -0.979151 0.015732 -0.202525
vn 0.000000 -1.000000 0.000000
vn 0.000000 -1.000000 0.000000
vn 0.000000 -1.000000 0.000000
vn 0.000000 -1.000000 0.000000
vn -1.000000 0.000000 -0.000000
vn -1.000000 0.000000 -0.000000
vn -1.000000 0.000000 -0.000000
vn -1.000000 0.000000 -0.000000
vn -1.000000 0.000000 -0.000000
vn -1.000000 0.000000 -0.000000
vn -1.000000 0.000000 -0.000000
vn -1.000000 0.000000 -0.000000
vn -1.000000 0.000000 -0.000000
vn -1.000000 -0.000000 -0.000000
vn -1.000000 -0.000000 -0.000000
vn -1.000000 -0.000000 -0.000000
vn -1.000000 0.000000 0.000000
vn -1.000000 0.000000 0.000000
vn -1.000000 0.000000 0.000000
vn 0.000000 1.000000 0.000000
vn 0.000000 1.000000 0.000000
vn 0.000000 1.000000 0.000000
vn 0.000000 1.000000 0.000000
vn 1.000000 -0.000000 0.000000
vn 1.000000 -0.000000 0.000000
vn 1.000000 -0.000000 0.000000
vn 1.000000 -0.000000 0.000000
vn 0.000000 -1.000000 0.000000
vn 0.000000 -1.000000 0.000000
vn 0.000000 -1.000000 0.000000
vn 0.000000 -1.000000 0.000000
vn -0.000001 0.000000 1.000000
vn -0.000001 0.000000 1.000000
vn -0.000001 0.000000 1.000000
vn 0.000000 0.000000 1.000000
vn 0.000000 0.000000 1.000000
vn 0.000000 0.000000 1.000000
vn 0.000000 0.000000 1.000000
vn 0.000000 0.000000 1.000000
vn 0.000000 0.000000 1.000000
vn 0.000001 0.000000 1.000000
vn 0.000001 0.000000 1.000000
vn 0.000001 0.000000 1.000000
vn 0.000011 0.000000 1.000000
vn 0.000011 0.000000 1.000000
vn 0.000011 0.000000 1.000000
vn 0.096690 0.018604 -0.995141
vn 0.096690 0.018604 -0.995141
vn 0.096690 0.018604 -0.995141
vn 0.096690 0.018604 -0.995141
vn -0.666878 -0.131217 0.733523
vn -0.666878 -0.131217 0.733523
vn -0.666878 -0.131217 0.733523
vn -0.303168 0.146533 0.941604
vn -0.303168 0.146533 0.941604
vn -0.303168 0.146533 0.941604
vn -1.000000 0.000000 -0.000000
vn -1.000000 0.000000 -0.000000
vn -1.000000 0.000000 -0.000000
vn -1.000000 0.000000 -0.000000
vn 0.000000 0.000000 1.000000
vn 0.000000 0.000000 1.000000
vn 0.000000 0.000000 1.000000
vn 0.000000 0.000000 1.000000
vn 1.000000 0.000000 0.000000
vn 1.000000 0.000000 0.000000
vn 1.000000 0.000000 0.000000
vn 1.000000 0.000000 0.000000
vn 0.065336 -0.074438 -0.995083
vn 0.065336 -0.074438 -0.995083
vn 0.065336 -0.074438 -0.995083
vn 0.065336 -0.074438 -0.995083
vn -1.000000 0.000000 -0.000000
vn -1.000000 0.000000 -0.000000
vn -1.000000 0.000000 -0.000000
vn -1.000000 0.000000 -0.000000
vn 0.000003 0.882095 0.471072
vn 0.000003 0.882095 0.471072
vn 0.000003 0.882095 0.471072
vn 0.000003 0.882095 0.471072
vn 1.000000 0.000000 0.000000
vn 1.000000 0.000000 0.000000
vn 1.000000 0.000000 0.000000
vn 1.000000 0.000000 0.000000
vn -0.000003 -0.882095 -0.471072
vn -0.000003 -0.882095 -0.471072
vn -0.000003 -0.882095 -0.471072
vn -0.000003 -0.882095 -0.471072
s off
f 18/42/1 2/2/2 16/39/3 17/41/4
f 23/50/5 4/6/6 6/7/7 22/49/8
f 20/46/9 15/37/10 8/11/11 19/45/12
f 19/44/13 8/14/14 2/15/15 18/43/16
f 2/17/17 8/18/18 15/38/19 16/40/20
f 7/21/21 1/22/22 13/33/23 14/35/24
f 10/27/25 9/25/26 3/23/27 5/24/28
f 22/48/29 6/10/30 11/29/31 21/47/32
f 12/32/33 11/30/34 6/19/35 4/20/36
f 24/52/37 12/31/38 4/3/39 23/51/40
f 14/35/41 13/33/42 9/25/43 10/27/44
f 21/47/45 11/29/46 15/37/47 20/46/48
f 16/40/49 15/38/50 11/30/51 12/32/52
f 24/52/53 17/41/54 16/39/55 12/31/56
f 1/1/57 18/42/58 17/41/59 13/34/60
f 7/13/61 19/44/62 18/43/63 1/16/64
f 14/36/65 20/46/66 19/45/67 7/12/68
f 10/28/69 21/47/70 20/46/71 14/36/72
f 5/9/73 22/48/74 21/47/75 10/28/76
f 3/5/77 23/50/78 22/49/79 5/8/80
f 9/26/81 24/52/82 23/51/83 3/4/84
f 13/34/85 17/41/86 24/52/87 9/26/88
f 25/53/89 45/54/90 26/55/91 27/56/92
f 28/57/93 27/56/94 34/58/95
f 34/58/96 27/56/97 36/59/98
f 27/56/99 26/55/100 36/59/101
f 26/55/102 33/60/103 36/59/104
f 37/61/105 41/62/106 42/63/107 40/64/108
f 29/65/109 43/66/110 44/67/111 31/68/112
f 31/69/113 44/70/114 45/71/115 25/72/116
f 32/73/117 30/74/118 35/75/119
f 35/75/120 30/74/121 28/76/122
f 26/77/123 32/73/124 33/78/125
f 33/78/126 32/73/127 35/75/128
f 28/76/129 34/79/130 35/75/131
f 31/80/132 25/81/133 27/82/134 29/83/135
f 36/84/136 35/75/137 34/79/138
f 33/78/139 35/75/140 36/84/141
f 27/85/142 41/62/143 37/61/144
f 28/86/145 30/87/146 39/88/147 38/89/148
f 43/90/149 29/91/150 40/64/151 42/63/152
f 29/91/153 27/85/154 37/61/155 40/64/156
f 27/85/157 28/86/158 38/89/159 41/62/160
f 42/63/161 41/62/162 38/89/163 39/88/164
f 30/87/165 43/90/166 42/63/167 39/88/168
f 44/67/169 43/66/170 30/92/171 32/93/172
f 45/71/173 44/70/174 32/94/175 26/95/176
f 46/96/177 47/97/178 48/98/179
f 49/99/180 48/98/181 55/100/182
f 55/100/183 48/98/184 57/101/185
f 48/98/186 47/97/187 57/101/188
f 47/97/189 54/102/190 57/101/191
f 58/103/192 59/104/193 60/105/194 61/106/195
f 50/107/196 51/108/197 53/109/198 52/110/199
f 52/111/200 53/112/201 47/113/202 46/114/203
f 53/115/204 51/116/205 56/117/206
f 56/117/207 51/116/208 49/118/209
f 47/119/210 53/115/211 54/120/212
f 54/120/213 53/115/214 56/117/215
f 49/118/216 55/121/217 56/117/218
f 52/122/219 46/123/220 48/124/221 50/125/222
f 57/126/223 56/117/224 55/121/225
f 54/120/226 56/117/227 57/126/228
f 48/127/229 49/128/230 59/104/231 58/103/232
f 49/128/233 51/129/234 60/105/235 59/104/236
f 51/129/237 50/130/238 61/106/239 60/105/240
f 50/130/241 48/127/242 58/103/243 61/106/244
f 62/131/245 63/132/246 65/133/247 64/134/248
f 64/134/249 65/133/250 67/135/251 66/136/252
f 66/136/253 67/135/254 69/137/255 68/138/256
f 68/139/257 69/140/258 63/141/259 62/142/260
