# This file uses centimeters as units for non-parametric coordinates.

v 620.672791 -114.619362 288.835815
v -627.989258 -117.420151 257.241943
v 55.517319 23.714346 242.138672
v 684.125244 -139.582138 240.446045
v 325.320892 15.181936 158.236328
v 454.955414 -12.473846 180.290405
v 207.868057 39.134289 108.311279
v 512.929626 -23.002647 134.961914
v 699.625610 -145.725891 -75.287109
v -699.625366 -145.725891 -209.695557
v -338.299377 19.411118 -12.605225
v 113.719299 44.087914 -96.920166
v 513.041077 -22.013077 -112.535522
v 208.129303 32.167023 -186.340820
v 565.356140 -94.624504 -288.535522
v 113.612877 -37.024826 -310.598877
v -572.319214 -97.027992 -283.125488
v 647.085815 -124.901108 -268.746582
v 564.655884 -50.559174 -197.089600
v 136.023911 19.514664 -246.538574
v -569.345459 -58.776711 -229.931763
v 510.012909 -29.388927 -157.202393
v 342.867462 12.267396 -168.875488
v 89.602547 36.063580 -185.052612
v 563.816711 -51.162743 -134.677734
v -346.670013 21.921274 -145.403564
v 584.277222 -48.069881 -69.173584
v 597.865723 -57.315872 -24.058838
v -99.486206 50.714878 -30.491455
v 645.634033 -97.479591 -1.577148
v -249.018173 38.251884 56.201538
v -594.346436 -56.171768 44.871582
v -665.838623 -102.717865 95.909058
v 114.014565 49.151928 195.332520
v -1.427614 45.036163 179.607910
v -345.025146 11.850097 193.679321
v -699.625366 -145.725891 148.002197
v -562.199951 -70.229111 224.975586
v -491.169220 -71.001663 288.535278
v -362.764771 -46.363224 -287.957214
v -636.684753 -120.796791 -264.791504
v -344.856506 11.120224 -193.475464
v 686.024353 -140.334869 -192.357178
v 113.477188 40.137238 -145.351929
v -117.060211 51.147785 -135.104858
v -231.625381 34.391068 -135.118896
v -567.529297 -51.124538 -179.869751
v 228.856750 37.009003 -145.354126
v -458.483734 -10.475252 -134.831055
v -515.769775 -23.057169 -89.842651
v -595.782959 -53.563648 -89.936035
v 325.778076 18.090853 -26.342773
v 151.601288 48.364105 -26.462646
v -99.315262 46.239338 -75.607178
v -214.658630 32.653866 -69.000000
v -1.463000 47.776093 -90.069092
v -1.534422 42.327526 0.380371
v 113.846413 47.494625 97.000977
v -433.836304 -7.773860 15.204590
v 600.312500 -52.917286 20.912598
v -1.519916 46.733315 45.105713
v -345.247528 12.951541 100.574341
v -571.612915 -42.630409 109.230835
v -494.623352 -14.751537 123.848145
v 584.686157 -46.867649 134.971924
v 113.857201 46.909851 145.355225
v -1.502158 52.218567 135.122925
v 565.112183 -49.296780 179.997070
v 227.765945 27.168852 192.602905
v 225.980240 10.187727 242.203979
v -567.317078 -51.850491 179.832031
v 559.845154 -67.709595 224.995239
v 228.253311 -32.703388 310.598755
v -353.647339 -54.075554 288.535278
v -361.343689 -17.194977 -254.406509
v -336.132111 -21.621269 242.131683
vt 0.270917 0.275195
vt 0.270917 0.275195
vt 0.270917 0.275195
vt 0.270917 0.275195
vt 0.270917 0.275195
vt 0.270917 0.275195
vt 0.270917 0.275195
vt 0.270917 0.275195
vt 0.270917 0.275195
vt 0.270917 0.275195
vt 0.270917 0.275195
vt 0.270917 0.275195
vt 0.270917 0.275195
vt 0.270917 0.275195
vt 0.270917 0.275195
vt 0.270917 0.275195
vt 0.270917 0.275195
vt 0.270917 0.275195
vt 0.270917 0.275195
vt 0.270917 0.275195
vt 0.270917 0.275195
vt 0.270917 0.275195
vt 0.270917 0.275195
vt 0.270917 0.275195
vt 0.270917 0.275195
vt 0.270917 0.275195
vt 0.270917 0.275195
vt 0.270917 0.275195
vt 0.270917 0.275195
vt 0.270917 0.275195
vt 0.270917 0.275195
vt 0.270917 0.275195
vt 0.270917 0.275195
vt 0.270917 0.275195
vt 0.270917 0.275195
vt 0.270917 0.275195
vt 0.270917 0.275195
vt 0.270917 0.275195
vt 0.270917 0.275195
vt 0.270917 0.275195
vt 0.270917 0.275195
vt 0.270917 0.275195
vt 0.270917 0.275195
vt 0.270917 0.275195
vt 0.270917 0.275195
vt 0.270917 0.275195
vt 0.270917 0.275195
vt 0.270917 0.275195
vt 0.270917 0.275195
vt 0.270917 0.275195
vt 0.270917 0.275195
vt 0.270917 0.275195
vt 0.270917 0.275195
vt 0.270917 0.275195
vt 0.270917 0.275195
vt 0.270917 0.275195
vt 0.270917 0.275195
vt 0.270917 0.275195
vt 0.270917 0.275195
vt 0.270917 0.275195
vt 0.270917 0.275195
vt 0.270917 0.275195
vt 0.270917 0.275195
vt 0.270917 0.275195
vt 0.270917 0.275195
vt 0.270917 0.275195
vt 0.270917 0.275195
vt 0.270917 0.275195
vt 0.270917 0.275195
vt 0.270917 0.275195
vt 0.270917 0.275195
vt 0.270917 0.275195
vt 0.270917 0.275195
vt 0.270917 0.275195
vt 0.270917 0.275195
vt 0.270917 0.275195
vn -0.376755 0.819932 0.431006
vn -0.376755 0.819932 0.431006
vn -0.376755 0.819932 0.431006
vn -0.052713 0.701285 0.710929
vn -0.052713 0.701285 0.710929
vn -0.052713 0.701285 0.710929
vn 0.066953 0.846293 0.528494
vn 0.066953 0.846293 0.528494
vn 0.066953 0.846293 0.528494
vn 0.202403 0.832672 0.515451
vn 0.202403 0.832672 0.515451
vn 0.202403 0.832672 0.515451
vn -0.276085 0.878855 0.389090
vn -0.276085 0.878855 0.389090
vn -0.276085 0.878855 0.389090
vn -0.088465 0.983321 0.158912
vn -0.088465 0.983321 0.158912
vn -0.088465 0.983321 0.158912
vn -0.056828 0.985605 0.159228
vn -0.056828 0.985605 0.159228
vn -0.056828 0.985605 0.159228
vn -0.360790 0.921724 0.142324
vn -0.360790 0.921724 0.142324
vn -0.360790 0.921724 0.142324
vn -0.134906 0.957860 0.253585
vn -0.134906 0.957860 0.253585
vn -0.134906 0.957860 0.253585
vn -0.212028 0.949723 -0.230369
vn -0.212028 0.949723 -0.230369
vn -0.212028 0.949723 -0.230369
vn -0.278656 0.958733 0.056410
vn -0.278656 0.958733 0.056410
vn -0.278656 0.958733 0.056410
vn 0.171208 0.985106 0.015949
vn 0.171208 0.985106 0.015949
vn 0.171208 0.985106 0.015949
vn 0.037510 0.994482 -0.097976
vn 0.037510 0.994482 -0.097976
vn 0.037510 0.994482 -0.097976
vn -0.134295 0.988988 -0.062194
vn -0.134295 0.988988 -0.062194
vn -0.134295 0.988988 -0.062194
vn -0.121966 0.987641 -0.098438
vn -0.121966 0.987641 -0.098438
vn -0.121966 0.987641 -0.098438
vn 0.669137 0.735203 -0.108315
vn 0.669137 0.735203 -0.108315
vn 0.669137 0.735203 -0.108315
vn -0.638765 0.768486 -0.037530
vn -0.638765 0.768486 -0.037530
vn -0.638765 0.768486 -0.037530
vn -0.354838 0.930943 -0.086228
vn -0.354838 0.930943 -0.086228
vn -0.354838 0.930943 -0.086228
vn -0.143625 0.981854 0.123837
vn -0.143625 0.981854 0.123837
vn -0.143625 0.981854 0.123837
vn 0.043935 0.995709 -0.081442
vn 0.043935 0.995709 -0.081442
vn 0.043935 0.995709 -0.081442
vn -0.288403 0.944948 -0.154587
vn -0.288403 0.944948 -0.154587
vn -0.288403 0.944948 -0.154587
vn -0.143782 0.983130 -0.113057
vn -0.143782 0.983130 -0.113057
vn -0.143782 0.983130 -0.113057
vn -0.042660 0.893798 -0.446436
vn -0.042660 0.893798 -0.446436
vn -0.042660 0.893798 -0.446436
vn -0.274403 0.952011 -0.135564
vn -0.274403 0.952011 -0.135564
vn -0.274403 0.952011 -0.135564
vn 0.185014 0.893404 -0.409388
vn 0.185014 0.893404 -0.409388
vn 0.185014 0.893404 -0.409388
vn -0.561917 0.774059 -0.291687
vn -0.561917 0.774059 -0.291687
vn -0.561917 0.774059 -0.291687
vn 0.401707 0.826182 -0.395039
vn 0.401707 0.826182 -0.395039
vn 0.401707 0.826182 -0.395039
vn 0.193578 0.884403 -0.424688
vn 0.193578 0.884403 -0.424688
vn 0.193578 0.884403 -0.424688
vn 0.125269 0.721690 -0.680787
vn 0.125269 0.721690 -0.680787
vn 0.125269 0.721690 -0.680787
vn -0.084207 0.761516 -0.642653
vn -0.084207 0.761516 -0.642653
vn -0.084207 0.761516 -0.642653
vn -0.223453 0.905640 -0.360395
vn -0.223453 0.905640 -0.360395
vn -0.223453 0.905640 -0.360395
vn -0.222639 0.740383 -0.634243
vn -0.222639 0.740383 -0.634243
vn -0.222639 0.740383 -0.634243
vn -0.206375 0.799838 -0.563621
vn -0.206375 0.799838 -0.563621
vn -0.206375 0.799838 -0.563621
vn -0.422145 0.747017 -0.513576
vn -0.422145 0.747017 -0.513576
vn -0.422145 0.747017 -0.513576
vn 0.592254 0.793206 -0.141634
vn 0.592254 0.793206 -0.141634
vn 0.592254 0.793206 -0.141634
vn 0.193913 0.879612 -0.434373
vn 0.193913 0.879612 -0.434373
vn 0.193913 0.879612 -0.434373
vn 0.029308 0.970553 -0.239097
vn 0.029308 0.970553 -0.239097
vn 0.029308 0.970553 -0.239097
vn -0.049103 0.954547 -0.293988
vn -0.049103 0.954547 -0.293988
vn -0.049103 0.954547 -0.293988
vn -0.563280 0.819587 -0.104842
vn -0.563280 0.819587 -0.104842
vn -0.563280 0.819587 -0.104842
vn 0.579935 0.814114 -0.029887
vn 0.579935 0.814114 -0.029887
vn 0.579935 0.814114 -0.029887
vn 0.594214 0.804153 0.015767
vn 0.594214 0.804153 0.015767
vn 0.594214 0.804153 0.015767
vn 0.370071 0.928898 0.013959
vn 0.370071 0.928899 0.013959
vn 0.370071 0.928899 0.013959
vn 0.249342 0.954273 -0.164900
vn 0.249342 0.954273 -0.164900
vn 0.249342 0.954273 -0.164900
vn 0.249565 0.952558 -0.174215
vn 0.249565 0.952558 -0.174215
vn 0.249565 0.952558 -0.174215
vn 0.431525 0.884889 -0.175377
vn 0.431525 0.884889 -0.175377
vn 0.431525 0.884889 -0.175377
vn 0.206404 0.978057 -0.028333
vn 0.206404 0.978057 -0.028333
vn 0.206404 0.978057 -0.028333
vn 0.168400 0.965380 -0.199207
vn 0.168400 0.965380 -0.199207
vn 0.168400 0.965380 -0.199207
vn 0.031125 0.990658 -0.132772
vn 0.031125 0.990658 -0.132772
vn 0.031125 0.990658 -0.132772
vn 0.026911 0.992644 -0.118038
vn 0.026911 0.992644 -0.118038
vn 0.026911 0.992644 -0.118038
vn 0.041699 0.991056 -0.126768
vn 0.041699 0.991056 -0.126768
vn 0.041699 0.991056 -0.126768
vn -0.085492 0.971409 -0.221486
vn -0.085492 0.971409 -0.221486
vn -0.085492 0.971409 -0.221486
vn -0.275061 0.935769 -0.220630
vn -0.275061 0.935769 -0.220630
vn -0.275061 0.935769 -0.220630
vn -0.552706 0.819506 -0.151413
vn -0.552706 0.819506 -0.151413
vn -0.552706 0.819506 -0.151413
vn 0.621776 0.748794 -0.229570
vn 0.621776 0.748794 -0.229570
vn 0.621776 0.748794 -0.229570
vn 0.431073 0.884900 -0.176429
vn 0.431073 0.884901 -0.176429
vn 0.431073 0.884900 -0.176429
vn 0.027011 0.996315 -0.081406
vn 0.027011 0.996315 -0.081406
vn 0.027011 0.996315 -0.081406
vn 0.031626 0.999480 -0.006349
vn 0.031626 0.999480 -0.006349
vn 0.031626 0.999480 -0.006349
vn -0.003352 0.996526 0.083211
vn -0.003352 0.996526 0.083211
vn -0.003352 0.996526 0.083211
vn -0.113675 0.991982 0.055233
vn -0.113675 0.991982 0.055233
vn -0.113675 0.991982 0.055233
vn -0.112449 0.992139 0.054923
vn -0.112449 0.992139 0.054923
vn -0.112449 0.992139 0.054923
vn -0.241454 0.927010 0.286970
vn -0.241454 0.927010 0.286970
vn -0.241454 0.927010 0.286970
vn -0.302536 0.945449 -0.120821
vn -0.302536 0.945449 -0.120821
vn -0.302536 0.945449 -0.120821
vn 0.645063 0.763641 -0.027335
vn 0.645063 0.763641 -0.027335
vn 0.645063 0.763641 -0.027335
vn 0.654609 0.754773 -0.042481
vn 0.654609 0.754773 -0.042481
vn 0.654609 0.754773 -0.042481
vn 0.281332 0.953213 0.110618
vn 0.281332 0.953214 0.110618
vn 0.281332 0.953214 0.110618
vn 0.174584 0.960672 0.215937
vn 0.174584 0.960672 0.215937
vn 0.174584 0.960672 0.215937
vn 0.267020 0.961522 -0.064613
vn 0.267020 0.961523 -0.064613
vn 0.267020 0.961522 -0.064613
vn 0.094858 0.992233 0.080475
vn 0.094858 0.992233 0.080475
vn 0.094858 0.992233 0.080475
vn 0.169398 0.974036 -0.150194
vn 0.169398 0.974036 -0.150194
vn 0.169398 0.974036 -0.150194
vn 0.027442 0.996787 -0.075251
vn 0.027442 0.996787 -0.075251
vn 0.027442 0.996787 -0.075251
vn -0.148579 0.984366 -0.094597
vn -0.148579 0.984366 -0.094597
vn -0.148579 0.984366 -0.094597
vn -0.226234 0.973947 -0.015692
vn -0.226234 0.973947 -0.015692
vn -0.226234 0.973947 -0.015692
vn -0.256969 0.964549 0.060095
vn -0.256969 0.964549 0.060095
vn -0.256969 0.964549 0.060095
vn -0.352856 0.925049 0.140631
vn -0.352856 0.925049 0.140631
vn -0.352856 0.925049 0.140631
vn 0.266350 0.957787 -0.108171
vn 0.266350 0.957787 -0.108171
vn 0.266350 0.957787 -0.108171
vn -0.028800 0.997778 0.060082
vn -0.028800 0.997778 0.060082
vn -0.028800 0.997778 0.060082
vn -0.006790 0.998168 0.060123
vn -0.006790 0.998168 0.060123
vn -0.006790 0.998168 0.060123
vn 0.115412 0.988509 -0.097624
vn 0.115412 0.988509 -0.097624
vn 0.115412 0.988509 -0.097624
vn -0.136265 0.986274 -0.093250
vn -0.136265 0.986274 -0.093250
vn -0.136265 0.986274 -0.093250
vn -0.255039 0.964621 0.066795
vn -0.255039 0.964621 0.066795
vn -0.255039 0.964621 0.066795
vn -0.284963 0.958296 0.021577
vn -0.284963 0.958296 0.021577
vn -0.284963 0.958296 0.021577
vn -0.534385 0.844954 0.022042
vn -0.534385 0.844954 0.022042
vn -0.534385 0.844954 0.022042
vn -0.786365 0.617762 0.000000
vn -0.786365 0.617762 0.000000
vn -0.786365 0.617762 0.000000
vn 0.258839 0.964374 -0.054633
vn 0.258839 0.964374 -0.054633
vn 0.258839 0.964374 -0.054633
vn -0.040315 0.999173 -0.005292
vn -0.040315 0.999173 -0.005292
vn -0.040315 0.999173 -0.005292
vn 0.115349 0.988537 -0.097416
vn 0.115349 0.988537 -0.097416
vn 0.115349 0.988537 -0.097416
vn -0.030016 0.995369 0.091322
vn -0.030016 0.995369 0.091322
vn -0.030016 0.995369 0.091322
vn -0.245718 0.969141 0.019703
vn -0.245718 0.969141 0.019703
vn -0.245718 0.969141 0.019703
vn 0.680616 0.732390 0.019162
vn 0.680616 0.732390 0.019162
vn 0.680616 0.732390 0.019162
vn 0.668629 0.743241 0.022956
vn 0.668629 0.743241 0.022956
vn 0.668629 0.743241 0.022956
vn 0.715035 0.696421 0.061023
vn 0.715035 0.696421 0.061024
vn 0.715035 0.696420 0.061024
vn 0.315580 0.948872 -0.007093
vn 0.315580 0.948872 -0.007093
vn 0.315580 0.948872 -0.007093
vn 0.201316 0.979397 0.015934
vn 0.201316 0.979397 0.015934
vn 0.201316 0.979397 0.015934
vn 0.207854 0.977959 -0.019803
vn 0.207854 0.977959 -0.019803
vn 0.207854 0.977959 -0.019803
vn 0.084597 0.995873 0.032883
vn 0.084597 0.995873 0.032883
vn 0.084597 0.995873 0.032883
vn -0.325275 0.941944 -0.083291
vn -0.325275 0.941944 -0.083291
vn -0.325275 0.941944 -0.083291
vn -0.538951 0.842234 0.013165
vn -0.538951 0.842234 0.013165
vn -0.538951 0.842234 0.013165
vn 0.087128 0.996125 0.012027
vn 0.087128 0.996125 0.012027
vn 0.087128 0.996125 0.012027
vn 0.044899 0.998919 0.012071
vn 0.044899 0.998919 0.012071
vn 0.044899 0.998919 0.012071
vn 0.020770 0.997933 -0.060814
vn 0.020770 0.997933 -0.060814
vn 0.020770 0.997933 -0.060814
vn -0.036907 0.997469 -0.060774
vn -0.036907 0.997469 -0.060774
vn -0.036907 0.997469 -0.060774
vn -0.180519 0.983498 0.012066
vn -0.180519 0.983498 0.012066
vn -0.180518 0.983498 0.012066
vn -0.546399 0.825560 0.141060
vn -0.546399 0.825560 0.141060
vn -0.546400 0.825560 0.141060
vn -0.599506 0.763152 0.241229
vn -0.599506 0.763153 0.241229
vn -0.599506 0.763152 0.241229
vn 0.311954 0.931736 0.185885
vn 0.311954 0.931736 0.185884
vn 0.311954 0.931736 0.185884
vn 0.310398 0.933372 0.180192
vn 0.310398 0.933372 0.180192
vn 0.310398 0.933372 0.180192
vn 0.203221 0.978590 0.032611
vn 0.203221 0.978590 0.032611
vn 0.203221 0.978590 0.032611
vn 0.138167 0.979738 0.144995
vn 0.138167 0.979738 0.144995
vn 0.138167 0.979738 0.144995
vn 0.144197 0.987417 0.064919
vn 0.144197 0.987417 0.064919
vn 0.144197 0.987417 0.064919
vn 0.188524 0.981055 -0.044606
vn 0.188524 0.981055 -0.044606
vn 0.188524 0.981055 -0.044605
vn 0.049899 0.997744 -0.044918
vn 0.049899 0.997744 -0.044918
vn 0.049899 0.997744 -0.044918
vn -0.114679 0.993330 0.012025
vn -0.114679 0.993330 0.012025
vn -0.114679 0.993330 0.012025
vn -0.281099 0.926774 0.249147
vn -0.281099 0.926774 0.249147
vn -0.281099 0.926774 0.249147
vn 0.496117 0.828298 0.260366
vn 0.496117 0.828298 0.260366
vn 0.496117 0.828298 0.260366
vn 0.425725 0.818900 0.384916
vn 0.425725 0.818900 0.384916
vn 0.425725 0.818900 0.384916
vn 0.292695 0.872488 0.391274
vn 0.292695 0.872488 0.391274
vn 0.292695 0.872488 0.391274
vn 0.220262 0.831296 0.510325
vn 0.220262 0.831296 0.510325
vn 0.220262 0.831296 0.510325
vn 0.161589 0.955192 0.247986
vn 0.161589 0.955192 0.247986
vn 0.161589 0.955192 0.247986
vn 0.226618 0.918949 0.322764
vn 0.226618 0.918949 0.322764
vn 0.226618 0.918949 0.322764
vn 0.186990 0.927322 0.324204
vn 0.186990 0.927322 0.324204
vn 0.186990 0.927322 0.324204
vn 0.066411 0.839522 0.539252
vn 0.066411 0.839522 0.539252
vn 0.066411 0.839522 0.539252
vn -0.085897 0.916489 0.390729
vn -0.085897 0.916489 0.390729
vn -0.085897 0.916489 0.390729
vn -0.073406 0.921614 0.381102
vn -0.073406 0.921614 0.381102
vn -0.073406 0.921614 0.381102
vn -0.212955 0.785182 0.581498
vn -0.212955 0.785182 0.581497
vn -0.212955 0.785182 0.581497
vn -0.595934 0.717908 0.359821
vn -0.595934 0.717908 0.359821
vn -0.595934 0.717908 0.359821
vn -0.533578 0.835147 0.133505
vn -0.533578 0.835147 0.133505
vn -0.533578 0.835147 0.133505
vn 0.475671 0.861110 0.179518
vn 0.475671 0.861110 0.179518
vn 0.475671 0.861110 0.179518
vn 0.226245 0.875225 0.427544
vn 0.226245 0.875225 0.427544
vn 0.226245 0.875225 0.427544
vn -0.218011 0.836491 0.502746
vn -0.218011 0.836491 0.502746
vn -0.218011 0.836491 0.502746
vn -0.120831 0.981734 0.146967
vn -0.120831 0.981734 0.146967
vn -0.120831 0.981733 0.146967
vn -0.011639 0.908001 -0.418807
vn -0.011639 0.908001 -0.418807
vn -0.011639 0.908001 -0.418807
vn -0.045895 0.754842 -0.654299
vn -0.045895 0.754842 -0.654299
vn -0.045895 0.754842 -0.654299
vn -0.096361 0.832369 0.545780
vn -0.096361 0.832369 0.545780
vn -0.096361 0.832369 0.545780
vn -0.093887 0.810993 0.577474
vn -0.093887 0.810993 0.577474
vn -0.093887 0.810993 0.577474
s off
f 2/2/1 39/39/2 38/38/3
f 74/74/4 73/73/5 3/3/6
f 3/3/7 73/73/8 70/70/9
f 73/73/10 1/1/11 70/70/12
f 71/71/13 38/38/14 36/36/15
f 36/36/16 35/35/17 67/67/18
f 35/35/19 34/34/20 67/67/21
f 71/71/22 64/64/23 63/63/24
f 62/62/25 67/67/26 31/31/27
f 64/64/28 62/62/29 32/32/30
f 32/32/31 62/62/32 59/59/33
f 53/53/34 5/5/35 52/52/36
f 61/61/37 58/58/38 57/57/39
f 11/11/40 29/29/41 55/55/42
f 55/55/43 29/29/44 54/54/45
f 60/60/46 30/30/47 28/28/48
f 10/10/49 33/33/50 51/51/51
f 51/51/52 50/50/53 47/47/54
f 46/46/55 54/54/56 45/45/57
f 45/45/58 12/12/59 44/44/60
f 49/49/61 26/26/62 47/47/63
f 46/46/64 45/45/65 42/42/66
f 42/42/67 45/45/68 24/24/69
f 47/47/70 42/42/71 21/21/72
f 14/14/73 23/23/74 20/20/75
f 10/10/76 21/21/77 41/41/78
f 19/19/79 18/18/80 15/15/81
f 15/15/82 20/20/83 19/19/84
f 16/16/85 20/20/86 15/15/87
f 16/16/88 42/42/89 20/20/90
f 21/21/91 42/42/92 75/75/93
f 40/40/94 21/21/95 75/75/96
f 40/40/97 17/17/98 21/21/99
f 41/41/100 21/21/101 17/17/102
f 18/18/103 19/19/104 43/43/105
f 23/23/106 19/19/107 20/20/108
f 24/24/109 14/14/110 20/20/111
f 42/42/112 24/24/113 20/20/114
f 21/21/115 10/10/116 47/47/117
f 43/43/118 25/25/119 9/9/120
f 19/19/121 25/25/122 43/43/123
f 19/19/124 22/22/125 25/25/126
f 23/23/127 22/22/128 19/19/129
f 13/13/130 22/22/131 23/23/132
f 22/22/133 13/13/134 25/25/135
f 23/23/136 48/48/137 13/13/138
f 48/48/139 23/23/140 14/14/141
f 24/24/142 48/48/143 14/14/144
f 24/24/145 44/44/146 48/48/147
f 45/45/148 44/44/149 24/24/150
f 26/26/151 46/46/152 42/42/153
f 42/42/154 47/47/155 26/26/156
f 10/10/157 51/51/158 47/47/159
f 25/25/160 27/27/161 9/9/162
f 13/13/163 27/27/164 25/25/165
f 44/44/166 12/12/167 48/48/168
f 45/45/169 56/56/170 12/12/171
f 54/54/172 56/56/173 45/45/174
f 46/46/175 55/55/176 54/54/177
f 46/46/178 26/26/179 55/55/180
f 49/49/181 55/55/182 26/26/183
f 47/47/184 50/50/185 49/49/186
f 27/27/187 30/30/188 9/9/189
f 28/28/190 30/30/191 27/27/192
f 13/13/193 28/28/194 27/27/195
f 48/48/196 28/28/197 13/13/198
f 52/52/199 28/28/200 48/48/201
f 12/12/202 52/52/203 48/48/204
f 53/53/205 52/52/206 12/12/207
f 56/56/208 53/53/209 12/12/210
f 11/11/211 55/55/212 49/49/213
f 50/50/214 11/11/215 49/49/216
f 50/50/217 59/59/218 11/11/219
f 50/50/220 51/51/221 59/59/222
f 28/28/223 52/52/224 60/60/225
f 56/56/226 57/57/227 53/53/228
f 54/54/229 57/57/230 56/56/231
f 29/29/232 57/57/233 54/54/234
f 31/31/235 29/29/236 11/11/237
f 59/59/238 31/31/239 11/11/240
f 51/51/241 32/32/242 59/59/243
f 51/51/244 33/33/245 32/32/246
f 37/37/247 33/33/248 10/10/249
f 52/52/250 8/8/251 60/60/252
f 57/57/253 58/58/254 53/53/255
f 29/29/256 61/61/257 57/57/258
f 29/29/259 31/31/260 61/61/261
f 31/31/262 59/59/263 62/62/264
f 30/30/265 4/4/266 9/9/267
f 30/30/268 65/65/269 4/4/270
f 60/60/271 65/65/272 30/30/273
f 60/60/274 8/8/275 65/65/276
f 5/5/277 8/8/278 52/52/279
f 53/53/280 7/7/281 5/5/282
f 58/58/283 7/7/284 53/53/285
f 63/63/286 64/64/287 32/32/288
f 33/33/289 63/63/290 32/32/291
f 58/58/292 66/66/293 7/7/294
f 58/58/295 67/67/296 66/66/297
f 61/61/298 67/67/299 58/58/300
f 31/31/301 67/67/302 61/61/303
f 62/62/304 64/64/305 36/36/306
f 63/63/307 33/33/308 71/71/309
f 33/33/310 37/37/311 71/71/312
f 65/65/313 6/6/314 68/68/315
f 8/8/316 6/6/317 65/65/318
f 5/5/319 6/6/320 8/8/321
f 66/66/322 5/5/323 7/7/324
f 66/66/325 69/69/326 5/5/327
f 66/66/328 34/34/329 69/69/330
f 66/66/331 67/67/332 34/34/333
f 62/62/334 36/36/335 67/67/336
f 71/71/337 36/36/338 64/64/339
f 65/65/340 68/68/341 4/4/342
f 68/68/343 72/72/344 4/4/345
f 6/6/346 72/72/347 68/68/348
f 70/70/349 72/72/350 6/6/351
f 5/5/352 70/70/353 6/6/354
f 69/69/355 70/70/356 5/5/357
f 69/69/358 34/34/359 70/70/360
f 3/3/361 70/70/362 34/34/363
f 34/34/364 35/35/365 3/3/366
f 36/36/367 3/3/368 35/35/369
f 36/36/370 38/38/371 76/76/372
f 71/71/373 37/37/374 38/38/375
f 2/2/376 38/38/377 37/37/378
f 72/72/379 1/1/380 4/4/381
f 72/72/382 70/70/383 1/1/384
f 38/38/385 74/74/386 76/76/387
f 39/39/388 74/74/389 38/38/390
f 75/75/391 42/42/392 16/16/393
f 40/40/394 75/75/395 16/16/396
f 76/76/397 74/74/398 3/3/399
f 36/36/400 76/76/401 3/3/402
