# This file uses centimeters as units for non-parametric coordinates.

v -150.000000 -161.562622 149.172058
v -150.000000 -12.205334 -154.040665
v -52.905579 -12.205334 -154.040665
v -52.905579 -161.562622 149.172058
v -19.407272 -12.205334 -154.040665
v -19.407272 -161.562622 149.172058
v 47.257011 -12.205334 -154.040665
v 47.257011 -161.562622 149.172058
v 118.340149 -12.205334 -154.040665
v 118.340149 -161.562622 149.172058
v -87.367249 -12.205334 -154.040665
v -87.367249 -161.562622 149.172058
v 150.000000 -12.205334 -154.040665
v 150.000000 -161.562622 149.172058
v 150.000000 -152.889343 153.725891
v 150.000000 -3.532047 -149.486832
v -87.367249 -152.889343 153.725891
v -52.905579 -152.889343 153.725891
v -52.905579 -3.532047 -149.486832
v -87.367249 -3.532047 -149.486832
v -19.407272 -152.889343 153.725891
v -19.407272 -3.532047 -149.486832
v 47.257011 -152.889343 153.725891
v 47.257011 -3.532047 -149.486832
v 118.340149 -152.889343 153.725891
v 118.340149 -3.532047 -149.486832
v -150.000000 -152.889343 153.725891
v -150.000000 -3.532047 -149.486832
v 83.749321 -152.889343 153.725891
v 83.749321 -3.532047 -149.486832
v 83.749321 -12.205334 -154.040665
v 83.749321 -161.562622 149.172058
v 46.208565 -152.941895 158.772583
v 46.208565 -0.534878 -150.248718
v 46.208565 -11.244125 -155.871445
v 46.208565 -163.651123 153.150024
v -17.781906 -152.941895 158.772583
v -17.781906 -0.534878 -150.248718
v -17.781906 -11.244125 -155.871445
v -17.781906 -163.651123 153.150024
v -85.715179 -152.278931 156.663513
v -85.715179 -0.767345 -150.652466
v -85.715179 -11.128178 -156.092224
v -85.715179 -162.639771 151.223755
v -54.552765 -152.278931 156.663513
v -54.552765 -0.767345 -150.652466
v -54.552765 -11.128178 -156.092224
v -54.552765 -162.639771 151.223755
v 85.312347 -0.602264 -150.205688
v 85.312347 -11.276379 -155.809937
v 85.312347 -162.491577 150.941467
v 85.312347 -151.817474 156.545715
v 116.420898 -0.602264 -150.205688
v 116.420898 -11.276379 -155.809937
v 116.420898 -162.491577 150.941467
v 116.420898 -151.817474 156.545715
vt 0.646111 0.407683
vt 0.647121 0.407683
vt 0.647121 0.482596
vt 0.646111 0.482596
vt 0.667179 0.407683
vt 0.687658 0.407683
vt 0.687658 0.482596
vt 0.667179 0.482596
vt 0.688651 0.407683
vt 0.688651 0.482596
vt 0.728412 0.407683
vt 0.750721 0.407683
vt 0.750721 0.482596
vt 0.728412 0.482596
vt 0.607821 0.407683
vt 0.607821 0.482596
vt 0.771868 0.407683
vt 0.787570 0.407683
vt 0.787570 0.482596
vt 0.771868 0.482596
vt 0.646111 0.407683
vt 0.646111 0.482596
vt 0.647121 0.482596
vt 0.647121 0.407683
vt 0.667179 0.407683
vt 0.667179 0.482596
vt 0.687658 0.482596
vt 0.687658 0.407683
vt 0.688651 0.482596
vt 0.688651 0.407683
vt 0.728412 0.407683
vt 0.728412 0.482596
vt 0.750721 0.482596
vt 0.750721 0.407683
vt 0.607821 0.407683
vt 0.607821 0.482596
vt 0.771868 0.407683
vt 0.771868 0.482596
vt 0.787570 0.482596
vt 0.787570 0.407683
vt 0.646111 0.407683
vt 0.647121 0.407683
vt 0.647121 0.482596
vt 0.646111 0.482596
vt 0.667179 0.407683
vt 0.687658 0.407683
vt 0.687658 0.482596
vt 0.667179 0.482596
vt 0.688651 0.407683
vt 0.688651 0.482596
vt 0.728412 0.407683
vt 0.750721 0.407683
vt 0.750721 0.482596
vt 0.728412 0.482596
vt 0.607821 0.407683
vt 0.607821 0.482596
vt 0.771868 0.407683
vt 0.787570 0.407683
vt 0.787570 0.482596
vt 0.771868 0.482596
vt 0.751677 0.407683
vt 0.751677 0.482596
vt 0.751677 0.482596
vt 0.751677 0.482596
vt 0.751677 0.407683
vt 0.751677 0.407683
vt 0.727771 0.407683
vt 0.727771 0.482596
vt 0.727771 0.482596
vt 0.727771 0.407683
vt 0.727771 0.482596
vt 0.727771 0.407683
vt 0.666172 0.407683
vt 0.666172 0.482596
vt 0.666172 0.482596
vt 0.666172 0.482596
vt 0.666172 0.407683
vt 0.666172 0.407683
vt 0.770694 0.482596
vt 0.770694 0.482596
vt 0.770694 0.482596
vt 0.770694 0.407683
vt 0.770694 0.407683
vt 0.770694 0.407683
vt 0.787547 0.407683
vt 0.787547 0.482596
vt 0.787589 0.482596
vt 0.787589 0.407683
vn -0.755545 0.587618 0.289580
vn -0.755545 0.587618 0.289580
vn -0.755545 0.587618 0.289580
vn -0.755545 0.587618 0.289580
vn 0.000000 0.897073 0.441883
vn 0.000000 0.897073 0.441883
vn 0.000000 0.897073 0.441883
vn 0.000000 0.897073 0.441883
vn -0.812795 0.522526 0.257548
vn -0.812795 0.522525 0.257548
vn -0.812795 0.522526 0.257548
vn -0.812795 0.522526 0.257548
vn 0.000000 0.897073 0.441883
vn 0.000000 0.897073 0.441883
vn 0.000000 0.897073 0.441883
vn 0.000000 0.897073 0.441883
vn 0.000000 0.897073 0.441882
vn 0.000000 0.897073 0.441882
vn 0.000000 0.897073 0.441882
vn 0.000000 0.897073 0.441882
vn 0.000000 0.897073 0.441883
vn 0.000000 0.897073 0.441883
vn 0.000000 0.897073 0.441883
vn 0.000000 0.897073 0.441883
vn 0.000020 -0.896995 -0.442041
vn 0.000020 -0.896995 -0.442041
vn 0.000020 -0.896995 -0.442041
vn 0.000020 -0.896995 -0.442041
vn 0.000000 -0.897073 -0.441883
vn 0.000000 -0.897073 -0.441883
vn 0.000000 -0.897073 -0.441883
vn 0.000000 -0.897073 -0.441883
vn -0.019026 -0.896801 -0.442025
vn -0.019026 -0.896801 -0.442025
vn -0.019026 -0.896801 -0.442025
vn -0.019026 -0.896801 -0.442025
vn 0.000000 -0.897073 -0.441883
vn 0.000000 -0.897073 -0.441883
vn 0.000000 -0.897073 -0.441883
vn 0.000000 -0.897073 -0.441883
vn 0.000000 -0.897073 -0.441882
vn 0.000000 -0.897073 -0.441882
vn 0.000000 -0.897073 -0.441882
vn 0.000000 -0.897073 -0.441882
vn 0.000000 -0.897073 -0.441883
vn 0.000000 -0.897073 -0.441883
vn 0.000000 -0.897073 -0.441883
vn 0.000000 -0.897073 -0.441883
vn -0.814246 -0.269861 0.513982
vn -0.814246 -0.269861 0.513982
vn -0.814246 -0.269861 0.513982
vn -0.814246 -0.269861 0.513982
vn -0.814244 0.269862 -0.513986
vn -0.814244 0.269862 -0.513986
vn -0.814244 0.269862 -0.513986
vn -0.814244 0.269862 -0.513986
vn 0.000000 -0.464863 0.885383
vn 0.000000 -0.464863 0.885383
vn 0.000000 -0.464863 0.885383
vn 0.000000 -0.464863 0.885383
vn 0.000000 0.464863 -0.885383
vn 0.000000 0.464863 -0.885383
vn 0.000000 0.464863 -0.885383
vn 0.000000 0.464863 -0.885383
vn -0.940355 -0.158141 0.301203
vn -0.940355 -0.158141 0.301203
vn -0.940355 -0.158141 0.301203
vn -0.940355 -0.158141 0.301203
vn -0.786198 0.287271 -0.547145
vn -0.786198 0.287271 -0.547145
vn -0.786198 0.287271 -0.547145
vn -0.786198 0.287271 -0.547145
vn 0.000000 -0.464862 0.885383
vn 0.000000 -0.464862 0.885383
vn 0.000000 -0.464862 0.885383
vn 0.000000 -0.464862 0.885383
vn 0.000000 0.464863 -0.885383
vn 0.000000 0.464863 -0.885383
vn 0.000000 0.464863 -0.885383
vn 0.000000 0.464863 -0.885383
vn 0.000000 -0.464863 0.885383
vn 0.000000 -0.464863 0.885383
vn 0.000000 -0.464863 0.885383
vn 0.000000 -0.464863 0.885383
vn 0.000000 0.464863 -0.885383
vn 0.000000 0.464863 -0.885383
vn 0.000000 0.464863 -0.885383
vn 0.000000 0.464863 -0.885383
vn -1.000000 -0.000000 0.000000
vn -1.000000 -0.000000 0.000000
vn -1.000000 -0.000000 0.000000
vn -1.000000 -0.000000 0.000000
vn 0.000000 -0.464863 0.885383
vn 0.000000 -0.464863 0.885383
vn 0.000000 -0.464863 0.885383
vn 0.000000 -0.464863 0.885383
vn 0.000000 0.464862 -0.885383
vn 0.000000 0.464862 -0.885383
vn 0.000000 0.464862 -0.885383
vn 0.000000 0.464862 -0.885383
vn -0.822354 0.510375 0.251497
vn -0.822354 0.510375 0.251497
vn -0.822354 0.510375 0.251497
vn -0.822354 0.510375 0.251497
vn -0.787680 0.286391 -0.545473
vn -0.787680 0.286391 -0.545473
vn -0.787680 0.286391 -0.545473
vn -0.787680 0.286391 -0.545473
vn 0.000019 -0.897006 -0.442018
vn 0.000019 -0.897006 -0.442018
vn 0.000019 -0.897006 -0.442018
vn 0.000019 -0.897006 -0.442018
vn -0.787685 -0.286389 0.545466
vn -0.787685 -0.286389 0.545466
vn -0.787685 -0.286389 0.545466
vn -0.787685 -0.286389 0.545466
vn 0.907688 0.376407 0.185527
vn 0.907688 0.376407 0.185527
vn 0.907688 0.376407 0.185528
vn 0.907688 0.376407 0.185527
vn 0.891905 0.210220 -0.400390
vn 0.891905 0.210220 -0.400390
vn 0.891905 0.210220 -0.400390
vn 0.891905 0.210220 -0.400390
vn 0.029488 -0.896573 -0.441913
vn 0.029488 -0.896573 -0.441914
vn 0.029488 -0.896573 -0.441914
vn 0.029488 -0.896573 -0.441914
vn 0.973835 -0.105641 0.201209
vn 0.973835 -0.105641 0.201209
vn 0.973835 -0.105641 0.201209
vn 0.973835 -0.105641 0.201209
vn 0.000000 0.896856 0.442323
vn 0.000000 0.896856 0.442323
vn 0.000000 0.896856 0.442323
vn 0.000000 0.896856 0.442323
vn 0.000000 0.464858 -0.885385
vn 0.000000 0.464858 -0.885385
vn 0.000000 0.464858 -0.885385
vn 0.000000 0.464858 -0.885385
vn 0.000000 -0.896856 -0.442322
vn 0.000000 -0.896856 -0.442322
vn 0.000000 -0.896856 -0.442322
vn 0.000000 -0.896856 -0.442322
vn 0.000000 -0.464848 0.885391
vn 0.000000 -0.464848 0.885391
vn 0.000000 -0.464848 0.885391
vn 0.000000 -0.464848 0.885391
vn 0.000000 0.896919 0.442195
vn 0.000000 0.896919 0.442195
vn 0.000000 0.896919 0.442195
vn 0.000000 0.896919 0.442195
vn 0.000000 0.464855 -0.885387
vn 0.000000 0.464855 -0.885387
vn 0.000000 0.464855 -0.885387
vn 0.000000 0.464855 -0.885387
vn 0.000000 -0.896919 -0.442195
vn 0.000000 -0.896919 -0.442195
vn 0.000000 -0.896919 -0.442195
vn 0.000000 -0.896919 -0.442195
vn 0.000000 -0.464855 0.885387
vn 0.000000 -0.464855 0.885387
vn 0.000000 -0.464855 0.885387
vn 0.000000 -0.464855 0.885387
vn 0.756502 0.586627 0.289090
vn 0.756502 0.586627 0.289090
vn 0.756502 0.586627 0.289090
vn 0.756502 0.586627 0.289090
vn 0.815055 0.269331 -0.512978
vn 0.815055 0.269331 -0.512978
vn 0.815055 0.269331 -0.512978
vn 0.815055 0.269331 -0.512978
vn -0.000020 -0.896995 -0.442040
vn -0.000020 -0.896996 -0.442040
vn -0.000020 -0.896995 -0.442040
vn -0.000020 -0.896996 -0.442040
vn 0.815058 -0.269329 0.512974
vn 0.815058 -0.269329 0.512974
vn 0.815058 -0.269329 0.512974
vn 0.815058 -0.269329 0.512974
vn 0.000000 0.464856 -0.885386
vn 0.000000 0.464856 -0.885386
vn 0.000000 0.464856 -0.885386
vn 0.000000 0.464856 -0.885386
vn 0.000000 -0.896940 -0.442153
vn 0.000000 -0.896940 -0.442153
vn 0.000000 -0.896940 -0.442153
vn 0.000000 -0.896940 -0.442153
vn 0.000000 -0.464857 0.885386
vn 0.000000 -0.464857 0.885386
vn 0.000000 -0.464857 0.885386
vn 0.000000 -0.464857 0.885386
vn 0.000000 0.896940 0.442153
vn 0.000000 0.896940 0.442153
vn 0.000000 0.896940 0.442153
vn 0.000000 0.896940 0.442153
vn 0.721241 0.322001 -0.613292
vn 0.721241 0.322001 -0.613292
vn 0.721241 0.322001 -0.613292
vn 0.721241 0.322001 -0.613292
vn -0.000016 -0.897007 -0.442017
vn -0.000016 -0.897007 -0.442017
vn -0.000016 -0.897007 -0.442017
vn -0.000016 -0.897007 -0.442017
vn 0.721246 -0.321999 0.613287
vn 0.721246 -0.321999 0.613287
vn 0.721246 -0.321999 0.613287
vn 0.721246 -0.321999 0.613287
vn 0.762101 0.580774 0.286188
vn 0.762101 0.580774 0.286188
vn 0.762101 0.580774 0.286188
vn 0.762101 0.580774 0.286188
vn 1.000000 0.000000 0.000000
vn 1.000000 0.000000 0.000000
vn 1.000000 0.000000 0.000000
vn 1.000000 0.000000 0.000000
s off
f 17/1/1 41/2/2 42/3/3 20/4/4
f 18/5/5 21/6/6 22/7/7 19/8/8
f 21/6/9 37/9/10 38/10/11 22/7/12
f 23/11/13 29/12/14 30/13/15 24/14/16
f 27/15/17 17/1/18 20/4/19 28/16/20
f 25/17/21 15/18/22 16/19/23 26/20/24
f 12/21/25 11/22/26 43/23/27 44/24/28
f 4/25/29 3/26/30 5/27/31 6/28/32
f 6/28/33 5/27/34 39/29/35 40/30/36
f 8/31/37 7/32/38 31/33/39 32/34/40
f 1/35/41 2/36/42 11/22/43 12/21/44
f 10/37/45 9/38/46 13/39/47 14/40/48
f 12/41/49 44/42/50 41/2/51 17/1/52
f 43/43/53 11/44/54 20/4/55 42/3/56
f 4/45/57 6/46/58 21/6/59 18/5/60
f 5/47/61 3/48/62 19/8/63 22/7/64
f 6/46/65 40/49/66 37/9/67 21/6/68
f 39/50/69 5/47/70 22/7/71 38/10/72
f 8/51/73 32/52/74 29/12/75 23/11/76
f 31/53/77 7/54/78 24/14/79 30/13/80
f 1/55/81 12/41/82 17/1/83 27/15/84
f 11/44/85 2/56/86 28/16/87 20/4/88
f 2/56/89 1/55/90 27/15/91 28/16/92
f 10/57/93 14/58/94 15/18/95 25/17/96
f 13/59/97 9/60/98 26/20/99 16/19/100
f 29/12/101 52/61/102 49/62/103 30/13/104
f 50/63/105 31/53/106 30/13/107 49/62/108
f 32/34/109 31/33/110 50/64/111 51/65/112
f 29/12/113 32/52/114 51/66/115 52/61/116
f 33/67/117 23/11/118 24/14/119 34/68/120
f 7/54/121 35/69/122 34/68/123 24/14/124
f 36/70/125 35/71/126 7/32/127 8/31/128
f 33/67/129 36/72/130 8/51/131 23/11/132
f 37/9/133 33/67/134 34/68/135 38/10/136
f 35/69/137 39/50/138 38/10/139 34/68/140
f 40/30/141 39/29/142 35/71/143 36/70/144
f 37/9/145 40/49/146 36/72/147 33/67/148
f 41/2/149 45/73/150 46/74/151 42/3/152
f 47/75/153 43/43/154 42/3/155 46/74/156
f 44/24/157 43/23/158 47/76/159 48/77/160
f 41/2/161 44/42/162 48/78/163 45/73/164
f 45/73/165 18/5/166 19/8/167 46/74/168
f 3/48/169 47/75/170 46/74/171 19/8/172
f 48/77/173 47/76/174 3/26/175 4/25/176
f 45/73/177 48/78/178 4/45/179 18/5/180
f 54/79/181 50/63/182 49/62/183 53/80/184
f 51/65/185 50/64/186 54/81/187 55/82/188
f 52/61/189 51/66/190 55/83/191 56/84/192
f 49/62/193 52/61/194 56/84/195 53/80/196
f 9/60/197 54/79/198 53/80/199 26/20/200
f 55/82/201 54/81/202 9/38/203 10/37/204
f 56/84/205 55/83/206 10/57/207 25/17/208
f 53/80/209 56/84/210 25/17/211 26/20/212
f 14/85/213 13/86/214 16/87/215 15/88/216
