# This file uses centimeters as units for non-parametric coordinates.

v 68.205566 11.211029 106.495361
v -11.842041 31.860424 106.500397
v 59.334106 30.970987 86.284637
v -12.846069 11.918079 122.377777
v 4.993286 -0.848895 118.882751
v -71.272583 18.898201 105.484467
v 84.570313 11.902162 100.268097
v -70.739136 2.965605 104.579010
v -64.112244 33.600391 79.295044
v -114.195862 9.956821 69.930115
v 74.831238 -54.737579 106.409454
v 73.125610 35.390591 43.025055
v -43.877563 -84.900803 97.119141
v -99.858704 33.044132 49.663086
v -94.616394 35.648884 -4.071808
v -116.183167 26.687698 18.403168
v 111.204834 0.391663 25.177307
v 116.018066 19.950167 24.771881
v -124.863892 -54.748077 72.342072
v 102.610855 -70.889275 28.025665
v 114.181824 18.461773 -10.848999
v 118.141785 9.771038 10.370331
v 95.845947 28.014771 -31.080627
v 119.292831 -41.756603 7.074890
v -117.380676 4.153985 11.767731
v 116.595154 8.028046 -24.423981
v -124.831238 -54.097641 -8.597412
v -27.545471 35.635593 -57.032471
v -110.975342 11.836361 -16.522522
v 60.523987 25.988197 -62.024841
v -93.943787 5.260303 -54.476166
v 79.470215 9.600216 -59.512329
v 74.991684 -84.900795 -9.444275
v -36.452026 27.120316 -70.438690
v -78.493958 24.281136 -55.323181
v -63.171844 -84.900803 -48.812408
v -11.754761 19.154381 -81.100616
v -70.965576 -5.620085 -74.871826
v -50.279541 14.774097 -79.269562
v -51.561890 -0.498707 -79.379578
v 26.907654 11.902316 -78.762054
vt 0.235117 0.326888
vt 0.235117 0.326888
vt 0.235117 0.326888
vt 0.235117 0.326888
vt 0.235117 0.326888
vt 0.235117 0.326888
vt 0.235117 0.326888
vt 0.235117 0.326888
vt 0.235117 0.326888
vt 0.235117 0.326888
vt 0.235117 0.326888
vt 0.235117 0.326888
vt 0.235117 0.326888
vt 0.235117 0.326888
vt 0.235117 0.326888
vt 0.235117 0.326888
vt 0.235117 0.326888
vt 0.235117 0.326888
vt 0.235117 0.326888
vt 0.235117 0.326888
vt 0.235117 0.326888
vt 0.235117 0.326888
vt 0.235117 0.326888
vt 0.235117 0.326888
vt 0.235117 0.326888
vt 0.235117 0.326888
vt 0.235117 0.326888
vt 0.235117 0.326888
vt 0.235117 0.326888
vt 0.235117 0.326888
vt 0.235117 0.326888
vt 0.235117 0.326888
vt 0.235117 0.326888
vt 0.235117 0.326888
vt 0.235117 0.326888
vt 0.235117 0.326888
vt 0.235117 0.326888
vt 0.235117 0.326888
vt 0.235117 0.326888
vt 0.235117 0.326888
vt 0.235117 0.326888
vn 0.192298 0.000052 0.981337
vn 0.192298 0.000052 0.981337
vn 0.192298 0.000052 0.981337
vn 0.136041 0.737580 0.661414
vn 0.136041 0.737580 0.661414
vn 0.136041 0.737580 0.661414
vn 0.225534 0.599841 0.767675
vn 0.225534 0.599841 0.767675
vn 0.225534 0.599841 0.767675
vn -0.179623 0.776187 0.604375
vn -0.179623 0.776187 0.604375
vn -0.179623 0.776187 0.604375
vn -0.179623 0.776187 0.604375
vn -0.284229 -0.063882 0.956626
vn -0.284229 -0.063882 0.956626
vn -0.284229 -0.063882 0.956626
vn 0.210142 0.743586 0.634761
vn 0.210142 0.743586 0.634761
vn 0.210142 0.743586 0.634761
vn 0.189022 0.017712 0.981813
vn 0.189022 0.017712 0.981813
vn 0.189022 0.017712 0.981813
vn 0.019826 0.999470 0.025830
vn 0.019826 0.999470 0.025830
vn 0.019826 0.999470 0.025830
vn -0.266962 -0.162264 0.949948
vn -0.266962 -0.162263 0.949948
vn -0.266962 -0.162263 0.949948
vn 0.007244 -0.254603 0.967019
vn 0.007244 -0.254603 0.967019
vn 0.007244 -0.254603 0.967018
vn -0.452713 0.824635 0.339158
vn -0.452713 0.824635 0.339158
vn -0.452713 0.824635 0.339158
vn -0.628475 -0.065092 0.775101
vn -0.628475 -0.065092 0.775101
vn -0.628475 -0.065092 0.775101
vn 0.354172 0.034365 0.934549
vn 0.354172 0.034365 0.934549
vn 0.354172 0.034365 0.934549
vn -0.014190 -0.242898 0.969948
vn -0.014190 -0.242898 0.969948
vn -0.014190 -0.242898 0.969948
vn -0.442246 0.730921 0.519782
vn -0.442246 0.730921 0.519782
vn -0.442246 0.730921 0.519782
vn -0.605421 0.129092 0.785367
vn -0.605420 0.129092 0.785367
vn -0.605421 0.129092 0.785367
vn 0.932186 -0.104290 0.346631
vn 0.932186 -0.104290 0.346631
vn 0.932186 -0.104290 0.346631
vn -0.003827 0.999385 0.034847
vn -0.003827 0.999385 0.034847
vn -0.003827 0.999385 0.034847
vn -0.003827 0.999385 0.034847
vn 0.495410 0.833938 0.243140
vn 0.495410 0.833938 0.243140
vn 0.495410 0.833938 0.243140
vn 0.425615 0.863879 0.269380
vn 0.425615 0.863879 0.269380
vn 0.425615 0.863879 0.269380
vn -0.349819 -0.184914 0.918386
vn -0.349819 -0.184914 0.918386
vn -0.349819 -0.184914 0.918386
vn -0.051456 0.997734 0.043344
vn -0.051456 0.997734 0.043344
vn -0.051456 0.997734 0.043344
vn -0.715785 0.655607 0.240483
vn -0.715785 0.655607 0.240483
vn -0.715785 0.655607 0.240483
vn 0.217184 -0.937975 0.270249
vn 0.217184 -0.937975 0.270249
vn 0.217184 -0.937975 0.270249
vn 0.909220 -0.216381 0.355667
vn 0.909220 -0.216381 0.355667
vn 0.909220 -0.216381 0.355667
vn 0.931441 -0.098299 0.350363
vn 0.931441 -0.098299 0.350363
vn 0.931441 -0.098299 0.350363
vn -0.376405 0.926419 0.008186
vn -0.376405 0.926419 0.008186
vn -0.376405 0.926419 0.008186
vn -0.985755 0.163926 0.037622
vn -0.985755 0.163926 0.037622
vn -0.985755 0.163926 0.037622
vn -0.991946 0.126657 0.000618
vn -0.991946 0.126657 0.000618
vn -0.991946 0.126657 0.000618
vn -0.997981 0.038063 0.050849
vn -0.997981 0.038063 0.050849
vn -0.997981 0.038063 0.050849
vn 0.929393 -0.222616 0.294399
vn 0.929393 -0.222616 0.294399
vn 0.929393 -0.222616 0.294399
vn -0.450728 -0.892631 -0.007355
vn -0.450728 -0.892631 -0.007355
vn -0.450728 -0.892631 -0.007355
vn 0.343086 0.939231 0.011705
vn 0.343086 0.939231 0.011705
vn 0.343086 0.939231 0.011705
vn 0.829932 -0.077988 0.552386
vn 0.829932 -0.077988 0.552386
vn 0.829932 -0.077988 0.552386
vn -0.361325 -0.931216 0.047772
vn -0.361325 -0.931216 0.047772
vn -0.361325 -0.931216 0.047772
vn -0.648521 0.674119 -0.353531
vn -0.648521 0.674119 -0.353531
vn -0.648521 0.674119 -0.353531
vn 0.000000 -1.000000 -0.000000
vn 0.000000 -1.000000 -0.000000
vn 0.000000 -1.000000 -0.000000
vn 0.193208 -0.957195 0.215520
vn 0.193208 -0.957195 0.215520
vn 0.193208 -0.957195 0.215520
vn 0.955018 0.290576 -0.059215
vn 0.955018 0.290576 -0.059215
vn 0.955018 0.290576 -0.059215
vn 0.955018 0.290576 -0.059215
vn -0.968363 0.183123 -0.169524
vn -0.968363 0.183123 -0.169524
vn -0.968363 0.183123 -0.169524
vn 0.799825 -0.600208 -0.005486
vn 0.799825 -0.600208 -0.005486
vn 0.799825 -0.600208 -0.005486
vn 0.982775 0.133866 0.127411
vn 0.982775 0.133866 0.127411
vn 0.982775 0.133866 0.127411
vn -0.682995 0.629945 -0.369712
vn -0.682995 0.629945 -0.369712
vn -0.682995 0.629945 -0.369712
vn -0.975511 0.108227 -0.191481
vn -0.975511 0.108227 -0.191481
vn -0.975511 0.108227 -0.191481
vn -0.217883 0.936087 -0.276168
vn -0.217883 0.936087 -0.276168
vn -0.217883 0.936087 -0.276168
vn 0.514319 0.855336 -0.062253
vn 0.514319 0.855336 -0.062253
vn 0.514319 0.855336 -0.062253
vn -0.614672 -0.256641 -0.745865
vn -0.614672 -0.256641 -0.745865
vn -0.614672 -0.256641 -0.745865
vn 0.720741 -0.626334 -0.297048
vn 0.720741 -0.626334 -0.297048
vn 0.720741 -0.626334 -0.297048
vn 0.015203 0.999704 0.019002
vn 0.015203 0.999704 0.019002
vn 0.015203 0.999704 0.019002
vn -0.894682 0.136907 -0.425206
vn -0.894682 0.136907 -0.425206
vn -0.894682 0.136907 -0.425206
vn 0.630382 -0.390377 -0.670987
vn 0.630382 -0.390377 -0.670987
vn 0.630382 -0.390377 -0.670987
vn 0.705846 0.616701 -0.348512
vn 0.705846 0.616701 -0.348512
vn 0.705846 0.616701 -0.348512
vn -0.714228 0.561533 -0.417802
vn -0.714228 0.561533 -0.417802
vn -0.714228 0.561533 -0.417802
vn 0.097379 0.979684 -0.175317
vn 0.097379 0.979684 -0.175317
vn 0.097379 0.979684 -0.175317
vn 0.627573 0.436887 -0.644423
vn 0.627573 0.436887 -0.644423
vn 0.627573 0.436887 -0.644423
vn 0.624137 -0.388676 -0.677778
vn 0.624137 -0.388676 -0.677778
vn 0.624137 -0.388676 -0.677778
vn -0.210777 0.882473 -0.420492
vn -0.210777 0.882474 -0.420492
vn -0.210777 0.882474 -0.420492
vn 0.542665 0.527117 -0.653959
vn 0.542665 0.527117 -0.653959
vn 0.542665 0.527117 -0.653959
vn 0.287733 -0.458979 -0.840564
vn 0.287733 -0.458979 -0.840564
vn 0.287733 -0.458979 -0.840564
vn -0.507941 0.378113 -0.773968
vn -0.507941 0.378113 -0.773968
vn -0.507941 0.378113 -0.773968
vn 0.342238 0.257104 -0.903754
vn 0.342238 0.257104 -0.903754
vn 0.342238 0.257104 -0.903754
vn -0.708130 -0.282339 -0.647177
vn -0.708130 -0.282339 -0.647177
vn -0.708130 -0.282339 -0.647177
vn 0.239853 -0.483626 -0.841770
vn 0.239853 -0.483626 -0.841770
vn 0.239853 -0.483626 -0.841770
vn 0.031333 0.834150 -0.550647
vn 0.031333 0.834150 -0.550647
vn 0.031333 0.834150 -0.550647
vn 0.061849 0.841964 -0.535977
vn 0.061849 0.841964 -0.535976
vn 0.061849 0.841964 -0.535976
vn -0.270657 0.741909 -0.613445
vn -0.270657 0.741909 -0.613445
vn -0.270657 0.741909 -0.613445
vn -0.133024 -0.321264 -0.937600
vn -0.133024 -0.321264 -0.937600
vn -0.133024 -0.321264 -0.937600
vn 0.134624 -0.353737 -0.925606
vn 0.134624 -0.353737 -0.925606
vn 0.134624 -0.353737 -0.925606
vn 0.001995 -0.297257 -0.954795
vn 0.001995 -0.297258 -0.954795
vn 0.001995 -0.297257 -0.954795
vn -0.110140 0.656879 -0.745908
vn -0.110140 0.656879 -0.745908
vn -0.110140 0.656879 -0.745908
vn 0.156806 0.577647 -0.801084
vn 0.156806 0.577647 -0.801084
vn 0.156806 0.577647 -0.801084
vn -0.232853 0.026554 -0.972150
vn -0.232853 0.026554 -0.972150
vn -0.232853 0.026554 -0.972149
vn -0.048753 0.011288 -0.998747
vn -0.048753 0.011288 -0.998747
vn -0.048753 0.011288 -0.998747
vn 0.077232 0.994168 -0.075272
vn 0.077232 0.994168 -0.075272
vn 0.077232 0.994168 -0.075272
vn -0.526237 0.368517 -0.766336
vn -0.526237 0.368517 -0.766335
vn -0.526237 0.368517 -0.766336
s off
f 1/1/1 4/4/2 5/6/3
f 1/1/4 3/5/5 4/4/6
f 4/4/7 3/5/8 2/2/9
f 6/3/10 4/4/11 2/2/12 9/9/13
f 6/3/14 8/10/15 4/4/16
f 3/5/17 1/1/18 7/8/19
f 1/1/20 5/6/21 11/7/22
f 9/9/23 2/2/24 3/5/25
f 4/4/26 8/10/27 13/11/28
f 4/4/29 13/11/30 5/6/31
f 6/3/32 9/9/33 10/12/34
f 8/10/35 6/3/36 10/12/37
f 7/8/38 1/1/39 11/7/40
f 13/11/41 11/7/42 5/6/43
f 14/14/44 10/12/45 9/9/46
f 10/12/47 19/15/48 8/10/49
f 11/7/50 17/16/51 7/8/52
f 9/9/53 3/5/54 12/13/55 28/30/56
f 3/5/57 7/8/58 12/13/59
f 18/20/60 12/13/61 7/8/62
f 19/15/63 13/11/64 8/10/65
f 9/9/66 15/18/67 14/14/68
f 14/14/69 16/17/70 10/12/71
f 13/11/72 20/19/73 11/7/74
f 7/8/75 17/16/76 18/20/77
f 11/7/78 20/19/79 17/16/80
f 16/17/81 14/14/82 15/18/83
f 10/12/84 25/21/85 19/15/86
f 25/21/87 27/22/88 19/15/89
f 25/21/90 10/12/91 16/17/92
f 18/20/93 17/16/94 22/24/95
f 27/22/96 36/25/97 19/15/98
f 23/26/99 12/13/100 18/20/101
f 20/19/102 24/27/103 17/16/104
f 36/25/105 13/11/106 19/15/107
f 16/17/108 15/18/109 35/33/110
f 36/25/111 33/34/112 13/11/113
f 33/34/114 20/19/115 13/11/116
f 21/23/117 18/20/118 22/24/119 26/29/120
f 25/21/121 29/28/122 27/22/123
f 17/16/124 26/29/125 22/24/126
f 24/27/127 26/29/128 17/16/129
f 35/33/130 29/28/131 16/17/132
f 16/17/133 29/28/134 25/21/135
f 28/30/136 35/33/137 15/18/138
f 18/20/139 21/23/140 23/26/141
f 31/31/142 36/25/143 27/22/144
f 33/34/145 24/27/146 20/19/147
f 28/30/148 15/18/149 9/9/150
f 29/28/151 31/31/152 27/22/153
f 24/27/154 33/34/155 26/29/156
f 21/23/157 26/29/158 23/26/159
f 35/33/160 31/31/161 29/28/162
f 30/32/163 28/30/164 23/26/165
f 23/26/166 26/29/167 32/36/168
f 32/36/169 26/29/170 33/34/171
f 34/35/172 35/33/173 28/30/174
f 23/26/175 32/36/176 30/32/177
f 41/38/178 32/36/179 33/34/180
f 31/31/181 35/33/182 38/37/183
f 32/36/184 41/38/185 30/32/186
f 38/37/187 36/25/188 31/31/189
f 36/25/190 41/38/191 33/34/192
f 37/39/193 34/35/194 28/30/195
f 30/32/196 37/39/197 28/30/198
f 39/40/199 35/33/200 34/35/201
f 40/41/202 36/25/203 38/37/204
f 40/41/205 37/39/206 36/25/207
f 37/39/208 41/38/209 36/25/210
f 34/35/211 37/39/212 39/40/213
f 30/32/214 41/38/215 37/39/216
f 39/40/217 40/41/218 38/37/219
f 39/40/220 37/39/221 40/41/222
f 28/30/223 12/13/224 23/26/225
f 39/40/226 38/37/227 35/33/228
