# This file uses centimeters as units for non-parametric coordinates.

v -559.279846 -27.012917 349.550232
v -419.459290 -27.012917 489.369568
v -279.639343 -27.012917 489.369568
v -139.819702 -27.012913 489.369568
v -0.000061 -27.012917 489.369568
v 139.820801 -27.012920 489.369568
v 279.639526 -27.012920 489.369568
v 419.459473 -27.012917 489.369568
v 559.279968 -27.012989 349.550232
v -419.459290 9.651054 349.550232
v -279.639343 13.333992 349.550232
v -139.819702 0.589317 349.550232
v -17.659637 15.876793 366.273376
v 139.820801 -8.440910 349.550232
v 279.639526 -11.766335 349.550232
v 419.459473 11.615776 349.550232
v -559.279846 -27.012917 209.730957
v -439.016174 10.994820 226.961792
v -298.944458 44.134842 205.832642
v -139.819702 52.474083 209.730957
v -0.000061 46.592049 209.730957
v 139.820801 37.621704 209.730957
v 279.639526 27.834648 209.730957
v 412.805420 6.045631 187.306641
v 559.279968 -27.012989 209.730957
v -559.279846 -27.012917 69.910400
v -419.459290 10.394234 69.910400
v -279.639343 39.972176 69.910400
v -139.819702 65.857796 69.910400
v 22.177094 57.530159 101.932495
v 139.820801 41.029533 69.910400
v 279.639526 40.647377 69.910400
v 419.459473 -1.751457 69.910400
v 559.279968 -27.012917 69.910400
v -559.279846 -27.012989 -69.910156
v -435.596985 6.425346 -100.466797
v -279.639343 45.518967 -69.910156
v -160.624130 67.686546 -65.967285
v -0.000061 47.993095 -69.910156
v 139.820801 57.700142 -69.910156
v 308.214050 30.686287 -76.575195
v 419.459473 0.674995 -69.910156
v 559.279968 -27.012917 -69.910156
v -559.279846 -27.012917 -209.729492
v -419.459290 15.592674 -209.729492
v -279.639343 42.226051 -209.729492
v -147.621216 32.531151 -237.264893
v -0.000061 41.216148 -209.729492
v 154.428650 52.610191 -225.220825
v 279.639526 50.918068 -209.729492
v 419.459473 -11.602531 -209.729492
v 559.279968 -27.012913 -209.729492
v -559.279846 -27.012989 -349.549438
v -419.459290 -0.414864 -349.549438
v -279.639343 11.864494 -349.549438
v -166.914413 10.658440 -365.720093
v -0.000061 6.783699 -349.549438
v 139.820801 -11.778999 -349.549438
v 279.639526 -12.040077 -349.549438
v 419.459473 1.712135 -349.549438
v 559.279968 -27.012913 -349.549438
v -419.459290 -27.012989 -489.369385
v -279.639343 -27.012917 -489.369385
v -139.819702 -27.012920 -489.369385
v -0.000061 -27.012913 -489.369385
v 139.820801 -27.012917 -489.369385
v 279.639526 -27.012917 -489.369385
v 419.459473 -27.012920 -489.369385
vt 0.527173 0.242979
vt 0.527173 0.242979
vt 0.527173 0.242979
vt 0.527173 0.242979
vt 0.527173 0.242979
vt 0.527173 0.242979
vt 0.527173 0.242979
vt 0.527173 0.242979
vt 0.527173 0.242979
vt 0.527173 0.242979
vt 0.527173 0.242979
vt 0.527173 0.242979
vt 0.527173 0.242979
vt 0.527173 0.242979
vt 0.527173 0.242979
vt 0.527173 0.242979
vt 0.527173 0.242979
vt 0.527173 0.242979
vt 0.527173 0.242979
vt 0.527173 0.242979
vt 0.527173 0.242979
vt 0.527173 0.242979
vt 0.527173 0.242979
vt 0.527173 0.242979
vt 0.527173 0.242979
vt 0.527173 0.242979
vt 0.527173 0.242979
vt 0.527173 0.242979
vt 0.527173 0.242979
vt 0.527173 0.242979
vt 0.527173 0.242979
vt 0.527173 0.242979
vt 0.527173 0.242979
vt 0.527173 0.242979
vt 0.527173 0.242979
vt 0.527173 0.242979
vt 0.527173 0.242979
vt 0.527173 0.242979
vt 0.527173 0.242979
vt 0.527173 0.242979
vt 0.527173 0.242979
vt 0.527173 0.242979
vt 0.527173 0.242979
vt 0.527173 0.242979
vt 0.527173 0.242979
vt 0.527173 0.242979
vt 0.527173 0.242979
vt 0.527173 0.242979
vt 0.527173 0.242979
vt 0.527173 0.242979
vt 0.527173 0.242979
vt 0.527173 0.242979
vt 0.527173 0.242979
vt 0.527173 0.242979
vt 0.527173 0.242979
vt 0.527173 0.242979
vt 0.527173 0.242979
vt 0.527173 0.242979
vt 0.527173 0.242979
vt 0.527173 0.242979
vt 0.527173 0.242979
vt 0.527173 0.242979
vt 0.527173 0.242979
vt 0.527173 0.242979
vt 0.527173 0.242979
vt 0.527173 0.242979
vt 0.527173 0.242979
vt 0.527173 0.242979
vn -0.245860 0.937606 0.245863
vn -0.245860 0.937606 0.245863
vn -0.245860 0.937606 0.245863
vn 0.000000 0.967297 0.253648
vn 0.000000 0.967297 0.253648
vn 0.000000 0.967297 0.253648
vn -0.025300 0.960490 0.277163
vn -0.025300 0.960490 0.277163
vn -0.025300 0.960490 0.277163
vn 0.000000 0.960797 0.277252
vn 0.000000 0.960797 0.277252
vn 0.000000 0.960797 0.277252
vn 0.089069 0.977166 0.192906
vn 0.089069 0.977166 0.192906
vn 0.089069 0.977166 0.192906
vn -0.000000 0.944321 0.329024
vn -0.000000 0.944322 0.329024
vn -0.000000 0.944321 0.329024
vn -0.147650 0.970313 0.191553
vn -0.147650 0.970313 0.191553
vn -0.147650 0.970313 0.191553
vn 0.000000 0.944321 0.329025
vn 0.000000 0.944321 0.329025
vn 0.000000 0.944321 0.329025
vn 0.164772 0.977744 0.129872
vn 0.164772 0.977744 0.129872
vn 0.164772 0.977744 0.129872
vn 0.000000 0.991293 0.131672
vn 0.000000 0.991293 0.131672
vn 0.000000 0.991293 0.131672
vn 0.023637 0.993829 0.108372
vn 0.023637 0.993829 0.108372
vn 0.023637 0.993829 0.108372
vn -0.000000 0.963890 0.266300
vn -0.000000 0.963890 0.266300
vn -0.000000 0.963890 0.266300
vn -0.163994 0.980648 0.106935
vn -0.163994 0.980648 0.106935
vn -0.163994 0.980648 0.106935
vn 0.257330 0.931430 0.257331
vn 0.257330 0.931430 0.257331
vn 0.257330 0.931430 0.257331
vn -0.253646 0.967297 0.000000
vn -0.253646 0.967297 0.000000
vn -0.253646 0.967297 0.000000
vn -0.308567 0.949332 0.059633
vn -0.308567 0.949331 0.059633
vn -0.308567 0.949331 0.059633
vn -0.026328 0.999538 0.015157
vn -0.026328 0.999538 0.015157
vn -0.026328 0.999538 0.015157
vn -0.191042 0.954216 0.230165
vn -0.191042 0.954215 0.230165
vn -0.191042 0.954216 0.230165
vn 0.085146 0.934126 0.346640
vn 0.085146 0.934126 0.346640
vn 0.085146 0.934126 0.346640
vn -0.056381 0.974662 0.216458
vn -0.056381 0.974662 0.216458
vn -0.056381 0.974662 0.216458
vn -0.162752 0.925030 0.343265
vn -0.162752 0.925030 0.343265
vn -0.162752 0.925030 0.343265
vn 0.041209 0.979567 0.196850
vn 0.041209 0.979567 0.196850
vn 0.041209 0.979567 0.196850
vn 0.177049 0.934781 0.307958
vn 0.177049 0.934781 0.307958
vn 0.177049 0.934781 0.307958
vn 0.062744 0.977995 0.198971
vn 0.062744 0.977995 0.198971
vn 0.062744 0.977995 0.198971
vn 0.022878 0.961901 0.272439
vn 0.022878 0.961901 0.272439
vn 0.022878 0.961901 0.272439
vn 0.066337 0.947694 0.312212
vn 0.066337 0.947694 0.312212
vn 0.066337 0.947694 0.312212
vn -0.164879 0.985942 -0.027087
vn -0.164879 0.985942 -0.027087
vn -0.164879 0.985942 -0.027087
vn 0.199243 0.942862 0.267047
vn 0.199243 0.942862 0.267047
vn 0.199243 0.942862 0.267047
vn 0.266298 0.963891 0.000000
vn 0.266298 0.963891 0.000000
vn 0.266298 0.963891 0.000000
vn 0.226171 0.973152 -0.042686
vn 0.226171 0.973152 -0.042686
vn 0.226171 0.973152 -0.042686
vn -0.301345 0.953515 0.000000
vn -0.301345 0.953515 0.000000
vn -0.301345 0.953515 0.000000
vn -0.258281 0.965404 -0.035854
vn -0.258281 0.965404 -0.035854
vn -0.258281 0.965404 -0.035854
vn -0.234817 0.971481 -0.032956
vn -0.234817 0.971481 -0.032956
vn -0.234817 0.971481 -0.032956
vn -0.206599 0.976630 -0.059253
vn -0.206599 0.976630 -0.059253
vn -0.206599 0.976630 -0.059253
vn -0.054422 0.993975 0.095144
vn -0.054422 0.993975 0.095144
vn -0.054422 0.993975 0.095144
vn -0.181758 0.981754 -0.055882
vn -0.181758 0.981754 -0.055882
vn -0.181758 0.981754 -0.055882
vn 0.041841 0.994578 0.095202
vn 0.041841 0.994578 0.095202
vn 0.041841 0.994578 0.095202
vn 0.029937 0.993808 0.106999
vn 0.029937 0.993808 0.106999
vn 0.029937 0.993808 0.106999
vn 0.063609 0.991478 0.113690
vn 0.063609 0.991478 0.113690
vn 0.063609 0.991478 0.113690
vn 0.145291 0.989095 0.024107
vn 0.145291 0.989095 0.024107
vn 0.145291 0.989095 0.024107
vn 0.069807 0.997264 0.024306
vn 0.069807 0.997264 0.024306
vn 0.069807 0.997264 0.024306
vn 0.002722 0.995824 0.091254
vn 0.002722 0.995824 0.091254
vn 0.002722 0.995824 0.091254
vn 0.175539 0.980365 0.089838
vn 0.175539 0.980365 0.089838
vn 0.175539 0.980365 0.089838
vn 0.289869 0.955909 -0.047059
vn 0.289869 0.955909 -0.047059
vn 0.289869 0.955909 -0.047059
vn 0.220158 0.975464 0.000001
vn 0.220158 0.975464 0.000001
vn 0.220158 0.975464 0.000001
vn 0.177521 0.982568 -0.055197
vn 0.177521 0.982568 -0.055197
vn 0.177521 0.982568 -0.055197
vn -0.258447 0.966024 0.001976
vn -0.258447 0.966024 0.001976
vn -0.258447 0.966024 0.001976
vn -0.260986 0.965343 -0.000001
vn -0.260986 0.965343 -0.000001
vn -0.260986 0.965343 -0.000001
vn -0.206962 0.978344 -0.003187
vn -0.206962 0.978344 -0.003187
vn -0.206962 0.978344 -0.003187
vn -0.250035 0.967476 0.038380
vn -0.250035 0.967476 0.038380
vn -0.250035 0.967476 0.038380
vn -0.181904 0.982544 0.038978
vn -0.181904 0.982543 0.038978
vn -0.181904 0.982543 0.038978
vn -0.184278 0.982000 0.041432
vn -0.184278 0.982000 0.041432
vn -0.184278 0.982000 0.041432
vn 0.050203 0.998723 0.005755
vn 0.050203 0.998723 0.005755
vn 0.050203 0.998722 0.005755
vn 0.119690 0.990312 -0.070408
vn 0.119690 0.990312 -0.070408
vn 0.119690 0.990312 -0.070408
vn 0.169030 0.978679 0.116687
vn 0.169030 0.978679 0.116687
vn 0.169030 0.978679 0.116687
vn -0.069184 0.996525 -0.046378
vn -0.069184 0.996525 -0.046378
vn -0.069184 0.996525 -0.046378
vn 0.002714 0.992964 0.118390
vn 0.002714 0.992963 0.118390
vn 0.002714 0.992963 0.118390
vn 0.156882 0.986942 -0.036510
vn 0.156882 0.986942 -0.036510
vn 0.156882 0.986942 -0.036510
vn 0.290180 0.956935 -0.008468
vn 0.290180 0.956935 -0.008468
vn 0.290180 0.956935 -0.008468
vn 0.259491 0.965600 0.016757
vn 0.259491 0.965600 0.016757
vn 0.259491 0.965600 0.016757
vn 0.177766 0.983925 0.017075
vn 0.177766 0.983925 0.017075
vn 0.177766 0.983925 0.017075
vn 0.194253 0.980952 0.000000
vn 0.194253 0.980952 0.000000
vn 0.194253 0.980952 0.000000
vn -0.260985 0.965343 0.000001
vn -0.260985 0.965343 0.000001
vn -0.260985 0.965343 0.000001
vn -0.291282 0.955914 0.037182
vn -0.291282 0.955914 0.037182
vn -0.291282 0.955914 0.037182
vn -0.238865 0.970784 -0.022863
vn -0.238865 0.970784 -0.022863
vn -0.238865 0.970784 -0.022863
vn -0.186839 0.980866 0.054701
vn -0.186839 0.980867 0.054701
vn -0.186839 0.980867 0.054701
vn -0.182319 0.982967 -0.023150
vn -0.182319 0.982967 -0.023150
vn -0.182319 0.982967 -0.023150
vn 0.030488 0.979581 -0.198725
vn 0.030488 0.979581 -0.198725
vn 0.030488 0.979581 -0.198725
vn 0.114818 0.974785 -0.191339
vn 0.114818 0.974785 -0.191339
vn 0.114818 0.974785 -0.191339
vn -0.049672 0.997594 -0.048353
vn -0.049672 0.997595 -0.048353
vn -0.049672 0.997594 -0.048353
vn -0.069177 0.996435 -0.048296
vn -0.069177 0.996435 -0.048296
vn -0.069177 0.996435 -0.048296
vn -0.077507 0.996192 -0.039938
vn -0.077507 0.996192 -0.039938
vn -0.077507 0.996192 -0.039938
vn 0.161765 0.980197 0.114219
vn 0.161765 0.980197 0.114219
vn 0.161765 0.980197 0.114219
vn 0.017356 0.999365 -0.031119
vn 0.017356 0.999365 -0.031119
vn 0.017356 0.999365 -0.031119
vn 0.264244 0.960759 -0.084364
vn 0.264244 0.960759 -0.084364
vn 0.264244 0.960759 -0.084364
vn 0.407668 0.911703 0.051042
vn 0.407668 0.911703 0.051042
vn 0.407668 0.911703 0.051042
vn 0.194253 0.980952 0.000000
vn 0.194253 0.980951 0.000000
vn 0.194253 0.980952 0.000000
vn 0.109137 0.990216 -0.086951
vn 0.109137 0.990217 -0.086951
vn 0.109137 0.990216 -0.086951
vn -0.289752 0.950890 -0.108864
vn -0.289752 0.950890 -0.108864
vn -0.289752 0.950890 -0.108864
vn -0.186879 0.982383 -0.000001
vn -0.186879 0.982383 -0.000001
vn -0.186879 0.982383 -0.000001
vn -0.183002 0.960723 -0.208619
vn -0.183002 0.960723 -0.208619
vn -0.183002 0.960723 -0.208619
vn -0.086922 0.989750 -0.113313
vn -0.086922 0.989750 -0.113313
vn -0.086922 0.989750 -0.113313
vn 0.036190 0.984252 -0.173029
vn 0.036190 0.984252 -0.173029
vn 0.036190 0.984252 -0.173029
vn -0.019981 0.977031 -0.212160
vn -0.019981 0.977031 -0.212160
vn -0.019981 0.977031 -0.212160
vn -0.027465 0.986114 -0.163785
vn -0.027465 0.986114 -0.163785
vn -0.027465 0.986114 -0.163785
vn 0.045659 0.969978 -0.238869
vn 0.045659 0.969978 -0.238869
vn 0.045659 0.969978 -0.238869
vn -0.095194 0.966581 -0.238033
vn -0.095194 0.966581 -0.238033
vn -0.095194 0.966581 -0.238033
vn 0.116339 0.876303 -0.467502
vn 0.116339 0.876303 -0.467502
vn 0.116339 0.876303 -0.467502
vn 0.069481 0.882478 -0.465194
vn 0.069481 0.882478 -0.465194
vn 0.069481 0.882478 -0.465194
vn 0.001703 0.911825 -0.410576
vn 0.001703 0.911825 -0.410576
vn 0.001703 0.911825 -0.410576
vn 0.377548 0.844342 -0.380190
vn 0.377548 0.844342 -0.380190
vn 0.377548 0.844342 -0.380190
vn -0.097448 0.990759 0.094347
vn -0.097448 0.990759 0.094347
vn -0.097448 0.990759 0.094347
vn 0.109065 0.989558 0.094233
vn 0.109065 0.989558 0.094233
vn 0.109065 0.989558 0.094233
vn 0.201239 0.979542 0.000000
vn 0.201239 0.979542 0.000000
vn 0.201239 0.979542 0.000000
vn -0.183699 0.965665 -0.183700
vn -0.183699 0.965665 -0.183700
vn -0.183699 0.965665 -0.183700
vn -0.085956 0.978747 -0.186188
vn -0.085956 0.978747 -0.186188
vn -0.085956 0.978747 -0.186188
vn -0.000001 0.963449 -0.267890
vn -0.000001 0.963449 -0.267890
vn -0.000001 0.963449 -0.267890
vn -0.028110 0.963069 -0.267785
vn -0.028110 0.963069 -0.267785
vn -0.028110 0.963069 -0.267785
vn -0.000000 0.956590 -0.291438
vn -0.000000 0.956590 -0.291438
vn -0.000000 0.956590 -0.291438
vn 0.045279 0.971011 -0.234708
vn 0.045279 0.971011 -0.234708
vn 0.045279 0.971011 -0.234708
vn -0.000000 0.956590 -0.291437
vn -0.000000 0.956590 -0.291437
vn -0.000000 0.956590 -0.291437
vn 0.127983 0.964014 -0.233017
vn 0.127983 0.964014 -0.233017
vn 0.127983 0.964014 -0.233017
vn 0.000000 0.994117 -0.108313
vn 0.000000 0.994117 -0.108313
vn 0.000000 0.994117 -0.108313
vn 0.001856 0.994115 -0.108313
vn 0.001856 0.994115 -0.108313
vn 0.001856 0.994115 -0.108313
vn 0.000000 0.994315 -0.106478
vn 0.000000 0.994315 -0.106478
vn 0.000000 0.994315 -0.106478
vn -0.095900 0.975027 -0.200313
vn -0.095900 0.975027 -0.200313
vn -0.095900 0.975027 -0.200313
vn 0.000000 0.994315 -0.106478
vn 0.000000 0.994315 -0.106478
vn 0.000000 0.994315 -0.106478
vn 0.197284 0.960290 -0.197285
vn 0.197284 0.960290 -0.197285
vn 0.197284 0.960290 -0.197285
s off
f 1/1/1 2/2/2 10/10/3
f 2/2/4 3/3/5 10/10/6
f 10/10/7 3/3/8 11/11/9
f 3/3/10 4/4/11 11/11/12
f 11/11/13 4/4/14 12/12/15
f 5/5/16 13/13/17 4/4/18
f 4/4/19 13/13/20 12/12/21
f 5/5/22 6/6/23 13/13/24
f 13/13/25 6/6/26 14/14/27
f 6/6/28 7/7/29 14/14/30
f 14/14/31 7/7/32 15/15/33
f 8/8/34 16/16/35 7/7/36
f 7/7/37 16/16/38 15/15/39
f 8/8/40 9/9/41 16/16/42
f 1/1/43 10/10/44 17/17/45
f 17/17/46 10/10/47 18/18/48
f 10/10/49 11/11/50 18/18/51
f 18/18/52 11/11/53 19/19/54
f 12/12/55 20/20/56 11/11/57
f 11/11/58 20/20/59 19/19/60
f 12/12/61 13/13/62 20/20/63
f 20/20/64 13/13/65 21/21/66
f 14/14/67 22/22/68 13/13/69
f 13/13/70 22/22/71 21/21/72
f 15/15/73 23/23/74 14/14/75
f 14/14/76 23/23/77 22/22/78
f 16/16/79 24/24/80 15/15/81
f 15/15/82 24/24/83 23/23/84
f 9/9/85 25/25/86 16/16/87
f 16/16/88 25/25/89 24/24/90
f 17/17/91 18/18/92 26/26/93
f 26/26/94 18/18/95 27/27/96
f 18/18/97 19/19/98 27/27/99
f 27/27/100 19/19/101 28/28/102
f 20/20/103 29/29/104 19/19/105
f 19/19/106 29/29/107 28/28/108
f 20/20/109 21/21/110 29/29/111
f 29/29/112 21/21/113 30/30/114
f 21/21/115 22/22/116 30/30/117
f 30/30/118 22/22/119 31/31/120
f 22/22/121 23/23/122 31/31/123
f 31/31/124 23/23/125 32/32/126
f 23/23/127 24/24/128 32/32/129
f 32/32/130 24/24/131 33/33/132
f 25/25/133 34/34/134 24/24/135
f 24/24/136 34/34/137 33/33/138
f 27/27/139 36/36/140 26/26/141
f 26/26/142 36/36/143 35/35/144
f 27/27/145 28/28/146 36/36/147
f 36/36/148 28/28/149 37/37/150
f 28/28/151 29/29/152 37/37/153
f 37/37/154 29/29/155 38/38/156
f 29/29/157 30/30/158 38/38/159
f 38/38/160 30/30/161 39/39/162
f 31/31/163 40/40/164 30/30/165
f 30/30/166 40/40/167 39/39/168
f 31/31/169 32/32/170 40/40/171
f 40/40/172 32/32/173 41/41/174
f 32/32/175 33/33/176 41/41/177
f 41/41/178 33/33/179 42/42/180
f 33/33/181 34/34/182 42/42/183
f 42/42/184 34/34/185 43/43/186
f 35/35/187 36/36/188 44/44/189
f 44/44/190 36/36/191 45/45/192
f 37/37/193 46/46/194 36/36/195
f 36/36/196 46/46/197 45/45/198
f 37/37/199 38/38/200 46/46/201
f 46/46/202 38/38/203 47/47/204
f 38/38/205 39/39/206 47/47/207
f 47/47/208 39/39/209 48/48/210
f 39/39/211 40/40/212 48/48/213
f 48/48/214 40/40/215 49/49/216
f 41/41/217 50/50/218 40/40/219
f 40/40/220 50/50/221 49/49/222
f 42/42/223 51/51/224 41/41/225
f 41/41/226 51/51/227 50/50/228
f 43/43/229 52/52/230 42/42/231
f 42/42/232 52/52/233 51/51/234
f 45/45/235 54/54/236 44/44/237
f 44/44/238 54/54/239 53/53/240
f 46/46/241 55/55/242 45/45/243
f 45/45/244 55/55/245 54/54/246
f 47/47/247 56/56/248 46/46/249
f 46/46/250 56/56/251 55/55/252
f 47/47/253 48/48/254 56/56/255
f 56/56/256 48/48/257 57/57/258
f 48/48/259 49/49/260 57/57/261
f 57/57/262 49/49/263 58/58/264
f 49/49/265 50/50/266 58/58/267
f 58/58/268 50/50/269 59/59/270
f 50/50/271 51/51/272 59/59/273
f 59/59/274 51/51/275 60/60/276
f 51/51/277 52/52/278 60/60/279
f 60/60/280 52/52/281 61/61/282
f 53/53/283 54/54/284 62/62/285
f 54/54/286 55/55/287 62/62/288
f 62/62/289 55/55/290 63/63/291
f 55/55/292 56/56/293 63/63/294
f 63/63/295 56/56/296 64/64/297
f 57/57/298 65/65/299 56/56/300
f 56/56/301 65/65/302 64/64/303
f 57/57/304 58/58/305 65/65/306
f 65/65/307 58/58/308 66/66/309
f 58/58/310 59/59/311 66/66/312
f 66/66/313 59/59/314 67/67/315
f 60/60/316 68/68/317 59/59/318
f 59/59/319 68/68/320 67/67/321
f 60/60/322 61/61/323 68/68/324
