# This file uses centimeters as units for non-parametric coordinates.

v -150.000000 -163.728241 148.102966
v -150.000000 -12.424558 -149.753845
v -52.905617 -12.424558 -149.753845
v -52.905617 -163.728241 148.102966
v -19.407248 -12.424558 -149.753845
v -19.407248 -163.728241 148.102966
v 47.257027 -12.424558 -149.753845
v 47.257027 -163.728241 148.102966
v 118.340134 -12.424558 -149.753845
v 118.340134 -163.728241 148.102966
v -87.367195 -12.424558 -149.753845
v -87.367195 -163.728241 148.102966
v 150.000015 -12.424558 -149.753845
v 150.000015 -163.728241 148.102966
v 150.000015 -153.940506 147.699432
v 150.000015 -3.751262 -145.200012
v -87.367195 -153.940506 147.699432
v -52.905617 -153.940506 147.699432
v -52.905617 -3.751262 -145.200012
v -87.367195 -3.751262 -145.200012
v -19.407248 -153.940506 147.699432
v -19.407248 -3.751262 -145.200012
v 47.257027 -153.940506 147.699432
v 47.257027 -3.751262 -145.200012
v 118.340134 -153.940506 147.699432
v 118.340134 -3.751262 -145.200012
v -150.000000 -153.940506 147.699432
v -150.000000 -3.751262 -145.200012
v 83.749298 -153.940506 147.699432
v 83.749298 -3.751262 -145.200012
v 83.749298 -12.424558 -149.753845
v 83.749298 -163.728241 148.102966
v 46.208595 -151.457870 152.093658
v 46.208595 -0.754099 -145.961853
v 46.208595 -11.463347 -151.584534
v 46.208595 -163.543152 152.591919
v -17.781933 -151.457870 152.093658
v -17.781933 -0.754099 -145.961853
v -17.781933 -11.463347 -151.584534
v -17.781933 -163.543152 152.591919
v -85.715210 -151.940674 149.936157
v -85.715210 -0.986574 -146.365601
v -85.715210 -11.347411 -151.805420
v -85.715210 -163.632797 150.418152
v -54.552795 -151.940674 149.936157
v -54.552795 -0.986574 -146.365601
v -54.552795 -11.347411 -151.805420
v -54.552795 -163.632797 150.418152
v 85.312355 -0.821496 -145.918854
v 85.312355 -11.495604 -151.523102
v 85.312355 -163.645935 150.099731
v 85.312355 -151.600266 149.603027
v 116.420898 -0.821496 -145.918854
v 116.420898 -11.495604 -151.523102
v 116.420898 -163.645935 150.099731
v 116.420898 -151.600266 149.603027
v -85.715210 -134.992615 83.013535
v -87.367195 -136.033859 80.896606
v -150.000000 -136.033859 80.896606
v -150.000000 -144.707138 76.342850
v -87.367195 -144.707138 76.342850
v -85.715210 -145.353439 77.573776
v -54.552795 -145.353439 77.573776
v -52.905617 -144.707138 76.342850
v -19.407249 -144.707138 76.342850
v -17.781933 -146.185715 79.159012
v 46.208595 -146.185715 79.159012
v 47.257027 -144.707138 76.342850
v 83.749298 -144.707138 76.342850
v 85.312355 -145.264572 77.404480
v 116.420898 -145.264572 77.404480
v 118.340134 -144.707138 76.342850
v 150.000015 -144.707138 76.342850
v 150.000015 -136.033859 80.896606
v 118.340134 -136.033859 80.896606
v 116.420898 -134.590469 83.008728
v 85.312355 -134.590469 83.008728
v 83.749298 -136.033859 80.896606
v 47.257027 -136.033859 80.896606
v 46.208595 -135.476471 84.781647
v -17.781933 -135.476471 84.781647
v -19.407249 -136.033859 80.896606
v -52.905617 -136.033859 80.896606
v -54.552795 -134.992615 83.013535
vt 0.607821 0.407683
vt 0.607821 0.482596
vt 0.667179 0.482596
vt 0.667179 0.407683
vt 0.687658 0.482596
vt 0.687658 0.407683
vt 0.728412 0.482596
vt 0.728412 0.407683
vt 0.771868 0.482596
vt 0.771868 0.407683
vt 0.646111 0.482596
vt 0.646111 0.407683
vt 0.787570 0.482596
vt 0.787570 0.407683
vt 0.787570 0.407683
vt 0.787570 0.482596
vt 0.646111 0.407683
vt 0.667179 0.407683
vt 0.667179 0.482596
vt 0.646111 0.482596
vt 0.687658 0.407683
vt 0.687658 0.482596
vt 0.728412 0.407683
vt 0.728412 0.482596
vt 0.771868 0.407683
vt 0.771868 0.482596
vt 0.607821 0.407683
vt 0.607821 0.482596
vt 0.787570 0.407683
vt 0.787570 0.482596
vt 0.646111 0.407683
vt 0.667179 0.407683
vt 0.667179 0.482596
vt 0.646111 0.482596
vt 0.687658 0.407683
vt 0.687658 0.482596
vt 0.728412 0.407683
vt 0.728412 0.482596
vt 0.771868 0.407683
vt 0.771868 0.482596
vt 0.607821 0.407683
vt 0.607821 0.482596
vt 0.750721 0.407683
vt 0.750721 0.482596
vt 0.750721 0.482596
vt 0.750721 0.482596
vt 0.750721 0.407683
vt 0.750721 0.407683
vt 0.727771 0.407683
vt 0.727771 0.482596
vt 0.727771 0.482596
vt 0.727771 0.482596
vt 0.727771 0.407683
vt 0.727771 0.407683
vt 0.688651 0.407683
vt 0.688651 0.482596
vt 0.688651 0.482596
vt 0.688651 0.482596
vt 0.688651 0.407683
vt 0.688651 0.407683
vt 0.647121 0.407683
vt 0.647121 0.482596
vt 0.647121 0.482596
vt 0.647121 0.482596
vt 0.647121 0.407683
vt 0.647121 0.407683
vt 0.666172 0.407683
vt 0.666172 0.482596
vt 0.666172 0.482596
vt 0.666172 0.482596
vt 0.666172 0.407683
vt 0.666172 0.407683
vt 0.751677 0.482596
vt 0.751677 0.482596
vt 0.751677 0.482596
vt 0.751677 0.407683
vt 0.751677 0.407683
vt 0.751677 0.407683
vt 0.770694 0.482596
vt 0.770694 0.482596
vt 0.770694 0.482596
vt 0.770694 0.407683
vt 0.770694 0.407683
vt 0.770694 0.407683
vt 0.787547 0.407683
vt 0.787547 0.482596
vt 0.787589 0.482596
vt 0.787589 0.407683
vt 0.647121 0.422666
vt 0.646111 0.422666
vt 0.607821 0.422666
vt 0.607821 0.422666
vt 0.607821 0.422666
vt 0.646111 0.422666
vt 0.647121 0.422666
vt 0.666172 0.422666
vt 0.667179 0.422666
vt 0.687658 0.422666
vt 0.688651 0.422666
vt 0.727771 0.422666
vt 0.728412 0.422666
vt 0.750721 0.422666
vt 0.751677 0.422666
vt 0.770694 0.422666
vt 0.771868 0.422666
vt 0.787570 0.422666
vt 0.787547 0.422666
vt 0.787589 0.422666
vt 0.787570 0.422666
vt 0.771868 0.422666
vt 0.770694 0.422666
vt 0.751677 0.422666
vt 0.750721 0.422666
vt 0.728412 0.422666
vt 0.727771 0.422666
vt 0.688651 0.422666
vt 0.687658 0.422666
vt 0.667179 0.422666
vt 0.666172 0.422666
vn -0.774161 0.612524 0.159651
vn -0.774161 0.612524 0.159651
vn -0.774161 0.612524 0.159651
vn -0.774161 0.612524 0.159651
vn 0.000000 0.965901 0.258912
vn 0.000000 0.965901 0.258912
vn 0.000000 0.965901 0.258912
vn 0.000000 0.965901 0.258912
vn -0.837175 0.530269 0.133988
vn -0.837175 0.530269 0.133988
vn -0.837175 0.530269 0.133988
vn -0.837175 0.530269 0.133988
vn 0.000000 0.965901 0.258912
vn 0.000000 0.965901 0.258912
vn 0.000000 0.965901 0.258912
vn 0.000000 0.965901 0.258912
vn 0.000000 0.965901 0.258912
vn 0.000000 0.965901 0.258912
vn 0.000000 0.965901 0.258912
vn 0.000000 0.965901 0.258912
vn 0.000000 0.965901 0.258912
vn 0.000000 0.965901 0.258912
vn 0.000000 0.965901 0.258912
vn 0.000000 0.965901 0.258912
vn 0.106035 -0.962846 -0.248365
vn 0.106035 -0.962846 -0.248365
vn 0.106035 -0.962846 -0.248365
vn 0.106035 -0.962846 -0.248365
vn 0.000000 -0.966619 -0.256217
vn 0.000000 -0.966619 -0.256217
vn 0.000000 -0.966619 -0.256217
vn 0.000000 -0.966619 -0.256217
vn 0.158178 -0.957804 -0.239980
vn 0.158178 -0.957804 -0.239980
vn 0.158178 -0.957804 -0.239980
vn 0.158178 -0.957804 -0.239980
vn 0.000000 -0.966619 -0.256217
vn 0.000000 -0.966619 -0.256217
vn 0.000000 -0.966619 -0.256217
vn 0.000000 -0.966619 -0.256217
vn 0.000000 -0.966619 -0.256217
vn 0.000000 -0.966619 -0.256217
vn 0.000000 -0.966619 -0.256217
vn 0.000000 -0.966619 -0.256217
vn 0.000000 -0.966619 -0.256217
vn 0.000000 -0.966619 -0.256217
vn 0.000000 -0.966619 -0.256217
vn 0.000000 -0.966619 -0.256217
vn -0.814254 0.023912 0.580016
vn -0.814254 0.023912 0.580016
vn -0.814254 0.023912 0.580016
vn -0.814254 0.023912 0.580016
vn -0.814252 0.269858 -0.513976
vn -0.814252 0.269858 -0.513976
vn -0.814252 0.269858 -0.513976
vn -0.814252 0.269858 -0.513976
vn 0.000000 0.041193 0.999151
vn 0.000000 0.041193 0.999151
vn 0.000000 0.041193 0.999151
vn 0.000000 0.041193 0.999151
vn 0.000000 0.464862 -0.885383
vn 0.000000 0.464862 -0.885383
vn 0.000000 0.464862 -0.885383
vn 0.000000 0.464862 -0.885383
vn -0.940358 0.014014 0.339898
vn -0.940358 0.014014 0.339898
vn -0.940358 0.014014 0.339898
vn -0.940358 0.014014 0.339898
vn -0.786194 0.287273 -0.547151
vn -0.786194 0.287273 -0.547151
vn -0.786194 0.287273 -0.547151
vn -0.786194 0.287273 -0.547151
vn 0.000000 0.041194 0.999151
vn 0.000000 0.041194 0.999151
vn 0.000000 0.041194 0.999151
vn 0.000000 0.041194 0.999151
vn 0.000000 0.464862 -0.885383
vn 0.000000 0.464862 -0.885383
vn 0.000000 0.464862 -0.885383
vn 0.000000 0.464862 -0.885383
vn 0.000000 0.041194 0.999151
vn 0.000000 0.041194 0.999151
vn 0.000000 0.041194 0.999151
vn 0.000000 0.041194 0.999151
vn 0.000000 0.464862 -0.885383
vn 0.000000 0.464862 -0.885383
vn 0.000000 0.464862 -0.885383
vn 0.000000 0.464862 -0.885383
vn -1.000000 0.000000 0.000000
vn -1.000000 0.000000 0.000000
vn -1.000000 0.000000 0.000000
vn -1.000000 0.000000 0.000000
vn 0.000000 0.041194 0.999151
vn 0.000000 0.041194 0.999151
vn 0.000000 0.041194 0.999151
vn 0.000000 0.041194 0.999151
vn 0.000000 0.464862 -0.885383
vn 0.000000 0.464862 -0.885383
vn 0.000000 0.464862 -0.885383
vn 0.000000 0.464862 -0.885383
vn -0.831394 0.537573 0.140709
vn -0.831394 0.537573 0.140709
vn -0.831394 0.537573 0.140709
vn -0.831394 0.537573 0.140709
vn -0.787670 0.286400 -0.545483
vn -0.787670 0.286400 -0.545483
vn -0.787670 0.286400 -0.545483
vn -0.787670 0.286400 -0.545483
vn 0.097622 -0.963453 -0.249458
vn 0.097622 -0.963453 -0.249458
vn 0.097622 -0.963453 -0.249458
vn 0.097622 -0.963453 -0.249458
vn -0.787682 0.025381 0.615559
vn -0.787682 0.025381 0.615559
vn -0.787682 0.025381 0.615559
vn -0.787682 0.025381 0.615559
vn 0.921513 0.376514 0.095138
vn 0.921513 0.376514 0.095138
vn 0.921513 0.376514 0.095138
vn 0.921513 0.376514 0.095138
vn 0.891900 0.210224 -0.400400
vn 0.891900 0.210224 -0.400400
vn 0.891900 0.210224 -0.400400
vn 0.891900 0.210224 -0.400400
vn -0.241020 -0.941420 -0.235876
vn -0.241020 -0.941420 -0.235876
vn -0.241020 -0.941420 -0.235876
vn -0.241020 -0.941420 -0.235876
vn 0.973835 0.009361 0.227062
vn 0.973835 0.009361 0.227062
vn 0.973835 0.009361 0.227062
vn 0.973835 0.009361 0.227062
vn 0.000000 0.972953 0.231001
vn 0.000000 0.972953 0.231001
vn 0.000000 0.972953 0.231001
vn 0.000000 0.972953 0.231001
vn 0.000000 0.464855 -0.885387
vn 0.000000 0.464855 -0.885387
vn 0.000000 0.464855 -0.885387
vn 0.000000 0.464855 -0.885387
vn 0.000000 -0.973183 -0.230033
vn 0.000000 -0.973183 -0.230033
vn 0.000000 -0.973183 -0.230033
vn 0.000000 -0.973183 -0.230033
vn 0.000000 0.041194 0.999151
vn 0.000000 0.041194 0.999151
vn 0.000000 0.041194 0.999151
vn 0.000000 0.041194 0.999151
vn 0.000000 0.969397 0.245498
vn 0.000000 0.969397 0.245498
vn 0.000000 0.969397 0.245498
vn 0.000000 0.969397 0.245498
vn 0.000000 0.464859 -0.885385
vn 0.000000 0.464859 -0.885385
vn 0.000000 0.464859 -0.885385
vn 0.000000 0.464859 -0.885385
vn 0.000000 -0.969928 -0.243391
vn 0.000000 -0.969928 -0.243391
vn 0.000000 -0.969928 -0.243391
vn 0.000000 -0.969928 -0.243391
vn 0.000000 0.041189 0.999151
vn 0.000000 0.041189 0.999151
vn 0.000000 0.041189 0.999151
vn 0.000000 0.041189 0.999151
vn 0.775063 0.611456 0.159372
vn 0.775063 0.611456 0.159372
vn 0.775063 0.611456 0.159372
vn 0.775063 0.611456 0.159372
vn 0.815050 0.269336 -0.512983
vn 0.815050 0.269336 -0.512983
vn 0.815050 0.269336 -0.512983
vn 0.815050 0.269336 -0.512983
vn -0.106340 -0.962814 -0.248356
vn -0.106340 -0.962814 -0.248356
vn -0.106340 -0.962814 -0.248356
vn -0.106340 -0.962814 -0.248356
vn 0.815052 0.023866 0.578896
vn 0.815052 0.023866 0.578896
vn 0.815052 0.023866 0.578896
vn 0.815052 0.023866 0.578896
vn 0.000000 0.464856 -0.885386
vn 0.000000 0.464856 -0.885386
vn 0.000000 0.464856 -0.885386
vn 0.000000 0.464856 -0.885386
vn 0.000000 -0.969488 -0.245140
vn 0.000000 -0.969488 -0.245140
vn 0.000000 -0.969488 -0.245140
vn 0.000000 -0.969488 -0.245140
vn 0.000000 0.041200 0.999151
vn 0.000000 0.041200 0.999151
vn 0.000000 0.041200 0.999151
vn 0.000000 0.041200 0.999151
vn 0.000000 0.968893 0.247479
vn 0.000000 0.968893 0.247479
vn 0.000000 0.968893 0.247479
vn 0.000000 0.968893 0.247479
vn 0.721238 0.322001 -0.613295
vn 0.721238 0.322001 -0.613295
vn 0.721238 0.322001 -0.613295
vn 0.721238 0.322001 -0.613295
vn -0.079632 -0.965003 -0.249858
vn -0.079632 -0.965002 -0.249858
vn -0.079632 -0.965003 -0.249858
vn -0.079632 -0.965002 -0.249858
vn 0.721252 0.028536 0.692085
vn 0.721252 0.028536 0.692085
vn 0.721252 0.028536 0.692085
vn 0.721252 0.028536 0.692085
vn 0.773009 0.613720 0.160640
vn 0.773009 0.613720 0.160640
vn 0.773009 0.613720 0.160640
vn 0.773009 0.613720 0.160640
vn 1.000000 0.000000 0.000000
vn 1.000000 0.000000 0.000000
vn 1.000000 0.000000 0.000000
vn 1.000000 0.000000 0.000000
vn -0.751694 0.569349 0.332864
vn -0.751694 0.569349 0.332864
vn -0.751694 0.569349 0.332864
vn -0.751694 0.569349 0.332864
vn 0.000000 0.863125 0.504990
vn 0.000000 0.863125 0.504990
vn 0.000000 0.863125 0.504990
vn 0.000000 0.863125 0.504990
vn -1.000000 -0.000000 0.000000
vn -1.000000 -0.000000 0.000000
vn -1.000000 -0.000000 0.000000
vn -1.000000 -0.000000 0.000000
vn 0.000000 -0.863126 -0.504990
vn 0.000000 -0.863126 -0.504990
vn 0.000000 -0.863126 -0.504990
vn 0.000000 -0.863126 -0.504990
vn -0.012785 -0.863217 -0.504671
vn -0.012785 -0.863217 -0.504671
vn -0.012785 -0.863217 -0.504671
vn -0.012785 -0.863217 -0.504671
vn 0.000000 -0.863449 -0.504437
vn 0.000000 -0.863449 -0.504437
vn 0.000000 -0.863449 -0.504437
vn 0.000000 -0.863449 -0.504437
vn 0.012823 -0.863217 -0.504670
vn 0.012823 -0.863217 -0.504670
vn 0.012823 -0.863217 -0.504670
vn 0.012823 -0.863217 -0.504670
vn 0.000000 -0.863126 -0.504990
vn 0.000000 -0.863126 -0.504990
vn 0.000000 -0.863126 -0.504990
vn 0.000000 -0.863126 -0.504990
vn 0.015562 -0.863251 -0.504536
vn 0.015562 -0.863251 -0.504536
vn 0.015562 -0.863251 -0.504536
vn 0.015562 -0.863251 -0.504536
vn 0.000000 -0.863580 -0.504211
vn 0.000000 -0.863580 -0.504211
vn 0.000000 -0.863580 -0.504211
vn 0.000000 -0.863580 -0.504211
vn -0.024121 -0.863104 -0.504451
vn -0.024121 -0.863104 -0.504451
vn -0.024121 -0.863104 -0.504451
vn -0.024121 -0.863104 -0.504451
vn 0.000000 -0.863126 -0.504990
vn 0.000000 -0.863126 -0.504990
vn 0.000000 -0.863126 -0.504990
vn 0.000000 -0.863126 -0.504990
vn -0.011660 -0.863208 -0.504714
vn -0.011660 -0.863208 -0.504714
vn -0.011660 -0.863208 -0.504714
vn -0.011660 -0.863208 -0.504714
vn 0.000000 -0.863405 -0.504512
vn 0.000000 -0.863405 -0.504512
vn 0.000000 -0.863405 -0.504512
vn 0.000000 -0.863405 -0.504512
vn 0.009497 -0.863227 -0.504727
vn 0.009497 -0.863227 -0.504727
vn 0.009497 -0.863227 -0.504727
vn 0.009497 -0.863227 -0.504727
vn 0.000000 -0.863126 -0.504990
vn 0.000000 -0.863126 -0.504990
vn 0.000000 -0.863126 -0.504990
vn 0.000000 -0.863126 -0.504990
vn 1.000000 0.000000 0.000000
vn 1.000000 0.000000 0.000000
vn 1.000000 0.000000 0.000000
vn 1.000000 0.000000 0.000000
vn 0.000000 0.863125 0.504990
vn 0.000000 0.863125 0.504990
vn 0.000000 0.863125 0.504990
vn 0.000000 0.863125 0.504990
vn 0.759274 0.561789 0.328477
vn 0.759274 0.561789 0.328476
vn 0.759274 0.561789 0.328476
vn 0.759274 0.561789 0.328476
vn 0.000000 0.863405 0.504512
vn 0.000000 0.863405 0.504512
vn 0.000000 0.863405 0.504512
vn 0.000000 0.863405 0.504512
vn -0.819988 0.494116 0.288908
vn -0.819988 0.494116 0.288908
vn -0.819988 0.494116 0.288908
vn -0.819988 0.494116 0.288908
vn 0.000000 0.863125 0.504990
vn 0.000000 0.863125 0.504990
vn 0.000000 0.863125 0.504990
vn 0.000000 0.863125 0.504990
vn 0.911429 0.355235 0.207620
vn 0.911429 0.355235 0.207620
vn 0.911429 0.355235 0.207620
vn 0.911429 0.355235 0.207620
vn 0.000000 0.863580 0.504212
vn 0.000000 0.863580 0.504212
vn 0.000000 0.863580 0.504212
vn 0.000000 0.863580 0.504212
vn -0.819292 0.495027 0.289324
vn -0.819292 0.495027 0.289324
vn -0.819292 0.495027 0.289324
vn -0.819292 0.495027 0.289324
vn 0.000000 0.863125 0.504990
vn 0.000000 0.863125 0.504990
vn 0.000000 0.863125 0.504990
vn 0.000000 0.863125 0.504990
vn 0.752645 0.568412 0.332315
vn 0.752645 0.568412 0.332315
vn 0.752645 0.568412 0.332315
vn 0.752645 0.568412 0.332315
vn 0.000000 0.863449 0.504437
vn 0.000000 0.863449 0.504437
vn 0.000000 0.863449 0.504437
vn 0.000000 0.863449 0.504437
s off
f 17/31/1 41/61/2 57/89/3 58/90/4
f 18/32/5 21/35/6 82/117/7 83/118/8
f 21/35/9 37/55/10 81/116/11 82/117/12
f 23/37/13 29/43/14 78/113/15 79/114/16
f 27/41/17 17/31/18 58/90/19 59/91/20
f 25/39/21 15/29/22 74/109/23 75/110/24
f 12/17/25 61/94/26 62/95/27 44/66/28
f 4/18/29 64/97/30 65/98/31 6/21/32
f 6/21/33 65/98/34 66/99/35 40/60/36
f 8/23/37 68/101/38 69/102/39 32/48/40
f 1/27/41 60/92/42 61/94/43 12/17/44
f 10/25/45 72/105/46 73/106/47 14/15/48
f 12/12/49 44/65/50 41/61/51 17/31/52
f 43/64/53 11/11/54 20/34/55 42/62/56
f 4/4/57 6/6/58 21/35/59 18/32/60
f 5/5/61 3/3/62 19/33/63 22/36/64
f 6/6/65 40/59/66 37/55/67 21/35/68
f 39/58/69 5/5/70 22/36/71 38/56/72
f 8/8/73 32/47/74 29/43/75 23/37/76
f 31/46/77 7/7/78 24/38/79 30/44/80
f 1/1/81 12/12/82 17/31/83 27/41/84
f 11/11/85 2/2/86 28/42/87 20/34/88
f 60/93/89 1/1/90 27/41/91 59/91/92
f 10/10/93 14/14/94 15/29/95 25/39/96
f 13/13/97 9/9/98 26/40/99 16/30/100
f 29/43/101 52/78/102 77/112/103 78/113/104
f 50/75/105 31/46/106 30/44/107 49/73/108
f 32/48/109 69/102/110 70/103/111 51/77/112
f 29/43/113 32/47/114 51/76/115 52/78/116
f 33/49/117 23/37/118 79/114/119 80/115/120
f 7/7/121 35/52/122 34/50/123 24/38/124
f 36/54/125 67/100/126 68/101/127 8/23/128
f 33/49/129 36/53/130 8/8/131 23/37/132
f 37/55/133 33/49/134 80/115/135 81/116/136
f 35/52/137 39/58/138 38/56/139 34/50/140
f 40/60/141 66/99/142 67/100/143 36/54/144
f 37/55/145 40/59/146 36/53/147 33/49/148
f 41/61/149 45/67/150 84/119/151 57/89/152
f 47/70/153 43/64/154 42/62/155 46/68/156
f 44/66/157 62/95/158 63/96/159 48/72/160
f 41/61/161 44/65/162 48/71/163 45/67/164
f 45/67/165 18/32/166 83/118/167 84/119/168
f 3/3/169 47/70/170 46/68/171 19/33/172
f 48/72/173 63/96/174 64/97/175 4/18/176
f 45/67/177 48/71/178 4/4/179 18/32/180
f 54/81/181 50/75/182 49/73/183 53/79/184
f 51/77/185 70/103/186 71/104/187 55/83/188
f 52/78/189 51/76/190 55/82/191 56/84/192
f 77/112/193 52/78/194 56/84/195 76/111/196
f 9/9/197 54/81/198 53/79/199 26/40/200
f 55/83/201 71/104/202 72/105/203 10/25/204
f 56/84/205 55/82/206 10/10/207 25/39/208
f 76/111/209 56/84/210 25/39/211 75/110/212
f 14/85/213 73/107/214 74/108/215 15/88/216
f 58/90/217 57/89/218 42/62/219 20/34/220
f 28/42/221 59/91/222 58/90/223 20/34/224
f 2/2/225 60/93/226 59/91/227 28/42/228
f 61/94/229 60/92/230 2/28/231 11/20/232
f 62/95/233 61/94/234 11/20/235 43/63/236
f 63/96/237 62/95/238 43/63/239 47/69/240
f 64/97/241 63/96/242 47/69/243 3/19/244
f 65/98/245 64/97/246 3/19/247 5/22/248
f 66/99/249 65/98/250 5/22/251 39/57/252
f 67/100/253 66/99/254 39/57/255 35/51/256
f 68/101/257 67/100/258 35/51/259 7/24/260
f 69/102/261 68/101/262 7/24/263 31/45/264
f 70/103/265 69/102/266 31/45/267 50/74/268
f 71/104/269 70/103/270 50/74/271 54/80/272
f 72/105/273 71/104/274 54/80/275 9/26/276
f 73/106/277 72/105/278 9/26/279 13/16/280
f 74/108/281 73/107/282 13/86/283 16/87/284
f 75/110/285 74/109/286 16/30/287 26/40/288
f 53/79/289 76/111/290 75/110/291 26/40/292
f 49/73/293 77/112/294 76/111/295 53/79/296
f 30/44/297 78/113/298 77/112/299 49/73/300
f 79/114/301 78/113/302 30/44/303 24/38/304
f 34/50/305 80/115/306 79/114/307 24/38/308
f 38/56/309 81/116/310 80/115/311 34/50/312
f 82/117/313 81/116/314 38/56/315 22/36/316
f 83/118/317 82/117/318 22/36/319 19/33/320
f 46/68/321 84/119/322 83/118/323 19/33/324
f 42/62/325 57/89/326 84/119/327 46/68/328
