# This file uses centimeters as units for non-parametric coordinates.

v -75.438004 -90.407928 20.752411
v 75.437996 -90.407928 20.752411
v -71.396255 -82.642540 21.240997
v 71.396248 -82.642540 21.240997
v -71.396255 -75.619347 8.535919
v 69.625092 -75.695526 8.673782
v -75.438004 -80.163414 2.220001
v 73.666840 -80.239586 2.357788
v 34.299316 -147.500015 150.000000
v 46.518173 -147.500015 150.000000
v 34.299316 -145.208282 150.000000
v 46.518173 -145.208282 150.000000
v 34.299316 4.791728 -150.000000
v 46.518173 4.791728 -150.000000
v 34.299316 2.500000 -150.000000
v 46.518173 2.500000 -150.000000
v 39.102097 -144.106247 150.000000
v 41.715393 -144.106247 150.000000
v 41.715393 5.893769 -150.000000
v 39.102097 5.893769 -150.000000
v 39.102097 -137.063004 150.000000
v 41.715393 -137.063004 150.000000
v 41.715393 12.937001 -150.000000
v 39.102097 12.937001 -150.000000
v 36.124878 -136.233856 150.000000
v 44.692612 -136.233856 150.000000
v 44.692612 13.766129 -150.000000
v 36.124878 13.766129 -150.000000
v 36.722336 -133.575989 150.000000
v 44.095154 -133.575989 150.000000
v 44.095154 16.424009 -150.000000
v 36.722336 16.424009 -150.000000
v -34.299316 -147.500015 150.000000
v -46.518173 -147.500015 150.000000
v -34.299316 -145.208282 150.000000
v -46.518173 -145.208282 150.000000
v -34.299316 4.791727 -150.000000
v -46.518173 4.791728 -150.000000
v -34.299316 2.500000 -150.000000
v -46.518173 2.500000 -150.000000
v -39.102097 -144.106247 150.000000
v -41.715393 -144.106247 150.000000
v -41.715393 5.893769 -150.000000
v -39.102097 5.893769 -150.000000
v -39.102097 -137.063004 150.000000
v -41.715393 -137.063004 150.000000
v -41.715393 12.937001 -150.000000
v -39.102097 12.937001 -150.000000
v -36.124878 -136.233856 150.000000
v -44.692612 -136.233856 150.000000
v -44.692612 13.766129 -150.000000
v -36.124878 13.766129 -150.000000
v -36.722336 -133.575989 150.000000
v -44.095154 -133.575989 150.000000
v -44.095154 16.424009 -150.000000
v -36.722336 16.424009 -150.000000
v -78.608322 -24.849375 -108.766716
v 79.485405 -22.175966 -114.360962
v -74.503708 -16.998196 -108.885803
v 75.119865 -14.468021 -114.180298
v -75.119858 -10.223873 -123.061371
v 74.503716 -7.693696 -128.355865
v -79.485397 -15.206268 -128.945313
v 78.608330 -7.553339 -131.377106
v -74.588623 -43.640030 -70.075531
v 72.670135 -43.638111 -70.079582
v -70.546875 -35.859329 -70.086906
v 68.628387 -35.857426 -70.090942
v -74.164124 -29.664555 -83.222282
v 68.628387 -29.664555 -83.222282
v -78.205872 -34.605099 -89.233162
v 72.670135 -34.605099 -89.233162
v -79.443893 -66.620567 -26.114044
v 76.255867 -69.062973 -21.567078
v -75.094299 -58.919342 -25.589752
v 72.133789 -61.224686 -21.297989
v -74.556885 -51.483398 -39.432983
v 75.094299 -53.905216 -34.924393
v -78.678970 -56.035675 -45.819550
v 79.443901 -58.594559 -41.055756
v -70.442505 -143.235779 126.959991
v 77.357330 -143.236053 126.960526
v -66.374893 -135.473251 127.188187
v 73.341743 -135.442230 127.126770
v -69.323196 -127.261368 110.920486
v 73.464592 -127.814148 112.015533
v -73.338776 -132.023483 104.748459
v 77.532196 -132.607544 105.905457
v -78.212357 -117.156120 75.356903
v 79.667969 -112.597908 66.131973
v -74.199524 -109.257507 75.246735
v 75.222099 -104.943527 66.516037
v -71.967316 -103.079247 62.743149
v 74.199524 -98.873466 54.231491
v -76.413193 -108.034492 56.896515
v 78.212349 -103.584511 47.890625
vt 0.646294 0.493998
vt 0.646294 0.493998
vt 0.646294 0.493998
vt 0.646294 0.493998
vt 0.646294 0.493998
vt 0.646294 0.493998
vt 0.646294 0.493998
vt 0.646294 0.493998
vt 0.646294 0.493998
vt 0.646294 0.493998
vt 0.646294 0.493998
vt 0.646294 0.493998
vt 0.646294 0.493998
vt 0.646294 0.493998
vt 0.026455 0.277296
vt 0.026455 0.277296
vt 0.026455 0.277296
vt 0.026455 0.277296
vt 0.090363 0.303204
vt 0.090363 0.303204
vt 0.090363 0.303204
vt 0.090363 0.303204
vt 0.026455 0.277296
vt 0.026455 0.277296
vt 0.026455 0.277296
vt 0.026455 0.277296
vt 0.026455 0.277296
vt 0.026455 0.277296
vt 0.026455 0.277296
vt 0.026455 0.277296
vt 0.026455 0.277296
vt 0.026455 0.277296
vt 0.026455 0.277296
vt 0.026455 0.277296
vt 0.026455 0.277296
vt 0.026455 0.277296
vt 0.026455 0.277296
vt 0.026455 0.277296
vt 0.026455 0.277296
vt 0.026455 0.277296
vt 0.090363 0.303204
vt 0.090363 0.303204
vt 0.026455 0.277296
vt 0.026455 0.277296
vt 0.090363 0.303204
vt 0.090363 0.303204
vt 0.026455 0.277296
vt 0.026455 0.277296
vt 0.026455 0.277296
vt 0.026455 0.277296
vt 0.090363 0.303204
vt 0.090363 0.303204
vt 0.090363 0.303204
vt 0.090363 0.303204
vt 0.026455 0.277296
vt 0.026455 0.277296
vt 0.026455 0.277296
vt 0.026455 0.277296
vt 0.026455 0.277296
vt 0.026455 0.277296
vt 0.026455 0.277296
vt 0.026455 0.277296
vt 0.026455 0.277296
vt 0.026455 0.277296
vt 0.026455 0.277296
vt 0.026455 0.277296
vt 0.026455 0.277296
vt 0.026455 0.277296
vt 0.026455 0.277296
vt 0.026455 0.277296
vt 0.026455 0.277296
vt 0.026455 0.277296
vt 0.090363 0.303204
vt 0.090363 0.303204
vt 0.026455 0.277296
vt 0.026455 0.277296
vt 0.090363 0.303204
vt 0.090363 0.303204
vt 0.646294 0.493998
vt 0.646294 0.493998
vt 0.646294 0.493998
vt 0.646294 0.493998
vt 0.646294 0.493998
vt 0.646294 0.493998
vt 0.646294 0.493998
vt 0.646294 0.493998
vt 0.646294 0.493998
vt 0.646294 0.493998
vt 0.646294 0.493998
vt 0.646294 0.493998
vt 0.646294 0.493998
vt 0.646294 0.493998
vt 0.646294 0.493998
vt 0.646294 0.493998
vt 0.646294 0.493998
vt 0.646294 0.493998
vt 0.646294 0.493998
vt 0.646294 0.493998
vt 0.646294 0.493998
vt 0.646294 0.493998
vt 0.646294 0.493998
vt 0.646294 0.493998
vt 0.646294 0.493998
vt 0.646294 0.493998
vt 0.646294 0.493998
vt 0.646294 0.493998
vt 0.646294 0.493998
vt 0.646294 0.493998
vt 0.646294 0.493998
vt 0.646294 0.493998
vt 0.646294 0.493998
vt 0.646294 0.493998
vt 0.646294 0.493998
vt 0.646294 0.493998
vt 0.646294 0.493998
vt 0.646294 0.493998
vt 0.646294 0.493998
vt 0.646294 0.493998
vt 0.646294 0.493998
vt 0.646294 0.493998
vt 0.646294 0.493998
vt 0.646294 0.493998
vt 0.646294 0.493998
vt 0.646294 0.493998
vt 0.646294 0.493998
vt 0.646294 0.493998
vt 0.646294 0.493998
vt 0.646294 0.493998
vt 0.646294 0.493998
vt 0.646294 0.493998
vt 0.646294 0.493998
vt 0.646294 0.493998
vt 0.646294 0.493998
vt 0.646294 0.493998
vt 0.646294 0.493998
vt 0.646294 0.493998
vt 0.646294 0.493998
vt 0.646294 0.493998
vt 0.646294 0.493998
vt 0.646294 0.493998
vt 0.646294 0.493998
vt 0.646294 0.493998
vt 0.646294 0.493998
vt 0.646294 0.493998
vt 0.646294 0.493998
vt 0.646294 0.493998
vt 0.646294 0.493998
vt 0.646294 0.493998
vn 0.000000 -0.062794 0.998027
vn 0.000000 -0.062794 0.998027
vn 0.000000 -0.062794 0.998026
vn 0.000000 -0.062794 0.998026
vn -0.000000 0.875184 0.483790
vn -0.000000 0.875184 0.483790
vn -0.000000 0.875184 0.483790
vn -0.000000 0.875184 0.483790
vn 0.000981 0.811743 -0.584014
vn 0.000981 0.811743 -0.584014
vn 0.000981 0.811743 -0.584014
vn 0.000981 0.811743 -0.584014
vn -0.000000 -0.875183 -0.483792
vn -0.000000 -0.875183 -0.483792
vn -0.000000 -0.875183 -0.483792
vn -0.000000 -0.875183 -0.483792
vn 0.863761 0.476304 0.164473
vn 0.863761 0.476304 0.164473
vn 0.863761 0.476304 0.164473
vn 0.863761 0.476304 0.164473
vn -0.867010 0.436096 0.241069
vn -0.867010 0.436096 0.241069
vn -0.867010 0.436096 0.241069
vn -0.867010 0.436096 0.241069
vn 0.000000 0.000000 1.000000
vn 0.000000 0.000000 1.000000
vn 0.000000 0.000000 1.000000
vn 0.000000 0.000000 1.000000
vn 0.000000 0.894427 0.447214
vn 0.000000 0.894427 0.447214
vn 0.000000 0.894427 0.447214
vn 0.000000 0.894427 0.447214
vn 0.000000 0.000000 -1.000000
vn 0.000000 0.000000 -1.000000
vn 0.000000 0.000000 -1.000000
vn 0.000000 0.000000 -1.000000
vn 0.000000 -0.894427 -0.447214
vn 0.000000 -0.894427 -0.447214
vn 0.000000 -0.894427 -0.447214
vn 0.000000 -0.894427 -0.447214
vn 1.000000 0.000000 0.000000
vn 1.000000 0.000000 0.000000
vn 1.000000 0.000000 0.000000
vn 1.000000 0.000000 0.000000
vn -1.000000 0.000000 0.000000
vn -1.000000 0.000000 0.000000
vn -1.000000 0.000000 0.000000
vn -1.000000 0.000000 0.000000
vn 0.000000 0.000000 1.000000
vn 0.000000 0.000000 1.000000
vn 0.000000 0.000000 1.000000
vn 0.000000 0.000000 1.000000
vn 0.201044 0.876165 0.438083
vn 0.201044 0.876165 0.438083
vn 0.201043 0.876165 0.438083
vn 0.201044 0.876165 0.438083
vn 0.000000 0.000000 -1.000000
vn 0.000000 0.000000 -1.000000
vn 0.000000 0.000000 -1.000000
vn 0.000000 0.000000 -1.000000
vn -0.201044 0.876165 0.438083
vn -0.201044 0.876165 0.438083
vn -0.201044 0.876165 0.438083
vn -0.201043 0.876165 0.438083
vn 0.000000 0.000000 1.000000
vn 0.000000 0.000000 1.000000
vn 0.000000 0.000000 1.000000
vn 0.000000 0.000000 1.000000
vn 1.000000 0.000000 0.000000
vn 1.000000 0.000000 0.000000
vn 1.000000 0.000000 0.000000
vn 1.000000 0.000000 0.000000
vn 0.000000 0.000000 -1.000000
vn 0.000000 0.000000 -1.000000
vn 0.000000 0.000000 -1.000000
vn 0.000000 0.000000 -1.000000
vn -1.000000 0.000000 0.000000
vn -1.000000 0.000000 0.000000
vn -1.000000 0.000000 0.000000
vn -1.000000 0.000000 0.000000
vn 0.000000 0.000000 1.000000
vn 0.000000 0.000000 1.000000
vn 0.000000 0.000000 1.000000
vn 0.000000 0.000000 1.000000
vn 0.241707 -0.867907 -0.433954
vn 0.241707 -0.867907 -0.433954
vn 0.241707 -0.867907 -0.433954
vn 0.241707 -0.867907 -0.433954
vn 0.000000 0.000000 -1.000000
vn 0.000000 0.000000 -1.000000
vn 0.000000 0.000000 -1.000000
vn 0.000000 0.000000 -1.000000
vn -0.241707 -0.867907 -0.433953
vn -0.241707 -0.867907 -0.433953
vn -0.241707 -0.867907 -0.433953
vn -0.241707 -0.867907 -0.433953
vn 0.000000 0.000000 1.000000
vn 0.000000 0.000000 1.000000
vn 0.000000 0.000000 1.000000
vn 0.000000 0.000000 1.000000
vn 0.969840 0.218008 0.109004
vn 0.969841 0.218008 0.109004
vn 0.969840 0.218008 0.109004
vn 0.969840 0.218008 0.109004
vn 0.000000 0.000000 -1.000000
vn 0.000000 0.000000 -1.000000
vn 0.000000 0.000000 -1.000000
vn 0.000000 0.000000 -1.000000
vn -0.969840 0.218009 0.109004
vn -0.969840 0.218009 0.109004
vn -0.969840 0.218009 0.109004
vn -0.969840 0.218009 0.109004
vn 0.000000 0.000000 1.000000
vn 0.000000 0.000000 1.000000
vn 0.000000 0.000000 1.000000
vn 0.000000 0.000000 1.000000
vn 0.000000 0.894427 0.447214
vn 0.000000 0.894427 0.447214
vn 0.000000 0.894427 0.447214
vn 0.000000 0.894427 0.447214
vn -0.000000 0.000000 -1.000000
vn -0.000000 0.000000 -1.000000
vn -0.000000 0.000000 -1.000000
vn -0.000000 0.000000 -1.000000
vn 0.000000 -0.894427 -0.447214
vn 0.000000 -0.894427 -0.447214
vn 0.000000 -0.894427 -0.447214
vn 0.000000 -0.894427 -0.447214
vn -1.000000 0.000000 0.000000
vn -1.000000 0.000000 0.000000
vn -1.000000 0.000000 0.000000
vn -1.000000 0.000000 0.000000
vn 1.000000 0.000000 0.000000
vn 1.000000 0.000000 0.000000
vn 1.000000 0.000000 0.000000
vn 1.000000 0.000000 0.000000
vn 0.000000 0.000000 1.000000
vn 0.000000 0.000000 1.000000
vn 0.000000 0.000000 1.000000
vn 0.000000 0.000000 1.000000
vn -0.201044 0.876165 0.438083
vn -0.201043 0.876165 0.438083
vn -0.201044 0.876165 0.438083
vn -0.201044 0.876165 0.438083
vn -0.000001 0.000000 -1.000000
vn -0.000001 0.000000 -1.000000
vn -0.000001 0.000000 -1.000000
vn -0.000001 0.000000 -1.000000
vn 0.201044 0.876165 0.438083
vn 0.201044 0.876165 0.438083
vn 0.201044 0.876165 0.438083
vn 0.201044 0.876165 0.438083
vn 0.000000 0.000000 1.000000
vn 0.000000 0.000000 1.000000
vn 0.000000 0.000000 1.000000
vn 0.000000 0.000000 1.000000
vn -1.000000 0.000000 0.000000
vn -1.000000 0.000000 0.000000
vn -1.000000 0.000000 0.000000
vn -1.000000 0.000000 0.000000
vn 0.000000 0.000000 -1.000000
vn 0.000000 0.000000 -1.000000
vn 0.000000 0.000000 -1.000000
vn 0.000000 0.000000 -1.000000
vn 1.000000 0.000000 0.000000
vn 1.000000 0.000000 0.000000
vn 1.000000 0.000000 0.000000
vn 1.000000 0.000000 0.000000
vn 0.000000 0.000000 1.000000
vn 0.000000 0.000000 1.000000
vn 0.000000 0.000000 1.000000
vn 0.000000 0.000000 1.000000
vn -0.241707 -0.867907 -0.433954
vn -0.241707 -0.867907 -0.433954
vn -0.241707 -0.867907 -0.433954
vn -0.241707 -0.867907 -0.433954
vn 0.000000 0.000000 -1.000000
vn 0.000000 0.000000 -1.000000
vn 0.000000 0.000000 -1.000000
vn 0.000000 0.000000 -1.000000
vn 0.241707 -0.867907 -0.433953
vn 0.241707 -0.867907 -0.433953
vn 0.241707 -0.867907 -0.433953
vn 0.241707 -0.867907 -0.433953
vn 0.000000 0.000000 1.000000
vn 0.000000 0.000000 1.000000
vn 0.000000 0.000000 1.000000
vn 0.000000 0.000000 1.000000
vn -0.969840 0.218008 0.109004
vn -0.969840 0.218008 0.109004
vn -0.969840 0.218008 0.109004
vn -0.969841 0.218008 0.109004
vn 0.000000 0.000000 -1.000000
vn 0.000000 0.000000 -1.000000
vn 0.000000 0.000000 -1.000000
vn 0.000000 0.000000 -1.000000
vn 0.969840 0.218009 0.109004
vn 0.969840 0.218009 0.109004
vn 0.969840 0.218009 0.109004
vn 0.969840 0.218009 0.109004
vn 0.035420 -0.003361 0.999367
vn 0.035420 -0.003361 0.999367
vn 0.035420 -0.003361 0.999367
vn 0.035420 -0.003361 0.999367
vn 0.000000 0.902265 0.431181
vn 0.000000 0.902265 0.431181
vn 0.000000 0.902265 0.431181
vn 0.000000 0.902265 0.431181
vn -0.041025 0.878295 -0.476356
vn -0.041025 0.878295 -0.476356
vn -0.041025 0.878295 -0.476356
vn -0.041025 0.878295 -0.476356
vn 0.013461 -0.837159 -0.546795
vn 0.013461 -0.837159 -0.546794
vn 0.013461 -0.837159 -0.546794
vn 0.013461 -0.837159 -0.546794
vn 0.691491 0.610714 0.385835
vn 0.691491 0.610714 0.385835
vn 0.691491 0.610714 0.385835
vn 0.691491 0.610714 0.385835
vn -0.855821 0.451261 0.252851
vn -0.855821 0.451261 0.252851
vn -0.855821 0.451261 0.252851
vn -0.855821 0.451261 0.252851
vn 0.000028 0.001461 0.999999
vn 0.000028 0.001461 0.999999
vn 0.000028 0.001461 0.999999
vn 0.000028 0.001461 0.999999
vn 0.000000 0.904463 0.426553
vn 0.000000 0.904463 0.426553
vn 0.000000 0.904463 0.426553
vn 0.000000 0.904462 0.426553
vn 0.000000 0.772535 -0.634972
vn 0.000000 0.772535 -0.634972
vn 0.000000 0.772535 -0.634972
vn 0.000000 0.772535 -0.634972
vn 0.000000 -0.904462 -0.426553
vn 0.000000 -0.904462 -0.426553
vn 0.000000 -0.904462 -0.426553
vn 0.000000 -0.904462 -0.426553
vn 0.867009 0.450686 0.212548
vn 0.867009 0.450686 0.212548
vn 0.867009 0.450686 0.212548
vn 0.867009 0.450686 0.212548
vn -0.853933 0.370083 0.365839
vn -0.853933 0.370083 0.365839
vn -0.853933 0.370083 0.365839
vn -0.853933 0.370083 0.365839
vn -0.029919 -0.050530 0.998274
vn -0.029919 -0.050530 0.998274
vn -0.029919 -0.050530 0.998274
vn -0.029919 -0.050530 0.998274
vn 0.000000 0.880951 0.473207
vn 0.000000 0.880951 0.473207
vn 0.000000 0.880952 0.473207
vn 0.000000 0.880951 0.473207
vn 0.030892 0.804391 -0.593296
vn 0.030892 0.804391 -0.593296
vn 0.030892 0.804391 -0.593296
vn 0.030892 0.804391 -0.593296
vn 0.000000 -0.880951 -0.473207
vn 0.000000 -0.880951 -0.473207
vn 0.000000 -0.880951 -0.473207
vn 0.000000 -0.880951 -0.473207
vn 0.847087 0.386428 0.364852
vn 0.847087 0.386428 0.364852
vn 0.847087 0.386428 0.364852
vn 0.847087 0.386428 0.364852
vn -0.855980 0.468581 0.218472
vn -0.855980 0.468581 0.218472
vn -0.855980 0.468581 0.218472
vn -0.855980 0.468581 0.218472
vn 0.000214 -0.025348 0.999679
vn 0.000214 -0.025348 0.999679
vn 0.000214 -0.025348 0.999679
vn 0.000214 -0.025348 0.999679
vn -0.000000 0.892708 0.450635
vn -0.000000 0.892708 0.450635
vn -0.000000 0.892708 0.450635
vn -0.000000 0.892708 0.450635
vn 0.007764 0.789258 -0.614012
vn 0.007764 0.789258 -0.614012
vn 0.007764 0.789258 -0.614012
vn 0.007764 0.789258 -0.614012
vn -0.000000 -0.892708 -0.450635
vn -0.000000 -0.892708 -0.450635
vn -0.000000 -0.892708 -0.450635
vn -0.000000 -0.892708 -0.450635
vn 0.866987 0.441956 0.230234
vn 0.866987 0.441956 0.230234
vn 0.866987 0.441956 0.230234
vn 0.866987 0.441956 0.230234
vn -0.861334 0.388755 0.327069
vn -0.861334 0.388755 0.327069
vn -0.861334 0.388755 0.327069
vn -0.861334 0.388755 0.327069
vn 0.058782 -0.015941 0.998144
vn 0.058782 -0.015941 0.998144
vn 0.058782 -0.015941 0.998144
vn 0.058782 -0.015941 0.998144
vn 0.000000 0.896526 0.442992
vn 0.000000 0.896526 0.442992
vn 0.000000 0.896526 0.442992
vn 0.000000 0.896526 0.442992
vn -0.058589 0.783153 -0.619063
vn -0.058589 0.783153 -0.619063
vn -0.058589 0.783153 -0.619063
vn -0.058589 0.783153 -0.619063
vn 0.000000 -0.896526 -0.442991
vn 0.000000 -0.896526 -0.442991
vn 0.000000 -0.896526 -0.442991
vn 0.000000 -0.896526 -0.442991
vn 0.854227 0.490300 0.172919
vn 0.854227 0.490300 0.172919
vn 0.854227 0.490301 0.172919
vn 0.854228 0.490300 0.172919
vn -0.854412 0.501350 0.136486
vn -0.854412 0.501350 0.136486
vn -0.854412 0.501350 0.136486
vn -0.854412 0.501350 0.136486
s off
f 1/1/1 2/2/2 4/3/3 3/4/4
f 3/4/5 4/3/6 6/5/7 5/6/8
f 5/6/9 6/5/10 8/7/11 7/8/12
f 7/8/13 8/7/14 2/9/15 1/10/16
f 2/2/17 8/11/18 6/12/19 4/3/20
f 7/13/21 1/1/22 3/4/23 5/14/24
f 9/15/25 10/16/26 12/17/27 11/18/28
f 31/19/29 32/20/30 29/21/31 30/22/32
f 13/23/33 14/24/34 16/25/35 15/26/36
f 15/26/37 16/25/38 10/16/39 9/15/40
f 16/25/41 14/24/42 12/17/43 10/16/44
f 13/23/45 15/26/46 9/15/47 11/18/48
f 11/18/49 12/17/50 18/27/51 17/28/52
f 14/24/53 19/29/54 18/27/55 12/17/56
f 14/24/57 13/23/58 20/30/59 19/29/60
f 20/30/61 13/23/62 11/18/63 17/28/64
f 17/28/65 18/27/66 22/31/67 21/32/68
f 19/29/69 23/33/70 22/31/71 18/27/72
f 19/29/73 20/30/74 24/34/75 23/33/76
f 24/34/77 20/30/78 17/28/79 21/32/80
f 21/32/81 22/31/82 26/35/83 25/36/84
f 23/33/85 27/37/86 26/35/87 22/31/88
f 23/33/89 24/34/90 28/38/91 27/37/92
f 28/38/93 24/34/94 21/32/95 25/36/96
f 25/36/97 26/35/98 30/39/99 29/40/100
f 27/41/101 31/19/102 30/22/103 26/42/104
f 27/37/105 28/38/106 32/43/107 31/44/108
f 29/21/109 32/20/110 28/45/111 25/46/112
f 33/47/113 35/48/114 36/49/115 34/50/116
f 54/51/117 53/52/118 56/53/119 55/54/120
f 37/55/121 39/56/122 40/57/123 38/58/124
f 33/47/125 34/50/126 40/57/127 39/56/128
f 34/50/129 36/49/130 38/58/131 40/57/132
f 35/48/133 33/47/134 39/56/135 37/55/136
f 35/48/137 41/59/138 42/60/139 36/49/140
f 36/49/141 42/60/142 43/61/143 38/58/144
f 38/58/145 43/61/146 44/62/147 37/55/148
f 41/59/149 35/48/150 37/55/151 44/62/152
f 41/59/153 45/63/154 46/64/155 42/60/156
f 42/60/157 46/64/158 47/65/159 43/61/160
f 43/61/161 47/65/162 48/66/163 44/62/164
f 45/63/165 41/59/166 44/62/167 48/66/168
f 45/63/169 49/67/170 50/68/171 46/64/172
f 46/64/173 50/68/174 51/69/175 47/65/176
f 47/65/177 51/69/178 52/70/179 48/66/180
f 49/67/181 45/63/182 48/66/183 52/70/184
f 49/67/185 53/71/186 54/72/187 50/68/188
f 51/73/189 50/74/190 54/51/191 55/54/192
f 51/69/193 55/75/194 56/76/195 52/70/196
f 53/52/197 49/77/198 52/78/199 56/53/200
f 57/79/201 58/80/202 60/81/203 59/82/204
f 59/82/205 60/81/206 62/83/207 61/84/208
f 61/84/209 62/83/210 64/85/211 63/86/212
f 63/86/213 64/85/214 58/87/215 57/88/216
f 58/80/217 64/89/218 62/90/219 60/81/220
f 63/91/221 57/79/222 59/82/223 61/92/224
f 65/93/225 66/94/226 68/95/227 67/96/228
f 67/96/229 68/95/230 70/97/231 69/98/232
f 69/98/233 70/97/234 72/99/235 71/100/236
f 71/100/237 72/99/238 66/101/239 65/102/240
f 66/94/241 72/103/242 70/104/243 68/95/244
f 71/105/245 65/93/246 67/96/247 69/106/248
f 73/107/249 74/108/250 76/109/251 75/110/252
f 75/110/253 76/109/254 78/111/255 77/112/256
f 77/112/257 78/111/258 80/113/259 79/114/260
f 79/114/261 80/113/262 74/115/263 73/116/264
f 74/108/265 80/117/266 78/118/267 76/109/268
f 79/119/269 73/107/270 75/110/271 77/120/272
f 81/121/273 82/122/274 84/123/275 83/124/276
f 83/124/277 84/123/278 86/125/279 85/126/280
f 85/126/281 86/125/282 88/127/283 87/128/284
f 87/128/285 88/127/286 82/129/287 81/130/288
f 82/122/289 88/131/290 86/132/291 84/123/292
f 87/133/293 81/121/294 83/124/295 85/134/296
f 89/135/297 90/136/298 92/137/299 91/138/300
f 91/138/301 92/137/302 94/139/303 93/140/304
f 93/140/305 94/139/306 96/141/307 95/142/308
f 95/142/309 96/141/310 90/143/311 89/144/312
f 90/136/313 96/145/314 94/146/315 92/137/316
f 95/147/317 89/135/318 91/138/319 93/148/320
