# This file uses centimeters as units for non-parametric coordinates.

v 130.877045 2.389097 9.951019
v 132.167252 30.677826 9.951019
v -131.460327 265.139526 9.950676
v -130.038742 296.829102 9.950676
v -131.460327 265.139526 -10.524982
v -130.038742 296.829102 -10.524982
v 130.877045 2.389097 -10.524677
v 132.167252 30.677826 -10.524677
v -39.824535 178.849731 9.950790
v -39.824535 178.849731 -10.524864
v -29.746595 195.027908 -10.524864
v -29.746595 195.027908 9.950829
v -33.691086 165.266586 9.950829
v -33.691086 165.266586 -10.524864
v -11.206882 0.000000 7.863274
v 11.206882 0.000000 12.374153
v -11.206882 300.000000 12.374153
v 11.206882 300.000000 17.244949
v -11.206882 300.000000 -12.374149
v 11.206882 300.000000 -15.055805
v -11.206882 0.000000 -12.374149
v 11.206882 0.000000 -15.055805
v -11.678661 215.408798 11.831207
v -11.206882 215.408798 -12.374149
v 11.206882 215.408798 -15.055805
v 11.206882 215.408798 14.226990
v -11.206882 75.021049 13.342667
v -11.206882 75.021049 -12.374149
v 8.508751 75.021049 -15.055805
v 8.508751 75.021049 14.226990
v -5.864603 75.021049 14.226990
v -5.864603 0.000000 12.374153
v -5.864603 0.000000 -15.055805
v -5.864603 75.021049 -15.055805
v -5.864603 215.408798 -15.055805
v -5.864603 300.000000 -15.055805
v -5.864603 300.000000 17.244949
v -1.940605 219.588745 14.226990
v -139.882126 0.000000 6.829414
v 138.482620 0.000000 6.829414
v -139.882126 297.626923 6.829414
v 138.482620 297.626923 6.829414
v -139.882126 297.626923 -6.829414
v 138.482620 297.626923 -6.829414
v -139.882126 0.000000 -6.829414
v 138.482620 0.000000 -6.829414
v -127.275749 0.000000 -12.374149
v -150.000000 0.000000 -12.374149
v -129.843399 185.778748 -12.374149
v -150.000000 186.399200 -12.374149
v -131.456467 184.307709 12.374153
v -150.000000 187.577057 9.037094
v -127.275749 0.000000 12.374153
v -150.000000 0.000000 12.374153
v -150.000000 97.347336 -12.374149
v -150.000000 169.350296 -12.374149
v -150.000000 118.178810 -2.305489
v -144.007736 135.852783 -12.374149
v -127.275749 297.626923 -12.374149
v -150.000000 297.626923 -12.374149
v -150.000000 297.733826 7.243614
v -127.275749 297.626923 12.374153
v -143.949387 297.626923 -12.374149
v -143.949387 297.626923 12.374153
v -140.066376 185.652649 12.374153
v -143.949387 0.000000 12.374153
v -143.949387 0.000000 -12.374149
v 127.275749 0.000000 12.374153
v 150.000000 0.000000 12.374153
v 127.275749 186.399200 12.374153
v 150.000000 186.399200 12.374153
v 131.773148 169.722290 -12.374149
v 150.000000 186.399200 -12.374149
v 127.275749 0.000000 -12.374149
v 150.000000 0.000000 -12.374149
v 150.000000 97.347336 12.374153
v 150.000000 169.350296 12.374153
v 150.000000 118.178810 2.305489
v 144.007736 135.852783 12.374153
v 127.275749 297.626923 12.374153
v 150.000000 297.626923 12.374153
v 150.000000 297.626923 -12.374149
v 127.275749 297.626923 -12.374149
vt 0.612764 0.447237
vt 0.612764 0.447237
vt 0.612765 0.447238
vt 0.612765 0.447238
vt 0.612765 0.447238
vt 0.612764 0.447237
vt 0.612765 0.447238
vt 0.612764 0.447237
vt 0.612765 0.447237
vt 0.612765 0.447237
vt 0.612765 0.447237
vt 0.612765 0.447237
vt 0.612765 0.447237
vt 0.612765 0.447237
vt 0.590440 0.447238
vt 0.590440 0.447238
vt 0.590440 0.447238
vt 0.590440 0.447238
vt 0.590440 0.447238
vt 0.590440 0.447238
vt 0.590440 0.447238
vt 0.590440 0.447238
vt 0.590440 0.447238
vt 0.590440 0.447238
vt 0.590440 0.447238
vt 0.590440 0.447238
vt 0.590440 0.447238
vt 0.590440 0.447238
vt 0.590440 0.447238
vt 0.590440 0.447238
vt 0.590440 0.447238
vt 0.590440 0.447238
vt 0.590440 0.447238
vt 0.590440 0.447238
vt 0.590440 0.447238
vt 0.590440 0.447238
vt 0.590440 0.447238
vt 0.590440 0.447238
vt 0.590440 0.447238
vt 0.590440 0.447238
vt 0.590440 0.447238
vt 0.590440 0.447238
vt 0.590440 0.447238
vt 0.590440 0.447238
vt 0.590440 0.447238
vt 0.590440 0.447238
vt 0.590440 0.447238
vt 0.590440 0.447238
vt 0.590440 0.447238
vt 0.590440 0.447238
vt 0.590440 0.447238
vt 0.590440 0.447238
vt 0.590440 0.447238
vt 0.590440 0.447238
vt 0.590440 0.447238
vt 0.590440 0.447238
vt 0.590440 0.447238
vt 0.590440 0.447238
vt 0.590440 0.447238
vt 0.590440 0.447238
vt 0.590440 0.447238
vt 0.590440 0.447238
vt 0.590440 0.447238
vt 0.590440 0.447238
vt 0.590440 0.447238
vt 0.590440 0.447238
vt 0.626077 0.494047
vt 0.626077 0.396395
vt 0.801591 0.396395
vt 0.801591 0.494047
vt 0.809117 0.396395
vt 0.809117 0.494047
vt 0.627088 0.396395
vt 0.627087 0.494047
vt 0.590440 0.447238
vt 0.590440 0.447238
vt 0.590440 0.447238
vt 0.590440 0.447238
vt 0.590440 0.447238
vt 0.590440 0.447238
vt 0.590440 0.447238
vt 0.590440 0.447238
vt 0.590440 0.447238
vt 0.590440 0.447238
vt 0.590440 0.447238
vt 0.590440 0.447238
vt 0.590440 0.447238
vt 0.590440 0.447238
vt 0.590440 0.447238
vt 0.590440 0.447238
vt 0.590440 0.447238
vt 0.590440 0.447238
vt 0.590440 0.447238
vt 0.590440 0.447238
vt 0.590440 0.447238
vt 0.590440 0.447238
vt 0.590440 0.447238
vt 0.590440 0.447238
vt 0.590440 0.447238
vt 0.590440 0.447238
vt 0.590440 0.447238
vt 0.590440 0.447238
vt 0.590440 0.447238
vt 0.590440 0.447238
vt 0.590440 0.447238
vt 0.590440 0.447238
vt 0.590440 0.447238
vt 0.590440 0.447238
vt 0.590440 0.447238
vt 0.590440 0.447238
vt 0.590440 0.447238
vt 0.590440 0.447238
vt 0.590440 0.447238
vt 0.590440 0.447238
vt 0.590440 0.447238
vt 0.590440 0.447238
vt 0.590440 0.447238
vt 0.590440 0.447238
vt 0.590440 0.447238
vt 0.590440 0.447238
vt 0.590440 0.447238
vt 0.590440 0.447238
vt 0.590440 0.447238
vt 0.590440 0.447238
vt 0.590440 0.447238
vt 0.590440 0.447238
vt 0.590440 0.447238
vt 0.590440 0.447238
vt 0.590440 0.447238
vt 0.590440 0.447238
vt 0.590440 0.447238
vt 0.590440 0.447238
vt 0.590440 0.447238
vt 0.590440 0.447238
vt 0.590440 0.447238
vt 0.590440 0.447238
vt 0.590440 0.447238
vt 0.590440 0.447238
vt 0.590440 0.447238
vt 0.590440 0.447238
vt 0.590440 0.447238
vt 0.590440 0.447238
vt 0.590440 0.447238
vt 0.590440 0.447238
vt 0.590440 0.447238
vt 0.590440 0.447238
vt 0.590440 0.447238
vt 0.590440 0.447238
vt 0.590440 0.447238
vt 0.590440 0.447238
vt 0.590440 0.447238
vt 0.590440 0.447238
vt 0.590440 0.447238
vt 0.590440 0.447238
vt 0.590440 0.447238
vt 0.590440 0.447238
vn 0.000001 -0.000000 -1.000000
vn 0.000001 -0.000000 -1.000000
vn 0.000001 -0.000000 -1.000000
vn 0.000001 -0.000000 -1.000000
vn 0.712367 0.701807 0.000000
vn 0.712367 0.701807 0.000000
vn 0.712367 0.701807 0.000000
vn 0.712367 0.701807 0.000000
vn -0.703447 -0.710748 0.000000
vn -0.703447 -0.710748 0.000000
vn -0.703447 -0.710748 0.000000
vn -0.703447 -0.710748 0.000000
vn -0.000001 0.000000 1.000000
vn -0.000001 0.000000 1.000000
vn -0.000001 0.000000 1.000000
vn -0.000001 0.000000 1.000000
vn -0.000002 -0.000000 1.000000
vn -0.000002 -0.000000 1.000000
vn -0.000002 -0.000000 1.000000
vn -0.000002 -0.000000 1.000000
vn -0.685552 -0.728024 0.000000
vn -0.685551 -0.728024 0.000000
vn -0.685552 -0.728024 0.000000
vn -0.685551 -0.728024 0.000000
vn 0.000001 -0.000000 -1.000000
vn 0.000001 -0.000000 -1.000000
vn 0.000001 -0.000000 -1.000000
vn 0.000001 -0.000000 -1.000000
vn 0.712367 0.701807 0.000000
vn 0.712367 0.701807 0.000000
vn 0.712367 0.701807 0.000000
vn 0.712367 0.701807 0.000000
vn -0.000005 0.000001 1.000000
vn -0.000005 0.000001 1.000000
vn -0.000005 0.000001 1.000000
vn -0.911393 -0.411538 0.000000
vn -0.911393 -0.411538 0.000000
vn -0.911393 -0.411538 0.000000
vn -0.911393 -0.411538 0.000000
vn -0.000000 0.000000 -1.000000
vn -0.000000 0.000000 -1.000000
vn -0.000000 0.000000 -1.000000
vn 0.000000 -0.024690 0.999695
vn 0.000000 -0.024690 0.999695
vn 0.000000 -0.024690 0.999695
vn 0.000000 -0.024690 0.999695
vn 0.000000 1.000000 0.000000
vn 0.000000 1.000000 0.000000
vn 0.000000 1.000000 0.000000
vn 0.000000 1.000000 0.000000
vn 0.000000 0.000000 -1.000000
vn 0.000000 0.000000 -1.000000
vn 0.000000 0.000000 -1.000000
vn 0.000000 0.000000 -1.000000
vn 0.000000 -1.000000 0.000000
vn 0.000000 -1.000000 0.000000
vn 0.000000 -1.000000 0.000000
vn 0.000000 -1.000000 0.000000
vn 0.999354 0.035942 0.000000
vn 0.999354 0.035942 0.000000
vn 0.999354 0.035942 0.000000
vn 0.999354 0.035942 0.000000
vn -1.000000 0.000000 0.000000
vn -1.000000 0.000000 0.000000
vn -1.000000 0.000000 0.000000
vn -1.000000 0.000000 0.000000
vn -0.999950 0.002819 -0.009637
vn -0.999950 0.002819 -0.009637
vn -0.999950 0.002819 -0.009637
vn -0.999950 0.002819 -0.009637
vn 0.000000 0.000000 -1.000000
vn 0.000000 0.000000 -1.000000
vn 0.000000 0.000000 -1.000000
vn 0.000000 0.000000 -1.000000
vn 1.000000 0.000000 0.000000
vn 1.000000 0.000000 0.000000
vn 1.000000 0.000000 0.000000
vn 1.000000 0.000000 0.000000
vn -0.005073 -0.036676 0.999314
vn -0.005073 -0.036676 0.999314
vn -0.005073 -0.036676 0.999314
vn -0.005073 -0.036676 0.999314
vn -0.999954 -0.001731 -0.009450
vn -0.999954 -0.001731 -0.009450
vn -0.999954 -0.001731 -0.009450
vn -0.999954 -0.001731 -0.009450
vn 0.000000 0.000000 -1.000000
vn 0.000000 0.000000 -1.000000
vn 0.000000 0.000000 -1.000000
vn 0.000000 0.000000 -1.000000
vn 0.999815 -0.019216 0.000000
vn 0.999815 -0.019216 0.000000
vn 0.999815 -0.019216 0.000000
vn 0.999815 -0.019216 0.000000
vn -0.000000 0.000000 1.000000
vn -0.000000 0.000000 1.000000
vn -0.000000 0.000000 1.000000
vn -0.000000 0.000000 1.000000
vn -0.450319 -0.043580 0.891803
vn -0.450319 -0.043581 0.891804
vn -0.450319 -0.043580 0.891803
vn -0.450319 -0.043581 0.891804
vn 0.000000 -1.000000 0.000000
vn 0.000000 -1.000000 0.000000
vn 0.000000 -1.000000 0.000000
vn 0.000000 -1.000000 0.000000
vn -0.448621 0.000000 -0.893722
vn -0.448621 0.000000 -0.893722
vn -0.448621 0.000000 -0.893722
vn -0.448621 0.000000 -0.893722
vn -0.448620 0.000000 -0.893722
vn -0.448620 0.000000 -0.893722
vn -0.448620 0.000000 -0.893722
vn -0.448620 0.000000 -0.893722
vn -0.448620 0.000000 -0.893722
vn -0.448620 0.000000 -0.893722
vn -0.448620 0.000000 -0.893722
vn -0.448620 0.000000 -0.893722
vn 0.000000 1.000000 0.000000
vn 0.000000 1.000000 0.000000
vn 0.000000 1.000000 0.000000
vn 0.000000 1.000000 0.000000
vn -0.427506 -0.028444 0.903565
vn -0.427506 -0.028444 0.903565
vn -0.427506 -0.028444 0.903565
vn -0.427506 -0.028444 0.903565
vn -0.214591 0.007780 0.976673
vn -0.214591 0.007780 0.976673
vn -0.214591 0.007780 0.976673
vn -0.214591 0.007780 0.976673
vn 0.000000 0.000000 1.000000
vn 0.000000 0.000000 1.000000
vn 0.000000 0.000000 1.000000
vn 0.000000 0.000000 1.000000
vn 0.000000 1.000000 0.000000
vn 0.000000 1.000000 0.000000
vn 0.000000 1.000000 0.000000
vn 0.000000 1.000000 0.000000
vn 0.000000 0.000000 -1.000000
vn 0.000000 0.000000 -1.000000
vn 0.000000 0.000000 -1.000000
vn 0.000000 0.000000 -1.000000
vn 0.000000 -1.000000 0.000000
vn 0.000000 -1.000000 0.000000
vn 0.000000 -1.000000 0.000000
vn 0.000000 -1.000000 0.000000
vn 0.000000 0.000000 -1.000000
vn 0.000000 0.000000 -1.000000
vn 0.000000 0.000000 -1.000000
vn 0.000000 0.000000 -1.000000
vn -0.000000 0.000000 -1.000000
vn -0.000000 0.000000 -1.000000
vn -0.000000 0.000000 -1.000000
vn 0.000000 0.000000 -1.000000
vn 0.000000 0.000000 -1.000000
vn 0.000000 0.000000 -1.000000
vn -0.000000 0.000000 -1.000000
vn -0.000000 0.000000 -1.000000
vn -0.000000 0.000000 -1.000000
vn 0.000000 0.000000 -1.000000
vn 0.000000 0.000000 -1.000000
vn 0.000000 0.000000 -1.000000
vn 0.000000 1.000000 0.000000
vn 0.000000 1.000000 0.000000
vn 0.000000 1.000000 0.000000
vn 0.000000 1.000000 0.000000
vn -0.000000 0.000000 1.000000
vn -0.000000 0.000000 1.000000
vn -0.000000 0.000000 1.000000
vn -0.000000 0.000000 1.000000
vn 0.000000 -1.000000 0.000000
vn 0.000000 -1.000000 0.000000
vn 0.000000 -1.000000 0.000000
vn 0.000000 -1.000000 0.000000
vn -1.000000 0.000000 0.000000
vn -1.000000 0.000000 0.000000
vn -1.000000 0.000000 0.000000
vn -1.000000 0.000000 0.000000
vn -1.000000 0.000000 0.000000
vn -1.000000 0.000000 0.000000
vn -1.000000 0.000000 0.000000
vn -1.000000 0.000000 0.000000
vn -1.000000 0.000000 0.000000
vn -1.000000 0.000000 0.000000
vn -1.000000 0.000000 0.000000
vn -1.000000 0.000000 0.000000
vn -1.000000 0.000000 0.000000
vn -1.000000 0.000000 0.000000
vn -1.000000 0.000000 0.000000
vn 0.999286 0.018222 0.033108
vn 0.999286 0.018222 0.033108
vn 0.999286 0.018222 0.033108
vn 0.999286 0.018222 0.033108
vn -0.733521 -0.131217 -0.666880
vn -0.733521 -0.131217 -0.666880
vn -0.733521 -0.131217 -0.666880
vn -0.941603 0.146533 -0.303169
vn -0.941603 0.146533 -0.303169
vn -0.941603 0.146533 -0.303169
vn 0.000000 0.000000 -1.000000
vn 0.000000 0.000000 -1.000000
vn 0.000000 0.000000 -1.000000
vn -1.000000 0.000000 0.000000
vn -1.000000 0.000000 0.000000
vn -1.000000 0.000000 0.000000
vn -1.000000 0.000000 0.000000
vn 0.000000 0.000000 1.000000
vn 0.000000 0.000000 1.000000
vn 0.000000 0.000000 1.000000
vn 0.000000 0.000000 1.000000
vn 0.999050 -0.029942 0.031669
vn 0.999050 -0.029942 0.031669
vn 0.999050 -0.029942 0.031669
vn 0.999050 -0.029942 0.031669
vn 0.000000 0.000000 -1.000000
vn 0.000000 0.000000 -1.000000
vn 0.000000 0.000000 -1.000000
vn 0.000000 0.000000 -1.000000
vn 0.009855 0.999949 -0.002409
vn 0.009855 0.999949 -0.002409
vn 0.009855 0.999949 -0.002409
vn 0.009855 0.999949 -0.002409
vn -0.468223 -0.001051 0.883610
vn -0.468223 -0.001051 0.883610
vn -0.468223 -0.001051 0.883610
vn -0.468223 -0.001051 0.883610
vn -0.203100 0.010867 0.979098
vn -0.203100 0.010867 0.979098
vn -0.203100 0.010867 0.979098
vn -0.203100 0.010867 0.979098
vn 0.000000 -1.000000 0.000000
vn 0.000000 -1.000000 0.000000
vn 0.000000 -1.000000 0.000000
vn 0.000000 -1.000000 0.000000
vn 0.000000 0.000000 1.000000
vn 0.000000 0.000000 1.000000
vn 0.000000 0.000000 1.000000
vn 0.000000 0.000000 1.000000
vn 0.000000 0.000000 1.000000
vn 0.000000 0.000000 1.000000
vn 0.000000 0.000000 1.000000
vn 0.000000 0.000000 1.000000
vn 0.000000 0.000000 1.000000
vn 0.000000 0.000000 1.000000
vn 0.000000 0.000000 1.000000
vn 0.000000 0.000000 1.000000
vn 0.000000 0.000000 1.000000
vn 0.000000 0.000000 1.000000
vn 0.000000 0.000000 1.000000
vn 0.000000 1.000000 0.000000
vn 0.000000 1.000000 0.000000
vn 0.000000 1.000000 0.000000
vn 0.000000 1.000000 0.000000
vn 0.000000 0.000000 -1.000000
vn 0.000000 0.000000 -1.000000
vn 0.000000 0.000000 -1.000000
vn 0.000000 0.000000 -1.000000
vn 0.000000 -1.000000 0.000000
vn 0.000000 -1.000000 0.000000
vn 0.000000 -1.000000 0.000000
vn 0.000000 -1.000000 0.000000
vn 1.000000 0.000000 0.000000
vn 1.000000 0.000000 0.000000
vn 1.000000 0.000000 0.000000
vn 1.000000 0.000000 0.000000
vn 1.000000 0.000000 0.000000
vn 1.000000 0.000000 0.000000
vn 1.000000 0.000000 0.000000
vn 1.000000 0.000000 0.000000
vn 1.000000 0.000000 0.000000
vn 1.000000 -0.000000 0.000000
vn 1.000000 -0.000000 0.000000
vn 1.000000 -0.000000 0.000000
vn 1.000000 0.000000 0.000000
vn 1.000000 0.000000 0.000000
vn 1.000000 0.000000 0.000000
vn -0.995428 0.012571 -0.094683
vn -0.995428 0.012571 -0.094683
vn -0.995428 0.012571 -0.094683
vn -0.995428 0.012571 -0.094683
vn 0.733522 -0.131217 0.666880
vn 0.733521 -0.131217 0.666880
vn 0.733521 -0.131217 0.666880
vn 0.941603 0.146533 0.303169
vn 0.941603 0.146533 0.303169
vn 0.941603 0.146533 0.303169
vn 0.000000 0.000000 1.000000
vn 0.000000 0.000000 1.000000
vn 0.000000 0.000000 1.000000
vn 0.000000 0.000000 1.000000
vn 1.000000 0.000000 0.000000
vn 1.000000 0.000000 0.000000
vn 1.000000 0.000000 0.000000
vn 1.000000 0.000000 0.000000
vn 0.000000 0.000000 -1.000000
vn 0.000000 0.000000 -1.000000
vn 0.000000 0.000000 -1.000000
vn 0.000000 0.000000 -1.000000
vn -0.996272 -0.018737 -0.084211
vn -0.996272 -0.018737 -0.084211
vn -0.996272 -0.018737 -0.084211
vn -0.996272 -0.018737 -0.084211
s off
f 14/14/1 11/11/2 8/3/3 7/4/4
f 2/5/5 8/3/6 11/11/7 12/12/8
f 7/4/9 1/7/10 13/13/11 14/14/12
f 13/13/13 1/7/14 2/5/15 12/12/16
f 3/8/17 9/9/18 12/12/19 4/6/20
f 10/10/21 9/9/22 3/8/23 5/1/24
f 5/1/25 6/2/26 11/11/27 10/10/28
f 12/12/29 11/11/30 6/2/31 4/6/32
f 9/9/33 13/13/34 12/12/35
f 14/14/36 13/13/37 9/9/38 10/10/39
f 10/10/40 11/11/41 14/14/42
f 32/15/43 16/16/44 30/17/45 31/18/46
f 37/19/47 18/20/48 20/21/49 36/22/50
f 34/23/51 29/24/52 22/25/53 33/26/54
f 33/27/55 22/28/56 16/29/57 32/30/58
f 16/31/59 22/32/60 29/33/61 30/34/62
f 21/35/63 15/36/64 27/37/65 28/38/66
f 24/39/67 23/40/68 17/41/69 19/42/70
f 36/43/71 20/44/72 25/45/73 35/46/74
f 26/47/75 25/48/76 20/49/77 18/50/78
f 38/51/79 26/52/80 18/53/81 37/54/82
f 28/38/83 27/37/84 23/40/85 24/39/86
f 35/46/87 25/45/88 29/24/89 34/23/90
f 30/34/91 29/33/92 25/48/93 26/47/94
f 38/51/95 31/18/96 30/17/97 26/52/98
f 15/55/99 32/15/100 31/18/101 27/56/102
f 21/57/103 33/27/104 32/30/105 15/58/106
f 28/59/107 34/23/108 33/26/109 21/60/110
f 24/61/111 35/46/112 34/23/113 28/59/114
f 19/62/115 36/43/116 35/46/117 24/61/118
f 17/63/119 37/19/120 36/22/121 19/64/122
f 23/65/123 38/51/124 37/54/125 17/66/126
f 27/56/127 31/18/128 38/51/129 23/65/130
f 39/67/131 40/68/132 42/69/133 41/70/134
f 41/70/135 42/69/136 44/71/137 43/72/138
f 43/72/139 44/71/140 46/73/141 45/74/142
f 45/75/143 46/76/144 40/77/145 39/78/146
f 47/79/147 67/80/148 48/81/149 49/82/150
f 50/83/151 49/82/152 56/84/153
f 56/84/154 49/82/155 58/85/156
f 49/82/157 48/81/158 58/85/159
f 48/81/160 55/86/161 58/85/162
f 59/87/163 63/88/164 64/89/165 62/90/166
f 51/91/167 65/92/168 66/93/169 53/94/170
f 53/95/171 66/96/172 67/97/173 47/98/174
f 54/99/175 52/100/176 57/101/177
f 57/101/178 52/100/179 50/102/180
f 48/103/181 54/99/182 55/104/183
f 55/104/184 54/99/185 57/101/186
f 50/102/187 56/105/188 57/101/189
f 53/106/190 47/107/191 49/108/192 51/109/193
f 58/110/194 57/101/195 56/105/196
f 55/104/197 57/101/198 58/110/199
f 49/111/200 63/88/201 59/87/202
f 50/112/203 52/113/204 61/114/205 60/115/206
f 65/116/207 51/117/208 62/90/209 64/89/210
f 51/117/211 49/111/212 59/87/213 62/90/214
f 49/111/215 50/112/216 60/115/217 63/88/218
f 64/89/219 63/88/220 60/115/221 61/114/222
f 52/113/223 65/116/224 64/89/225 61/114/226
f 66/93/227 65/92/228 52/118/229 54/119/230
f 67/97/231 66/96/232 54/120/233 48/121/234
f 68/122/235 69/123/236 70/124/237
f 71/125/238 70/124/239 77/126/240
f 77/126/241 70/124/242 79/127/243
f 70/124/244 69/123/245 79/127/246
f 69/123/247 76/128/248 79/127/249
f 80/129/250 81/130/251 82/131/252 83/132/253
f 72/133/254 73/134/255 75/135/256 74/136/257
f 74/137/258 75/138/259 69/139/260 68/140/261
f 75/141/262 73/142/263 78/143/264
f 78/143/265 73/142/266 71/144/267
f 69/145/268 75/141/269 76/146/270
f 76/146/271 75/141/272 78/143/273
f 71/144/274 77/147/275 78/143/276
f 74/148/277 68/149/278 70/150/279 72/151/280
f 79/152/281 78/143/282 77/147/283
f 76/146/284 78/143/285 79/152/286
f 70/153/287 71/154/288 81/130/289 80/129/290
f 71/154/291 73/155/292 82/131/293 81/130/294
f 73/155/295 72/156/296 83/132/297 82/131/298
f 72/156/299 70/153/300 80/129/301 83/132/302
