# This file uses centimeters as units for non-parametric coordinates.

v -17.459923 -2.395237 -11.480734
v -19.910065 14.269888 -10.537294
v -15.378792 6.362497 -19.973776
v -45.446381 13.017684 -10.480379
v -20.663223 0.805631 -22.480021
v -25.524712 9.501517 2.662254
v -41.581818 4.895686 0.989899
v -20.566551 13.941875 -0.780312
v -20.201000 -0.745493 3.452114
v -45.600609 -1.046529 -1.119965
v -34.981548 10.913544 -22.707895
v -38.674805 -2.508172 -20.429308
v 13.899361 -2.192305 29.878471
v -3.208641 21.073214 16.125036
v -7.777504 -2.192305 7.012718
v 5.025063 16.078072 29.189680
v 6.312840 16.701416 -9.651821
v 14.540344 11.401833 31.035461
v -3.985931 20.960756 5.572748
v -10.212944 2.597389 -0.699148
v 9.596302 2.889243 -11.587826
v 30.114300 2.889887 14.078171
v 9.641052 3.518117 34.052971
v -11.759117 15.118299 6.363325
v -3.387863 -1.420256 20.794563
v 22.688675 -2.522484 -0.161613
v 13.621742 19.715206 11.512516
v 28.118877 10.584094 13.343323
v 35.843094 1.250933 -15.918697
v 24.854301 12.146241 -7.983215
v 33.880089 8.699437 -13.647587
v 10.142700 9.129565 -17.459396
v 35.166206 5.472687 -20.210999
v 15.187088 0.615602 -0.933933
v 9.221989 -0.670051 -12.506126
v 18.107220 8.037163 -2.095924
v 30.027344 -2.156698 -5.615265
v 13.263741 -2.775712 -20.910583
v 21.693588 11.209174 -19.602722
v 24.951138 0.817435 -26.345448
vt 0.235052 0.326853
vt 0.235052 0.326853
vt 0.235052 0.326853
vt 0.235052 0.326853
vt 0.235052 0.326853
vt 0.235052 0.326853
vt 0.235052 0.326853
vt 0.235052 0.326853
vt 0.235052 0.326853
vt 0.235052 0.326853
vt 0.235052 0.326853
vt 0.235052 0.326853
vt 0.235052 0.326853
vt 0.235052 0.326853
vt 0.235052 0.326853
vt 0.235052 0.326853
vt 0.235052 0.326853
vt 0.235052 0.326853
vt 0.235052 0.326853
vt 0.235052 0.326853
vt 0.235052 0.326853
vt 0.235052 0.326853
vt 0.235052 0.326853
vt 0.235052 0.326853
vt 0.235052 0.326853
vt 0.235052 0.326853
vt 0.235052 0.326853
vt 0.235052 0.326853
vt 0.235052 0.326853
vt 0.235052 0.326853
vt 0.235052 0.326853
vt 0.235052 0.326853
vt 0.235052 0.326853
vt 0.235052 0.326853
vt 0.235052 0.326853
vt 0.235052 0.326853
vt 0.235052 0.326853
vt 0.235052 0.326853
vt 0.235052 0.326853
vt 0.235052 0.326853
vt 0.235052 0.326853
vt 0.235052 0.326853
vt 0.235052 0.326853
vt 0.235052 0.326853
vt 0.235052 0.326853
vt 0.235052 0.326853
vt 0.235052 0.326853
vt 0.235052 0.326853
vt 0.235052 0.326853
vt 0.235052 0.326853
vt 0.235052 0.326853
vt 0.235052 0.326853
vt 0.235052 0.326853
vt 0.235052 0.326853
vt 0.235052 0.326853
vt 0.235052 0.326853
vt 0.235052 0.326853
vt 0.235052 0.326853
vt 0.235052 0.326853
vt 0.235052 0.326853
vt 0.235052 0.326853
vt 0.235052 0.326853
vt 0.235052 0.326853
vt 0.235052 0.326853
vt 0.235052 0.326853
vt 0.235052 0.326853
vt 0.235052 0.326853
vt 0.235052 0.326853
vn -0.016090 -0.996168 0.085974
vn -0.016090 -0.996168 0.085974
vn -0.016090 -0.996168 0.085974
vn -0.016090 -0.996168 0.085974
vn 0.996652 0.044562 0.068557
vn 0.996652 0.044562 0.068557
vn 0.996652 0.044562 0.068557
vn 0.190024 0.247761 -0.950003
vn 0.190024 0.247761 -0.950003
vn 0.190024 0.247761 -0.950003
vn 0.981140 -0.052836 0.185936
vn 0.981140 -0.052836 0.185936
vn 0.981140 -0.052836 0.185936
vn 0.378463 0.264988 0.886875
vn 0.378463 0.264988 0.886875
vn 0.378463 0.264988 0.886875
vn -0.269885 0.746087 0.608701
vn -0.269885 0.746087 0.608701
vn -0.269885 0.746087 0.608701
vn -0.269885 0.746087 0.608701
vn -0.784979 0.349192 0.511735
vn -0.784979 0.349192 0.511735
vn -0.784979 0.349192 0.511735
vn -0.926817 -0.200959 -0.317216
vn -0.926817 -0.200959 -0.317216
vn -0.926817 -0.200959 -0.317216
vn 0.137197 -0.939657 -0.313403
vn 0.137197 -0.939657 -0.313402
vn 0.137197 -0.939657 -0.313403
vn 0.750160 -0.543514 -0.376634
vn 0.750160 -0.543514 -0.376634
vn 0.750160 -0.543514 -0.376634
vn 0.261027 0.797933 -0.543294
vn 0.261027 0.797933 -0.543294
vn 0.261027 0.797933 -0.543294
vn 0.938445 0.225560 0.261619
vn 0.938445 0.225560 0.261619
vn 0.938445 0.225560 0.261619
vn -0.748265 0.094422 -0.656646
vn -0.748265 0.094422 -0.656646
vn -0.748265 0.094422 -0.656646
vn -0.137720 -0.091514 0.986234
vn -0.137720 -0.091514 0.986234
vn -0.137720 -0.091514 0.986234
vn -0.137720 -0.091514 0.986234
vn -0.048888 0.998345 0.030273
vn -0.048888 0.998345 0.030273
vn -0.048888 0.998345 0.030273
vn -0.048357 0.976624 -0.209445
vn -0.048357 0.976624 -0.209445
vn -0.048357 0.976624 -0.209445
vn -0.085798 -0.143763 -0.985886
vn -0.085798 -0.143763 -0.985886
vn -0.085798 -0.143763 -0.985886
vn 0.075998 0.996976 -0.016223
vn 0.075998 0.996976 -0.016223
vn 0.075998 0.996976 -0.016223
vn 0.137506 -0.989182 0.051105
vn 0.137506 -0.989182 0.051105
vn 0.137506 -0.989182 0.051105
vn 0.137506 -0.989182 0.051105
vn -0.784189 0.132112 0.606295
vn -0.784189 0.132112 0.606295
vn -0.784189 0.132112 0.606295
vn 0.357051 0.865350 0.351688
vn 0.357051 0.865350 0.351688
vn 0.357051 0.865350 0.351688
vn -0.238523 -0.856940 -0.456903
vn -0.238523 -0.856940 -0.456903
vn -0.238523 -0.856940 -0.456903
vn -0.952890 0.003806 0.303291
vn -0.952890 0.003806 0.303291
vn -0.952890 0.003806 0.303291
vn -0.714738 0.008113 0.699345
vn -0.714738 0.008113 0.699345
vn -0.714738 0.008113 0.699345
vn -0.352502 -0.709199 0.610556
vn -0.352502 -0.709199 0.610556
vn -0.352502 -0.709199 0.610556
vn -0.934178 -0.255717 0.248838
vn -0.934178 -0.255717 0.248838
vn -0.934178 -0.255717 0.248838
vn -0.576348 0.167611 -0.799831
vn -0.576348 0.167611 -0.799831
vn -0.576348 0.167611 -0.799831
vn -0.576348 0.167611 -0.799831
vn 0.693658 0.259102 -0.672090
vn 0.693658 0.259102 -0.672090
vn 0.693658 0.259102 -0.672090
vn 0.754920 0.292199 -0.587125
vn 0.754920 0.292199 -0.587125
vn 0.754920 0.292199 -0.587125
vn 0.754920 0.292199 -0.587125
vn 0.698298 -0.002549 0.715803
vn 0.698298 -0.002549 0.715803
vn 0.698298 -0.002549 0.715803
vn 0.742051 0.023049 0.669947
vn 0.742051 0.023049 0.669947
vn 0.742051 0.023049 0.669947
vn 0.742051 0.023049 0.669947
vn -0.004202 0.359736 0.933045
vn -0.004202 0.359736 0.933045
vn -0.004202 0.359736 0.933045
vn 0.150459 0.951340 0.268912
vn 0.150459 0.951340 0.268912
vn 0.150459 0.951340 0.268912
vn -0.598136 0.800607 0.035527
vn -0.598136 0.800607 0.035527
vn -0.598136 0.800607 0.035527
vn -0.817615 0.123269 0.562415
vn -0.817615 0.123269 0.562415
vn -0.817615 0.123269 0.562415
vn 0.535439 0.790454 -0.297469
vn 0.535439 0.790454 -0.297469
vn 0.535439 0.790454 -0.297469
vn -0.045998 -0.987634 -0.149879
vn -0.045998 -0.987634 -0.149879
vn -0.045998 -0.987634 -0.149879
vn -0.045998 -0.987634 -0.149879
vn -0.538696 0.643063 -0.544313
vn -0.538696 0.643063 -0.544313
vn -0.538696 0.643063 -0.544313
vn 0.130965 0.974172 -0.183949
vn 0.130965 0.974172 -0.183949
vn 0.130965 0.974172 -0.183949
vn 0.474018 0.817944 0.325998
vn 0.474018 0.817944 0.325998
vn 0.474018 0.817944 0.325998
vn 0.212858 -0.958503 -0.189638
vn 0.212858 -0.958503 -0.189638
vn 0.212858 -0.958503 -0.189638
vn 0.212858 -0.958503 -0.189638
vn 0.507096 0.316150 0.801812
vn 0.507096 0.316150 0.801812
vn 0.507096 0.316150 0.801812
vn 0.352366 0.865350 -0.356382
vn 0.352366 0.865350 -0.356382
vn 0.352366 0.865350 -0.356382
vn 0.858356 0.071297 0.508077
vn 0.858356 0.071297 0.508077
vn 0.858356 0.071297 0.508077
vn 0.305595 0.028770 0.951727
vn 0.305595 0.028770 0.951727
vn 0.305595 0.028770 0.951727
vn -0.836542 0.339331 0.430178
vn -0.836542 0.339331 0.430178
vn -0.836542 0.339331 0.430178
vn -0.836542 0.339331 0.430178
vn -0.906103 -0.119933 -0.405702
vn -0.906103 -0.119932 -0.405702
vn -0.906103 -0.119932 -0.405702
vn -0.452006 0.137019 -0.881429
vn -0.452006 0.137019 -0.881428
vn -0.452006 0.137019 -0.881429
vn 0.601289 -0.520215 -0.606488
vn 0.601289 -0.520215 -0.606488
vn 0.601289 -0.520215 -0.606488
vn 0.969654 0.232458 0.075724
vn 0.969654 0.232458 0.075724
vn 0.969654 0.232458 0.075724
vn 0.269198 0.951340 -0.149948
vn 0.269198 0.951340 -0.149948
vn 0.269198 0.951340 -0.149948
vn 0.589303 0.334862 0.735248
vn 0.589303 0.334862 0.735248
vn 0.589303 0.334862 0.735248
vn -0.242373 0.473475 -0.846804
vn -0.242373 0.473475 -0.846804
vn -0.242373 0.473475 -0.846804
vn -0.128667 -0.975581 0.178006
vn -0.128667 -0.975581 0.178006
vn -0.128667 -0.975581 0.178006
vn -0.128667 -0.975581 0.178006
vn -0.341984 0.908050 0.241852
vn -0.341984 0.908050 0.241852
vn -0.341984 0.908050 0.241852
vn -0.182435 0.982771 -0.029631
vn -0.182435 0.982771 -0.029631
vn -0.182435 0.982771 -0.029631
vn 0.210364 0.577686 -0.788686
vn 0.210364 0.577686 -0.788686
vn 0.210364 0.577686 -0.788686
s off
f 1/3/1 9/18/2 10/19/3 12/4/4
f 8/5/5 9/13/6 2/2/7
f 3/6/8 5/10/9 11/20/10
f 9/13/11 1/1/12 3/6/13
f 6/11/14 9/13/15 8/5/16
f 4/8/17 7/16/18 6/15/19 8/17/20
f 4/9/21 10/12/22 7/7/23
f 12/21/24 10/12/25 4/9/26
f 1/1/27 12/21/28 5/10/29
f 1/1/30 5/10/31 3/6/32
f 3/6/33 11/20/34 2/2/35
f 3/6/36 2/2/37 9/13/38
f 12/21/39 4/9/40 11/14/41
f 7/16/42 10/19/43 9/18/44 6/15/45
f 2/2/46 4/8/47 8/17/48
f 2/2/49 11/20/50 4/8/51
f 12/21/52 11/20/53 5/10/54
f 19/22/55 14/23/56 27/24/57
f 13/25/58 25/26/59 26/27/60 22/28/61
f 24/29/62 25/30/63 14/23/64
f 16/31/65 18/32/66 27/24/67
f 15/33/68 20/34/69 21/35/70
f 15/36/71 25/30/72 20/37/73
f 25/30/74 23/38/75 16/31/76
f 23/38/77 25/30/78 13/39/79
f 20/37/80 25/30/81 24/29/82
f 17/40/83 21/35/84 20/34/85 24/41/86
f 17/42/87 26/43/88 21/44/89
f 22/45/90 26/43/91 17/42/92 28/46/93
f 22/45/94 23/38/95 13/39/96
f 23/38/97 22/45/98 28/46/99 18/32/100
f 23/38/101 18/32/102 16/31/103
f 16/31/104 27/24/105 14/23/106
f 14/23/107 19/22/108 24/41/109
f 16/31/110 14/23/111 25/30/112
f 28/46/113 17/42/114 27/47/115
f 21/35/116 26/27/117 25/26/118 15/33/119
f 19/22/120 17/40/121 24/41/122
f 19/22/123 27/24/124 17/40/125
f 28/46/126 27/24/127 18/32/128
f 29/48/129 37/49/130 38/50/131 40/51/132
f 36/52/133 37/53/134 30/54/135
f 31/55/136 33/56/137 39/57/138
f 37/53/139 29/58/140 31/55/141
f 34/59/142 37/53/143 36/52/144
f 32/60/145 35/61/146 34/62/147 36/63/148
f 32/64/149 38/65/150 35/66/151
f 40/67/152 38/65/153 32/64/154
f 29/58/155 40/67/156 33/56/157
f 29/58/158 33/56/159 31/55/160
f 31/55/161 39/57/162 30/54/163
f 31/55/164 30/54/165 37/53/166
f 40/67/167 32/64/168 39/68/169
f 35/61/170 38/50/171 37/49/172 34/62/173
f 30/54/174 32/60/175 36/63/176
f 30/54/177 39/57/178 32/60/179
f 40/67/180 39/57/181 33/56/182
