# This file uses centimeters as units for non-parametric coordinates.

v -11.206882 0.000000 11.128769
v 11.206882 0.000000 15.639648
v -11.206882 150.000000 47.386551
v 11.206882 150.000000 52.257347
v -11.206882 150.000000 22.638245
v 11.206882 150.000000 22.638245
v -11.206882 0.000000 -9.108658
v 11.206882 0.000000 -9.108658
v -11.678661 67.373276 26.663322
v -11.206882 67.373276 4.310799
v 11.206882 67.373276 4.268608
v 11.206882 67.373276 29.016914
v -11.206882 17.245197 16.248894
v -11.206882 17.245197 -7.615089
v 8.508751 17.245197 -7.615089
v 8.508751 17.245197 17.133217
v -5.864603 17.245197 17.133217
v -5.864603 0.000000 15.639648
v -5.864603 0.000000 -9.108658
v -5.864603 17.245197 -7.615089
v -5.864603 67.373276 4.392929
v -5.864603 150.000000 22.638245
v -5.864603 150.000000 52.257347
v -1.940605 71.553207 30.122414
v -127.275749 0.000000 -12.374149
v -150.000000 0.000000 -12.374149
v -129.843399 128.002884 -12.374149
v -150.000000 128.623337 -12.374149
v -131.456467 126.531853 12.374153
v -150.000000 129.801208 9.037094
v -127.275749 0.000000 12.374153
v -150.000000 0.000000 12.374153
v -150.000000 39.571487 -12.374149
v -150.000000 111.574455 -12.374149
v -150.000000 60.402969 -2.305489
v -144.007736 78.076935 -12.374149
v -127.275749 150.345474 -12.374149
v -150.000000 150.345474 -12.374149
v -150.000000 150.452377 7.243614
v -127.275749 150.345474 12.374153
v -143.949387 150.345474 -12.374149
v -143.949387 150.345474 12.374153
v -140.066376 127.876808 12.374153
v -143.949387 0.000000 12.374153
v -143.949387 0.000000 -12.374149
v 127.275749 0.000000 12.374153
v 150.000000 0.000000 12.374153
v 127.275749 128.623337 12.374153
v 150.000000 128.623337 12.374153
v 131.773148 111.946434 -12.374149
v 150.000000 128.623337 -12.374149
v 127.275749 0.000000 -12.374149
v 150.000000 0.000000 -12.374149
v 150.000000 39.571487 12.374153
v 150.000000 111.574455 12.374153
v 150.000000 60.402969 2.305489
v 144.007736 78.076935 12.374153
v 127.275749 150.345474 12.374153
v 150.000000 150.345474 12.374153
v 150.000000 150.345474 -12.374149
v 127.275749 150.345474 -12.374149
v -139.882126 0.000000 7.215576
v 138.482620 0.000000 7.215576
v -139.882126 148.418243 7.215576
v 138.482620 148.418243 7.215576
v -139.882126 148.418243 -7.215576
v 138.482620 148.418243 -7.215576
v -139.882126 0.000000 -7.215576
v 138.482620 0.000000 -7.215576
v -0.699754 148.418243 42.227974
v -0.699754 148.418243 27.796822
v -0.699754 0.000000 -7.215576
v -0.699754 0.000000 7.215576
v 68.891434 148.418243 16.884956
v 68.891434 148.418243 2.801018
v 68.891434 0.000000 -7.215576
v 68.891434 0.000000 7.215576
v -70.290939 148.418243 16.475143
v -70.290939 148.418243 2.043991
v -70.290939 0.000000 -7.215576
v -70.290939 0.000000 7.215576
v -35.495346 148.418243 29.351578
v -35.495346 148.418243 14.920425
v -35.495346 0.000000 -7.215576
v -35.495346 0.000000 7.215576
v 34.095837 148.418243 29.556465
v 34.095837 148.418243 15.298920
v 34.095837 0.000000 -7.215576
v 34.095837 0.000000 7.215576
vt 0.590440 0.447238
vt 0.590440 0.447238
vt 0.590440 0.447238
vt 0.590440 0.447238
vt 0.590440 0.447238
vt 0.590440 0.447238
vt 0.590440 0.447238
vt 0.590440 0.447238
vt 0.590440 0.447238
vt 0.590440 0.447238
vt 0.590440 0.447238
vt 0.590440 0.447238
vt 0.590440 0.447238
vt 0.590440 0.447238
vt 0.590440 0.447238
vt 0.590440 0.447238
vt 0.590440 0.447238
vt 0.590440 0.447238
vt 0.590440 0.447238
vt 0.590440 0.447238
vt 0.590440 0.447238
vt 0.590440 0.447238
vt 0.590440 0.447238
vt 0.590440 0.447238
vt 0.590440 0.447238
vt 0.590440 0.447238
vt 0.590440 0.447238
vt 0.590440 0.447238
vt 0.590440 0.447238
vt 0.590440 0.447238
vt 0.590440 0.447238
vt 0.590440 0.447238
vt 0.590440 0.447238
vt 0.590440 0.447238
vt 0.590440 0.447238
vt 0.590440 0.447238
vt 0.590440 0.447238
vt 0.590440 0.447238
vt 0.590440 0.447238
vt 0.590440 0.447238
vt 0.590440 0.447238
vt 0.590440 0.447238
vt 0.590440 0.447238
vt 0.590440 0.447238
vt 0.590440 0.447238
vt 0.590440 0.447238
vt 0.590440 0.447238
vt 0.590440 0.447238
vt 0.590440 0.447238
vt 0.590440 0.447238
vt 0.590440 0.447238
vt 0.590440 0.447238
vt 0.590440 0.447238
vt 0.590440 0.447238
vt 0.590440 0.447238
vt 0.590440 0.447238
vt 0.590440 0.447238
vt 0.590440 0.447238
vt 0.590440 0.447238
vt 0.590440 0.447238
vt 0.590440 0.447238
vt 0.590440 0.447238
vt 0.590440 0.447238
vt 0.590440 0.447238
vt 0.590440 0.447238
vt 0.590440 0.447238
vt 0.590440 0.447238
vt 0.590440 0.447238
vt 0.590440 0.447238
vt 0.590440 0.447238
vt 0.590440 0.447238
vt 0.590440 0.447238
vt 0.590440 0.447238
vt 0.590440 0.447238
vt 0.590440 0.447238
vt 0.590440 0.447238
vt 0.590440 0.447238
vt 0.590440 0.447238
vt 0.590440 0.447238
vt 0.590440 0.447238
vt 0.590440 0.447238
vt 0.590440 0.447238
vt 0.590440 0.447238
vt 0.590440 0.447238
vt 0.590440 0.447238
vt 0.590440 0.447238
vt 0.590440 0.447238
vt 0.590440 0.447238
vt 0.590440 0.447238
vt 0.590440 0.447238
vt 0.590440 0.447238
vt 0.590440 0.447238
vt 0.590440 0.447238
vt 0.590440 0.447238
vt 0.590440 0.447238
vt 0.590440 0.447238
vt 0.590440 0.447238
vt 0.590440 0.447238
vt 0.590440 0.447238
vt 0.590440 0.447238
vt 0.590440 0.447238
vt 0.590440 0.447238
vt 0.590440 0.447238
vt 0.590440 0.447238
vt 0.590440 0.447238
vt 0.590440 0.447238
vt 0.590440 0.447238
vt 0.590440 0.447238
vt 0.590440 0.447238
vt 0.590440 0.447238
vt 0.590440 0.447238
vt 0.590440 0.447238
vt 0.590440 0.447238
vt 0.590440 0.447238
vt 0.590440 0.447238
vt 0.590440 0.447238
vt 0.590440 0.447238
vt 0.590440 0.447238
vt 0.590440 0.447238
vt 0.590440 0.447238
vt 0.590440 0.447238
vt 0.590440 0.447238
vt 0.590440 0.447238
vt 0.590440 0.447238
vt 0.590440 0.447238
vt 0.590440 0.447238
vt 0.590440 0.447238
vt 0.590440 0.447238
vt 0.590440 0.447238
vt 0.590440 0.447238
vt 0.695642 0.494047
vt 0.695642 0.396395
vt 0.801591 0.396395
vt 0.801591 0.494047
vt 0.809117 0.396395
vt 0.809117 0.494047
vt 0.696652 0.396395
vt 0.696652 0.494047
vt 0.590440 0.447238
vt 0.590440 0.447238
vt 0.590440 0.447238
vt 0.590440 0.447238
vt 0.801591 0.445221
vt 0.809117 0.445221
vt 0.590440 0.447238
vt 0.696652 0.445221
vt 0.695642 0.445221
vt 0.590440 0.447238
vt 0.801591 0.420808
vt 0.809117 0.420808
vt 0.590440 0.447238
vt 0.696652 0.420808
vt 0.695642 0.420808
vt 0.590440 0.447238
vt 0.801591 0.469634
vt 0.809117 0.469634
vt 0.590440 0.447238
vt 0.696652 0.469634
vt 0.695642 0.469634
vt 0.590440 0.447238
vt 0.801591 0.457427
vt 0.809117 0.457427
vt 0.590440 0.447238
vt 0.696652 0.457427
vt 0.695642 0.457427
vt 0.590440 0.447238
vt 0.801591 0.433014
vt 0.809117 0.433014
vt 0.590440 0.447238
vt 0.696652 0.433014
vt 0.695642 0.433014
vt 0.590440 0.447238
vn 0.000000 -0.086285 0.996271
vn 0.000000 -0.086285 0.996271
vn 0.000000 -0.086285 0.996271
vn 0.000000 -0.086285 0.996271
vn 0.000000 1.000000 0.000000
vn 0.000000 1.000000 0.000000
vn 0.000000 1.000000 0.000000
vn 0.000000 1.000000 0.000000
vn 0.000000 0.086285 -0.996271
vn 0.000000 0.086285 -0.996271
vn 0.000000 0.086285 -0.996271
vn 0.000000 0.086285 -0.996271
vn 0.000000 -1.000000 0.000000
vn 0.000000 -1.000000 0.000000
vn 0.000000 -1.000000 0.000000
vn 0.000000 -1.000000 0.000000
vn 0.987981 0.154576 0.000000
vn 0.987981 0.154576 0.000000
vn 0.987981 0.154576 0.000000
vn 0.987981 0.154576 0.000000
vn -1.000000 0.000000 0.000000
vn -1.000000 0.000000 0.000000
vn -1.000000 0.000000 0.000000
vn -1.000000 0.000000 0.000000
vn -0.999936 0.005222 -0.010016
vn -0.999936 0.005222 -0.010016
vn -0.999936 0.005222 -0.010016
vn -0.999936 0.005222 -0.010016
vn -0.003555 0.216321 -0.976316
vn -0.003555 0.216321 -0.976316
vn -0.003555 0.216321 -0.976316
vn -0.003555 0.216321 -0.976316
vn 1.000000 0.000000 0.000000
vn 1.000000 0.000000 0.000000
vn 1.000000 0.000000 0.000000
vn 1.000000 0.000000 0.000000
vn -0.002301 -0.271203 0.962519
vn -0.002301 -0.271203 0.962519
vn -0.002301 -0.271203 0.962519
vn -0.002301 -0.271203 0.962519
vn -0.999945 -0.002431 -0.010207
vn -0.999945 -0.002431 -0.010207
vn -0.999945 -0.002431 -0.010207
vn -0.999945 -0.002431 -0.010207
vn -0.003846 0.231911 -0.972729
vn -0.003846 0.231911 -0.972729
vn -0.003846 0.231911 -0.972729
vn -0.003846 0.231911 -0.972729
vn 0.998555 -0.053747 0.000000
vn 0.998555 -0.053747 0.000000
vn 0.998555 -0.053747 0.000000
vn 0.998555 -0.053747 0.000000
vn 0.003851 -0.231913 0.972729
vn 0.003851 -0.231913 0.972729
vn 0.003851 -0.231913 0.972729
vn 0.003851 -0.231913 0.972729
vn -0.444286 -0.168716 0.879855
vn -0.444286 -0.168716 0.879855
vn -0.444286 -0.168716 0.879855
vn -0.444286 -0.168716 0.879855
vn 0.000000 -1.000000 0.000000
vn 0.000000 -1.000000 0.000000
vn 0.000000 -1.000000 0.000000
vn 0.000000 -1.000000 0.000000
vn 0.000000 0.086285 -0.996271
vn 0.000000 0.086285 -0.996271
vn 0.000000 0.086285 -0.996271
vn 0.000000 0.086285 -0.996271
vn 0.007477 0.232196 -0.972640
vn 0.007477 0.232196 -0.972640
vn 0.007477 0.232196 -0.972640
vn 0.007477 0.232196 -0.972640
vn 0.007505 0.216078 -0.976347
vn 0.007505 0.216078 -0.976347
vn 0.007505 0.216078 -0.976347
vn 0.007505 0.216078 -0.976347
vn 0.000000 1.000000 0.000000
vn 0.000000 1.000000 0.000000
vn 0.000000 1.000000 0.000000
vn 0.000000 1.000000 0.000000
vn -0.416862 -0.242058 0.876147
vn -0.416862 -0.242058 0.876147
vn -0.416862 -0.242058 0.876147
vn -0.416862 -0.242058 0.876147
vn -0.217494 -0.206586 0.953949
vn -0.217494 -0.206586 0.953949
vn -0.217494 -0.206586 0.953949
vn -0.217494 -0.206586 0.953949
vn 0.000000 0.000000 -1.000000
vn 0.000000 0.000000 -1.000000
vn 0.000000 0.000000 -1.000000
vn 0.000000 0.000000 -1.000000
vn 0.000000 0.000000 -1.000000
vn 0.000000 0.000000 -1.000000
vn 0.000000 0.000000 -1.000000
vn 0.000000 0.000000 -1.000000
vn 0.000000 0.000000 -1.000000
vn 0.000000 0.000000 -1.000000
vn 0.000000 0.000000 -1.000000
vn 0.000000 0.000000 -1.000000
vn 0.000000 0.000000 -1.000000
vn 0.000000 0.000000 -1.000000
vn 0.000000 0.000000 -1.000000
vn 0.000000 0.000000 -1.000000
vn 0.000000 1.000000 0.000000
vn 0.000000 1.000000 0.000000
vn 0.000000 1.000000 0.000000
vn 0.000000 1.000000 0.000000
vn 0.000000 0.000000 1.000000
vn 0.000000 0.000000 1.000000
vn 0.000000 0.000000 1.000000
vn 0.000000 0.000000 1.000000
vn 0.000000 -1.000000 0.000000
vn 0.000000 -1.000000 0.000000
vn 0.000000 -1.000000 0.000000
vn 0.000000 -1.000000 0.000000
vn -1.000000 0.000000 0.000000
vn -1.000000 0.000000 0.000000
vn -1.000000 0.000000 0.000000
vn -1.000000 0.000000 0.000000
vn -1.000000 0.000000 0.000000
vn -1.000000 0.000000 0.000000
vn -1.000000 0.000000 0.000000
vn -1.000000 0.000000 0.000000
vn -1.000000 0.000000 0.000000
vn -1.000000 0.000000 0.000000
vn -1.000000 0.000000 0.000000
vn -1.000000 0.000000 0.000000
vn -1.000000 0.000000 0.000000
vn -1.000000 0.000000 0.000000
vn -1.000000 0.000000 0.000000
vn 0.999093 0.026489 0.033347
vn 0.999093 0.026489 0.033347
vn 0.999093 0.026489 0.033347
vn 0.999093 0.026489 0.033347
vn -0.733522 -0.131217 -0.666880
vn -0.733522 -0.131217 -0.666880
vn -0.733522 -0.131217 -0.666880
vn -0.941603 0.146533 -0.303169
vn -0.941603 0.146533 -0.303169
vn -0.941603 0.146533 -0.303169
vn 0.000000 0.000000 -1.000000
vn 0.000000 0.000000 -1.000000
vn 0.000000 0.000000 -1.000000
vn -1.000000 0.000000 0.000000
vn -1.000000 0.000000 0.000000
vn -1.000000 0.000000 0.000000
vn -1.000000 0.000000 0.000000
vn 0.000000 0.000000 1.000000
vn 0.000000 0.000000 1.000000
vn 0.000000 0.000000 1.000000
vn 0.000000 0.000000 1.000000
vn 0.989094 -0.144613 0.027936
vn 0.989094 -0.144613 0.027936
vn 0.989094 -0.144613 0.027936
vn 0.989094 -0.144613 0.027936
vn 0.000000 0.000000 -1.000000
vn 0.000000 0.000000 -1.000000
vn 0.000000 0.000000 -1.000000
vn 0.000000 0.000000 -1.000000
vn 0.009855 0.999949 -0.002410
vn 0.009855 0.999949 -0.002410
vn 0.009855 0.999949 -0.002410
vn 0.009855 0.999949 -0.002410
vn -0.468654 -0.005462 0.883365
vn -0.468654 -0.005462 0.883365
vn -0.468654 -0.005462 0.883365
vn -0.468654 -0.005462 0.883365
vn -0.202525 0.015732 0.979151
vn -0.202525 0.015732 0.979151
vn -0.202525 0.015732 0.979151
vn -0.202525 0.015732 0.979151
vn 0.000000 -1.000000 0.000000
vn 0.000000 -1.000000 0.000000
vn 0.000000 -1.000000 0.000000
vn 0.000000 -1.000000 0.000000
vn 0.000000 0.000000 1.000000
vn 0.000000 0.000000 1.000000
vn 0.000000 0.000000 1.000000
vn 0.000000 0.000000 1.000000
vn 0.000000 0.000000 1.000000
vn 0.000000 0.000000 1.000000
vn 0.000000 0.000000 1.000000
vn 0.000000 0.000000 1.000000
vn 0.000000 0.000000 1.000000
vn 0.000000 0.000000 1.000000
vn 0.000000 0.000000 1.000000
vn 0.000000 0.000000 1.000000
vn 0.000000 0.000000 1.000000
vn 0.000000 0.000000 1.000000
vn 0.000000 0.000000 1.000000
vn 0.000000 1.000000 0.000000
vn 0.000000 1.000000 0.000000
vn 0.000000 1.000000 0.000000
vn 0.000000 1.000000 0.000000
vn 0.000000 0.000000 -1.000000
vn 0.000000 0.000000 -1.000000
vn 0.000000 0.000000 -1.000000
vn 0.000000 0.000000 -1.000000
vn 0.000000 -1.000000 0.000000
vn 0.000000 -1.000000 0.000000
vn 0.000000 -1.000000 0.000000
vn 0.000000 -1.000000 0.000000
vn 1.000000 0.000000 0.000000
vn 1.000000 0.000000 0.000000
vn 1.000000 0.000000 0.000000
vn 1.000000 0.000000 0.000000
vn 1.000000 0.000000 0.000000
vn 1.000000 0.000000 0.000000
vn 1.000000 0.000000 0.000000
vn 1.000000 0.000000 0.000000
vn 1.000000 0.000000 0.000000
vn 1.000000 -0.000000 0.000000
vn 1.000000 -0.000000 0.000000
vn 1.000000 -0.000000 0.000000
vn 1.000000 0.000000 0.000000
vn 1.000000 0.000000 0.000000
vn 1.000000 0.000000 0.000000
vn -0.995141 0.018604 -0.096689
vn -0.995141 0.018604 -0.096689
vn -0.995141 0.018604 -0.096689
vn -0.995141 0.018604 -0.096689
vn 0.733522 -0.131217 0.666879
vn 0.733522 -0.131217 0.666879
vn 0.733522 -0.131217 0.666879
vn 0.941603 0.146533 0.303169
vn 0.941603 0.146533 0.303169
vn 0.941603 0.146533 0.303169
vn 0.000000 0.000000 1.000000
vn 0.000000 0.000000 1.000000
vn 0.000000 0.000000 1.000000
vn 0.000000 0.000000 1.000000
vn 1.000000 0.000000 0.000000
vn 1.000000 0.000000 0.000000
vn 1.000000 0.000000 0.000000
vn 1.000000 0.000000 0.000000
vn 0.000000 0.000000 -1.000000
vn 0.000000 0.000000 -1.000000
vn 0.000000 0.000000 -1.000000
vn 0.000000 0.000000 -1.000000
vn -0.995083 -0.074438 -0.065336
vn -0.995083 -0.074438 -0.065336
vn -0.995083 -0.074438 -0.065336
vn -0.995083 -0.074438 -0.065336
vn -0.066349 -0.031110 0.997311
vn -0.066349 -0.031110 0.997311
vn -0.066349 -0.031110 0.997311
vn -0.066349 -0.031110 0.997311
vn 0.000000 1.000000 0.000000
vn 0.000000 1.000000 0.000000
vn 0.000000 1.000000 0.000000
vn 0.000000 1.000000 0.000000
vn 0.066349 0.031110 -0.997311
vn 0.066349 0.031110 -0.997311
vn 0.066349 0.031110 -0.997311
vn 0.066349 0.031110 -0.997311
vn 0.000000 -1.000000 0.000000
vn 0.000000 -1.000000 0.000000
vn 0.000000 -1.000000 0.000000
vn 0.000000 -1.000000 0.000000
vn 0.000000 1.000000 0.000000
vn 0.000000 1.000000 0.000000
vn 0.000000 1.000000 0.000000
vn 0.000000 1.000000 0.000000
vn -0.173632 0.187370 -0.966822
vn -0.173632 0.187370 -0.966822
vn -0.173632 0.187370 -0.966822
vn -0.173632 0.187370 -0.966822
vn 0.000000 -1.000000 0.000000
vn 0.000000 -1.000000 0.000000
vn 0.000000 -1.000000 0.000000
vn 0.000000 -1.000000 0.000000
vn 0.338814 -0.140046 0.930372
vn 0.338814 -0.140046 0.930372
vn 0.338814 -0.140046 0.930372
vn 0.000000 1.000000 0.000000
vn 0.000000 1.000000 0.000000
vn 0.000000 1.000000 0.000000
vn 0.000000 1.000000 0.000000
vn -0.071741 0.033638 -0.996856
vn -0.071741 0.033638 -0.996856
vn -0.071741 0.033638 -0.996856
vn -0.071741 0.033638 -0.996856
vn 0.000000 -1.000000 0.000000
vn 0.000000 -1.000000 0.000000
vn 0.000000 -1.000000 0.000000
vn 0.000000 -1.000000 0.000000
vn 0.069269 -0.032479 0.997069
vn 0.069269 -0.032479 0.997069
vn 0.069269 -0.032479 0.997069
vn 0.069269 -0.032479 0.997069
vn 0.000000 1.000000 0.000000
vn 0.000000 1.000000 0.000000
vn 0.000000 1.000000 0.000000
vn 0.000000 1.000000 0.000000
vn 0.180965 0.103444 -0.978034
vn 0.180965 0.103444 -0.978034
vn 0.180965 0.103444 -0.978034
vn 0.180965 0.103444 -0.978034
vn 0.000000 -1.000000 0.000000
vn 0.000000 -1.000000 0.000000
vn 0.000000 -1.000000 0.000000
vn 0.000000 -1.000000 0.000000
vn 0.000000 -0.147514 0.989060
vn 0.000000 -0.147514 0.989060
vn 0.000000 -0.147514 0.989060
vn 0.000000 1.000000 0.000000
vn 0.000000 1.000000 0.000000
vn 0.000000 1.000000 0.000000
vn 0.000000 1.000000 0.000000
vn 0.178766 0.186008 -0.966149
vn 0.178766 0.186008 -0.966149
vn 0.178766 0.186008 -0.966149
vn 0.178766 0.186008 -0.966149
vn 0.000000 -1.000000 0.000000
vn 0.000000 -1.000000 0.000000
vn 0.000000 -1.000000 0.000000
vn 0.000000 -1.000000 0.000000
vn 0.000000 -0.229601 0.973285
vn 0.000000 -0.229601 0.973285
vn 0.000000 -0.229601 0.973285
vn 0.000000 1.000000 0.000000
vn 0.000000 1.000000 0.000000
vn 0.000000 1.000000 0.000000
vn 0.000000 1.000000 0.000000
vn -0.175743 0.107245 -0.978577
vn -0.175743 0.107245 -0.978577
vn -0.175743 0.107245 -0.978577
vn -0.175743 0.107245 -0.978577
vn 0.000000 -1.000000 0.000000
vn 0.000000 -1.000000 0.000000
vn 0.000000 -1.000000 0.000000
vn 0.000000 -1.000000 0.000000
vn 0.341546 -0.061102 0.937877
vn 0.341546 -0.061102 0.937877
vn 0.341546 -0.061102 0.937877
vn -0.343711 -0.138527 0.928802
vn -0.343711 -0.138527 0.928802
vn -0.343711 -0.138527 0.928802
vn 0.000000 -0.229601 0.973285
vn 0.000000 -0.229601 0.973285
vn 0.000000 -0.229601 0.973285
vn 0.000000 -0.148850 0.988860
vn 0.000000 -0.148850 0.988860
vn 0.000000 -0.148850 0.988860
vn -0.346465 -0.058411 0.936242
vn -0.346465 -0.058411 0.936242
vn -0.346465 -0.058411 0.936243
s off
f 18/42/1 2/2/2 16/39/3 17/41/4
f 23/50/5 4/6/6 6/7/7 22/49/8
f 20/46/9 15/37/10 8/11/11 19/45/12
f 19/44/13 8/14/14 2/15/15 18/43/16
f 2/17/17 8/18/18 15/38/19 16/40/20
f 7/21/21 1/22/22 13/33/23 14/35/24
f 10/27/25 9/25/26 3/23/27 5/24/28
f 22/48/29 6/10/30 11/29/31 21/47/32
f 12/32/33 11/30/34 6/19/35 4/20/36
f 24/52/37 12/31/38 4/3/39 23/51/40
f 14/35/41 13/33/42 9/25/43 10/27/44
f 21/47/45 11/29/46 15/37/47 20/46/48
f 16/40/49 15/38/50 11/30/51 12/32/52
f 24/52/53 17/41/54 16/39/55 12/31/56
f 1/1/57 18/42/58 17/41/59 13/34/60
f 7/13/61 19/44/62 18/43/63 1/16/64
f 14/36/65 20/46/66 19/45/67 7/12/68
f 10/28/69 21/47/70 20/46/71 14/36/72
f 5/9/73 22/48/74 21/47/75 10/28/76
f 3/5/77 23/50/78 22/49/79 5/8/80
f 9/26/81 24/52/82 23/51/83 3/4/84
f 13/34/85 17/41/86 24/52/87 9/26/88
f 25/53/89 45/54/90 26/55/91 27/56/92
f 28/57/93 27/56/94 34/58/95
f 34/58/96 27/56/97 36/59/98
f 27/56/99 26/55/100 36/59/101
f 26/55/102 33/60/103 36/59/104
f 37/61/105 41/62/106 42/63/107 40/64/108
f 29/65/109 43/66/110 44/67/111 31/68/112
f 31/69/113 44/70/114 45/71/115 25/72/116
f 32/73/117 30/74/118 35/75/119
f 35/75/120 30/74/121 28/76/122
f 26/77/123 32/73/124 33/78/125
f 33/78/126 32/73/127 35/75/128
f 28/76/129 34/79/130 35/75/131
f 31/80/132 25/81/133 27/82/134 29/83/135
f 36/84/136 35/75/137 34/79/138
f 33/78/139 35/75/140 36/84/141
f 27/85/142 41/62/143 37/61/144
f 28/86/145 30/87/146 39/88/147 38/89/148
f 43/90/149 29/91/150 40/64/151 42/63/152
f 29/91/153 27/85/154 37/61/155 40/64/156
f 27/85/157 28/86/158 38/89/159 41/62/160
f 42/63/161 41/62/162 38/89/163 39/88/164
f 30/87/165 43/90/166 42/63/167 39/88/168
f 44/67/169 43/66/170 30/92/171 32/93/172
f 45/71/173 44/70/174 32/94/175 26/95/176
f 46/96/177 47/97/178 48/98/179
f 49/99/180 48/98/181 55/100/182
f 55/100/183 48/98/184 57/101/185
f 48/98/186 47/97/187 57/101/188
f 47/97/189 54/102/190 57/101/191
f 58/103/192 59/104/193 60/105/194 61/106/195
f 50/107/196 51/108/197 53/109/198 52/110/199
f 52/111/200 53/112/201 47/113/202 46/114/203
f 53/115/204 51/116/205 56/117/206
f 56/117/207 51/116/208 49/118/209
f 47/119/210 53/115/211 54/120/212
f 54/120/213 53/115/214 56/117/215
f 49/118/216 55/121/217 56/117/218
f 52/122/219 46/123/220 48/124/221 50/125/222
f 57/126/223 56/117/224 55/121/225
f 54/120/226 56/117/227 57/126/228
f 48/127/229 49/128/230 59/104/231 58/103/232
f 49/128/233 51/129/234 60/105/235 59/104/236
f 51/129/237 50/130/238 61/106/239 60/105/240
f 50/130/241 48/127/242 58/103/243 61/106/244
f 62/131/245 81/159/246 78/155/247 64/134/248
f 64/134/249 78/155/250 79/156/251 66/136/252
f 66/136/253 79/156/254 80/158/255 68/138/256
f 68/139/257 80/157/258 81/160/259 62/142/260
f 70/143/261 86/167/262 87/168/263 71/144/264
f 72/146/265 71/144/266 87/168/267 88/170/268
f 73/148/269 72/145/270 88/169/271 89/172/272
f 70/143/273 89/171/274 86/167/275
f 74/149/276 65/133/277 67/135/278 75/150/279
f 76/152/280 75/150/281 67/135/282 69/137/283
f 77/154/284 76/151/285 69/140/286 63/141/287
f 74/149/288 77/153/289 63/132/290 65/133/291
f 78/155/292 82/161/293 83/162/294 79/156/295
f 80/158/296 79/156/297 83/162/298 84/164/299
f 81/160/300 80/157/301 84/163/302 85/166/303
f 82/161/304 81/159/305 85/165/306
f 82/161/307 70/143/308 71/144/309 83/162/310
f 84/164/311 83/162/312 71/144/313 72/146/314
f 85/166/315 84/163/316 72/145/317 73/148/318
f 70/143/319 85/165/320 73/147/321
f 86/167/322 74/149/323 75/150/324 87/168/325
f 88/170/326 87/168/327 75/150/328 76/152/329
f 89/172/330 88/169/331 76/151/332 77/154/333
f 86/167/334 77/153/335 74/149/336
f 82/161/337 85/165/338 70/143/339
f 70/143/340 73/147/341 89/171/342
f 86/167/343 89/171/344 77/153/345
f 78/155/346 81/159/347 82/161/348
