# This file uses centimeters as units for non-parametric coordinates.

v -573.955200 -27.459007 351.821655
v -441.399963 -27.459007 504.783691
v -279.639557 -27.459007 578.382324
v -139.819916 -27.459080 622.137817
v -0.000275 -27.459007 639.425415
v 139.820587 -27.459011 622.137817
v 279.639618 -27.459011 578.382324
v 441.400177 -27.459007 504.927124
v 574.216919 -27.459080 351.869873
v -430.690582 9.651054 374.680542
v -286.899689 13.333992 411.233887
v -142.910431 0.589317 443.750366
v -21.350983 15.876793 498.477539
v 143.180573 -8.440910 443.488525
v 286.268341 -11.766335 411.053223
v 430.662567 11.615776 374.692749
v -645.648438 -27.459007 209.731262
v -519.265259 10.994820 175.300110
v -355.762299 44.134842 217.776917
v -182.210052 52.474083 298.976807
v -0.000275 46.592049 274.040894
v 161.487457 37.621704 264.287476
v 336.759979 27.834648 251.293701
v 484.371979 6.045631 218.113220
v 644.674316 -27.459080 209.731262
v -688.604248 -27.459007 69.910034
v -516.452454 10.394234 71.641602
v -344.301849 39.972176 79.191040
v -135.783356 65.857796 82.392944
v -0.000275 57.530159 91.346802
v 228.057892 41.029533 129.136108
v 344.301788 40.647377 79.191040
v 516.452637 -1.751457 71.605591
v 688.604370 -27.459007 69.910034
v -688.604248 -27.459080 -69.909912
v -532.810913 6.425346 -92.045532
v -344.301849 45.518967 -79.213501
v -197.320526 67.686546 -64.824463
v 18.064606 47.993095 -63.722168
v 189.842255 57.700142 -101.286865
v 344.301788 30.686287 -79.190308
v 562.850952 0.674995 -27.569824
v 688.604370 -27.459007 -69.909912
v -645.144287 -27.459007 -209.729248
v -484.372070 15.592674 -218.187500
v -285.188995 42.226051 -270.796143
v -160.903595 32.531151 -264.309937
v -27.937576 41.216148 -302.452637
v 161.487457 52.610191 -264.285522
v 299.352142 50.918068 -217.800537
v 484.235870 -11.602531 -217.967163
v 645.945068 -27.459003 -209.729248
v -574.217163 -27.459080 -351.868500
v -430.690582 -0.414864 -374.679779
v -286.766022 11.864494 -411.258759
v -143.058441 10.658440 -443.855194
v -0.000275 6.783699 -456.731781
v 142.829926 -11.778999 -443.696503
v 286.577789 -12.040077 -411.232513
v 430.690948 1.712135 -374.679779
v 574.255005 -27.459003 -351.868500
v -441.399963 -27.459080 -504.926971
v -279.639557 -27.459007 -578.382202
v -139.819916 -27.459011 -622.137695
v -0.000275 -27.459003 -639.425293
v 139.820587 -27.459007 -622.012573
v 279.639618 -27.459007 -578.382202
v 441.400177 -27.459011 -504.926971
vt 0.527173 0.242979
vt 0.527173 0.242979
vt 0.527173 0.242979
vt 0.527173 0.242979
vt 0.527173 0.242979
vt 0.527173 0.242979
vt 0.527173 0.242979
vt 0.527173 0.242979
vt 0.527173 0.242979
vt 0.527173 0.242979
vt 0.527173 0.242979
vt 0.527173 0.242979
vt 0.527173 0.242979
vt 0.527173 0.242979
vt 0.527173 0.242979
vt 0.527173 0.242979
vt 0.527173 0.242979
vt 0.527173 0.242979
vt 0.527173 0.242979
vt 0.527173 0.242979
vt 0.527173 0.242979
vt 0.527173 0.242979
vt 0.527173 0.242979
vt 0.527173 0.242979
vt 0.527173 0.242979
vt 0.527173 0.242979
vt 0.527173 0.242979
vt 0.527173 0.242979
vt 0.527173 0.242979
vt 0.527173 0.242979
vt 0.527173 0.242979
vt 0.527173 0.242979
vt 0.527173 0.242979
vt 0.527173 0.242979
vt 0.527173 0.242979
vt 0.527173 0.242979
vt 0.527173 0.242979
vt 0.527173 0.242979
vt 0.527173 0.242979
vt 0.527173 0.242979
vt 0.527173 0.242979
vt 0.527173 0.242979
vt 0.527173 0.242979
vt 0.527173 0.242979
vt 0.527173 0.242979
vt 0.527173 0.242979
vt 0.527173 0.242979
vt 0.527173 0.242979
vt 0.527173 0.242979
vt 0.527173 0.242979
vt 0.527173 0.242979
vt 0.527173 0.242979
vt 0.527173 0.242979
vt 0.527173 0.242979
vt 0.527173 0.242979
vt 0.527173 0.242979
vt 0.527173 0.242979
vt 0.527173 0.242979
vt 0.527173 0.242979
vt 0.527173 0.242979
vt 0.527173 0.242979
vt 0.527173 0.242979
vt 0.527173 0.242979
vt 0.527173 0.242979
vt 0.527173 0.242979
vt 0.527173 0.242979
vt 0.527173 0.242979
vt 0.527173 0.242979
vn -0.279311 0.929193 0.242048
vn -0.279311 0.929192 0.242048
vn -0.279311 0.929192 0.242048
vn -0.119749 0.957282 0.263194
vn -0.119749 0.957282 0.263194
vn -0.119749 0.957282 0.263194
vn -0.085712 0.967048 0.239733
vn -0.085712 0.967048 0.239733
vn -0.085712 0.967048 0.239733
vn -0.074949 0.968000 0.239498
vn -0.074949 0.968000 0.239498
vn -0.074949 0.968000 0.239498
vn 0.052501 0.986640 0.154223
vn 0.052501 0.986640 0.154223
vn 0.052501 0.986640 0.154223
vn -0.036943 0.953603 0.298791
vn -0.036943 0.953603 0.298791
vn -0.036943 0.953603 0.298791
vn -0.191949 0.968978 0.155681
vn -0.191949 0.968978 0.155681
vn -0.191949 0.968978 0.155681
vn 0.035701 0.956739 0.288751
vn 0.035701 0.956739 0.288751
vn 0.035701 0.956739 0.288751
vn 0.180424 0.977700 0.107474
vn 0.180424 0.977700 0.107474
vn 0.180424 0.977700 0.107474
vn 0.033303 0.993764 0.106417
vn 0.033303 0.993764 0.106417
vn 0.033303 0.993764 0.106417
vn 0.044654 0.994472 0.095034
vn 0.044654 0.994472 0.095034
vn 0.044654 0.994472 0.095034
vn 0.125166 0.953078 0.275637
vn 0.125166 0.953078 0.275637
vn 0.125166 0.953078 0.275637
vn -0.137841 0.986620 0.087068
vn -0.137841 0.986620 0.087068
vn -0.137841 0.986620 0.087068
vn 0.291323 0.922618 0.252798
vn 0.291323 0.922618 0.252798
vn 0.291323 0.922618 0.252798
vn -0.268654 0.953651 0.135552
vn -0.268654 0.953651 0.135552
vn -0.268654 0.953651 0.135552
vn -0.258541 0.958352 0.121316
vn -0.258541 0.958352 0.121316
vn -0.258541 0.958352 0.121316
vn -0.030784 0.999318 0.020411
vn -0.030784 0.999318 0.020411
vn -0.030784 0.999318 0.020411
vn -0.252162 0.937693 0.239052
vn -0.252162 0.937693 0.239052
vn -0.252163 0.937693 0.239052
vn 0.007605 0.941997 0.335534
vn 0.007605 0.941997 0.335534
vn 0.007605 0.941997 0.335534
vn -0.142379 0.968380 0.204860
vn -0.142379 0.968381 0.204860
vn -0.142379 0.968381 0.204860
vn -0.286107 0.874724 0.391154
vn -0.286107 0.874724 0.391154
vn -0.286107 0.874724 0.391154
vn 0.051105 0.988806 0.140185
vn 0.051105 0.988806 0.140185
vn 0.051105 0.988806 0.140185
vn 0.226830 0.937433 0.264134
vn 0.226830 0.937433 0.264135
vn 0.226830 0.937433 0.264134
vn 0.063409 0.987943 0.141237
vn 0.063409 0.987943 0.141237
vn 0.063409 0.987943 0.141237
vn 0.082219 0.960961 0.264187
vn 0.082219 0.960961 0.264187
vn 0.082219 0.960961 0.264187
vn 0.072760 0.964132 0.255257
vn 0.072760 0.964132 0.255257
vn 0.072760 0.964132 0.255257
vn -0.182981 0.978263 -0.097566
vn -0.182981 0.978263 -0.097566
vn -0.182981 0.978263 -0.097566
vn 0.204244 0.933141 0.295857
vn 0.204244 0.933141 0.295857
vn 0.204244 0.933141 0.295857
vn 0.280615 0.949688 0.139100
vn 0.280615 0.949687 0.139100
vn 0.280615 0.949688 0.139100
vn 0.206258 0.977837 0.035964
vn 0.206258 0.977837 0.035964
vn 0.206258 0.977837 0.035964
vn -0.269385 0.959470 0.082760
vn -0.269385 0.959470 0.082760
vn -0.269385 0.959470 0.082760
vn -0.214629 0.976628 -0.011482
vn -0.214628 0.976628 -0.011482
vn -0.214628 0.976628 -0.011482
vn -0.195891 0.980564 -0.010997
vn -0.195891 0.980564 -0.010997
vn -0.195891 0.980564 -0.010997
vn -0.167323 0.984945 -0.043421
vn -0.167323 0.984945 -0.043421
vn -0.167323 0.984945 -0.043421
vn -0.069701 0.996477 0.046636
vn -0.069701 0.996477 0.046636
vn -0.069701 0.996477 0.046636
vn -0.122493 0.991666 -0.039916
vn -0.122493 0.991666 -0.039916
vn -0.122493 0.991666 -0.039916
vn 0.041828 0.996631 0.070553
vn 0.041828 0.996631 0.070553
vn 0.041828 0.996631 0.070553
vn 0.057186 0.996579 0.059666
vn 0.057186 0.996579 0.059666
vn 0.057186 0.996579 0.059666
vn 0.058956 0.996476 0.059660
vn 0.058956 0.996476 0.059660
vn 0.058956 0.996476 0.059660
vn 0.062806 0.996450 0.056061
vn 0.062806 0.996450 0.056061
vn 0.062806 0.996450 0.056061
vn 0.059699 0.996725 0.054538
vn 0.059699 0.996725 0.054538
vn 0.059699 0.996725 0.054538
vn 0.035825 0.996483 0.075756
vn 0.035825 0.996483 0.075756
vn 0.035825 0.996483 0.075756
vn 0.163210 0.983313 0.080358
vn 0.163210 0.983313 0.080358
vn 0.163210 0.983313 0.080358
vn 0.239171 0.970977 0.000696
vn 0.239171 0.970977 0.000696
vn 0.239171 0.970977 0.000696
vn 0.207417 0.976080 0.065168
vn 0.207417 0.976080 0.065168
vn 0.207417 0.976080 0.065168
vn 0.147467 0.988858 -0.020336
vn 0.147467 0.988858 -0.020336
vn 0.147467 0.988858 -0.020336
vn -0.214731 0.976671 -0.002221
vn -0.214731 0.976671 -0.002221
vn -0.214731 0.976671 -0.002221
vn -0.212527 0.977155 -0.000001
vn -0.212527 0.977155 -0.000001
vn -0.212527 0.977155 -0.000001
vn -0.169031 0.985586 -0.007005
vn -0.169031 0.985586 -0.007005
vn -0.169031 0.985586 -0.007005
vn -0.205178 0.978125 0.034251
vn -0.205178 0.978125 0.034251
vn -0.205178 0.978125 0.034251
vn -0.123646 0.991719 0.034727
vn -0.123646 0.991719 0.034727
vn -0.123646 0.991719 0.034727
vn -0.156096 0.984698 0.077481
vn -0.156096 0.984698 0.077481
vn -0.156096 0.984698 0.077481
vn 0.062101 0.997978 -0.013561
vn 0.062101 0.997978 -0.013561
vn 0.062101 0.997978 -0.013561
vn 0.091194 0.994550 -0.050543
vn 0.091194 0.994550 -0.050543
vn 0.091194 0.994550 -0.050543
vn 0.061833 0.996170 0.061816
vn 0.061833 0.996171 0.061816
vn 0.061833 0.996171 0.061816
vn -0.071430 0.995020 -0.069517
vn -0.071430 0.995020 -0.069517
vn -0.071430 0.995020 -0.069517
vn 0.031998 0.997250 0.066842
vn 0.031998 0.997250 0.066842
vn 0.031998 0.997250 0.066842
vn 0.180513 0.981633 -0.061738
vn 0.180513 0.981633 -0.061738
vn 0.180513 0.981633 -0.061738
vn 0.236163 0.969797 -0.060993
vn 0.236163 0.969797 -0.060993
vn 0.236163 0.969797 -0.060993
vn 0.117262 0.989948 0.079080
vn 0.117262 0.989947 0.079080
vn 0.117262 0.989947 0.079080
vn 0.147948 0.984584 0.093305
vn 0.147948 0.984584 0.093305
vn 0.147948 0.984584 0.093305
vn 0.218326 0.975876 0.000000
vn 0.218326 0.975876 0.000000
vn 0.218326 0.975876 0.000000
vn -0.221348 0.972765 -0.068801
vn -0.221348 0.972765 -0.068801
vn -0.221348 0.972765 -0.068801
vn -0.260011 0.965149 -0.029703
vn -0.260011 0.965149 -0.029703
vn -0.260011 0.965149 -0.029703
vn -0.197375 0.977244 -0.077697
vn -0.197375 0.977244 -0.077697
vn -0.197375 0.977244 -0.077697
vn -0.126386 0.991702 0.023539
vn -0.126386 0.991702 0.023539
vn -0.126386 0.991702 0.023539
vn -0.143002 0.987834 -0.061102
vn -0.143002 0.987834 -0.061102
vn -0.143002 0.987834 -0.061102
vn 0.084980 0.983798 -0.157862
vn 0.084980 0.983798 -0.157862
vn 0.084980 0.983798 -0.157862
vn 0.090724 0.983462 -0.156754
vn 0.090724 0.983462 -0.156754
vn 0.090724 0.983462 -0.156754
vn -0.069437 0.997475 -0.014936
vn -0.069437 0.997475 -0.014936
vn -0.069437 0.997475 -0.014936
vn -0.060064 0.998054 -0.016758
vn -0.060064 0.998054 -0.016758
vn -0.060064 0.998054 -0.016758
vn -0.055716 0.998216 -0.021479
vn -0.055716 0.998216 -0.021479
vn -0.055716 0.998216 -0.021479
vn 0.158762 0.983021 0.091999
vn 0.158762 0.983021 0.091999
vn 0.158762 0.983021 0.091999
vn 0.024201 0.999080 -0.035408
vn 0.024201 0.999080 -0.035408
vn 0.024201 0.999080 -0.035408
vn 0.165230 0.977482 -0.131255
vn 0.165230 0.977482 -0.131255
vn 0.165230 0.977482 -0.131255
vn 0.320180 0.946734 0.034356
vn 0.320180 0.946734 0.034356
vn 0.320180 0.946734 0.034356
vn 0.198467 0.978235 -0.060553
vn 0.198467 0.978235 -0.060553
vn 0.198467 0.978235 -0.060553
vn 0.102387 0.989075 -0.106055
vn 0.102387 0.989075 -0.106055
vn 0.102387 0.989075 -0.106055
vn -0.263272 0.946401 -0.187117
vn -0.263272 0.946401 -0.187117
vn -0.263272 0.946401 -0.187117
vn -0.199505 0.974827 -0.099553
vn -0.199505 0.974827 -0.099553
vn -0.199505 0.974827 -0.099553
vn -0.182890 0.961363 -0.205749
vn -0.182890 0.961363 -0.205749
vn -0.182890 0.961363 -0.205749
vn -0.119830 0.982642 -0.141619
vn -0.119830 0.982642 -0.141619
vn -0.119830 0.982642 -0.141619
vn 0.083104 0.990185 -0.112367
vn 0.083104 0.990185 -0.112367
vn 0.083104 0.990186 -0.112367
vn -0.039591 0.976752 -0.210684
vn -0.039591 0.976752 -0.210684
vn -0.039591 0.976752 -0.210684
vn -0.101786 0.986241 -0.130263
vn -0.101786 0.986241 -0.130263
vn -0.101786 0.986241 -0.130263
vn 0.006943 0.976231 -0.216621
vn 0.006943 0.976231 -0.216621
vn 0.006943 0.976231 -0.216621
vn -0.014286 0.975335 -0.220265
vn -0.014286 0.975336 -0.220265
vn -0.014286 0.975336 -0.220265
vn 0.151981 0.925155 -0.347836
vn 0.151981 0.925155 -0.347836
vn 0.151981 0.925155 -0.347836
vn 0.128337 0.929118 -0.346799
vn 0.128337 0.929118 -0.346799
vn 0.128337 0.929118 -0.346799
vn 0.072409 0.946987 -0.313007
vn 0.072409 0.946987 -0.313007
vn 0.072409 0.946987 -0.313007
vn 0.303998 0.899806 -0.312945
vn 0.303998 0.899806 -0.312945
vn 0.303998 0.899806 -0.312945
vn -0.126015 0.983910 0.126652
vn -0.126015 0.983910 0.126652
vn -0.126015 0.983910 0.126652
vn 0.094828 0.994131 0.052063
vn 0.094828 0.994131 0.052063
vn 0.094828 0.994131 0.052063
vn 0.214430 0.970733 -0.108151
vn 0.214430 0.970733 -0.108151
vn 0.214430 0.970733 -0.108151
vn -0.209956 0.960586 -0.182190
vn -0.209956 0.960586 -0.182190
vn -0.209956 0.960586 -0.182190
vn -0.131571 0.972703 -0.191151
vn -0.131571 0.972703 -0.191151
vn -0.131571 0.972703 -0.191151
vn -0.105361 0.966988 -0.232021
vn -0.105361 0.966988 -0.232021
vn -0.105361 0.966988 -0.232021
vn -0.044148 0.972046 -0.230601
vn -0.044148 0.972046 -0.230601
vn -0.044148 0.972046 -0.230601
vn -0.065645 0.975545 -0.209768
vn -0.065645 0.975545 -0.209768
vn -0.065645 0.975545 -0.209768
vn 0.010039 0.982835 -0.184215
vn 0.010039 0.982835 -0.184215
vn 0.010039 0.982835 -0.184215
vn -0.025898 0.977475 -0.209458
vn -0.025898 0.977475 -0.209458
vn -0.025898 0.977475 -0.209458
vn 0.143065 0.972774 -0.182329
vn 0.143065 0.972774 -0.182329
vn 0.143065 0.972774 -0.182329
vn 0.010931 0.996081 -0.087774
vn 0.010931 0.996081 -0.087774
vn 0.010931 0.996080 -0.087774
vn 0.021669 0.995890 -0.087938
vn 0.021669 0.995890 -0.087938
vn 0.021669 0.995890 -0.087938
vn 0.029024 0.995242 -0.093012
vn 0.029024 0.995242 -0.093012
vn 0.029024 0.995242 -0.093012
vn -0.036866 0.974511 -0.221290
vn -0.036866 0.974511 -0.221290
vn -0.036866 0.974511 -0.221290
vn 0.042468 0.994711 -0.093521
vn 0.042468 0.994711 -0.093521
vn 0.042468 0.994711 -0.093521
vn 0.224996 0.954587 -0.195297
vn 0.224996 0.954587 -0.195297
vn 0.224996 0.954587 -0.195297
s off
f 1/1/1 2/2/2 10/10/3
f 2/2/4 3/3/5 10/10/6
f 10/10/7 3/3/8 11/11/9
f 3/3/10 4/4/11 11/11/12
f 11/11/13 4/4/14 12/12/15
f 5/5/16 13/13/17 4/4/18
f 4/4/19 13/13/20 12/12/21
f 5/5/22 6/6/23 13/13/24
f 13/13/25 6/6/26 14/14/27
f 6/6/28 7/7/29 14/14/30
f 14/14/31 7/7/32 15/15/33
f 8/8/34 16/16/35 7/7/36
f 7/7/37 16/16/38 15/15/39
f 8/8/40 9/9/41 16/16/42
f 1/1/43 10/10/44 17/17/45
f 17/17/46 10/10/47 18/18/48
f 10/10/49 11/11/50 18/18/51
f 18/18/52 11/11/53 19/19/54
f 12/12/55 20/20/56 11/11/57
f 11/11/58 20/20/59 19/19/60
f 12/12/61 13/13/62 20/20/63
f 20/20/64 13/13/65 21/21/66
f 14/14/67 22/22/68 13/13/69
f 13/13/70 22/22/71 21/21/72
f 15/15/73 23/23/74 14/14/75
f 14/14/76 23/23/77 22/22/78
f 16/16/79 24/24/80 15/15/81
f 15/15/82 24/24/83 23/23/84
f 9/9/85 25/25/86 16/16/87
f 16/16/88 25/25/89 24/24/90
f 17/17/91 18/18/92 26/26/93
f 26/26/94 18/18/95 27/27/96
f 18/18/97 19/19/98 27/27/99
f 27/27/100 19/19/101 28/28/102
f 20/20/103 29/29/104 19/19/105
f 19/19/106 29/29/107 28/28/108
f 20/20/109 21/21/110 29/29/111
f 29/29/112 21/21/113 30/30/114
f 21/21/115 22/22/116 30/30/117
f 30/30/118 22/22/119 31/31/120
f 22/22/121 23/23/122 31/31/123
f 31/31/124 23/23/125 32/32/126
f 23/23/127 24/24/128 32/32/129
f 32/32/130 24/24/131 33/33/132
f 25/25/133 34/34/134 24/24/135
f 24/24/136 34/34/137 33/33/138
f 27/27/139 36/36/140 26/26/141
f 26/26/142 36/36/143 35/35/144
f 27/27/145 28/28/146 36/36/147
f 36/36/148 28/28/149 37/37/150
f 28/28/151 29/29/152 37/37/153
f 37/37/154 29/29/155 38/38/156
f 29/29/157 30/30/158 38/38/159
f 38/38/160 30/30/161 39/39/162
f 31/31/163 40/40/164 30/30/165
f 30/30/166 40/40/167 39/39/168
f 31/31/169 32/32/170 40/40/171
f 40/40/172 32/32/173 41/41/174
f 32/32/175 33/33/176 41/41/177
f 41/41/178 33/33/179 42/42/180
f 33/33/181 34/34/182 42/42/183
f 42/42/184 34/34/185 43/43/186
f 35/35/187 36/36/188 44/44/189
f 44/44/190 36/36/191 45/45/192
f 37/37/193 46/46/194 36/36/195
f 36/36/196 46/46/197 45/45/198
f 37/37/199 38/38/200 46/46/201
f 46/46/202 38/38/203 47/47/204
f 38/38/205 39/39/206 47/47/207
f 47/47/208 39/39/209 48/48/210
f 39/39/211 40/40/212 48/48/213
f 48/48/214 40/40/215 49/49/216
f 41/41/217 50/50/218 40/40/219
f 40/40/220 50/50/221 49/49/222
f 42/42/223 51/51/224 41/41/225
f 41/41/226 51/51/227 50/50/228
f 43/43/229 52/52/230 42/42/231
f 42/42/232 52/52/233 51/51/234
f 45/45/235 54/54/236 44/44/237
f 44/44/238 54/54/239 53/53/240
f 46/46/241 55/55/242 45/45/243
f 45/45/244 55/55/245 54/54/246
f 47/47/247 56/56/248 46/46/249
f 46/46/250 56/56/251 55/55/252
f 47/47/253 48/48/254 56/56/255
f 56/56/256 48/48/257 57/57/258
f 48/48/259 49/49/260 57/57/261
f 57/57/262 49/49/263 58/58/264
f 49/49/265 50/50/266 58/58/267
f 58/58/268 50/50/269 59/59/270
f 50/50/271 51/51/272 59/59/273
f 59/59/274 51/51/275 60/60/276
f 51/51/277 52/52/278 60/60/279
f 60/60/280 52/52/281 61/61/282
f 53/53/283 54/54/284 62/62/285
f 54/54/286 55/55/287 62/62/288
f 62/62/289 55/55/290 63/63/291
f 55/55/292 56/56/293 63/63/294
f 63/63/295 56/56/296 64/64/297
f 57/57/298 65/65/299 56/56/300
f 56/56/301 65/65/302 64/64/303
f 57/57/304 58/58/305 65/65/306
f 65/65/307 58/58/308 66/66/309
f 58/58/310 59/59/311 66/66/312
f 66/66/313 59/59/314 67/67/315
f 60/60/316 68/68/317 59/59/318
f 59/59/319 68/68/320 67/67/321
f 61/61/322 68/68/323 60/60/324
