# This file uses centimeters as units for non-parametric coordinates.

v -60.655132 -0.023468 1.444766
v -37.197327 -0.579985 2.459688
v -54.316467 248.428207 13.636074
v -52.394051 251.418274 7.126593
v -60.688961 0.483187 -8.057740
v -37.230499 -0.073308 -7.046968
v -33.880943 160.277710 9.661898
v -56.573616 165.491547 8.341532
v -57.429546 171.365112 0.000878
v -33.541161 168.072708 0.964923
v -31.139561 248.112183 13.573553
v -54.406189 248.768799 4.923245
v -31.332590 249.872681 5.132100
v -39.927063 -1.349955 6.721334
v -16.598810 -2.263242 9.283989
v -32.928215 247.257751 39.763397
v -32.415169 248.311371 31.122581
v -39.302799 -0.066851 -2.687149
v -15.973620 -0.979780 -0.128585
v -9.330824 210.743011 34.484261
v -31.846321 216.313675 32.054173
v -32.311684 221.146545 23.540104
v -8.567064 217.505844 25.855896
v -9.804486 243.699280 41.255531
v -9.404512 249.123322 32.994537
v -21.366365 246.966675 40.509480
v -9.604500 247.899475 37.125023
v -36.097549 -0.782779 11.074346
v -35.886692 108.521484 19.387737
v -24.242794 0.684293 6.397677
v -1.235152 -0.762588 7.530239
v -9.316433 225.308319 8.496284
v -7.242130 227.955566 1.885764
v -24.181946 0.809576 -3.113577
v -1.173676 -0.637491 -1.985195
v 6.329709 126.771355 7.986882
v -15.237659 124.611496 6.444763
v -15.748493 122.592422 -2.119137
v 7.040949 124.074738 -1.009715
v 13.829302 224.068878 8.604130
v -9.347126 225.301819 -0.223562
v 13.750776 225.494995 0.097915
v 10.080013 175.440567 5.467491
v 4.073812 173.188049 8.833168
v 11.954389 199.744507 8.449796
v 13.511974 -0.715913 -0.221238
v -7.652285 0.886639 0.793679
v 37.533493 236.551666 1.084669
v 36.777588 239.608429 -5.580291
v 13.593843 -0.214983 -9.723746
v -7.570952 1.387636 -8.712993
v 9.585300 160.788025 2.829698
v 30.534315 163.821594 1.361023
v 31.901379 169.176270 -7.248436
v 10.071772 168.144516 -6.233350
v 17.451248 242.563660 0.731232
v 37.713623 236.430496 -7.632464
v 18.148663 243.779633 -7.778975
v 51.997299 -2.589751 -2.750860
v 30.880665 -2.012348 -0.224914
v 60.688931 247.540039 8.471959
v 60.290421 247.957199 -0.226089
v 51.512413 -1.996643 -12.232299
v 30.395000 -1.419180 -9.710470
v 36.129913 172.841919 7.185586
v 56.054661 164.888977 5.357403
v 56.771244 169.022812 -3.498143
v 35.855225 178.955750 -1.936215
v 39.633293 247.329742 7.913257
v 39.566383 250.181244 1.481004
v 50.054909 245.055176 9.410492
v 48.574837 -1.481045 1.529992
v 55.089630 107.945313 1.487853
v 35.063843 0.295464 3.328023
v 14.214376 -0.465862 4.408282
v 36.002991 167.248474 15.420393
v 35.120068 170.601929 8.924122
v 35.025002 0.761334 -6.172728
v 14.174994 0.000000 -5.096638
v 15.354820 52.533524 10.346648
v 34.177998 52.660713 8.914513
v 35.180351 51.090015 0.098157
v 14.629309 50.183117 1.259603
v 15.843143 173.021408 15.708996
v 36.037865 167.543732 6.705545
v 16.394047 174.645279 7.255966
v 13.772900 101.346191 9.563721
v 22.719994 96.827896 11.383966
v 13.846828 108.546936 13.482708
vt 0.528372 0.512819
vt 0.528527 0.512685
vt 0.004774 0.329944
vt 0.004724 0.329896
vt 0.527631 0.517391
vt 0.527489 0.517253
vt 0.527521 0.512716
vt 0.527628 0.512653
vt 0.528368 0.509377
vt 0.527489 0.510496
vt 0.527631 0.510634
vt 0.528511 0.509515
vt 0.004724 0.327180
vt 0.004468 0.327617
vt 0.004483 0.327071
vt 0.004562 0.326576
vt 0.004774 0.327228
vt 0.004468 0.329968
vt 0.004418 0.329920
vt 0.528368 0.517185
vt 0.528511 0.517323
vt 0.527928 0.517219
vt 0.527505 0.514985
vt 0.527489 0.517253
vt 0.527628 0.512653
vt 0.528527 0.512685
vt 0.528511 0.517323
vt 0.527631 0.517391
vt 0.004418 0.329920
vt 0.004724 0.329896
vt 0.004571 0.329908
vt 0.528372 0.512819
vt 0.528368 0.517185
vt 0.527521 0.512716
vt 0.528369 0.510238
vt 0.527928 0.509936
vt 0.527489 0.510496
vt 0.527631 0.510634
vt 0.528511 0.509515
vt 0.528439 0.509446
vt 0.004774 0.327228
vt 0.004515 0.327096
vt 0.004483 0.327071
vt 0.004604 0.327126
vt 0.004749 0.327204
vt 0.004724 0.327180
vt 0.004774 0.329944
vt 0.004468 0.329968
vt 0.528368 0.517185
vt 0.528372 0.512819
vt 0.527521 0.512716
vt 0.527489 0.517253
vt 0.527628 0.512653
vt 0.528527 0.512685
vt 0.528511 0.517323
vt 0.527631 0.517391
vt 0.004774 0.329944
vt 0.004724 0.329896
vt 0.004418 0.329920
vt 0.004468 0.329968
vt 0.527946 0.511907
vt 0.527489 0.510496
vt 0.527631 0.510634
vt 0.528511 0.509515
vt 0.528368 0.509377
vt 0.528369 0.510238
vt 0.528370 0.511098
vt 0.004468 0.327617
vt 0.004483 0.327071
vt 0.004562 0.326576
vt 0.004774 0.327228
vt 0.004724 0.327180
vt 0.003838 0.328041
vt 0.003838 0.328041
vt 0.003838 0.328041
vt 0.003838 0.328041
vt 0.528368 0.517185
vt 0.527489 0.517253
vt 0.527521 0.512716
vt 0.528372 0.512819
vt 0.527628 0.512653
vt 0.527631 0.517391
vt 0.528511 0.517323
vt 0.528527 0.512685
vt 0.004774 0.329944
vt 0.004468 0.329968
vt 0.004418 0.329920
vt 0.004724 0.329896
vt 0.527489 0.510496
vt 0.528368 0.509377
vt 0.527631 0.510634
vt 0.528511 0.509515
vt 0.004468 0.327617
vt 0.004562 0.326576
vt 0.004483 0.327071
vt 0.004774 0.327228
vt 0.004724 0.327180
vt 0.527928 0.517219
vt 0.527489 0.517253
vt 0.527505 0.514985
vt 0.527628 0.512653
vt 0.527631 0.517391
vt 0.528511 0.517323
vt 0.528527 0.512685
vt 0.004418 0.329920
vt 0.004571 0.329908
vt 0.004724 0.329896
vt 0.528368 0.517185
vt 0.528372 0.512819
vt 0.527521 0.512716
vt 0.527928 0.509936
vt 0.528404 0.509842
vt 0.527631 0.510634
vt 0.527489 0.510496
vt 0.528511 0.509515
vt 0.004774 0.327228
vt 0.004737 0.327192
vt 0.004604 0.327126
vt 0.004774 0.329944
vt 0.004468 0.329968
vt 0.004515 0.327096
vt 0.004483 0.327071
vt 0.528368 0.517185
vt 0.527489 0.517253
vt 0.527521 0.512716
vt 0.528372 0.512819
vt 0.527628 0.512653
vt 0.527631 0.517391
vt 0.528511 0.517323
vt 0.528527 0.512685
vt 0.004774 0.329944
vt 0.004468 0.329968
vt 0.004418 0.329920
vt 0.004724 0.329896
vt 0.527489 0.510496
vt 0.527946 0.511907
vt 0.527631 0.510634
vt 0.528511 0.509515
vt 0.528368 0.509377
vt 0.528370 0.511098
vt 0.528369 0.510238
vt 0.004468 0.327617
vt 0.004562 0.326576
vt 0.004483 0.327071
vt 0.004774 0.327228
vt 0.004724 0.327180
vt 0.003838 0.328041
vt 0.003838 0.328041
vt 0.003838 0.328041
vt 0.003838 0.328041
vn -0.055709 -0.041831 0.997570
vn -0.055709 -0.041831 0.997570
vn -0.055709 -0.041831 0.997570
vn -0.055709 -0.041831 0.997570
vn 0.045391 0.046371 -0.997892
vn 0.045391 0.046371 -0.997892
vn 0.045391 0.046371 -0.997892
vn 0.045391 0.046371 -0.997892
vn -0.021390 -0.998358 -0.053145
vn -0.021390 -0.998358 -0.053145
vn -0.021390 -0.998358 -0.053145
vn -0.021390 -0.998358 -0.053145
vn 0.999742 -0.021611 0.006983
vn 0.999742 -0.021611 0.006983
vn 0.999742 -0.021611 0.006983
vn 0.999742 -0.021611 0.006983
vn -0.998207 0.019264 0.056664
vn -0.998207 0.019264 0.056664
vn -0.998207 0.019264 0.056664
vn -0.998207 0.019264 0.056664
vn -0.033736 -0.052816 0.998034
vn -0.033736 -0.052816 0.998034
vn -0.033736 -0.052816 0.998034
vn -0.033736 -0.052816 0.998034
vn -0.997424 0.028659 0.065752
vn -0.997424 0.028659 0.065752
vn -0.997424 0.028659 0.065752
vn -0.997424 0.028659 0.065752
vn 0.027540 0.056077 -0.998047
vn 0.027540 0.056077 -0.998047
vn 0.027540 0.056077 -0.998047
vn 0.027540 0.056077 -0.998047
vn 0.999557 -0.028810 -0.007504
vn 0.999557 -0.028810 -0.007504
vn 0.999557 -0.028810 -0.007504
vn 0.999557 -0.028810 -0.007504
vn -0.808352 0.587867 0.031302
vn -0.808352 0.587867 0.031302
vn -0.808351 0.587867 0.031302
vn -0.024223 0.650025 -0.759527
vn -0.024223 0.650025 -0.759527
vn -0.024223 0.650025 -0.759527
vn 0.054295 0.949811 0.308077
vn 0.054295 0.949811 0.308077
vn 0.054295 0.949811 0.308077
vn 0.054295 0.949811 0.308077
vn -0.746733 -0.049010 0.663316
vn -0.746733 -0.049010 0.663316
vn -0.746733 -0.049010 0.663316
vn 0.113188 0.113503 -0.987069
vn 0.113188 0.113503 -0.987069
vn 0.113188 0.113503 -0.987069
vn 0.113188 0.113503 -0.987069
vn -0.058123 -0.982113 0.179098
vn -0.058123 -0.982113 0.179098
vn -0.058123 -0.982113 0.179098
vn 0.997447 -0.040869 0.058564
vn 0.997447 -0.040869 0.058564
vn 0.997447 -0.040869 0.058564
vn 0.997447 -0.040869 0.058564
vn -0.999414 0.034220 0.000693
vn -0.999414 0.034220 0.000693
vn -0.999414 0.034220 0.000693
vn -0.999414 0.034220 0.000693
vn -0.999414 0.034220 0.000693
vn -0.144313 -0.208834 0.967245
vn -0.144312 -0.208834 0.967245
vn -0.144312 -0.208834 0.967245
vn -0.144312 -0.208834 0.967245
vn -0.999797 -0.018035 -0.008968
vn -0.999797 -0.018035 -0.008968
vn -0.999797 -0.018035 -0.008968
vn -0.999797 -0.018035 -0.008968
vn 0.101119 0.243210 -0.964688
vn 0.101119 0.243210 -0.964688
vn 0.101119 0.243210 -0.964688
vn 0.101119 0.243210 -0.964688
vn 0.998506 0.014558 0.052658
vn 0.998506 0.014558 0.052658
vn 0.998507 0.014558 0.052658
vn -0.023204 0.981533 0.189881
vn -0.023204 0.981533 0.189881
vn -0.023204 0.981533 0.189881
vn -0.023204 0.981533 0.189881
vn -0.023204 0.981533 0.189881
vn 0.149189 0.689699 0.708560
vn 0.149189 0.689699 0.708560
vn 0.149189 0.689699 0.708560
vn -0.068560 -0.243432 0.967492
vn -0.068560 -0.243432 0.967492
vn -0.068560 -0.243432 0.967492
vn 0.997035 0.001877 0.076924
vn 0.997035 0.001877 0.076924
vn 0.997035 0.001877 0.076924
vn 0.997035 0.001877 0.076924
vn -0.082339 -0.104112 0.991151
vn -0.082339 -0.104112 0.991151
vn -0.082339 -0.104112 0.991151
vn -0.082339 -0.104112 0.991151
vn -0.082339 -0.104112 0.991151
vn -0.023766 -0.990337 -0.136627
vn -0.023766 -0.990337 -0.136627
vn -0.023766 -0.990338 -0.136627
vn -0.023766 -0.990337 -0.136627
vn -0.059927 0.001949 0.998201
vn -0.059927 0.001949 0.998201
vn -0.059927 0.001949 0.998201
vn -0.059927 0.001949 0.998201
vn 0.048800 0.004686 -0.998798
vn 0.048800 0.004686 -0.998798
vn 0.048800 0.004686 -0.998798
vn 0.048800 0.004686 -0.998798
vn -0.062098 -0.997978 -0.013532
vn -0.062098 -0.997978 -0.013532
vn -0.062098 -0.997978 -0.013532
vn -0.062098 -0.997978 -0.013532
vn 0.996768 -0.062639 0.050308
vn 0.996768 -0.062639 0.050308
vn 0.996768 -0.062639 0.050308
vn 0.996768 -0.062639 0.050308
vn -0.997345 0.070710 0.017421
vn -0.997345 0.070710 0.017421
vn -0.997345 0.070710 0.017421
vn -0.997345 0.070710 0.017421
vn -0.084689 -0.015318 0.996290
vn -0.084689 -0.015318 0.996290
vn -0.084689 -0.015318 0.996290
vn -0.997905 0.059984 0.024236
vn -0.997905 0.059984 0.024236
vn -0.997905 0.059984 0.024236
vn -0.997905 0.059984 0.024236
vn 0.030701 0.012732 -0.999448
vn 0.030701 0.012732 -0.999448
vn 0.030701 0.012732 -0.999448
vn 0.030701 0.012732 -0.999448
vn 0.996957 -0.075652 -0.018818
vn 0.996957 -0.075652 -0.018818
vn 0.996957 -0.075652 -0.018818
vn 0.996957 -0.075652 -0.018818
vn -0.784341 0.620326 0.002298
vn -0.784341 0.620326 0.002298
vn -0.784341 0.620326 0.002298
vn 0.005746 0.619426 -0.785034
vn 0.005746 0.619426 -0.785034
vn 0.005746 0.619426 -0.785034
vn 0.090636 0.958515 0.270249
vn 0.090636 0.958515 0.270249
vn 0.090636 0.958515 0.270249
vn 0.090636 0.958515 0.270249
vn -0.069157 -0.021546 0.997373
vn -0.069157 -0.021546 0.997373
vn -0.069157 -0.021546 0.997373
vn 0.486627 0.007723 0.873576
vn 0.486627 0.007723 0.873576
vn 0.486627 0.007723 0.873576
vn 0.524184 -0.143433 0.839439
vn 0.524184 -0.143433 0.839439
vn 0.524184 -0.143433 0.839439
vn 0.992446 -0.071307 0.099833
vn 0.992446 -0.071307 0.099833
vn 0.992446 -0.071307 0.099833
vn 0.995949 -0.066551 0.060474
vn 0.995949 -0.066551 0.060474
vn 0.995949 -0.066551 0.060474
vn 0.006173 0.003318 0.999976
vn 0.006173 0.003318 0.999976
vn 0.006173 0.003318 0.999975
vn 0.006173 0.003318 0.999976
vn 0.059452 -0.017409 0.998079
vn 0.059452 -0.017409 0.998079
vn 0.059452 -0.017409 0.998079
vn 0.059452 -0.017409 0.998079
vn -0.046796 0.019726 -0.998710
vn -0.046796 0.019726 -0.998710
vn -0.046796 0.019726 -0.998710
vn -0.046796 0.019726 -0.998710
vn -0.077926 -0.995542 -0.053142
vn -0.077926 -0.995542 -0.053142
vn -0.077926 -0.995542 -0.053142
vn -0.077926 -0.995542 -0.053142
vn -0.994265 0.105967 0.014437
vn -0.994265 0.105967 0.014437
vn -0.994265 0.105967 0.014437
vn -0.994265 0.105967 0.014437
vn 0.993371 -0.105650 0.045312
vn 0.993371 -0.105650 0.045312
vn 0.993371 -0.105650 0.045312
vn 0.993371 -0.105650 0.045312
vn 0.028086 0.012661 0.999525
vn 0.028086 0.012661 0.999525
vn 0.028086 0.012661 0.999525
vn 0.028086 0.012661 0.999525
vn 0.993987 -0.090681 0.061369
vn 0.993987 -0.090681 0.061369
vn 0.993987 -0.090681 0.061369
vn 0.993987 -0.090681 0.061369
vn -0.022700 -0.011294 -0.999679
vn -0.022700 -0.011294 -0.999679
vn -0.022700 -0.011294 -0.999679
vn -0.022700 -0.011294 -0.999679
vn -0.994790 0.100336 -0.018073
vn -0.994790 0.100336 -0.018073
vn -0.994790 0.100336 -0.018073
vn -0.994790 0.100336 -0.018073
vn 0.961898 0.272935 0.016083
vn 0.961898 0.272935 0.016083
vn 0.961898 0.272935 0.016083
vn 0.221597 0.574225 -0.788137
vn 0.221597 0.574225 -0.788137
vn 0.221597 0.574225 -0.788137
vn 0.229193 0.937180 0.262990
vn 0.229193 0.937180 0.262990
vn 0.229193 0.937180 0.262990
vn 0.229193 0.937180 0.262990
vn 0.774417 -0.045863 0.631011
vn 0.774417 -0.045863 0.631011
vn 0.774417 -0.045863 0.631011
vn -0.084356 0.049328 -0.995214
vn -0.084356 0.049328 -0.995214
vn -0.084356 0.049328 -0.995214
vn -0.084356 0.049328 -0.995214
vn 0.003890 -0.967293 0.253631
vn 0.003890 -0.967293 0.253631
vn 0.003890 -0.967293 0.253631
vn -0.998315 0.027923 0.050859
vn -0.998315 0.027923 0.050859
vn -0.998315 0.027923 0.050859
vn -0.998315 0.027923 0.050859
vn 0.999483 -0.026869 -0.017652
vn 0.999483 -0.026869 -0.017652
vn 0.999483 -0.026869 -0.017652
vn 0.999483 -0.026869 -0.017652
vn 0.999483 -0.026869 -0.017652
vn 0.000490 -0.030890 0.999523
vn 0.000490 -0.030890 0.999523
vn 0.000490 -0.030890 0.999523
vn 0.000490 -0.030890 0.999523
vn 0.998707 -0.050591 0.004980
vn 0.998707 -0.050591 0.004980
vn 0.998707 -0.050591 0.004980
vn 0.998707 -0.050591 0.004980
vn -0.064386 0.047505 -0.996794
vn -0.064386 0.047505 -0.996794
vn -0.064386 0.047505 -0.996794
vn -0.064386 0.047505 -0.996794
vn -0.998190 0.050439 0.032744
vn -0.998190 0.050439 0.032744
vn -0.998190 0.050439 0.032744
vn 0.140200 0.905706 0.400051
vn 0.140200 0.905706 0.400051
vn 0.140200 0.905706 0.400051
vn 0.097789 -0.042951 0.994280
vn 0.097789 -0.042951 0.994280
vn 0.097789 -0.042951 0.994280
vn -0.997060 0.046298 0.061056
vn -0.997060 0.046298 0.061056
vn -0.997060 0.046298 0.061056
vn 0.057731 -0.028255 0.997932
vn 0.057731 -0.028255 0.997932
vn 0.057731 -0.028255 0.997932
vn 0.057731 -0.028255 0.997932
vn -0.034524 -0.997563 -0.060625
vn -0.034524 -0.997563 -0.060625
vn -0.034524 -0.997563 -0.060625
vn -0.034524 -0.997563 -0.060625
vn 0.130664 0.902428 0.410550
vn 0.130664 0.902428 0.410550
vn 0.130664 0.902428 0.410550
vn -0.222411 0.973293 0.056870
vn -0.222411 0.973293 0.056870
vn -0.222411 0.973293 0.056870
vn 0.063913 -0.068737 0.995585
vn 0.063913 -0.068737 0.995586
vn 0.063913 -0.068737 0.995586
vn 0.065251 -0.108656 0.991936
vn 0.065251 -0.108656 0.991936
vn 0.065251 -0.108656 0.991936
vn 0.065251 -0.108656 0.991936
vn -0.058558 0.124784 -0.990454
vn -0.058558 0.124784 -0.990454
vn -0.058558 0.124784 -0.990454
vn -0.058558 0.124784 -0.990454
vn 0.033912 -0.998219 -0.049076
vn 0.033912 -0.998219 -0.049076
vn 0.033912 -0.998219 -0.049076
vn 0.033912 -0.998219 -0.049076
vn -0.999142 0.010673 0.040024
vn -0.999142 0.010673 0.040024
vn -0.999142 0.010673 0.040024
vn -0.999142 0.010673 0.040024
vn 0.998622 0.001046 0.052466
vn 0.998622 0.001046 0.052466
vn 0.998622 0.001046 0.052466
vn 0.998622 0.001046 0.052466
vn -0.003136 -0.056635 0.998390
vn -0.003136 -0.056635 0.998390
vn -0.003136 -0.056635 0.998390
vn 0.998077 -0.015002 0.060142
vn 0.998077 -0.015002 0.060142
vn 0.998077 -0.015002 0.060142
vn 0.998077 -0.015002 0.060142
vn -0.034401 0.052587 -0.998024
vn -0.034401 0.052587 -0.998024
vn -0.034401 0.052587 -0.998024
vn -0.034401 0.052587 -0.998024
vn -0.998006 0.033416 -0.053539
vn -0.998006 0.033416 -0.053539
vn -0.998007 0.033416 -0.053539
vn -0.998006 0.033416 -0.053539
vn 0.960324 0.278569 0.013281
vn 0.960325 0.278569 0.013281
vn 0.960324 0.278569 0.013281
vn 0.200583 0.614007 -0.763389
vn 0.200583 0.614007 -0.763389
vn 0.200583 0.614007 -0.763389
vn 0.223082 0.926358 0.303473
vn 0.223082 0.926358 0.303473
vn 0.223082 0.926358 0.303473
vn 0.223082 0.926358 0.303473
vn 0.076057 -0.035982 0.996454
vn 0.076057 -0.035982 0.996454
vn 0.076057 -0.035982 0.996454
vn -0.194783 0.009419 0.980801
vn -0.194783 0.009419 0.980801
vn -0.194783 0.009419 0.980801
vn -0.386285 -0.437866 0.811824
vn -0.386285 -0.437866 0.811823
vn -0.386285 -0.437866 0.811824
vn -0.995688 -0.030865 0.087479
vn -0.995688 -0.030865 0.087479
vn -0.995688 -0.030865 0.087479
vn -0.964876 0.026274 -0.261387
vn -0.964876 0.026274 -0.261387
vn -0.964876 0.026274 -0.261387
vn 0.050657 -0.052042 0.997359
vn 0.050657 -0.052042 0.997359
vn 0.050657 -0.052042 0.997359
vn 0.050657 -0.052042 0.997359
s off
f 2/20/1 7/1/2 8/7/3 1/6/4
f 9/8/5 10/2/6 6/21/7 5/5/8
f 6/3/9 2/4/10 1/19/11 5/18/12
f 6/21/13 10/2/14 7/1/15 2/20/16
f 5/5/17 1/6/18 8/7/19 9/8/20
f 8/7/21 7/1/22 11/9/23 3/10/24
f 9/8/25 8/7/26 3/10/27 12/11/28
f 13/12/29 10/2/30 9/8/31 12/11/32
f 11/9/33 7/1/34 10/2/35 13/12/36
f 12/14/37 3/15/38 4/16/39
f 4/16/40 13/17/41 12/14/42
f 4/16/43 3/15/44 11/13/45 13/17/46
f 28/22/47 29/23/48 14/24/49
f 22/25/50 23/26/51 19/27/52 18/28/53
f 14/29/54 15/30/55 28/31/56
f 19/27/57 23/26/58 20/32/59 15/33/60
f 18/28/61 14/24/62 29/23/63 21/34/64 22/25/65
f 21/34/66 20/32/67 24/35/68 26/36/69
f 22/25/70 21/34/71 16/37/72 17/38/73
f 25/39/74 23/26/75 22/25/76 17/38/77
f 27/40/78 23/26/79 25/39/80
f 25/41/81 17/42/82 16/43/83 26/44/84 27/45/85
f 27/45/86 26/44/87 24/46/88
f 21/34/89 26/36/90 16/37/91
f 27/40/92 24/35/93 20/32/94 23/26/95
f 15/33/96 20/32/97 21/34/98 29/23/99 28/22/100
f 19/47/101 15/30/102 14/29/103 18/48/104
f 31/49/105 36/50/106 37/51/107 30/52/108
f 38/53/109 39/54/110 35/55/111 34/56/112
f 35/57/113 31/58/114 30/59/115 34/60/116
f 35/55/117 39/54/118 36/50/119 31/49/120
f 34/56/121 30/52/122 37/51/123 38/53/124
f 37/51/125 44/61/126 32/62/127
f 38/53/128 37/51/129 32/62/130 41/63/131
f 42/64/132 39/54/133 38/53/134 41/63/135
f 40/65/136 45/66/137 43/67/138 42/64/139
f 41/68/140 32/69/141 33/70/142
f 33/70/143 42/71/144 41/68/145
f 33/70/146 32/69/147 40/72/148 42/71/149
f 37/51/150 36/50/151 44/61/152
f 44/73/153 36/74/154 43/75/155
f 45/76/156 44/73/157 43/75/158
f 39/54/159 43/67/160 36/50/161
f 42/64/162 43/67/163 39/54/164
f 32/62/165 44/61/166 45/66/167 40/65/168
f 47/77/169 46/78/170 53/79/171 52/80/172
f 54/81/173 50/82/174 51/83/175 55/84/176
f 51/85/177 50/86/178 46/87/179 47/88/180
f 51/83/181 47/77/182 52/80/183 55/84/184
f 50/82/185 54/81/186 53/79/187 46/78/188
f 53/79/189 48/89/190 56/90/191 52/80/192
f 54/81/193 57/91/194 48/89/195 53/79/196
f 58/92/197 57/91/198 54/81/199 55/84/200
f 56/90/201 58/92/202 55/84/203 52/80/204
f 57/93/205 49/94/206 48/95/207
f 49/94/208 57/93/209 58/96/210
f 49/94/211 58/96/212 56/97/213 48/95/214
f 72/98/215 59/99/216 73/100/217
f 67/101/218 63/102/219 64/103/220 68/104/221
f 59/105/222 72/106/223 60/107/224
f 64/103/225 60/108/226 65/109/227 68/104/228
f 63/102/229 67/101/230 66/110/231 73/100/232 59/99/233
f 66/110/234 71/111/235 69/112/236 65/109/237
f 67/101/238 62/113/239 61/114/240 66/110/241
f 70/115/242 62/113/243 67/101/244 68/104/245
f 69/112/246 70/115/247 68/104/248
f 70/116/249 69/117/250 71/118/251
f 66/110/252 61/114/253 71/111/254
f 69/112/255 68/104/256 65/109/257
f 60/108/258 72/98/259 73/100/260 65/109/261
f 64/119/262 63/120/263 59/105/264 60/107/265
f 70/116/266 71/118/267 62/121/268
f 62/121/269 71/118/270 61/122/271
f 65/109/272 73/100/273 66/110/274
f 75/123/275 74/124/276 81/125/277 80/126/278
f 82/127/279 78/128/280 79/129/281 83/130/282
f 79/131/283 78/132/284 74/133/285 75/134/286
f 79/129/287 75/123/288 80/126/289 83/130/290
f 78/128/291 82/127/292 81/125/293 74/124/294
f 81/125/295 76/135/296 88/136/297
f 82/127/298 85/137/299 76/135/300 81/125/301
f 86/138/302 85/137/303 82/127/304 83/130/305
f 84/139/306 86/138/307 87/140/308 89/141/309
f 85/142/310 77/143/311 76/144/312
f 77/143/313 85/142/314 86/145/315
f 77/143/316 86/145/317 84/146/318 76/144/319
f 81/125/320 88/136/321 80/126/322
f 88/147/323 87/148/324 80/149/325
f 89/150/326 87/148/327 88/147/328
f 83/130/329 80/126/330 87/140/331
f 86/138/332 83/130/333 87/140/334
f 76/135/335 84/139/336 89/141/337 88/136/338
