# This file uses centimeters as units for non-parametric coordinates.

v 4.565266 0.000000 -3.613739
v 4.565266 0.000000 -5.759369
v 3.132133 18.857079 2.895966
v 3.132133 18.857079 1.178009
v -3.132137 18.857079 2.895966
v -3.132137 18.857079 1.178009
v -4.565269 0.000000 -3.613739
v -4.565266 0.000000 -5.759369
v 9.534363 5.200485 9.792816
v 10.708939 3.330124 6.490082
v 10.708939 30.348999 3.054291
v 10.708939 29.398026 -0.494781
v -10.708942 30.348999 3.054291
v -10.708946 29.398026 -0.494781
v -10.708942 4.281097 10.039154
v -10.708942 3.330124 6.490082
v -9.067677 5.565781 9.694946
v 9.067673 5.565781 9.694946
v 9.067673 29.064346 3.398529
v -9.067677 29.064346 3.398529
v -8.175583 5.909042 8.739960
v 8.175613 5.909042 8.739960
v 8.175613 28.289566 2.743134
v -8.175583 28.289566 2.743134
v 0.000000 3.134369 9.483429
v 0.000000 31.064247 1.999664
v 0.000000 31.977646 2.617920
v 0.000000 33.580818 2.188324
v 0.000000 32.629845 -1.360748
v 0.000000 0.098305 7.356049
v 0.000000 1.049278 10.905121
v 0.000000 2.652504 10.475555
v -13.530136 17.315056 6.546722
v -11.456451 17.315063 6.546722
v -10.329395 17.099297 5.741547
v 0.000000 17.099297 5.741547
v 10.329426 17.099297 5.741547
v 11.456478 17.315063 6.546722
v 13.530132 17.315056 6.546722
v 13.530132 16.364082 2.997650
v 0.000000 16.364082 2.997650
v -13.530132 16.364082 2.997650
v -2.655590 32.779396 2.403076
v -9.323689 30.767052 2.942291
v -5.727669 31.324677 0.682434
v -5.529297 31.099747 2.853149
v 11.214241 6.615547 9.413666
v 7.651970 3.358543 10.286377
v 10.708939 3.910370 8.655579
vt 0.025440 0.254990
vt 0.025440 0.254990
vt 0.025440 0.254990
vt 0.025440 0.254990
vt 0.025440 0.254990
vt 0.025440 0.254990
vt 0.025440 0.254990
vt 0.025440 0.254990
vt 0.026028 0.303130
vt 0.026028 0.303130
vt 0.026028 0.303130
vt 0.458558 0.029759
vt 0.434449 0.021913
vt 0.410339 0.029759
vt 0.026028 0.303130
vt 0.026028 0.303130
vt 0.026028 0.303130
vt 0.026028 0.303130
vt 0.026028 0.303130
vt 0.026028 0.303130
vt 0.026028 0.303130
vt 0.026028 0.303130
vt 0.026028 0.303130
vt 0.026028 0.303130
vt 0.026028 0.303130
vt 0.026028 0.303130
vt 0.026028 0.303130
vt 0.026028 0.303130
vt 0.026028 0.303130
vt 0.026028 0.303130
vt 0.026028 0.303130
vt 0.026028 0.303130
vt 0.403988 0.061402
vt 0.434449 0.061402
vt 0.434449 0.100890
vt 0.410339 0.093044
vt 0.026028 0.303130
vt 0.026028 0.303130
vt 0.026028 0.303130
vt 0.026028 0.303130
vt 0.026028 0.303130
vt 0.026028 0.303130
vt 0.026028 0.303130
vt 0.026028 0.303130
vt 0.026028 0.303130
vt 0.026028 0.303130
vt 0.026028 0.303130
vt 0.026028 0.303130
vt 0.026028 0.303130
vt 0.026028 0.303130
vt 0.026028 0.303130
vt 0.026028 0.303130
vt 0.026028 0.303130
vt 0.026028 0.303130
vt 0.026028 0.303130
vt 0.464910 0.061402
vt 0.458558 0.093044
vt 0.026028 0.303130
vt 0.026028 0.303130
vt 0.026028 0.303130
vt 0.026028 0.303130
vt 0.026028 0.303130
vt 0.026028 0.303130
vt 0.026028 0.303130
vt 0.026028 0.303130
vt 0.026028 0.303130
vt 0.026028 0.303130
vt 0.026028 0.303130
vt 0.026028 0.303130
vt 0.026028 0.303130
vt 0.026028 0.303130
vt 0.026028 0.303130
vt 0.026028 0.303130
vt 0.026028 0.303130
vn 0.997124 0.075781 0.000000
vn 0.997124 0.075781 0.000000
vn 0.997124 0.075781 0.000000
vn 0.997124 0.075781 0.000000
vn 0.000000 1.000000 0.000000
vn 0.000000 1.000000 0.000000
vn 0.000000 1.000000 0.000000
vn 0.000000 1.000000 0.000000
vn -0.997124 0.075781 -0.000001
vn -0.997124 0.075781 -0.000001
vn -0.997124 0.075781 -0.000001
vn -0.997124 0.075781 -0.000001
vn 0.000000 -1.000000 0.000000
vn 0.000000 -1.000000 0.000000
vn 0.000000 -1.000000 0.000000
vn 0.000000 -1.000000 0.000000
vn 0.000000 0.345269 -0.938504
vn 0.000000 0.345269 -0.938504
vn 0.000000 0.345269 -0.938504
vn 0.000000 0.345269 -0.938504
vn 0.000000 -0.326316 0.945261
vn 0.000000 -0.326316 0.945261
vn 0.000000 -0.326316 0.945261
vn 0.000000 -0.326316 0.945261
vn 0.978835 0.197676 -0.052967
vn 0.978835 0.197676 -0.052967
vn 0.978835 0.197676 -0.052967
vn 0.978835 0.197676 -0.052967
vn -0.298217 0.921974 -0.247043
vn -0.298216 0.921974 -0.247043
vn -0.298217 0.921974 -0.247043
vn -0.978835 0.197676 -0.052967
vn -0.978835 0.197676 -0.052967
vn -0.978835 0.197676 -0.052967
vn -0.978835 0.197676 -0.052967
vn -0.298217 -0.921974 0.247043
vn -0.298217 -0.921974 0.247043
vn -0.298217 -0.921974 0.247043
vn -0.298217 -0.921974 0.247043
vn -0.000000 -0.258819 -0.965926
vn -0.000000 -0.258819 -0.965926
vn -0.000000 -0.258819 -0.965926
vn -0.000000 -0.258819 -0.965926
vn -0.000000 0.258818 0.965926
vn -0.000000 0.258818 0.965926
vn -0.000000 0.258818 0.965926
vn -0.000000 0.258818 0.965926
vn -0.000004 0.258809 0.965929
vn -0.000004 0.258809 0.965929
vn -0.000004 0.258809 0.965929
vn -0.000004 0.258809 0.965929
vn 0.000005 0.258819 0.965926
vn 0.000005 0.258819 0.965926
vn 0.000005 0.258819 0.965926
vn 0.000005 0.258819 0.965926
vn -0.000000 0.258817 0.965926
vn -0.000000 0.258817 0.965926
vn -0.000000 0.258817 0.965926
vn -0.000005 0.258819 0.965926
vn -0.000005 0.258819 0.965926
vn -0.000005 0.258819 0.965926
vn -0.000005 0.258819 0.965926
vn 0.238859 0.849945 0.469617
vn 0.238859 0.849945 0.469617
vn 0.238859 0.849945 0.469617
vn 0.238859 0.849945 0.469617
vn -0.612151 0.089300 0.785682
vn -0.612151 0.089300 0.785682
vn -0.612151 0.089300 0.785682
vn -0.612151 0.089300 0.785682
vn 0.238855 -0.501248 0.831685
vn 0.238855 -0.501248 0.831685
vn 0.238855 -0.501248 0.831685
vn 0.238855 -0.501248 0.831685
vn 0.612145 0.089304 0.785687
vn 0.612145 0.089304 0.785687
vn 0.612145 0.089304 0.785687
vn 0.612145 0.089304 0.785687
vn 0.000000 0.258818 0.965926
vn 0.000000 0.258818 0.965926
vn 0.000000 0.258818 0.965926
vn 0.000000 0.258818 0.965926
vn -0.238856 -0.501251 0.831682
vn -0.238856 -0.501251 0.831682
vn -0.238856 -0.501251 0.831682
vn -0.238856 -0.501251 0.831682
vn 0.000004 0.258830 0.965923
vn 0.000004 0.258830 0.965923
vn 0.000004 0.258830 0.965923
vn 0.000004 0.258830 0.965923
vn 0.298217 0.921974 -0.247043
vn 0.298217 0.921974 -0.247043
vn 0.298217 0.921974 -0.247043
vn 0.298217 0.921974 -0.247043
vn 0.000000 -0.258819 -0.965926
vn 0.000000 -0.258819 -0.965926
vn 0.000000 -0.258819 -0.965926
vn 0.000000 -0.258819 -0.965926
vn 0.490713 -0.280436 0.824959
vn 0.490713 -0.280436 0.824959
vn 0.490713 -0.280436 0.824959
vn -0.238860 0.849947 0.469613
vn -0.238860 0.849947 0.469613
vn -0.238860 0.849947 0.469613
vn -0.238860 0.849947 0.469613
vn -0.000006 0.258818 0.965926
vn -0.000006 0.258818 0.965926
vn -0.000006 0.258818 0.965926
vn -0.000006 0.258818 0.965926
vn 0.612149 0.315503 0.725073
vn 0.612149 0.315503 0.725073
vn 0.612149 0.315503 0.725073
vn 0.612149 0.315503 0.725073
vn 0.000000 0.258819 0.965926
vn 0.000000 0.258819 0.965926
vn 0.000000 0.258818 0.965926
vn 0.000000 0.258818 0.965926
vn -0.000000 0.258818 0.965926
vn -0.000000 0.258818 0.965926
vn -0.000000 0.258819 0.965926
vn -0.000000 0.258818 0.965926
vn -0.612156 0.315504 0.725067
vn -0.612156 0.315504 0.725067
vn -0.612156 0.315504 0.725067
vn -0.612156 0.315504 0.725067
vn 0.455600 -0.318093 0.831412
vn 0.455600 -0.318093 0.831412
vn 0.455600 -0.318093 0.831412
vn -0.000000 -0.258819 -0.965926
vn -0.000000 -0.258819 -0.965926
vn -0.000000 -0.258819 -0.965926
vn -0.000000 -0.258819 -0.965926
vn 0.000000 -0.258819 -0.965926
vn 0.000000 -0.258819 -0.965926
vn 0.000000 -0.258819 -0.965926
vn 0.000000 -0.258819 -0.965926
vn -0.978835 -0.197676 0.052967
vn -0.978835 -0.197676 0.052967
vn -0.978835 -0.197676 0.052967
vn -0.978835 -0.197676 0.052967
vn -0.084240 0.990320 0.110317
vn -0.084240 0.990320 0.110317
vn -0.084240 0.990320 0.110317
vn -0.484366 0.864566 0.133849
vn -0.484366 0.864566 0.133849
vn -0.484366 0.864566 0.133849
vn -0.298216 0.921975 -0.247042
vn -0.298216 0.921975 -0.247042
vn -0.298216 0.921975 -0.247042
vn -0.298216 0.921975 -0.247042
vn -0.298217 0.921974 -0.247043
vn -0.298217 0.921974 -0.247043
vn -0.298217 0.921974 -0.247043
vn -0.298217 0.921974 -0.247043
vn -0.000002 0.258831 0.965923
vn -0.000002 0.258831 0.965923
vn -0.000002 0.258831 0.965923
vn -0.000002 0.258831 0.965923
vn -0.000004 0.258819 0.965926
vn -0.000004 0.258819 0.965926
vn -0.000004 0.258819 0.965926
vn -0.000004 0.258819 0.965926
vn -0.000001 0.258820 0.965926
vn -0.000001 0.258820 0.965926
vn -0.000001 0.258820 0.965926
vn -0.000001 0.258820 0.965926
vn -0.000001 0.258820 0.965926
vn 0.000001 0.258815 0.965927
vn 0.000001 0.258815 0.965927
vn 0.000001 0.258815 0.965927
vn 0.000001 0.258815 0.965927
vn 0.000001 0.258815 0.965927
vn 0.298217 -0.921975 0.247042
vn 0.298217 -0.921975 0.247042
vn 0.298217 -0.921975 0.247042
vn 0.298217 -0.921975 0.247042
vn 0.298217 -0.921975 0.247042
vn 0.978835 -0.197676 0.052965
vn 0.978835 -0.197676 0.052965
vn 0.978835 -0.197676 0.052965
vn 0.978835 -0.197676 0.052965
vn 0.978835 -0.197676 0.052965
s off
f 1/1/1 2/2/2 4/3/3 3/4/4
f 3/4/5 4/3/6 6/5/7 5/6/8
f 5/6/9 6/5/10 8/7/11 7/8/12
f 7/8/13 8/7/14 2/2/15 1/1/16
f 2/2/17 8/7/18 6/5/19 4/3/20
f 7/8/21 1/1/22 3/4/23 5/6/24
f 39/15/25 40/16/26 12/17/27 11/18/28
f 45/67/29 29/20/30 14/21/31
f 13/22/32 14/21/33 42/23/34 33/24/35
f 15/25/36 16/26/37 30/27/38 31/28/39
f 29/29/40 41/30/41 42/31/42 14/32/43
f 35/33/44 36/34/45 26/35/46 24/36/47
f 15/37/48 31/38/49 32/39/50 17/40/51
f 38/41/52 39/15/53 11/18/54 19/42/55
f 27/43/56 46/68/57 20/46/58
f 13/45/59 33/47/60 34/48/61 20/46/62
f 17/40/63 32/39/64 25/49/65 21/50/66
f 37/51/67 38/41/68 19/42/69 23/52/70
f 26/53/71 27/43/72 20/46/73 24/54/74
f 20/46/75 34/48/76 35/55/77 24/54/78
f 26/35/79 36/34/80 37/56/81 23/57/82
f 19/42/83 27/43/84 26/53/85 23/52/86
f 11/18/87 28/44/88 27/43/89 19/42/90
f 11/18/91 12/17/92 29/20/93 28/19/94
f 40/16/95 41/30/96 29/29/97 12/17/98
f 48/72/99 49/74/100 9/59/101
f 25/49/102 32/39/103 18/61/104 22/62/105
f 34/48/106 33/47/107 15/37/108 17/40/109
f 35/55/110 34/48/111 17/40/112 21/50/113
f 21/14/114 25/13/115 36/34/116 35/33/117
f 37/56/118 36/34/119 25/13/120 22/12/121
f 18/61/122 38/41/123 37/51/124 22/62/125
f 9/60/126 49/73/127 47/70/128
f 10/11/129 30/10/130 41/30/131 40/16/132
f 42/31/133 41/30/134 30/10/135 16/9/136
f 33/24/137 42/23/138 16/26/139 15/25/140
f 44/65/141 46/68/142 45/69/143
f 45/69/144 46/68/145 43/63/146
f 45/67/147 14/21/148 13/22/149 44/66/150
f 28/19/151 29/20/152 45/67/153 43/64/154
f 27/43/155 28/44/156 43/63/157 46/68/158
f 20/46/159 46/68/160 44/65/161 13/45/162
f 9/60/163 47/70/164 39/15/165 38/41/166 18/61/167
f 32/39/168 31/38/169 48/71/170 9/60/171 18/61/172
f 31/28/173 30/27/174 10/58/175 49/74/176 48/72/177
f 47/70/178 49/73/179 10/11/180 40/16/181 39/15/182
