# This file uses centimeters as units for non-parametric coordinates.

v 35.059814 112.778473 5.942230
v 44.366150 117.693253 5.942230
v 39.974976 103.472900 5.942230
v 48.874817 109.151917 5.942230
v 40.453796 105.218506 10.451965
v 47.115173 109.548035 10.451965
v 36.758118 112.216492 10.451965
v 43.755798 115.912628 10.451965
v -31.202393 104.867859 9.946289
v -27.335815 114.655914 9.946289
v -21.414490 101.001663 9.946289
v -18.353577 111.105347 9.946289
v -22.187195 102.638550 14.456024
v -19.947205 110.261612 14.456024
v -29.548035 105.546036 14.456024
v -26.640320 112.906799 14.456024
v -44.058838 -138.864288 -15.118256
v -44.062195 -138.962860 -5.614319
v -40.221558 151.400208 -4.781189
v -40.224915 151.301422 4.722748
v -7.827759 160.115723 -4.525299
v -7.831421 160.017761 4.978638
v -11.786194 -139.292297 -14.957275
v -11.789551 -139.391174 -5.453339
v -19.948730 -28.918457 -6.097260
v -48.056641 -18.926773 -6.157379
v -44.205017 -7.223053 2.671661
v -17.251587 -19.426041 2.708588
v -40.415649 81.473160 3.598480
v -36.505432 98.396378 -4.930725
v -9.604187 81.154709 -4.946136
v -12.580261 64.689560 3.588104
v -40.645447 119.328003 -5.114288
v -41.304626 69.466629 -5.632019
v -40.190125 98.419800 -2.485046
v -16.448975 -14.242325 -6.342926
v -17.376099 -28.965073 -4.885406
v -16.902161 -48.535309 -6.699066
v -48.312378 17.262115 3.323669
v -47.902527 -7.153244 0.664063
v -48.965759 -32.121887 2.810822
v -8.769531 89.059906 4.241791
v -9.296875 49.147568 3.827362
v -9.823303 64.685898 0.430756
v 75.494080 93.920898 -5.951538
v 76.003723 94.270782 3.532715
v -58.346863 90.896149 3.782349
v -57.837830 91.245575 13.266602
v -64.711304 122.921371 3.097992
v -64.200439 123.271103 12.582550
v 74.107086 126.152344 -6.911011
v 74.616669 126.502380 2.573547
v 38.707275 123.910980 -2.096405
v 34.687469 95.494308 -0.986938
v 28.549469 99.240646 7.928925
v 33.829956 126.583710 6.791382
v -19.896240 93.535309 10.743103
v -29.708557 96.513138 2.436218
v -21.687317 123.984451 1.146545
v -12.170715 121.922302 9.435425
v -40.895081 91.618423 2.817688
v -13.763123 92.741928 1.318207
v -29.418335 92.924271 5.004883
v 30.535553 126.864929 -2.166290
v 38.660858 126.524811 -0.976410
v 49.196136 127.637634 -3.197784
v 15.468414 94.280701 9.215088
v 28.601959 95.474091 6.053925
v 42.341309 95.393295 7.729645
v -25.589600 124.870071 10.448303
v -3.870239 125.768814 9.248047
v -12.459717 124.558411 6.188965
vt 0.080235 0.329115
vt 0.080235 0.329115
vt 0.080235 0.329115
vt 0.080235 0.329115
vt 0.080235 0.329115
vt 0.080235 0.329115
vt 0.080235 0.329115
vt 0.080235 0.329115
vt 0.080235 0.329115
vt 0.080235 0.329115
vt 0.080235 0.329115
vt 0.080235 0.329115
vt 0.080235 0.329115
vt 0.080235 0.329115
vt 0.080235 0.329115
vt 0.080235 0.329115
vt 0.080235 0.329115
vt 0.080235 0.329115
vt 0.080235 0.329115
vt 0.080235 0.329115
vt 0.080235 0.329115
vt 0.080235 0.329115
vt 0.080235 0.329115
vt 0.080235 0.329115
vt 0.080235 0.329115
vt 0.080235 0.329115
vt 0.080235 0.329115
vt 0.080235 0.329115
vt 0.536536 0.874501
vt 0.536536 0.874501
vt 0.536536 0.874501
vt 0.536536 0.874501
vt 0.536536 0.874501
vt 0.536536 0.874501
vt 0.536536 0.874501
vt 0.536536 0.874501
vt 0.536536 0.874501
vt 0.536536 0.874501
vt 0.536536 0.874501
vt 0.536536 0.874501
vt 0.536536 0.874501
vt 0.536536 0.874501
vt 0.536536 0.874501
vt 0.536536 0.874501
vt 0.536536 0.874501
vt 0.536536 0.874501
vt 0.536536 0.874501
vt 0.536536 0.874501
vt 0.536536 0.874501
vt 0.536536 0.874501
vt 0.536536 0.874501
vt 0.536536 0.874501
vt 0.536536 0.874501
vt 0.536536 0.874501
vt 0.536536 0.874501
vt 0.536536 0.874501
vt 0.536536 0.874501
vt 0.536536 0.874501
vt 0.536536 0.874501
vt 0.536536 0.874501
vt 0.536536 0.874501
vt 0.536536 0.874501
vt 0.536536 0.874501
vt 0.941964 0.864333
vt 0.941140 0.905766
vt 0.788023 0.901770
vt 0.773511 0.866662
vt 0.805665 0.861613
vt 0.658929 0.859626
vt 0.679282 0.896061
vt 0.647846 0.899913
vt 0.556748 0.898096
vt 0.569313 0.856897
vt 0.742264 0.860348
vt 0.699087 0.900936
vt 0.536536 0.874501
vt 0.536536 0.874501
vt 0.536536 0.874501
vt 0.536536 0.874501
vt 0.536536 0.874501
vt 0.536536 0.874501
vt 0.536536 0.874501
vt 0.536536 0.874501
vt 0.536536 0.874501
vt 0.536536 0.874501
vt 0.536536 0.874501
vt 0.536536 0.874501
vt 0.536536 0.874501
vt 0.536536 0.874501
vt 0.536536 0.874501
vt 0.536536 0.874501
vt 0.536536 0.874501
vt 0.536536 0.874501
vt 0.536536 0.874501
vt 0.536536 0.874501
vt 0.536536 0.874501
vt 0.536536 0.874501
vt 0.536536 0.874501
vt 0.536536 0.874501
vt 0.536536 0.874501
vt 0.536536 0.874501
vt 0.536536 0.874501
vt 0.536536 0.874501
vt 0.536536 0.874501
vt 0.536536 0.874501
vt 0.536536 0.874501
vt 0.536536 0.874501
vt 0.536536 0.874501
vt 0.536536 0.874501
vt 0.536536 0.874501
vt 0.536536 0.874501
vt 0.761792 0.813250
vt 0.760531 0.846115
vt 0.694163 0.843053
vt 0.688629 0.815214
vt 0.702681 0.811160
vt 0.639039 0.809688
vt 0.647080 0.838577
vt 0.633333 0.841619
vt 0.593825 0.840222
vt 0.600177 0.807537
vt 0.675184 0.810189
vt 0.655556 0.842404
vt 0.536536 0.874501
vn 0.521378 -0.810634 0.266529
vn 0.521378 -0.810634 0.266529
vn 0.521378 -0.810634 0.266529
vn 0.521378 -0.810634 0.266529
vn 0.000000 0.000000 1.000000
vn 0.000000 0.000000 1.000000
vn 0.000000 0.000000 1.000000
vn 0.000000 0.000000 1.000000
vn -0.449012 0.850164 0.274972
vn -0.449012 0.850164 0.274972
vn -0.449012 0.850164 0.274972
vn -0.449012 0.850164 0.274972
vn 0.846118 0.446620 0.290887
vn 0.846118 0.446620 0.290887
vn 0.846118 0.446620 0.290887
vn 0.846118 0.446620 0.290887
vn -0.852655 -0.450336 0.264911
vn -0.852655 -0.450336 0.264911
vn -0.852655 -0.450336 0.264911
vn -0.852655 -0.450336 0.264911
vn 0.923419 -0.276134 0.266549
vn 0.923419 -0.276134 0.266549
vn 0.923419 -0.276134 0.266549
vn 0.923419 -0.276134 0.266549
vn 0.000000 0.000000 1.000000
vn 0.000000 0.000000 1.000000
vn 0.000000 0.000000 1.000000
vn 0.000000 0.000000 1.000000
vn -0.894225 0.353245 0.274917
vn -0.894225 0.353245 0.274917
vn -0.894225 0.353245 0.274917
vn -0.894225 0.353245 0.274917
vn 0.351696 0.889796 0.290813
vn 0.351696 0.889796 0.290813
vn 0.351696 0.889796 0.290813
vn 0.351696 0.889796 0.290813
vn -0.354258 -0.896864 0.264831
vn -0.354258 -0.896864 0.264831
vn -0.354258 -0.896864 0.264831
vn -0.354258 -0.896864 0.264831
vn -0.549093 0.111170 -0.828335
vn -0.549092 0.111170 -0.828335
vn -0.549093 0.111170 -0.828335
vn -0.259882 0.965589 0.009899
vn -0.259882 0.965589 0.009899
vn -0.259883 0.965590 0.009899
vn -0.259883 0.965590 0.009899
vn 0.421572 -0.115586 -0.899398
vn 0.421572 -0.115586 -0.899398
vn 0.421572 -0.115586 -0.899398
vn -0.013213 -0.999859 -0.010391
vn -0.013213 -0.999859 -0.010391
vn -0.013213 -0.999859 -0.010391
vn -0.013213 -0.999859 -0.010391
vn -0.473591 0.095446 0.875558
vn -0.473591 0.095446 0.875558
vn -0.473591 0.095446 0.875558
vn 0.425657 0.093717 -0.900019
vn 0.425657 0.093717 -0.900019
vn 0.425657 0.093717 -0.900019
vn -0.549790 -0.115996 -0.827210
vn -0.549790 -0.115996 -0.827210
vn -0.549790 -0.115996 -0.827210
vn 0.746363 -0.134192 0.651871
vn 0.746363 -0.134192 0.651871
vn 0.746363 -0.134192 0.651871
vn 0.007701 0.004559 -0.999960
vn 0.007701 0.004559 -0.999960
vn 0.007701 0.004559 -0.999960
vn 0.007701 0.004559 -0.999960
vn 0.007701 0.004559 -0.999960
vn -0.476121 -0.103124 0.873312
vn -0.476121 -0.103124 0.873313
vn -0.476121 -0.103124 0.873312
vn -0.999944 0.001994 0.010370
vn -0.999944 0.001994 0.010370
vn -0.999944 0.001994 0.010370
vn -0.999944 0.001994 0.010370
vn -0.999944 0.001994 0.010370
vn 0.742783 0.166901 0.648395
vn 0.742783 0.166901 0.648395
vn 0.742783 0.166901 0.648395
vn 0.996451 0.053346 -0.065115
vn 0.996451 0.053346 -0.065115
vn 0.996451 0.053346 -0.065115
vn 0.996451 0.053346 -0.065115
vn 0.996451 0.053346 -0.065115
vn 0.031824 0.079168 -0.996353
vn 0.031824 0.079168 -0.996353
vn 0.031824 0.079168 -0.996353
vn 0.031824 0.079168 -0.996353
vn 0.031824 0.079168 -0.996353
vn 0.005747 0.009874 -0.999935
vn 0.005747 0.009874 -0.999935
vn 0.005747 0.009874 -0.999935
vn 0.005747 0.009874 -0.999935
vn 0.005747 0.009874 -0.999935
vn 0.005747 0.009874 -0.999935
vn -0.984404 0.078324 -0.157523
vn -0.984404 0.078324 -0.157523
vn -0.984404 0.078324 -0.157523
vn -0.984404 0.078324 -0.157523
vn -0.984404 0.078324 -0.157523
vn -0.984404 0.078324 -0.157523
vn -0.997093 -0.027644 -0.070999
vn -0.997093 -0.027644 -0.070999
vn -0.997093 -0.027644 -0.070999
vn -0.997093 -0.027644 -0.070999
vn -0.997093 -0.027644 -0.070999
vn 0.011883 -0.065336 0.997793
vn 0.011883 -0.065336 0.997793
vn 0.011883 -0.065336 0.997793
vn 0.011883 -0.065336 0.997793
vn 0.011883 -0.065336 0.997793
vn -0.011226 -0.014750 0.999828
vn -0.011226 -0.014750 0.999828
vn -0.011226 -0.014750 0.999828
vn -0.011226 -0.014750 0.999828
vn -0.011226 -0.014750 0.999828
vn -0.004791 -0.010139 0.999937
vn -0.004791 -0.010139 0.999937
vn -0.004791 -0.010139 0.999937
vn -0.004791 -0.010139 0.999937
vn -0.004791 -0.010139 0.999937
vn -0.004791 -0.010139 0.999937
vn 0.988433 -0.081009 -0.128209
vn 0.988433 -0.081009 -0.128209
vn 0.988433 -0.081009 -0.128209
vn 0.988433 -0.081009 -0.128209
vn 0.988433 -0.081009 -0.128209
vn 0.988433 -0.081009 -0.128209
vn 0.999004 -0.019717 -0.040017
vn 0.999004 -0.019717 -0.040017
vn 0.999004 -0.019717 -0.040017
vn 0.999004 -0.019717 -0.040017
vn 0.999004 -0.019717 -0.040017
vn -0.192917 -0.581353 -0.790451
vn -0.192917 -0.581353 -0.790451
vn -0.192917 -0.581353 -0.790451
vn -0.979314 -0.193315 0.059780
vn -0.979314 -0.193315 0.059780
vn -0.979314 -0.193315 0.059780
vn -0.979314 -0.193315 0.059780
vn 0.149351 0.391680 -0.907899
vn 0.149351 0.391680 -0.907899
vn 0.149351 0.391680 -0.907899
vn 0.997625 0.041290 -0.055128
vn 0.997625 0.041290 -0.055128
vn 0.997625 0.041290 -0.055128
vn 0.997625 0.041290 -0.055128
vn -0.111046 -0.444123 0.889058
vn -0.111046 -0.444123 0.889058
vn -0.111046 -0.444123 0.889058
vn -0.229095 0.379939 -0.896193
vn -0.229095 0.379939 -0.896193
vn -0.229095 0.379939 -0.896193
vn 0.216202 -0.556628 -0.802136
vn 0.216202 -0.556628 -0.802136
vn 0.216202 -0.556628 -0.802136
vn 0.214209 0.767529 0.604163
vn 0.214209 0.767529 0.604163
vn 0.214209 0.767529 0.604163
vn -0.043482 -0.028943 -0.998635
vn -0.043482 -0.028943 -0.998635
vn -0.043482 -0.028943 -0.998635
vn -0.043482 -0.028943 -0.998635
vn -0.043482 -0.028943 -0.998635
vn 0.248045 -0.428939 0.868611
vn 0.248045 -0.428939 0.868611
vn 0.248045 -0.428939 0.868611
vn 0.064134 -0.996968 0.044059
vn 0.064134 -0.996968 0.044059
vn 0.064134 -0.996968 0.044059
vn 0.064134 -0.996968 0.044059
vn 0.064134 -0.996968 0.044059
vn -0.320362 0.721233 0.614159
vn -0.320362 0.721234 0.614159
vn -0.320362 0.721233 0.614159
vn 0.014206 0.998927 0.044075
vn 0.014206 0.998927 0.044075
vn 0.014206 0.998927 0.044075
vn 0.014206 0.998927 0.044075
vn 0.014206 0.998927 0.044075
vn -0.127646 -0.022324 -0.991568
vn -0.127646 -0.022324 -0.991569
vn -0.127646 -0.022324 -0.991568
vn -0.127646 -0.022324 -0.991569
vn -0.127646 -0.022324 -0.991569
vn -0.053497 -0.031460 -0.998072
vn -0.053497 -0.031460 -0.998072
vn -0.053497 -0.031460 -0.998072
vn -0.053497 -0.031460 -0.998072
vn -0.053497 -0.031460 -0.998072
vn -0.053497 -0.031460 -0.998072
vn 0.044210 -0.997952 0.046224
vn 0.044210 -0.997952 0.046224
vn 0.044210 -0.997952 0.046224
vn 0.044210 -0.997952 0.046224
vn 0.044210 -0.997952 0.046224
vn 0.044210 -0.997952 0.046224
vn -0.029089 -0.999296 0.023707
vn -0.029089 -0.999296 0.023707
vn -0.029089 -0.999296 0.023707
vn -0.029089 -0.999296 0.023707
vn -0.029089 -0.999296 0.023707
vn 0.100320 0.045830 0.993899
vn 0.100320 0.045830 0.993899
vn 0.100320 0.045830 0.993899
vn 0.100320 0.045830 0.993899
vn 0.100320 0.045830 0.993899
vn 0.062354 0.026327 0.997707
vn 0.062354 0.026327 0.997707
vn 0.062354 0.026327 0.997707
vn 0.062354 0.026327 0.997707
vn 0.062354 0.026327 0.997707
vn 0.054050 0.032063 0.998023
vn 0.054050 0.032063 0.998023
vn 0.054050 0.032063 0.998023
vn 0.054050 0.032063 0.998023
vn 0.054050 0.032063 0.998023
vn 0.054050 0.032063 0.998023
vn -0.041070 0.998887 -0.023193
vn -0.041070 0.998887 -0.023193
vn -0.041070 0.998887 -0.023193
vn -0.041070 0.998887 -0.023193
vn -0.041070 0.998887 -0.023193
vn -0.041070 0.998887 -0.023193
vn -0.032709 0.996627 -0.075260
vn -0.032709 0.996627 -0.075260
vn -0.032709 0.996627 -0.075260
vn -0.032709 0.996627 -0.075260
vn -0.032709 0.996627 -0.075260
s off
f 3/1/1 4/2/2 6/3/3 5/4/4
f 5/4/5 6/3/6 8/5/7 7/6/8
f 7/6/9 8/5/10 2/7/11 1/8/12
f 2/9/13 8/10/14 6/11/15 4/2/16
f 7/12/17 1/13/18 3/1/19 5/14/20
f 11/15/21 12/16/22 14/17/23 13/18/24
f 13/18/25 14/17/26 16/19/27 15/20/28
f 15/20/29 16/19/30 10/21/31 9/22/32
f 10/23/33 16/24/34 14/25/35 12/16/36
f 15/26/37 9/27/38 11/15/39 13/28/40
f 34/29/41 35/30/42 30/31/43
f 19/32/44 20/33/45 22/34/46 21/35/47
f 36/36/48 37/37/49 25/38/50
f 23/39/51 24/40/52 18/41/53 17/42/54
f 40/43/55 41/44/56 27/45/57
f 25/38/58 37/37/59 38/46/60
f 30/31/61 35/30/62 33/47/63
f 44/48/64 42/49/65 32/50/66
f 31/51/67 30/31/68 33/47/69 19/32/70 21/52/71
f 39/53/72 40/43/73 27/45/74
f 33/47/75 35/30/76 29/54/77 20/33/78 19/32/79
f 43/55/80 44/48/81 32/50/82
f 38/46/83 37/37/84 28/56/85 24/40/86 23/39/87
f 23/57/88 17/58/89 26/59/90 25/60/91 38/61/92
f 36/62/93 25/60/94 26/59/95 34/29/96 30/31/97 31/51/98
f 26/59/99 40/43/100 39/53/101 29/54/102 35/30/103 34/29/104
f 17/58/105 18/63/106 41/44/107 40/43/108 26/59/109
f 18/64/110 24/65/111 28/66/112 27/67/113 41/68/114
f 29/69/115 32/70/116 42/71/117 22/72/118 20/73/119
f 39/74/120 27/67/121 28/66/122 43/75/123 32/70/124 29/69/125
f 31/76/126 44/48/127 43/55/128 28/56/129 37/37/130 36/36/131
f 21/35/132 22/34/133 42/49/134 44/48/135 31/76/136
f 62/77/137 63/78/138 58/79/139
f 47/80/140 48/81/141 50/82/142 49/83/143
f 64/84/144 65/85/145 53/86/146
f 51/87/147 52/88/148 46/89/149 45/90/150
f 68/91/151 69/92/152 55/93/153
f 53/86/154 65/85/155 66/94/156
f 58/79/157 63/78/158 61/95/159
f 72/96/160 70/97/161 60/98/162
f 59/99/163 58/79/164 61/95/165 47/80/166 49/100/167
f 67/101/168 68/91/169 55/93/170
f 61/95/171 63/78/172 57/102/173 48/81/174 47/80/175
f 71/103/176 72/96/177 60/98/178
f 66/94/179 65/85/180 56/104/181 52/88/182 51/87/183
f 51/105/184 45/106/185 54/107/186 53/108/187 66/109/188
f 64/110/189 53/108/190 54/107/191 62/77/192 58/79/193 59/99/194
f 54/107/195 68/91/196 67/101/197 57/102/198 63/78/199 62/77/200
f 45/106/201 46/111/202 69/92/203 68/91/204 54/107/205
f 46/112/206 52/113/207 56/114/208 55/115/209 69/116/210
f 57/117/211 60/118/212 70/119/213 50/120/214 48/121/215
f 67/122/216 55/115/217 56/114/218 71/123/219 60/118/220 57/117/221
f 59/124/222 72/96/223 71/103/224 56/104/225 65/85/226 64/84/227
f 49/83/228 50/82/229 70/97/230 72/96/231 59/124/232
