# This file uses centimeters as units for non-parametric coordinates.

v 10.493145 9.428175 -30.372910
v 5.874653 15.825058 -28.100037
v -3.061359 16.599758 -31.300491
v -8.648548 10.556805 -31.931595
v -7.289532 2.473070 -33.761719
v -0.133213 -1.700569 -33.313911
v 7.487392 1.239384 -31.859413
v 9.812565 10.033400 28.153465
v 4.673153 16.312363 30.881958
v -3.426762 16.402679 32.675308
v -8.556293 9.973024 33.761719
v -6.852871 1.865128 33.323021
v 0.400875 -1.815678 31.689613
v 7.742664 1.702360 30.091476
v 4.344952 15.273296 10.520004
v 8.358540 9.701834 9.414108
v 6.619152 2.134460 9.495865
v -0.309887 -1.209972 10.099266
v -6.556782 1.676884 7.220512
v -8.122128 7.958805 16.604515
v -4.019108 13.087734 15.786224
v 9.491528 8.759911 -27.728233
v 4.923588 15.108566 -25.473915
v 7.446575 9.434032 28.884094
v 3.653728 13.940731 31.301079
v 3.535007 7.661709 31.675491
v -2.251949 14.006580 32.608597
v -5.991917 9.318686 33.400711
v -4.749943 3.407179 33.080849
v 0.538799 0.723484 31.889954
v 5.891720 3.288500 30.724724
v 8.306728 8.991291 -30.241791
v 4.736668 13.936020 -28.484863
v 0.558659 7.646511 -30.708908
v -2.170780 14.534855 -30.958809
v -6.489635 9.863708 -31.446632
v -5.439114 3.615057 -32.861298
v 0.092648 0.388872 -32.515137
v 5.983303 2.661434 -31.390854
v 7.429607 7.746971 27.897385
v 9.726185 8.035973 27.125816
v -4.241520 14.282391 5.069954
v -9.100040 8.249186 5.802238
v -8.462048 14.406734 14.726624
v -10.493145 12.103092 15.119560
v -9.025135 11.074066 16.842476
v -7.343769 13.063522 16.452156
v -7.526943 11.563488 4.526390
v -9.768887 13.613556 13.725136
v -8.671833 13.741291 14.946480
v -9.440594 13.274719 14.357376
v -9.866596 12.386219 15.177612
v -9.003086 11.780914 16.191093
v -8.014050 12.951172 15.961479
vt 0.530895 0.512155
vt 0.530895 0.512155
vt 0.530895 0.512155
vt 0.530895 0.512155
vt 0.530895 0.512155
vt 0.530895 0.512155
vt 0.004734 0.352656
vt 0.004734 0.352656
vt 0.004734 0.352656
vt 0.004734 0.352656
vt 0.004734 0.352656
vt 0.530895 0.512155
vt 0.530895 0.512155
vt 0.530895 0.512155
vt 0.530895 0.512155
vt 0.530895 0.512155
vt 0.530895 0.512155
vt 0.530895 0.512155
vt 0.530895 0.512155
vt 0.004734 0.352656
vt 0.004734 0.352656
vt 0.004734 0.352656
vt 0.004734 0.352656
vt 0.004734 0.352656
vt 0.004734 0.352656
vt 0.004734 0.352656
vt 0.004734 0.352656
vt 0.004734 0.352656
vt 0.004734 0.352656
vt 0.004734 0.352656
vt 0.004734 0.352656
vt 0.004734 0.352656
vt 0.004734 0.352656
vt 0.004734 0.352656
vt 0.004734 0.352656
vt 0.004734 0.352656
vt 0.530895 0.512155
vt 0.530895 0.512155
vt 0.530895 0.512155
vt 0.530895 0.512155
vt 0.530895 0.512155
vt 0.530895 0.512155
vt 0.530895 0.512155
vt 0.530895 0.512155
vt 0.530895 0.512155
vt 0.530895 0.512155
vt 0.530895 0.512155
vt 0.530895 0.512155
vt 0.530895 0.512155
vt 0.530895 0.512155
vt 0.530895 0.512155
vt 0.530895 0.512155
vt 0.530895 0.512155
vt 0.530895 0.512155
vt 0.530895 0.512155
vt 0.530895 0.512155
vt 0.530895 0.512155
vt 0.530895 0.512155
vt 0.530895 0.512155
vt 0.530895 0.512155
vt 0.530895 0.512155
vt 0.530895 0.512155
vt 0.530895 0.512155
vt 0.530895 0.512155
vt 0.530895 0.512155
vt 0.530895 0.512155
vt 0.530895 0.512155
vt 0.530895 0.512155
vt 0.530895 0.512155
vt 0.530895 0.512155
vt 0.530895 0.512155
vt 0.530895 0.512155
vt 0.530895 0.512155
vt 0.530895 0.512155
vn 0.812886 0.582334 0.010213
vn 0.812886 0.582334 0.010213
vn 0.812886 0.582334 0.010213
vn 0.812886 0.582334 0.010213
vn 0.009780 0.999503 0.029970
vn 0.009780 0.999503 0.029970
vn 0.009780 0.999503 0.029970
vn 0.009780 0.999503 0.029970
vn -0.515703 0.565036 0.644038
vn -0.515703 0.565036 0.644038
vn -0.515703 0.565036 0.644038
vn -0.515703 0.565036 0.644038
vn -0.515703 0.565036 0.644038
vn -0.935323 -0.345672 0.075381
vn -0.935323 -0.345672 0.075381
vn -0.935323 -0.345672 0.075381
vn -0.466040 -0.884764 -0.000133
vn -0.466040 -0.884764 -0.000133
vn -0.466040 -0.884764 -0.000133
vn -0.466040 -0.884764 -0.000133
vn 0.395461 -0.918267 0.019885
vn 0.395461 -0.918267 0.019885
vn 0.395461 -0.918267 0.019885
vn 0.395461 -0.918267 0.019885
vn 0.968177 -0.248403 0.030496
vn 0.968177 -0.248403 0.030496
vn 0.968177 -0.248403 0.030496
vn 0.968177 -0.248403 0.030496
vn -0.001157 0.334065 -0.942549
vn -0.001157 0.334065 -0.942549
vn -0.001157 0.334065 -0.942549
vn 0.343255 0.102139 -0.933672
vn 0.343255 0.102139 -0.933672
vn 0.343255 0.102139 -0.933672
vn 0.105933 0.005901 -0.994356
vn 0.105933 0.005901 -0.994356
vn 0.105933 0.005901 -0.994356
vn 0.176995 0.245532 -0.953093
vn 0.176995 0.245532 -0.953093
vn 0.176995 0.245532 -0.953093
vn 0.191273 0.225464 -0.955291
vn 0.191273 0.225464 -0.955291
vn 0.191273 0.225464 -0.955291
vn 0.094093 0.234741 -0.967493
vn 0.094093 0.234741 -0.967493
vn 0.094093 0.234741 -0.967493
vn 0.030289 0.167756 -0.985363
vn 0.030289 0.167756 -0.985363
vn 0.030289 0.167756 -0.985363
vn 0.568923 0.038228 0.821502
vn 0.568923 0.038228 0.821502
vn 0.568923 0.038228 0.821502
vn 0.216424 0.054035 0.974803
vn 0.216424 0.054035 0.974803
vn 0.216424 0.054035 0.974803
vn 0.181712 0.021151 0.983124
vn 0.181712 0.021151 0.983124
vn 0.181712 0.021151 0.983124
vn 0.175403 -0.016411 0.984360
vn 0.175403 -0.016411 0.984360
vn 0.175403 -0.016411 0.984360
vn 0.193545 -0.053300 0.979643
vn 0.193545 -0.053300 0.979643
vn 0.193545 -0.053300 0.979643
vn 0.247090 -0.076846 0.965941
vn 0.247090 -0.076846 0.965941
vn 0.247090 -0.076846 0.965941
vn 0.645409 -0.390457 0.656498
vn 0.645409 -0.390457 0.656498
vn 0.645409 -0.390457 0.656498
vn 0.781044 0.621832 -0.057397
vn 0.781044 0.621832 -0.057397
vn 0.781044 0.621832 -0.057397
vn 0.781044 0.621832 -0.057397
vn 0.997002 -0.003345 -0.077300
vn 0.997002 -0.003345 -0.077300
vn 0.997002 -0.003345 -0.077300
vn 0.427889 -0.902909 -0.040817
vn 0.427889 -0.902909 -0.040817
vn 0.427889 -0.902909 -0.040817
vn 0.427889 -0.902909 -0.040817
vn -0.437147 -0.899381 -0.004072
vn -0.437147 -0.899381 -0.004072
vn -0.437147 -0.899381 -0.004072
vn -0.437147 -0.899381 -0.004072
vn -0.975929 -0.218022 -0.005374
vn -0.975929 -0.218022 -0.005374
vn -0.975929 -0.218022 -0.005374
vn -0.975929 -0.218022 -0.005374
vn -0.785366 0.612132 -0.092166
vn -0.785366 0.612132 -0.092166
vn -0.785366 0.612132 -0.092166
vn -0.785366 0.612132 -0.092166
vn -0.171825 0.978947 -0.110176
vn -0.171825 0.978947 -0.110176
vn -0.171825 0.978947 -0.110176
vn -0.171825 0.978947 -0.110176
vn 0.895000 -0.372941 0.244727
vn 0.895000 -0.372941 0.244727
vn 0.895000 -0.372941 0.244727
vn 0.802551 0.432477 0.410944
vn 0.802551 0.432477 0.410944
vn 0.802551 0.432477 0.410944
vn 0.802551 0.432477 0.410944
vn -0.009420 0.965556 0.260024
vn -0.009420 0.965556 0.260024
vn -0.009420 0.965556 0.260024
vn 0.399923 -0.103270 0.910712
vn 0.399923 -0.103270 0.910712
vn 0.399923 -0.103270 0.910712
vn 0.399923 -0.103270 0.910712
vn 0.216332 0.078979 0.973120
vn 0.216332 0.078979 0.973120
vn 0.216332 0.078979 0.973120
vn 0.216332 0.078979 0.973120
vn 0.150875 0.046483 0.987459
vn 0.150875 0.046483 0.987459
vn 0.150875 0.046483 0.987459
vn 0.150875 0.046483 0.987459
vn 0.132929 -0.025682 0.990793
vn 0.132929 -0.025682 0.990793
vn 0.132929 -0.025682 0.990793
vn 0.132929 -0.025682 0.990793
vn 0.176653 -0.086944 0.980426
vn 0.176653 -0.086944 0.980426
vn 0.176653 -0.086944 0.980426
vn 0.176653 -0.086944 0.980426
vn 0.252704 -0.089732 0.963374
vn 0.252704 -0.089732 0.963374
vn 0.252704 -0.089732 0.963374
vn 0.252704 -0.089732 0.963374
vn 0.350460 -0.456828 0.817610
vn 0.350460 -0.456828 0.817610
vn 0.350460 -0.456828 0.817610
vn 0.350460 -0.456828 0.817610
vn -0.109760 0.261479 -0.958948
vn -0.109760 0.261479 -0.958948
vn -0.109760 0.261479 -0.958948
vn -0.109760 0.261479 -0.958948
vn 0.336334 -0.010770 -0.941681
vn 0.336334 -0.010770 -0.941681
vn 0.336334 -0.010770 -0.941681
vn 0.336334 -0.010770 -0.941681
vn 0.194644 -0.077850 -0.977780
vn 0.194644 -0.077850 -0.977780
vn 0.194644 -0.077850 -0.977780
vn 0.194644 -0.077850 -0.977780
vn 0.289716 0.257409 -0.921849
vn 0.289716 0.257409 -0.921849
vn 0.289716 0.257409 -0.921849
vn 0.289716 0.257409 -0.921849
vn 0.245509 0.322888 -0.914040
vn 0.245509 0.322888 -0.914040
vn 0.245509 0.322888 -0.914040
vn 0.245509 0.322888 -0.914040
vn 0.042315 0.352766 -0.934754
vn 0.042315 0.352766 -0.934754
vn 0.042315 0.352766 -0.934754
vn 0.042315 0.352766 -0.934754
vn -0.100921 0.213442 -0.971729
vn -0.100921 0.213442 -0.971729
vn -0.100921 0.213442 -0.971729
vn -0.100921 0.213442 -0.971729
vn 0.678006 0.212385 0.703705
vn 0.678006 0.212385 0.703705
vn 0.678006 0.212385 0.703705
vn 0.394041 0.331559 0.857205
vn 0.394041 0.331559 0.857205
vn 0.394041 0.331559 0.857205
vn 0.394041 0.331559 0.857205
vn 0.958699 -0.273709 -0.077335
vn 0.958699 -0.273709 -0.077335
vn 0.958699 -0.273709 -0.077335
vn 0.958699 -0.273709 -0.077335
vn -0.756564 0.653787 0.013168
vn -0.756564 0.653787 0.013168
vn -0.756564 0.653787 0.013168
vn -0.756564 0.653787 0.013168
vn -0.756564 0.653787 0.013168
vn 0.243354 0.955170 0.168612
vn 0.243354 0.955170 0.168612
vn 0.243354 0.955170 0.168612
vn 0.243354 0.955170 0.168612
vn -0.524831 0.806287 -0.272861
vn -0.524831 0.806287 -0.272861
vn -0.524831 0.806287 -0.272861
vn -0.524831 0.806287 -0.272861
vn -0.879767 -0.459100 0.123439
vn -0.879767 -0.459100 0.123440
vn -0.879767 -0.459100 0.123439
vn -0.879767 -0.459100 0.123439
vn 0.207383 -0.002424 0.978257
vn 0.207383 -0.002424 0.978257
vn 0.207383 -0.002424 0.978257
vn 0.207383 -0.002424 0.978257
vn -0.184198 0.976410 0.112674
vn -0.184198 0.976410 0.112674
vn -0.184198 0.976410 0.112674
vn -0.966358 -0.257112 -0.006685
vn -0.966359 -0.257112 -0.006685
vn -0.966359 -0.257112 -0.006685
vn -0.966358 -0.257112 -0.006685
vn -0.918572 0.286943 -0.271827
vn -0.918572 0.286943 -0.271827
vn -0.918572 0.286943 -0.271827
vn -0.918572 0.286943 -0.271827
vn -0.698513 0.413254 0.584209
vn -0.698513 0.413254 0.584209
vn -0.698513 0.413255 0.584209
vn -0.698513 0.413254 0.584209
vn -0.378984 0.719256 0.582274
vn -0.378984 0.719256 0.582274
vn -0.378984 0.719256 0.582274
vn -0.378984 0.719256 0.582274
vn -0.352511 0.640094 0.682654
vn -0.352511 0.640094 0.682654
vn -0.352511 0.640094 0.682654
vn -0.352511 0.640094 0.682654
vn -0.542800 0.578247 0.609097
vn -0.542800 0.578247 0.609097
vn -0.542800 0.578247 0.609097
vn -0.542800 0.578247 0.609097
vn -0.581757 0.414601 0.699761
vn -0.581757 0.414601 0.699761
vn -0.581757 0.414601 0.699761
vn -0.581757 0.414601 0.699761
s off
f 22/1/1 23/2/2 15/3/3 16/4/4
f 23/2/5 3/5/6 42/6/7 15/3/8
f 50/7/9 51/8/10 52/9/11 53/10/12 54/11/13
f 43/12/14 19/13/15 20/14/16
f 5/15/17 6/16/18 18/17/19 19/13/20
f 6/16/21 7/18/22 17/19/23 18/17/24
f 7/18/25 22/1/26 16/4/27 17/19/28
f 33/20/29 32/21/30 34/22/31
f 35/23/32 33/20/33 34/22/34
f 36/24/35 35/23/36 34/22/37
f 37/25/38 36/24/39 34/22/40
f 38/26/41 37/25/42 34/22/43
f 39/27/44 38/26/45 34/22/46
f 32/21/47 39/27/48 34/22/49
f 24/28/50 25/29/51 26/30/52
f 25/29/53 27/31/54 26/30/55
f 27/31/56 28/32/57 26/30/58
f 28/32/59 29/33/60 26/30/61
f 29/33/62 30/34/63 26/30/64
f 30/34/65 31/35/66 26/30/67
f 26/30/68 40/36/69 24/28/70
f 16/4/71 15/3/72 9/37/73 8/38/74
f 41/39/75 16/4/76 8/38/77
f 18/17/78 17/19/79 14/40/80 13/41/81
f 19/13/82 18/17/83 13/41/84 12/42/85
f 20/14/86 19/13/87 12/42/88 11/43/89
f 21/44/90 20/14/91 11/43/92 10/45/93
f 15/3/94 21/44/95 10/45/96 9/37/97
f 7/18/98 1/46/99 22/1/100
f 1/46/101 2/47/102 23/2/103 22/1/104
f 2/47/105 3/5/106 23/2/107
f 8/38/108 9/37/109 25/48/110 24/49/111
f 9/37/112 10/45/113 27/50/114 25/48/115
f 10/45/116 11/43/117 28/51/118 27/50/119
f 11/43/120 12/42/121 29/52/122 28/51/123
f 12/42/124 13/41/125 30/53/126 29/52/127
f 13/41/128 14/40/129 31/54/130 30/53/131
f 40/55/132 41/39/133 8/38/134 24/49/135
f 2/47/136 1/46/137 32/56/138 33/57/139
f 3/5/140 2/47/141 33/57/142 35/58/143
f 4/59/144 3/5/145 35/58/146 36/60/147
f 5/15/148 4/59/149 36/60/150 37/61/151
f 6/16/152 5/15/153 37/61/154 38/62/155
f 7/18/156 6/16/157 38/62/158 39/63/159
f 1/46/160 7/18/161 39/63/162 32/56/163
f 31/35/164 40/36/165 26/30/166
f 14/40/167 41/39/168 40/55/169 31/54/170
f 17/19/171 16/4/172 41/39/173 14/40/174
f 3/5/175 4/59/176 43/12/177 48/64/178 42/6/179
f 21/44/180 42/6/181 44/65/182 47/66/183
f 48/64/184 49/67/185 44/65/186 42/6/187
f 20/14/188 46/68/189 45/69/190 43/12/191
f 21/44/192 47/66/193 46/68/194 20/14/195
f 15/3/196 42/6/197 21/44/198
f 4/59/199 5/15/200 19/13/201 43/12/202
f 43/12/203 45/69/204 49/67/205 48/64/206
f 44/65/207 49/67/208 51/70/209 50/71/210
f 49/67/211 45/69/212 52/72/213 51/70/214
f 45/69/215 46/68/216 53/73/217 52/72/218
f 46/68/219 47/66/220 54/74/221 53/73/222
f 47/66/223 44/65/224 50/71/225 54/74/226
