# This file uses centimeters as units for non-parametric coordinates.

v 127.621735 -72.614357 -12.237854
v 127.720612 -72.614357 -2.733917
v -140.227051 39.308090 -9.456024
v -140.128174 39.308090 0.047913
v -136.220703 72.614365 -9.343414
v -136.121826 72.614365 0.160522
v 140.065918 -42.834015 -12.212830
v 140.164795 -42.834015 -2.708893
v 37.605591 -3.601227 -10.749207
v 17.844238 -25.947495 -10.698395
v 8.431732 -17.968369 -1.894531
v 29.814117 2.481384 -1.962128
v -75.419312 13.061066 -1.023560
v -89.667358 22.969589 -9.581757
v -63.630371 41.490021 -9.697876
v -49.458008 32.618713 -1.138916
v -110.631104 26.941299 -9.763336
v -64.620972 7.715530 -10.241241
v -91.062012 19.570313 -7.120667
v 25.296631 5.123215 -11.020813
v 38.610229 -1.226730 -9.548340
v 56.941254 -8.099747 -11.349487
v -15.816650 -12.636414 -1.243134
v 6.985199 -21.380920 -3.886566
v 29.754028 -31.678391 -1.716461
v -70.644531 45.254059 -0.519409
v -33.814087 29.864197 -0.901947
v -48.428345 35.161896 -4.307861
v 148.207672 12.375565 -2.561951
v 148.188477 11.587143 6.909790
v 5.905151 -56.764374 -8.605194
v 5.885895 -57.552795 0.866547
v -12.726440 -30.043716 -6.263885
v -12.745361 -30.832138 3.208008
v 134.059448 41.274338 -0.030365
v 134.040192 40.485916 9.441528
v 81.747437 12.159653 -2.158966
v 89.411011 -15.412521 -4.593201
v 81.965942 -15.642624 4.108429
v 75.887115 11.452103 6.506195
v 39.796478 -40.232162 1.976318
v 29.923096 -40.231018 -6.779633
v 26.307373 -11.923294 -4.275970
v 35.544098 -11.205139 4.538422
v 21.628754 -49.124832 -7.937469
v 46.072998 -37.248154 -6.899261
v 31.532867 -43.734055 -4.612732
v 73.084717 11.648865 -2.619781
v 80.616791 14.364471 -0.762177
v 89.896851 19.817276 -1.905823
v 71.930267 -25.464172 3.671265
v 83.591309 -18.789215 1.835938
v 96.141022 -13.701019 4.699402
v 22.041351 -13.930359 4.685211
v 41.608887 -4.423294 5.516205
v 34.342041 -8.474197 1.594238
v 149.959381 14.984894 -12.984161
v 150.057983 14.984894 -3.480225
v -140.272827 9.193497 -2.647095
v -140.173950 9.193497 6.856842
v -150.057983 41.280136 -2.391205
v -149.959717 41.280136 7.112732
v 149.317017 47.253952 -12.823181
v 149.415894 47.253952 -3.319244
v 39.740875 41.760864 -3.963165
v 30.686920 13.337326 -4.023285
v 18.861694 16.798782 4.805756
v 30.164185 44.141998 4.842682
v -70.377808 11.318817 5.732574
v -87.421265 14.665375 -2.796631
v -71.081543 42.123489 -2.812042
v -54.526367 39.695282 5.722198
v -108.203735 9.833450 -2.980194
v -58.348389 10.828247 -3.497925
v -87.322388 10.982056 -0.350952
v 24.956665 44.772415 -4.208832
v 39.702148 44.333878 -2.751312
v 59.245941 45.456619 -4.564972
v -5.473938 11.881332 5.457764
v 18.914459 13.101044 2.798157
v 43.904694 12.866669 4.944916
v -79.010010 42.695847 6.375885
v -39.101868 43.492203 5.961456
v -54.614258 42.450943 2.564850
v -74.558411 26.259384 5.082092
v -68.630371 34.954987 5.082092
v -65.863037 20.331497 5.082092
v -60.651245 29.512634 5.082092
v -66.255798 22.098541 9.591827
v -62.391968 29.040604 9.591827
v -72.795105 26.556396 9.591827
v -68.337402 33.095627 9.591827
v 42.099915 -20.830078 2.954865
v 47.909210 -12.307968 2.954865
v 50.621948 -26.639633 2.954865
v 55.729675 -17.641678 2.954865
v 50.224304 -24.855804 8.491821
v 53.974304 -18.117981 8.491821
v 43.877258 -20.529175 8.491821
v 48.204010 -14.182281 8.491821
v 121.289673 24.190979 7.176514
v 127.031830 32.614136 7.176514
v 129.712830 18.448792 7.176514
v 134.761353 27.342300 7.176514
v 129.364624 20.028305 11.724854
v 133.200073 26.919785 11.724854
v 122.872925 24.453583 11.724854
v 127.298309 30.945206 11.724854
vt 0.536536 0.874501
vt 0.536536 0.874501
vt 0.536536 0.874501
vt 0.536536 0.874501
vt 0.536536 0.874501
vt 0.536536 0.874501
vt 0.536536 0.874501
vt 0.536536 0.874501
vt 0.536536 0.874501
vt 0.536536 0.874501
vt 0.536536 0.874501
vt 0.536536 0.874501
vt 0.536536 0.874501
vt 0.536536 0.874501
vt 0.536536 0.874501
vt 0.536536 0.874501
vt 0.536536 0.874501
vt 0.536536 0.874501
vt 0.536536 0.874501
vt 0.536536 0.874501
vt 0.536536 0.874501
vt 0.536536 0.874501
vt 0.536536 0.874501
vt 0.536536 0.874501
vt 0.536536 0.874501
vt 0.536536 0.874501
vt 0.536536 0.874501
vt 0.536536 0.874501
vt 0.536536 0.874501
vt 0.536536 0.874501
vt 0.536536 0.874501
vt 0.536536 0.874501
vt 0.536536 0.874501
vt 0.536536 0.874501
vt 0.536536 0.874501
vt 0.898446 0.755770
vt 0.898774 0.790476
vt 0.770494 0.790901
vt 0.757480 0.761867
vt 0.784275 0.756850
vt 0.661384 0.758799
vt 0.536536 0.874501
vt 0.536536 0.874501
vt 0.536536 0.874501
vt 0.536536 0.874501
vt 0.536536 0.874501
vt 0.536536 0.874501
vt 0.536536 0.874501
vt 0.536536 0.874501
vt 0.536536 0.874501
vt 0.536536 0.874501
vt 0.536536 0.874501
vt 0.536536 0.874501
vt 0.536536 0.874501
vt 0.536536 0.874501
vt 0.536536 0.874501
vt 0.536536 0.874501
vt 0.536536 0.874501
vt 0.536536 0.874501
vt 0.536536 0.874501
vt 0.536536 0.874501
vt 0.536536 0.874501
vt 0.536536 0.874501
vt 0.536536 0.874501
vt 0.536536 0.874501
vt 0.536536 0.874501
vt 0.536536 0.874501
vt 0.536536 0.874501
vt 0.536536 0.874501
vt 0.536536 0.874501
vt 0.536536 0.874501
vt 0.536536 0.874501
vt 0.536536 0.874501
vt 0.536536 0.874501
vt 0.536536 0.874501
vt 0.536536 0.874501
vt 0.536536 0.874501
vt 0.679320 0.788800
vt 0.653096 0.792801
vt 0.576789 0.793523
vt 0.586294 0.758724
vt 0.731167 0.757353
vt 0.696019 0.792395
vt 0.536536 0.874501
vt 0.536536 0.874501
vt 0.536536 0.874501
vt 0.536536 0.874501
vt 0.536536 0.874501
vt 0.536536 0.874501
vt 0.536536 0.874501
vt 0.536536 0.874501
vt 0.536536 0.874501
vt 0.536536 0.874501
vt 0.536536 0.874501
vt 0.536536 0.874501
vt 0.536536 0.874501
vt 0.536536 0.874501
vt 0.536536 0.874501
vt 0.536536 0.874501
vt 0.536536 0.874501
vt 0.536536 0.874501
vt 0.536536 0.874501
vt 0.536536 0.874501
vt 0.536536 0.874501
vt 0.536536 0.874501
vt 0.536536 0.874501
vt 0.536536 0.874501
vt 0.536536 0.874501
vt 0.536536 0.874501
vt 0.536536 0.874501
vt 0.536536 0.874501
vt 0.536536 0.874501
vt 0.536536 0.874501
vt 0.536536 0.874501
vt 0.536536 0.874501
vt 0.536536 0.874501
vt 0.536536 0.874501
vt 0.536536 0.874501
vt 0.536536 0.874501
vt 0.761792 0.813250
vt 0.760531 0.846115
vt 0.694163 0.843053
vt 0.688629 0.815214
vt 0.702681 0.811160
vt 0.639039 0.809688
vt 0.536536 0.874501
vt 0.647080 0.838577
vt 0.633333 0.841619
vt 0.593825 0.840222
vt 0.600177 0.807537
vt 0.675184 0.810189
vt 0.655556 0.842404
vt 0.941964 0.864333
vt 0.941140 0.905766
vt 0.788023 0.901770
vt 0.773511 0.866662
vt 0.805665 0.861613
vt 0.658929 0.859626
vt 0.679282 0.896061
vt 0.647846 0.899913
vt 0.556748 0.898096
vt 0.569313 0.856897
vt 0.742264 0.860348
vt 0.699087 0.900936
vt 0.080235 0.329115
vt 0.080235 0.329115
vt 0.080235 0.329115
vt 0.080235 0.329115
vt 0.080235 0.329115
vt 0.080235 0.329115
vt 0.080235 0.329115
vt 0.080235 0.329115
vt 0.080235 0.329115
vt 0.080235 0.329115
vt 0.080235 0.329115
vt 0.080235 0.329115
vt 0.080235 0.329115
vt 0.080235 0.329115
vt 0.080235 0.329115
vt 0.080235 0.329115
vt 0.080235 0.329115
vt 0.080235 0.329115
vt 0.080235 0.329115
vt 0.080235 0.329115
vt 0.080235 0.329115
vt 0.080235 0.329115
vt 0.080235 0.329115
vt 0.080235 0.329115
vt 0.080235 0.329115
vt 0.080235 0.329115
vt 0.080235 0.329115
vt 0.080235 0.329115
vt 0.080235 0.329115
vt 0.080235 0.329115
vt 0.080235 0.329115
vt 0.080235 0.329115
vt 0.080235 0.329115
vt 0.080235 0.329115
vt 0.080235 0.329115
vt 0.080235 0.329115
vt 0.080235 0.329115
vt 0.080235 0.329115
vt 0.080235 0.329115
vt 0.080235 0.329115
vt 0.080235 0.329115
vt 0.080235 0.329115
vn -0.308837 -0.471381 -0.826087
vn -0.308837 -0.471381 -0.826087
vn -0.308837 -0.471381 -0.826087
vn -0.992794 0.119386 0.010329
vn -0.992794 0.119386 0.010329
vn -0.992794 0.119386 0.010329
vn -0.992794 0.119386 0.010329
vn 0.263788 0.344116 -0.901111
vn 0.263788 0.344116 -0.901111
vn 0.263788 0.344116 -0.901111
vn 0.922644 -0.385533 -0.009599
vn 0.922644 -0.385533 -0.009599
vn 0.922644 -0.385533 -0.009599
vn 0.922644 -0.385533 -0.009599
vn -0.264566 -0.400066 0.877469
vn -0.264566 -0.400066 0.877469
vn -0.264566 -0.400066 0.877469
vn 0.071119 0.426036 -0.901906
vn 0.071119 0.426036 -0.901906
vn 0.071119 0.426036 -0.901906
vn -0.098347 -0.556808 -0.824798
vn -0.098347 -0.556808 -0.824798
vn -0.098347 -0.556809 -0.824798
vn 0.403665 0.645041 0.648827
vn 0.403665 0.645041 0.648827
vn 0.403665 0.645041 0.648827
vn -0.002239 0.004650 -0.999987
vn -0.002239 0.004650 -0.999987
vn -0.002239 0.004650 -0.999987
vn -0.002239 0.004650 -0.999987
vn -0.002239 0.004650 -0.999987
vn -0.081271 -0.476545 0.875385
vn -0.081271 -0.476545 0.875385
vn -0.081271 -0.476545 0.875385
vn -0.375098 -0.926870 0.014613
vn -0.375098 -0.926870 0.014613
vn -0.375097 -0.926870 0.014613
vn -0.375098 -0.926870 0.014613
vn -0.375097 -0.926870 0.014613
vn 0.123005 0.754090 0.645149
vn 0.123005 0.754090 0.645149
vn 0.123005 0.754090 0.645149
vn 0.380140 0.924610 0.024297
vn 0.380140 0.924610 0.024297
vn 0.380140 0.924610 0.024297
vn 0.380140 0.924610 0.024297
vn 0.380140 0.924610 0.024297
vn -0.013357 0.001721 -0.999909
vn -0.013357 0.001721 -0.999909
vn -0.013357 0.001721 -0.999909
vn -0.013357 0.001721 -0.999909
vn -0.013357 0.001721 -0.999909
vn -0.008146 0.004848 -0.999955
vn -0.008146 0.004848 -0.999955
vn -0.008146 0.004848 -0.999955
vn -0.008146 0.004848 -0.999955
vn -0.008146 0.004848 -0.999955
vn -0.008146 0.004848 -0.999955
vn -0.385197 -0.922700 0.015784
vn -0.385197 -0.922700 0.015784
vn -0.385197 -0.922699 0.015784
vn -0.385197 -0.922699 0.015784
vn -0.385197 -0.922700 0.015784
vn -0.385197 -0.922699 0.015784
vn -0.390390 -0.920038 -0.033565
vn -0.390390 -0.920038 -0.033565
vn -0.390390 -0.920038 -0.033565
vn -0.390390 -0.920038 -0.033565
vn -0.390390 -0.920038 -0.033565
vn 0.007971 0.002169 0.999966
vn 0.007971 0.002169 0.999966
vn 0.007971 0.002169 0.999966
vn 0.007971 0.002169 0.999966
vn 0.007971 0.002169 0.999966
vn 0.010378 -0.011728 0.999877
vn 0.010378 -0.011728 0.999877
vn 0.010378 -0.011728 0.999877
vn 0.010378 -0.011728 0.999877
vn 0.010378 -0.011728 0.999877
vn 0.008662 -0.004430 0.999953
vn 0.008662 -0.004430 0.999953
vn 0.008662 -0.004430 0.999953
vn 0.008662 -0.004430 0.999953
vn 0.008662 -0.004430 0.999953
vn 0.008662 -0.004430 0.999953
vn 0.386392 0.922305 0.007379
vn 0.386392 0.922305 0.007379
vn 0.386392 0.922305 0.007379
vn 0.386392 0.922305 0.007379
vn 0.386392 0.922305 0.007379
vn 0.386392 0.922305 0.007379
vn 0.391163 0.919257 -0.044259
vn 0.391163 0.919257 -0.044259
vn 0.391163 0.919257 -0.044259
vn 0.391163 0.919257 -0.044259
vn 0.391163 0.919257 -0.044259
vn 0.085128 -0.495570 -0.864386
vn 0.085128 -0.495570 -0.864386
vn 0.085128 -0.495570 -0.864386
vn -0.821308 -0.568380 -0.048966
vn -0.821308 -0.568380 -0.048966
vn -0.821308 -0.568380 -0.048966
vn -0.821308 -0.568380 -0.048966
vn 0.012941 0.539845 -0.841665
vn 0.012941 0.539845 -0.841665
vn 0.012941 0.539845 -0.841665
vn 0.898801 0.436691 0.038174
vn 0.898801 0.436691 0.038174
vn 0.898801 0.436691 0.038174
vn 0.898801 0.436691 0.038174
vn 0.043857 -0.569931 0.820521
vn 0.043857 -0.569932 0.820521
vn 0.043857 -0.569932 0.820521
vn -0.329284 0.379020 -0.864821
vn -0.329284 0.379020 -0.864821
vn -0.329284 0.379020 -0.864821
vn 0.450211 -0.310894 -0.837052
vn 0.450211 -0.310894 -0.837052
vn 0.450211 -0.310894 -0.837052
vn -0.133409 0.698858 0.702709
vn -0.133409 0.698858 0.702709
vn -0.133409 0.698858 0.702709
vn 0.008189 0.094183 -0.995521
vn 0.008189 0.094183 -0.995521
vn 0.008189 0.094183 -0.995521
vn 0.008189 0.094183 -0.995521
vn 0.008189 0.094183 -0.995521
vn 0.367272 -0.412387 0.833695
vn 0.367272 -0.412387 0.833695
vn 0.367272 -0.412387 0.833695
vn 0.456535 -0.887528 -0.062202
vn 0.456535 -0.887529 -0.062202
vn 0.456535 -0.887529 -0.062202
vn 0.456535 -0.887529 -0.062202
vn 0.456535 -0.887529 -0.062202
vn -0.604682 0.445565 0.660175
vn -0.604682 0.445565 0.660175
vn -0.604682 0.445565 0.660175
vn -0.448045 0.888245 0.101373
vn -0.448045 0.888245 0.101373
vn -0.448045 0.888245 0.101373
vn -0.448045 0.888245 0.101373
vn -0.448045 0.888245 0.101373
vn -0.003787 0.080615 -0.996738
vn -0.003787 0.080615 -0.996738
vn -0.003787 0.080615 -0.996738
vn -0.003787 0.080615 -0.996738
vn -0.003787 0.080615 -0.996738
vn 0.000007 0.087883 -0.996131
vn 0.000007 0.087883 -0.996131
vn 0.000007 0.087883 -0.996131
vn 0.000007 0.087883 -0.996131
vn 0.000007 0.087883 -0.996131
vn 0.000007 0.087883 -0.996131
vn 0.438599 -0.896547 -0.061925
vn 0.438599 -0.896547 -0.061925
vn 0.438599 -0.896547 -0.061925
vn 0.438599 -0.896547 -0.061925
vn 0.438599 -0.896547 -0.061925
vn 0.438599 -0.896547 -0.061925
vn 0.429593 -0.896117 -0.111467
vn 0.429593 -0.896117 -0.111467
vn 0.429592 -0.896117 -0.111467
vn 0.429593 -0.896117 -0.111467
vn 0.429593 -0.896117 -0.111467
vn -0.007536 -0.084444 0.996400
vn -0.007536 -0.084444 0.996400
vn -0.007536 -0.084444 0.996400
vn -0.007536 -0.084444 0.996400
vn -0.007536 -0.084444 0.996400
vn 0.010171 -0.089024 0.995978
vn 0.010171 -0.089024 0.995978
vn 0.010171 -0.089024 0.995978
vn 0.010171 -0.089024 0.995978
vn 0.010171 -0.089024 0.995978
vn 0.000258 -0.087112 0.996199
vn 0.000258 -0.087112 0.996199
vn 0.000258 -0.087112 0.996199
vn 0.000258 -0.087112 0.996199
vn 0.000258 -0.087112 0.996199
vn 0.000258 -0.087112 0.996199
vn -0.436945 0.895455 0.085082
vn -0.436945 0.895455 0.085082
vn -0.436945 0.895455 0.085082
vn -0.436945 0.895455 0.085082
vn -0.436945 0.895455 0.085082
vn -0.436945 0.895455 0.085082
vn -0.426476 0.903858 0.034043
vn -0.426476 0.903858 0.034043
vn -0.426476 0.903858 0.034043
vn -0.426476 0.903858 0.034043
vn -0.426476 0.903858 0.034043
vn -0.092900 -0.552492 -0.828325
vn -0.092900 -0.552492 -0.828325
vn -0.092900 -0.552492 -0.828325
vn -0.956439 -0.291765 0.009920
vn -0.956439 -0.291765 0.009920
vn -0.956439 -0.291765 0.009920
vn -0.956439 -0.291765 0.009920
vn 0.101546 0.425138 -0.899414
vn 0.101546 0.425138 -0.899414
vn 0.101546 0.425138 -0.899414
vn 0.999747 0.019949 -0.010387
vn 0.999747 0.019949 -0.010387
vn 0.999747 0.019949 -0.010387
vn 0.999747 0.019949 -0.010387
vn -0.079683 -0.476499 0.875556
vn -0.079683 -0.476500 0.875556
vn -0.079683 -0.476499 0.875556
vn -0.107782 0.422282 -0.900034
vn -0.107782 0.422282 -0.900034
vn -0.107782 0.422282 -0.900034
vn 0.134170 -0.545651 -0.827202
vn 0.134170 -0.545651 -0.827202
vn 0.134170 -0.545651 -0.827202
vn 0.109368 0.750393 0.651881
vn 0.109368 0.750393 0.651881
vn 0.109368 0.750393 0.651881
vn -0.004812 0.007546 -0.999960
vn -0.004812 0.007546 -0.999960
vn -0.004812 0.007546 -0.999960
vn -0.004812 0.007546 -0.999960
vn -0.004812 0.007546 -0.999960
vn 0.118864 -0.472446 0.873308
vn 0.118864 -0.472446 0.873308
vn 0.118864 -0.472446 0.873308
vn 0.031171 -0.999460 0.010387
vn 0.031171 -0.999460 0.010387
vn 0.031171 -0.999460 0.010387
vn 0.031171 -0.999460 0.010387
vn 0.031171 -0.999460 0.010387
vn -0.191436 0.736826 0.648413
vn -0.191436 0.736826 0.648413
vn -0.191436 0.736826 0.648413
vn -0.023377 0.999223 0.031746
vn -0.023377 0.999223 0.031746
vn -0.023377 0.999223 0.031746
vn -0.023377 0.999223 0.031746
vn -0.023377 0.999223 0.031746
vn -0.078892 0.028616 -0.996472
vn -0.078892 0.028616 -0.996472
vn -0.078892 0.028616 -0.996472
vn -0.078892 0.028616 -0.996472
vn -0.078892 0.028616 -0.996472
vn -0.010295 0.005338 -0.999933
vn -0.010295 0.005338 -0.999933
vn -0.010295 0.005338 -0.999933
vn -0.010295 0.005338 -0.999933
vn -0.010295 0.005338 -0.999933
vn -0.010295 0.005338 -0.999933
vn 0.020249 -0.999728 0.011568
vn 0.020249 -0.999728 0.011568
vn 0.020249 -0.999728 0.011568
vn 0.020249 -0.999728 0.011568
vn 0.020249 -0.999728 0.011568
vn 0.020249 -0.999728 0.011568
vn 0.012357 -0.999267 -0.036232
vn 0.012357 -0.999267 -0.036232
vn 0.012357 -0.999267 -0.036232
vn 0.012357 -0.999267 -0.036232
vn 0.012357 -0.999267 -0.036232
vn 0.065842 0.014259 0.997728
vn 0.065842 0.014259 0.997728
vn 0.065842 0.014259 0.997728
vn 0.065842 0.014259 0.997728
vn 0.065842 0.014259 0.997728
vn 0.015114 -0.010730 0.999828
vn 0.015114 -0.010730 0.999828
vn 0.015114 -0.010730 0.999828
vn 0.015114 -0.010730 0.999828
vn 0.015114 -0.010730 0.999828
vn 0.010597 -0.004750 0.999933
vn 0.010597 -0.004750 0.999933
vn 0.010597 -0.004750 0.999933
vn 0.010597 -0.004750 0.999933
vn 0.010597 -0.004750 0.999933
vn 0.010597 -0.004750 0.999933
vn -0.018977 0.999753 0.011585
vn -0.018977 0.999753 0.011585
vn -0.018977 0.999753 0.011585
vn -0.018977 0.999753 0.011585
vn -0.018977 0.999753 0.011585
vn -0.018977 0.999753 0.011585
vn -0.013427 0.999107 -0.040057
vn -0.013427 0.999107 -0.040057
vn -0.013427 0.999107 -0.040057
vn -0.013427 0.999107 -0.040057
vn -0.013427 0.999107 -0.040057
vn 0.839902 -0.472774 0.266553
vn 0.839902 -0.472774 0.266553
vn 0.839902 -0.472774 0.266553
vn 0.839902 -0.472774 0.266553
vn -0.000000 0.000000 1.000000
vn -0.000000 0.000000 1.000000
vn -0.000000 0.000000 1.000000
vn -0.000000 0.000000 1.000000
vn -0.794429 0.541571 0.274926
vn -0.794429 0.541570 0.274926
vn -0.794429 0.541570 0.274926
vn -0.794429 0.541571 0.274926
vn 0.539114 0.790421 0.290847
vn 0.539114 0.790421 0.290847
vn 0.539114 0.790421 0.290847
vn 0.539114 0.790421 0.290847
vn -0.543162 -0.796756 0.264869
vn -0.543162 -0.796756 0.264869
vn -0.543162 -0.796756 0.264869
vn -0.543162 -0.796756 0.264869
vn 0.849742 -0.478323 0.221686
vn 0.849743 -0.478323 0.221686
vn 0.849743 -0.478323 0.221686
vn 0.849743 -0.478323 0.221686
vn 0.000000 0.000000 1.000000
vn 0.000000 0.000000 1.000000
vn 0.000000 0.000000 1.000000
vn 0.000000 0.000000 1.000000
vn -0.804429 0.548371 0.228438
vn -0.804429 0.548371 0.228438
vn -0.804429 0.548371 0.228438
vn -0.804429 0.548371 0.228438
vn 0.546678 0.801537 0.242242
vn 0.546678 0.801537 0.242242
vn 0.546678 0.801537 0.242242
vn 0.546678 0.801537 0.242242
vn -0.549443 -0.805996 0.220189
vn -0.549443 -0.805996 0.220189
vn -0.549443 -0.805996 0.220189
vn -0.549443 -0.805996 0.220189
vn 0.846366 -0.476344 0.238246
vn 0.846366 -0.476344 0.238246
vn 0.846366 -0.476344 0.238246
vn 0.846366 -0.476344 0.238246
vn 0.000000 0.000000 1.000000
vn 0.000000 0.000000 1.000000
vn 0.000000 0.000000 1.000000
vn 0.000000 0.000000 1.000000
vn -0.800629 0.545797 0.247180
vn -0.800629 0.545797 0.247180
vn -0.800629 0.545797 0.247180
vn -0.800629 0.545797 0.247180
vn 0.543970 0.797548 0.260794
vn 0.543970 0.797548 0.260794
vn 0.543970 0.797548 0.260794
vn 0.543970 0.797548 0.260794
vn -0.547242 -0.802760 0.236861
vn -0.547242 -0.802760 0.236861
vn -0.547242 -0.802760 0.236861
vn -0.547242 -0.802760 0.236861
s off
f 18/1/1 19/2/2 14/3/3
f 3/4/4 4/5/5 6/6/6 5/7/7
f 20/8/8 21/9/9 9/10/10
f 7/11/11 8/12/12 2/13/13 1/14/14
f 24/15/15 25/16/16 11/17/17
f 9/10/18 21/9/19 22/18/20
f 14/3/21 19/2/22 17/19/23
f 28/20/24 26/21/25 16/22/26
f 15/23/27 14/3/28 17/19/29 3/4/30 5/24/31
f 23/25/32 24/15/33 11/17/34
f 17/19/35 19/2/36 13/26/37 4/5/38 3/4/39
f 27/27/40 28/20/41 16/22/42
f 22/18/43 21/9/44 12/28/45 8/12/46 7/11/47
f 7/29/48 1/30/49 10/31/50 9/32/51 22/33/52
f 20/34/53 9/32/54 10/31/55 18/1/56 14/3/57 15/23/58
f 10/31/59 24/15/60 23/25/61 13/26/62 19/2/63 18/1/64
f 1/30/65 2/35/66 25/16/67 24/15/68 10/31/69
f 2/36/70 8/37/71 12/38/72 11/39/73 25/40/74
f 13/41/75 16/78/76 26/79/77 6/80/78 4/81/79
f 23/82/80 11/39/81 12/38/82 27/83/83 16/78/84 13/41/85
f 15/42/86 28/20/87 27/27/88 12/28/89 21/9/90 20/8/91
f 5/7/92 6/6/93 26/21/94 28/20/95 15/42/96
f 46/43/97 47/44/98 42/45/99
f 31/46/100 32/47/101 34/48/102 33/49/103
f 48/50/104 49/51/105 37/52/106
f 35/53/107 36/54/108 30/55/109 29/56/110
f 52/57/111 53/58/112 39/59/113
f 37/52/114 49/51/115 50/60/116
f 42/45/117 47/44/118 45/61/119
f 56/62/120 54/63/121 44/64/122
f 43/65/123 42/45/124 45/61/125 31/46/126 33/66/127
f 51/67/128 52/57/129 39/59/130
f 45/61/131 47/44/132 41/68/133 32/47/134 31/46/135
f 55/69/136 56/62/137 44/64/138
f 50/60/139 49/51/140 40/70/141 36/54/142 35/53/143
f 35/71/144 29/72/145 38/73/146 37/74/147 50/75/148
f 48/76/149 37/74/150 38/73/151 46/43/152 42/45/153 43/65/154
f 38/73/155 52/57/156 51/67/157 41/68/158 47/44/159 46/43/160
f 29/72/161 30/77/162 53/58/163 52/57/164 38/73/165
f 30/120/166 36/121/167 40/122/168 39/123/169 53/124/170
f 41/125/171 44/127/172 54/128/173 34/129/174 32/130/175
f 51/131/176 39/123/177 40/122/178 55/132/179 44/127/180 41/125/181
f 43/84/182 56/62/183 55/69/184 40/70/185 49/51/186 48/50/187
f 33/49/188 34/48/189 54/63/190 56/62/191 43/84/192
f 74/85/193 75/86/194 70/87/195
f 59/88/196 60/89/197 62/90/198 61/91/199
f 76/92/200 77/93/201 65/94/202
f 63/95/203 64/96/204 58/97/205 57/98/206
f 80/99/207 81/100/208 67/101/209
f 65/94/210 77/93/211 78/102/212
f 70/87/213 75/86/214 73/103/215
f 84/104/216 82/105/217 72/106/218
f 71/107/219 70/87/220 73/103/221 59/88/222 61/108/223
f 79/109/224 80/99/225 67/101/226
f 73/103/227 75/86/228 69/110/229 60/89/230 59/88/231
f 83/111/232 84/104/233 72/106/234
f 78/102/235 77/93/236 68/112/237 64/96/238 63/95/239
f 63/113/240 57/114/241 66/115/242 65/116/243 78/117/244
f 76/118/245 65/116/246 66/115/247 74/85/248 70/87/249 71/107/250
f 66/115/251 80/99/252 79/109/253 69/110/254 75/86/255 74/85/256
f 57/114/257 58/119/258 81/100/259 80/99/260 66/115/261
f 58/133/262 64/134/263 68/135/264 67/136/265 81/137/266
f 69/138/267 72/139/268 82/140/269 62/141/270 60/142/271
f 79/143/272 67/136/273 68/135/274 83/144/275 72/139/276 69/138/277
f 71/126/278 84/104/279 83/111/280 68/112/281 77/93/282 76/92/283
f 61/91/284 62/90/285 82/105/286 84/104/287 71/126/288
f 87/145/289 88/146/290 90/147/291 89/148/292
f 89/148/293 90/147/294 92/149/295 91/150/296
f 91/150/297 92/149/298 86/151/299 85/152/300
f 86/153/301 92/154/302 90/155/303 88/146/304
f 91/156/305 85/157/306 87/145/307 89/158/308
f 95/159/309 96/160/310 98/161/311 97/162/312
f 97/162/313 98/161/314 100/163/315 99/164/316
f 99/164/317 100/163/318 94/165/319 93/166/320
f 94/167/321 100/168/322 98/169/323 96/160/324
f 99/170/325 93/171/326 95/159/327 97/172/328
f 103/173/329 104/174/330 106/175/331 105/176/332
f 105/176/333 106/175/334 108/177/335 107/178/336
f 107/178/337 108/177/338 102/179/339 101/180/340
f 102/181/341 108/182/342 106/183/343 104/174/344
f 107/184/345 101/185/346 103/173/347 105/186/348
