# This file uses centimeters as units for non-parametric coordinates.

v -125.405647 26.395765 23.132519
v -125.407028 26.390062 -23.262625
v 125.417717 26.700352 23.339478
v 125.416382 26.705944 -23.211977
v -122.329445 27.409801 -0.000001
v 124.488541 21.717400 0.348554
v -125.629349 25.472118 27.156168
v -129.416168 9.836966 23.827969
v 129.365784 10.136150 23.827969
v 125.635895 25.784977 27.156168
v -131.934723 -0.561811 9.101472
v 131.846497 -0.271722 9.101472
v -131.934723 -0.561805 -9.101476
v 131.846497 -0.271716 -9.101477
v -129.416168 9.836967 -23.827969
v 129.365784 10.136152 -23.827969
v -125.629349 25.472118 -27.156166
v 125.635895 25.784977 -27.156166
v -7.774396 3.140810 -7.148725
v -15.582634 11.472399 -18.715603
v -26.466301 23.999416 -21.329725
v -26.354097 25.639524 -18.368862
v 7.368851 25.639524 18.368864
v 7.256647 23.999416 21.329727
v -5.604805 11.472397 18.715603
v -7.178504 3.140807 7.148723
v -9.492620 25.639524 0.000000
v -128.718994 12.715433 20.313751
v -130.924820 3.607961 7.813033
v -130.924820 3.607966 -7.813036
v -128.718994 12.715435 -20.313751
v 128.679108 13.017136 20.313751
v 130.851776 3.901696 7.813033
v 130.851776 3.901702 -7.813037
v 128.679108 13.017138 -20.313751
v -129.255630 25.037144 27.156168
v -131.386154 10.314095 23.827969
v -129.031921 25.960791 23.132519
v -130.688995 13.192563 20.313751
v -139.913055 1.370529 9.101472
v -138.903137 5.540300 7.813033
v -137.319992 0.742497 -9.101476
v -136.310074 4.912269 -7.813036
v -131.386154 10.314097 -23.827969
v -130.688995 13.192565 -20.313751
v -132.148972 23.190208 -27.156166
v -131.926651 24.108154 -23.262625
v 130.918060 24.340296 27.156168
v 134.936157 11.463845 23.827969
v 134.249466 14.344831 20.313751
v 130.699890 25.255669 23.339478
v 133.818222 0.198237 9.101472
v 132.823486 4.371655 7.813033
v 136.867065 0.924936 -9.101477
v 135.872345 5.098355 -7.813037
v 132.802353 10.955257 -23.827969
v 132.115677 13.836243 -20.313751
v 130.932480 26.277819 -27.156166
v 130.712967 27.198786 -23.211977
v 120.255028 27.207781 11.328771
v -1.061885 25.639524 9.184432
v -124.773911 26.901640 11.651032
v 123.700005 27.216291 -8.899942
v -17.923359 25.639524 -9.184431
v -120.242889 26.904505 -11.290345
v -125.737396 23.437042 13.766667
v -125.055618 26.676058 16.770903
v -105.522469 26.705235 11.267193
v 99.387299 27.130100 -13.308316
v 125.025909 27.022100 -16.074665
v 125.928009 23.051283 -14.220127
v 114.033310 27.592947 -0.000001
v 121.770241 27.582645 3.107765
v 122.786896 27.558170 -2.911127
vt 0.035749 0.275392
vt 0.035749 0.275392
vt 0.035749 0.275392
vt 0.035749 0.275392
vt 0.035749 0.275392
vt 0.035749 0.275392
vt 0.035749 0.275392
vt 0.035749 0.275392
vt 0.035749 0.275392
vt 0.035749 0.275392
vt 0.035749 0.275392
vt 0.035749 0.275392
vt 0.035749 0.275392
vt 0.035749 0.275392
vt 0.037197 0.328909
vt 0.035749 0.275392
vt 0.035749 0.275392
vt 0.035749 0.275392
vt 0.035749 0.275392
vt 0.035749 0.275392
vt 0.035749 0.275392
vt 0.037197 0.328909
vt 0.035749 0.275392
vt 0.035749 0.275392
vt 0.035749 0.275392
vt 0.035749 0.275392
vt 0.035749 0.275392
vt 0.037197 0.328909
vt 0.035749 0.275392
vt 0.035749 0.275392
vt 0.037197 0.328909
vt 0.037197 0.328909
vt 0.037197 0.328909
vt 0.037197 0.328909
vt 0.037197 0.328909
vt 0.037197 0.328909
vt 0.035749 0.275392
vt 0.035749 0.275392
vt 0.035749 0.275392
vt 0.037197 0.328909
vt 0.037197 0.328909
vt 0.035749 0.275392
vt 0.035749 0.275392
vt 0.035749 0.275392
vt 0.037197 0.328909
vt 0.037197 0.328909
vt 0.037197 0.328909
vt 0.037197 0.328909
vt 0.037197 0.328909
vt 0.037197 0.328909
vt 0.035749 0.275392
vt 0.037197 0.328909
vt 0.035749 0.275392
vt 0.037197 0.328909
vt 0.035749 0.275392
vt 0.037197 0.328909
vt 0.035749 0.275392
vt 0.035749 0.275392
vt 0.037197 0.328909
vt 0.037197 0.328909
vt 0.035749 0.275392
vt 0.035749 0.275392
vt 0.035749 0.275392
vt 0.035749 0.275392
vt 0.037197 0.328909
vt 0.035749 0.275392
vt 0.037197 0.328909
vt 0.037197 0.328909
vt 0.037197 0.328909
vt 0.037197 0.328909
vt 0.037197 0.328909
vt 0.037197 0.328909
vt 0.037197 0.328909
vt 0.037197 0.328909
vt 0.035749 0.275392
vt 0.037197 0.328909
vt 0.037197 0.328909
vt 0.037197 0.328909
vt 0.037197 0.328909
vt 0.035749 0.275392
vt 0.037197 0.328909
vt 0.035749 0.275392
vt 0.037197 0.328909
vt 0.035749 0.275392
vt 0.035749 0.275392
vt 0.035749 0.275392
vt 0.035749 0.275392
vt 0.035749 0.275392
vt 0.035749 0.275392
vt 0.035749 0.275392
vt 0.035749 0.275392
vt 0.035749 0.275392
vt 0.035749 0.275392
vt 0.035749 0.275392
vt 0.035749 0.275392
vt 0.035749 0.275392
vt 0.035749 0.275392
vt 0.035749 0.275392
vt 0.035749 0.275392
vt 0.035749 0.275392
vt 0.035749 0.275392
vt 0.035749 0.275392
vt 0.035749 0.275392
vt 0.035749 0.275392
vt 0.035749 0.275392
vt 0.035749 0.275392
vt 0.035749 0.275392
vt 0.035749 0.275392
vt 0.035749 0.275392
vt 0.037197 0.328909
vt 0.037197 0.328909
vt 0.037197 0.328909
vt 0.037197 0.328909
vt 0.037197 0.328909
vt 0.037197 0.328909
vt 0.037197 0.328909
vt 0.037197 0.328909
vt 0.037197 0.328909
vt 0.037197 0.328909
vt 0.037197 0.328909
vt 0.037197 0.328909
vt 0.037197 0.328909
vt 0.037197 0.328909
vt 0.037197 0.328909
vt 0.037197 0.328909
vt 0.037197 0.328909
vt 0.037197 0.328909
vt 0.037197 0.328909
vt 0.037197 0.328909
vt 0.037197 0.328909
vt 0.037197 0.328909
vt 0.037197 0.328909
vt 0.037197 0.328909
vt 0.037197 0.328909
vt 0.037197 0.328909
vt 0.037197 0.328909
vt 0.037197 0.328909
vt 0.037197 0.328909
vn -0.041982 -0.193135 0.980274
vn -0.041982 -0.193135 0.980274
vn -0.041982 -0.193135 0.980274
vn -0.041982 -0.193135 0.980274
vn -0.029058 -0.814471 0.579476
vn -0.029058 -0.814471 0.579476
vn -0.029058 -0.814471 0.579476
vn -0.029058 -0.814471 0.579476
vn -0.024486 -0.999700 0.000449
vn -0.024486 -0.999700 0.000449
vn -0.024486 -0.999700 0.000449
vn -0.024486 -0.999700 0.000449
vn -0.027893 -0.819151 -0.572899
vn -0.027893 -0.819151 -0.572899
vn -0.027893 -0.819151 -0.572899
vn -0.027893 -0.819151 -0.572899
vn -0.035528 -0.223840 -0.973978
vn -0.035528 -0.223840 -0.973978
vn -0.035528 -0.223840 -0.973978
vn -0.035528 -0.223840 -0.973978
vn -0.940551 0.339654 0.000000
vn -0.940551 0.339654 0.000000
vn -0.940550 0.339654 0.000000
vn -0.882416 0.293083 0.368029
vn -0.882416 0.293083 0.368029
vn -0.882416 0.293083 0.368029
vn 0.883170 0.291723 -0.367298
vn 0.883170 0.291723 -0.367298
vn 0.883170 0.291723 -0.367298
vn -0.027382 0.935205 0.353048
vn -0.027382 0.935205 0.353048
vn -0.027382 0.935205 0.353048
vn -0.027382 0.935205 0.353048
vn -0.021014 0.937274 -0.347960
vn -0.021014 0.937274 -0.347960
vn -0.021014 0.937274 -0.347960
vn -0.021014 0.937274 -0.347960
vn 0.035534 -0.810568 -0.584566
vn 0.035534 -0.810568 -0.584565
vn 0.035534 -0.810568 -0.584565
vn 0.035534 -0.810568 -0.584565
vn 0.050463 -0.194004 -0.979702
vn 0.050463 -0.194004 -0.979702
vn 0.050463 -0.194004 -0.979702
vn 0.050463 -0.194004 -0.979702
vn 0.029468 0.936004 -0.350753
vn 0.029468 0.936004 -0.350753
vn 0.029468 0.936004 -0.350753
vn 0.029468 0.936004 -0.350753
vn 0.021641 0.938199 0.345419
vn 0.021641 0.938199 0.345419
vn 0.021641 0.938199 0.345419
vn 0.021641 0.938199 0.345419
vn 0.041581 -0.229753 0.972360
vn 0.041581 -0.229753 0.972360
vn 0.041581 -0.229753 0.972360
vn 0.041581 -0.229753 0.972360
vn 0.033916 -0.816493 0.576359
vn 0.033916 -0.816493 0.576359
vn 0.033916 -0.816493 0.576359
vn 0.033916 -0.816493 0.576359
vn 0.029737 -0.999558 -0.000545
vn 0.029737 -0.999558 -0.000545
vn 0.029737 -0.999558 -0.000545
vn 0.029737 -0.999558 -0.000545
vn 0.014385 0.999472 -0.029123
vn 0.014385 0.999472 -0.029123
vn 0.014385 0.999472 -0.029123
vn 0.014385 0.999472 -0.029123
vn 0.269883 0.528010 0.805213
vn 0.269883 0.528010 0.805213
vn 0.269883 0.528010 0.805213
vn -0.197597 0.688662 -0.697639
vn -0.197597 0.688662 -0.697639
vn -0.197597 0.688662 -0.697639
vn -0.011916 0.999431 0.031569
vn -0.011916 0.999431 0.031569
vn -0.011916 0.999431 0.031569
vn -0.011916 0.999431 0.031569
vn -0.988091 0.146592 -0.046770
vn -0.988091 0.146592 -0.046770
vn -0.988091 0.146592 -0.046770
vn -0.988091 0.146592 -0.046770
vn -0.868022 0.405491 0.286556
vn -0.868022 0.405491 0.286556
vn -0.868022 0.405491 0.286556
vn -0.868022 0.405491 0.286556
vn -0.960030 0.232519 -0.155810
vn -0.960030 0.232519 -0.155810
vn -0.960030 0.232519 -0.155810
vn -0.960030 0.232519 -0.155810
vn -0.925056 0.339757 -0.169815
vn -0.925056 0.339757 -0.169815
vn -0.925056 0.339757 -0.169815
vn -0.925056 0.339757 -0.169815
vn -0.988336 -0.044693 0.145581
vn -0.988336 -0.044693 0.145581
vn -0.988336 -0.044693 0.145581
vn -0.988336 -0.044693 0.145581
vn 0.955003 0.294565 0.034665
vn 0.955003 0.294565 0.034665
vn 0.955003 0.294565 0.034665
vn 0.955003 0.294565 0.034665
vn 0.977615 0.111580 -0.178377
vn 0.977615 0.111580 -0.178377
vn 0.977615 0.111580 -0.178377
vn 0.977615 0.111580 -0.178377
vn 0.956467 0.227979 0.182198
vn 0.956467 0.227979 0.182198
vn 0.956467 0.227979 0.182198
vn 0.956467 0.227979 0.182198
vn 0.955977 0.282324 -0.080007
vn 0.955977 0.282324 -0.080007
vn 0.955977 0.282324 -0.080007
vn 0.955977 0.282324 -0.080007
vn 0.990514 0.125266 0.056491
vn 0.990514 0.125266 0.056491
vn 0.990514 0.125266 0.056491
vn 0.990514 0.125266 0.056491
vn -0.001611 -0.213874 0.976860
vn -0.001611 -0.213874 0.976860
vn -0.001611 -0.213874 0.976860
vn -0.001611 -0.213874 0.976860
vn -0.116284 0.969428 0.216073
vn -0.116284 0.969428 0.216072
vn -0.116284 0.969428 0.216072
vn -0.116284 0.969428 0.216073
vn 0.001569 0.208186 -0.978088
vn 0.001569 0.208186 -0.978088
vn 0.001569 0.208186 -0.978088
vn 0.001569 0.208186 -0.978088
vn -0.190437 -0.786283 0.587786
vn -0.190437 -0.786283 0.587786
vn -0.190437 -0.786283 0.587786
vn -0.190437 -0.786283 0.587786
vn 0.188348 0.777663 -0.599805
vn 0.188348 0.777663 -0.599805
vn 0.188348 0.777663 -0.599805
vn 0.188348 0.777663 -0.599805
vn -0.235393 -0.971900 -0.000000
vn -0.235393 -0.971900 -0.000000
vn -0.235393 -0.971900 -0.000000
vn -0.235393 -0.971900 -0.000000
vn 0.235394 0.971900 0.000000
vn 0.235394 0.971900 0.000000
vn 0.235394 0.971900 0.000000
vn 0.235394 0.971900 0.000000
vn -0.190437 -0.786284 -0.587785
vn -0.190437 -0.786284 -0.587785
vn -0.190437 -0.786284 -0.587785
vn -0.190437 -0.786284 -0.587785
vn 0.188348 0.777663 0.599804
vn 0.188348 0.777663 0.599804
vn 0.188348 0.777663 0.599804
vn 0.188348 0.777663 0.599804
vn 0.049327 -0.232033 -0.971456
vn 0.049327 -0.232033 -0.971456
vn 0.049327 -0.232033 -0.971456
vn 0.049327 -0.232033 -0.971456
vn -0.050371 0.236947 0.970216
vn -0.050371 0.236947 0.970216
vn -0.050371 0.236947 0.970216
vn -0.050371 0.236947 0.970216
vn -0.323711 0.924870 -0.199565
vn -0.323711 0.924870 -0.199565
vn -0.323711 0.924870 -0.199565
vn -0.323711 0.924870 -0.199565
vn -0.002457 -0.227878 0.973687
vn -0.002457 -0.227878 0.973687
vn -0.002457 -0.227878 0.973687
vn -0.002457 -0.227878 0.973687
vn 0.002583 0.239600 -0.970868
vn 0.002583 0.239600 -0.970868
vn 0.002583 0.239600 -0.970868
vn 0.002583 0.239600 -0.970868
vn 0.257853 0.942780 0.211372
vn 0.257852 0.942780 0.211372
vn 0.257853 0.942780 0.211372
vn 0.257853 0.942780 0.211372
vn 0.187574 -0.786973 0.587784
vn 0.187574 -0.786973 0.587784
vn 0.187574 -0.786973 0.587784
vn 0.187574 -0.786973 0.587784
vn -0.185518 0.778341 -0.599806
vn -0.185518 0.778341 -0.599806
vn -0.185518 0.778341 -0.599806
vn -0.185519 0.778341 -0.599806
vn 0.231854 -0.972751 -0.000000
vn 0.231854 -0.972751 -0.000000
vn 0.231854 -0.972751 -0.000000
vn 0.231854 -0.972751 -0.000000
vn -0.231856 0.972750 0.000000
vn -0.231856 0.972750 0.000000
vn -0.231856 0.972750 0.000000
vn -0.231856 0.972750 0.000000
vn 0.187574 -0.786972 -0.587785
vn 0.187574 -0.786972 -0.587785
vn 0.187574 -0.786972 -0.587785
vn 0.187574 -0.786972 -0.587785
vn -0.185518 0.778343 0.599805
vn -0.185518 0.778343 0.599805
vn -0.185518 0.778343 0.599805
vn -0.185518 0.778343 0.599805
vn 0.030752 -0.204706 -0.978340
vn 0.030752 -0.204706 -0.978340
vn 0.030752 -0.204706 -0.978340
vn 0.030752 -0.204706 -0.978340
vn -0.090138 0.968719 -0.231212
vn -0.090138 0.968719 -0.231212
vn -0.090138 0.968719 -0.231212
vn -0.090138 0.968719 -0.231212
vn -0.030700 0.204356 0.978415
vn -0.030700 0.204356 0.978415
vn -0.030700 0.204356 0.978415
vn -0.030700 0.204356 0.978415
vn 0.318876 0.520431 -0.792130
vn 0.318876 0.520431 -0.792130
vn 0.318876 0.520431 -0.792130
vn 0.013031 0.999702 0.020638
vn 0.013031 0.999702 0.020638
vn 0.013031 0.999702 0.020638
vn 0.013031 0.999702 0.020638
vn 0.013031 0.999702 0.020638
vn 0.969812 0.240137 0.042420
vn 0.969812 0.240137 0.042420
vn 0.969812 0.240137 0.042420
vn 0.969812 0.240137 0.042420
vn -0.009881 0.999413 -0.032787
vn -0.009881 0.999414 -0.032787
vn -0.009881 0.999414 -0.032787
vn -0.009881 0.999414 -0.032787
vn -0.009881 0.999413 -0.032787
vn 0.011096 0.999444 -0.031432
vn 0.011096 0.999444 -0.031432
vn 0.011096 0.999444 -0.031432
vn 0.011096 0.999444 -0.031432
vn -0.909704 0.415018 -0.014070
vn -0.909704 0.415018 -0.014070
vn -0.909704 0.415018 -0.014070
vn -0.909704 0.415018 -0.014070
vn -0.948542 0.276035 -0.155155
vn -0.948542 0.276035 -0.155155
vn -0.948542 0.276035 -0.155155
vn -0.948542 0.276035 -0.155155
vn -0.968976 0.243458 -0.042588
vn -0.968976 0.243458 -0.042588
vn -0.968976 0.243458 -0.042588
vn -0.968976 0.243458 -0.042588
vn 0.008367 0.999757 0.020385
vn 0.008367 0.999757 0.020385
vn 0.008367 0.999757 0.020385
vn 0.008367 0.999757 0.020385
vn 0.008367 0.999757 0.020385
vn 0.022336 0.516498 0.855997
vn 0.022336 0.516498 0.855997
vn 0.022336 0.516498 0.855997
vn -0.965998 0.257960 -0.017483
vn -0.965998 0.257960 -0.017483
vn -0.965998 0.257960 -0.017483
vn 0.103391 0.803742 -0.585926
vn 0.103391 0.803742 -0.585926
vn 0.103391 0.803742 -0.585926
vn 0.098196 0.439346 0.892935
vn 0.098196 0.439346 0.892935
vn 0.098196 0.439346 0.892935
vn 0.966921 0.254473 0.017506
vn 0.966921 0.254473 0.017506
vn 0.966921 0.254473 0.017506
vn -0.014663 0.999455 0.029576
vn -0.014663 0.999455 0.029576
vn -0.014663 0.999455 0.029576
vn -0.014663 0.999455 0.029576
vn -0.014663 0.999455 0.029576
vn 0.912430 0.409166 0.007423
vn 0.912430 0.409166 0.007423
vn 0.912430 0.409166 0.007423
vn 0.912430 0.409166 0.007423
vn 0.912430 0.409166 0.007423
vn 0.941734 0.336358 0.000000
vn 0.941734 0.336358 0.000000
vn 0.941734 0.336358 0.000000
vn 0.946058 0.300578 0.120945
vn 0.946058 0.300578 0.120945
vn 0.946058 0.300579 0.120945
vn 0.946058 0.300578 0.120945
vn 0.946058 0.300579 0.120945
vn -0.012913 0.999872 -0.009444
vn -0.012913 0.999872 -0.009444
vn -0.012913 0.999872 -0.009444
vn -0.012913 0.999872 -0.009444
vn -0.012913 0.999872 -0.009444
vn -0.012913 0.999872 -0.009444
s off
f 24/42/1 25/43/2 9/3/3 10/4/4
f 25/43/5 26/44/6 12/6/7 9/3/8
f 26/44/9 19/37/10 14/8/11 12/6/12
f 19/37/13 20/38/14 16/10/15 14/8/16
f 20/38/17 21/39/18 18/12/19 16/10/20
f 30/79/21 29/59/22 5/78/23
f 31/74/24 65/120/25 2/76/26
f 32/72/27 60/111/28 3/73/29
f 3/27/30 23/53/31 24/42/32 10/4/33
f 21/39/34 22/51/35 4/30/36 18/12/37
f 13/7/38 15/9/39 20/38/40 19/37/41
f 15/9/42 17/11/43 21/39/44 20/38/45
f 2/29/46 22/51/47 21/39/48 17/11/49
f 24/42/50 23/53/51 1/58/52 7/1/53
f 7/1/54 8/2/55 25/43/56 24/42/57
f 8/2/58 11/5/59 26/44/60 25/43/61
f 11/5/62 13/7/63 19/37/64 26/44/65
f 5/50/66 27/47/67 64/118/68 65/121/69
f 74/138/70 72/132/71 6/34/72
f 67/123/73 68/125/74 66/126/75
f 23/41/76 3/35/77 60/110/78 61/113/79
f 37/86/80 36/87/81 38/88/82 39/89/83
f 40/90/84 37/86/85 39/89/86 41/91/87
f 42/92/88 40/90/89 41/91/90 43/93/91
f 44/94/92 42/92/93 43/93/94 45/95/95
f 46/96/96 44/94/97 45/95/98 47/97/99
f 48/98/100 49/99/101 50/100/102 51/101/103
f 49/99/104 52/102/105 53/103/106 50/100/107
f 52/102/108 54/104/109 55/105/110 53/103/111
f 54/104/112 56/106/113 57/107/114 55/105/115
f 56/106/116 58/108/117 59/109/118 57/107/119
f 8/13/120 7/14/121 36/87/122 37/86/123
f 7/14/124 1/85/125 38/88/126 36/87/127
f 1/85/128 28/84/129 39/89/130 38/88/131
f 11/16/132 8/13/133 37/86/134 40/90/135
f 28/84/136 29/82/137 41/91/138 39/89/139
f 13/17/140 11/16/141 40/90/142 42/92/143
f 29/82/144 30/80/145 43/93/146 41/91/147
f 15/18/148 13/17/149 42/92/150 44/94/151
f 30/80/152 31/75/153 45/95/154 43/93/155
f 17/19/156 15/18/157 44/94/158 46/96/159
f 31/75/160 2/57/161 47/97/162 45/95/163
f 2/57/164 17/19/165 46/96/166 47/97/167
f 10/20/168 9/21/169 49/99/170 48/98/171
f 32/61/172 3/55/173 51/101/174 50/100/175
f 3/55/176 10/20/177 48/98/178 51/101/179
f 9/21/180 12/23/181 52/102/182 49/99/183
f 33/62/184 32/61/185 50/100/186 53/103/187
f 12/23/188 14/24/189 54/104/190 52/102/191
f 34/63/192 33/62/193 53/103/194 55/105/195
f 14/24/196 16/25/197 56/106/198 54/104/199
f 35/64/200 34/63/201 55/105/202 57/107/203
f 16/25/204 18/26/205 58/108/206 56/106/207
f 18/26/208 4/66/209 59/109/210 58/108/211
f 4/66/212 35/64/213 57/107/214 59/109/215
f 72/133/216 73/134/217 6/49/218
f 62/114/219 68/125/220 61/112/221 27/46/222 5/32/223
f 70/128/224 71/130/225 35/65/226 4/36/227
f 64/119/228 69/127/229 70/129/230 4/56/231 22/52/232
f 65/121/233 64/118/234 22/40/235 2/33/236
f 31/74/237 30/60/238 5/15/239 65/120/240
f 29/81/241 66/122/242 62/115/243 5/77/244
f 28/83/245 1/31/246 67/124/247 66/122/248
f 23/54/249 61/112/250 68/125/251 67/123/252 1/28/253
f 66/126/254 68/125/255 62/114/256
f 28/83/257 66/122/258 29/81/259
f 71/131/260 69/127/261 63/117/262
f 70/129/263 69/127/264 71/131/265
f 71/130/266 34/69/267 35/65/268
f 61/113/269 60/110/270 73/134/271 72/133/272 27/45/273
f 6/67/274 73/135/275 60/111/276 32/72/277 33/70/278
f 33/71/279 34/68/280 6/136/281
f 74/137/282 6/22/283 34/69/284 71/130/285 63/116/286
f 27/48/287 72/132/288 74/138/289 63/117/290 69/127/291 64/119/292
