# This file uses centimeters as units for non-parametric coordinates.

v -32.097511 142.134674 3.037624
v 35.287498 144.809540 -0.696583
v -32.207375 149.123199 3.855495
v 35.214821 152.189453 0.164204
v -32.227974 149.259003 -1.715488
v 35.195183 152.277191 -6.362934
v -32.117348 142.273529 -2.529545
v 35.269569 144.901093 -7.218380
v -33.487663 32.859814 5.255642
v 34.653679 35.174458 0.052013
v -33.228035 39.472668 4.981861
v 34.814629 41.289146 -0.351582
v -33.231583 39.535000 -3.491421
v 34.814629 41.289146 -7.042446
v -33.489342 32.913563 -3.219585
v 34.654030 35.190479 -6.640682
v 25.951441 0.000000 4.654293
v 25.951441 0.000000 -3.131504
v 21.236475 0.000000 4.700832
v 21.236475 0.000000 -3.084965
v 19.313868 0.000000 0.825863
v 27.874811 0.000000 0.741177
v -22.153435 0.000000 5.814724
v -22.153435 0.000000 -1.978703
v -26.868401 0.000000 5.961971
v -26.868401 0.000000 -1.832981
v -28.791771 0.000000 2.119045
v -20.230827 0.000000 1.852016
v -34.199600 67.304428 3.561115
v 34.282326 71.133705 -0.801449
v -33.683662 73.120094 3.496227
v 34.804115 78.425423 -0.762005
v -33.689537 73.248116 -3.462467
v 34.797783 78.505455 -8.879070
v -34.204979 67.422226 -3.399105
v 34.276085 71.200768 -8.918362
v -31.969452 107.547966 2.154408
v 34.788002 113.626381 -1.684551
v -31.608009 114.872643 2.894001
v 35.083824 119.863335 -1.049137
v -31.623268 115.038048 -3.576832
v 35.072578 119.943596 -6.913319
v -31.984138 107.709175 -4.313412
v 34.777626 113.709694 -7.543163
v -32.097511 178.292694 3.037624
v 35.287498 180.967560 -0.696583
v -32.207375 185.281219 3.855495
v 35.214821 188.347473 0.164204
v -32.227974 185.417023 -1.715488
v 35.195183 188.435211 -6.362934
v -32.117348 178.431549 -2.529545
v 35.269569 181.059113 -7.218380
v -33.161812 214.065247 4.613972
v 34.494881 212.858276 0.384235
v -33.328133 220.115356 4.571247
v 34.365181 218.533020 0.384235
v -33.344917 220.200806 -1.018810
v 34.352211 218.578796 -5.189800
v -33.179359 214.159851 -0.974560
v 34.481911 212.907104 -5.189037
v -35.154839 249.708969 4.324093
v 34.535652 248.608810 -0.138683
v -35.276184 256.554352 3.743229
v 34.468422 254.217026 -0.394650
v -35.287514 256.576477 -4.156590
v 34.463043 254.220078 -6.945057
v -35.166969 249.750320 -3.578739
v 34.528252 248.614914 -6.691380
v -34.617882 282.867706 4.294415
v 33.449455 278.619659 2.702541
v -34.630699 290.048492 3.716106
v 33.431343 285.660065 2.405758
v -34.636955 290.033234 -3.982716
v 33.423897 285.626495 -5.342655
v -34.623222 282.855499 -3.406696
v 33.439919 278.595245 -5.047016
v -28.459892 333.881348 5.010586
v -26.544914 333.701294 1.092892
v -21.844444 333.255737 1.088314
v -19.924889 333.072632 4.995327
v -21.837578 333.277100 8.909969
v -26.538048 333.719604 8.918362
v 27.902277 334.816895 3.693752
v 25.995691 334.871826 7.670193
v 21.314295 334.969482 7.848721
v 19.397028 334.993896 4.018002
v 21.304377 334.942017 0.028591
v 25.987299 334.844360 -0.149174
v 21.738489 144.038391 0.496273
v 23.601587 144.229126 4.320889
v 28.148706 144.837952 4.153805
v 29.995783 145.138550 0.193386
v 28.125818 144.967651 -3.630466
v 23.577173 144.366455 -3.464146
v -25.628624 140.071106 3.332882
v -23.686943 140.042114 7.114010
v -18.961296 140.206909 6.810360
v -17.049370 140.368652 2.783566
v -18.990288 140.405273 -0.985355
v -23.716698 140.243530 -0.683231
vt 0.760786 0.543153
vt 0.760786 0.543153
vt 0.760786 0.543153
vt 0.760786 0.543153
vt 0.760786 0.543153
vt 0.760786 0.543153
vt 0.760786 0.543153
vt 0.760786 0.543153
vt 0.760786 0.543153
vt 0.760786 0.543153
vt 0.760786 0.543153
vt 0.760786 0.543153
vt 0.760786 0.543153
vt 0.760786 0.543153
vt 0.760786 0.543153
vt 0.760786 0.543153
vt 0.760786 0.543153
vt 0.760786 0.543153
vt 0.760786 0.543153
vt 0.760786 0.543153
vt 0.760257 0.519056
vt 0.760257 0.519056
vt 0.760257 0.519056
vt 0.760257 0.519056
vt 0.760257 0.519056
vt 0.760257 0.519056
vt 0.760257 0.519056
vt 0.760257 0.519056
vt 0.760257 0.519056
vt 0.760257 0.519056
vt 0.760257 0.519056
vt 0.760257 0.519056
vt 0.760257 0.519056
vt 0.760257 0.519056
vt 0.760257 0.519056
vt 0.760257 0.519056
vt 0.760257 0.519056
vt 0.760257 0.519056
vt 0.760257 0.519056
vt 0.760257 0.519056
vt 0.760257 0.519056
vt 0.760257 0.519056
vt 0.760257 0.519056
vt 0.760257 0.519056
vt 0.760257 0.519056
vt 0.760257 0.519056
vt 0.760257 0.519056
vt 0.760257 0.519056
vt 0.760257 0.519056
vt 0.760257 0.519056
vt 0.760257 0.519056
vt 0.760257 0.519056
vt 0.760257 0.519056
vt 0.760257 0.519056
vt 0.760257 0.519056
vt 0.760257 0.519056
vt 0.760257 0.519056
vt 0.760257 0.519056
vt 0.760786 0.543153
vt 0.760786 0.543153
vt 0.760786 0.543153
vt 0.760786 0.543153
vt 0.760786 0.543153
vt 0.760786 0.543153
vt 0.760786 0.543153
vt 0.760786 0.543153
vt 0.760786 0.543153
vt 0.760786 0.543153
vt 0.760786 0.543153
vt 0.760786 0.543153
vt 0.760786 0.543153
vt 0.760786 0.543153
vt 0.760786 0.543153
vt 0.760786 0.543153
vt 0.760786 0.543153
vt 0.760786 0.543153
vt 0.760786 0.543153
vt 0.760786 0.543153
vt 0.760786 0.543153
vt 0.760786 0.543153
vt 0.760786 0.543153
vt 0.760786 0.543153
vt 0.760786 0.543153
vt 0.760786 0.543153
vt 0.760786 0.543153
vt 0.760786 0.543153
vt 0.760786 0.543153
vt 0.760786 0.543153
vt 0.760786 0.543153
vt 0.760786 0.543153
vt 0.760786 0.543153
vt 0.760786 0.543153
vt 0.760786 0.543153
vt 0.760786 0.543153
vt 0.760786 0.543153
vt 0.760786 0.543153
vt 0.760786 0.543153
vt 0.760786 0.543153
vt 0.760786 0.543153
vt 0.760786 0.543153
vt 0.760786 0.543153
vt 0.760786 0.543153
vt 0.760786 0.543153
vt 0.760786 0.543153
vt 0.760786 0.543153
vt 0.760786 0.543153
vt 0.760786 0.543153
vt 0.760786 0.543153
vt 0.760786 0.543153
vt 0.760786 0.543153
vt 0.760786 0.543153
vt 0.760786 0.543153
vt 0.760786 0.543153
vt 0.760786 0.543153
vt 0.760786 0.543153
vt 0.760786 0.543153
vt 0.760786 0.543153
vt 0.760786 0.543153
vt 0.760257 0.519056
vt 0.760257 0.519056
vt 0.760257 0.519056
vt 0.760257 0.519056
vt 0.760257 0.519056
vt 0.760257 0.519056
vt 0.760257 0.519056
vt 0.760257 0.519056
vt 0.760257 0.519056
vt 0.760257 0.519056
vt 0.004740 0.352080
vt 0.004740 0.352080
vt 0.004740 0.352080
vt 0.004740 0.352080
vt 0.004740 0.352080
vt 0.004740 0.352080
vt 0.004740 0.352080
vt 0.004740 0.352080
vt 0.004740 0.352080
vt 0.004740 0.352080
vt 0.004740 0.352080
vt 0.004740 0.352080
vt 0.004740 0.352080
vt 0.004740 0.352080
vt 0.004740 0.352080
vt 0.004740 0.352080
vt 0.004740 0.352080
vt 0.004740 0.352080
vt 0.004740 0.352080
vt 0.004740 0.352080
vt 0.004740 0.352080
vt 0.004740 0.352080
vt 0.004740 0.352080
vt 0.004740 0.352080
vt 0.004740 0.352080
vt 0.004740 0.352080
vt 0.004740 0.352080
vt 0.004740 0.352080
vt 0.004740 0.352080
vt 0.004740 0.352080
vt 0.004740 0.352080
vt 0.004740 0.352080
vt 0.004740 0.352080
vt 0.004740 0.352080
vt 0.004740 0.352080
vt 0.004740 0.352080
vt 0.004740 0.352080
vt 0.004740 0.352080
vt 0.004740 0.352080
vt 0.004740 0.352080
vt 0.004740 0.352080
vt 0.004740 0.352080
vt 0.004740 0.352080
vt 0.004740 0.352080
vt 0.004740 0.352080
vt 0.004740 0.352080
vt 0.004740 0.352080
vt 0.004740 0.352080
vt 0.004740 0.352080
vt 0.004740 0.352080
vt 0.004740 0.352080
vt 0.004740 0.352080
vt 0.004740 0.352080
vt 0.004740 0.352080
vt 0.004740 0.352080
vt 0.004740 0.352080
vt 0.004740 0.352080
vt 0.004740 0.352080
vt 0.004740 0.352080
vt 0.004740 0.352080
vt 0.004740 0.352080
vt 0.004740 0.352080
vt 0.004740 0.352080
vt 0.004740 0.352080
vt 0.004740 0.352080
vt 0.004740 0.352080
vt 0.004740 0.352080
vt 0.004740 0.352080
vt 0.004740 0.352080
vt 0.004740 0.352080
vt 0.004740 0.352080
vt 0.004740 0.352080
vt 0.004740 0.352080
vt 0.004740 0.352080
vt 0.004740 0.352080
vt 0.004740 0.352080
vt 0.004740 0.352080
vt 0.004740 0.352080
vt 0.004740 0.352080
vt 0.004740 0.352080
vt 0.004740 0.352080
vt 0.004740 0.352080
vt 0.004740 0.352080
vt 0.004740 0.352080
vt 0.004740 0.352080
vt 0.004740 0.352080
vt 0.004740 0.352080
vt 0.004740 0.352080
vn 0.059519 -0.115088 0.991571
vn 0.059519 -0.115088 0.991571
vn 0.059519 -0.115088 0.991571
vn 0.059519 -0.115088 0.991571
vn -0.043920 0.998862 0.018601
vn -0.043920 0.998862 0.018601
vn -0.043920 0.998862 0.018601
vn -0.043920 0.998862 0.018601
vn -0.073398 0.114226 -0.990740
vn -0.073398 0.114226 -0.990740
vn -0.073398 0.114226 -0.990740
vn -0.073398 0.114226 -0.990740
vn 0.038110 -0.999090 -0.019161
vn 0.038110 -0.999090 -0.019161
vn 0.038110 -0.999090 -0.019161
vn 0.038110 -0.999090 -0.019161
vn -0.999864 -0.016154 0.003232
vn -0.999864 -0.016154 0.003232
vn -0.999864 -0.016154 0.003232
vn -0.999864 -0.016154 0.003232
vn 0.999943 0.010284 -0.002737
vn 0.999943 0.010284 -0.002737
vn 0.999943 0.010284 -0.002737
vn 0.999943 0.010284 -0.002737
vn 0.075522 0.050506 0.995864
vn 0.075522 0.050506 0.995864
vn 0.075522 0.050506 0.995864
vn 0.075522 0.050506 0.995864
vn -0.025960 0.999655 0.004115
vn -0.025960 0.999655 0.004115
vn -0.025960 0.999655 0.004115
vn -0.025960 0.999655 0.004115
vn -0.049549 -0.051191 -0.997459
vn -0.049549 -0.051191 -0.997459
vn -0.049549 -0.051191 -0.997459
vn -0.049549 -0.051191 -0.997459
vn 0.033381 -0.999432 -0.004600
vn 0.033381 -0.999432 -0.004600
vn 0.033381 -0.999432 -0.004600
vn 0.033381 -0.999432 -0.004600
vn -0.999236 0.039088 0.000576
vn -0.999236 0.039088 0.000576
vn -0.999236 0.039088 0.000576
vn -0.999236 0.039088 0.000576
vn 0.999654 -0.026319 -0.000005
vn 0.999654 -0.026319 -0.000005
vn 0.999654 -0.026319 -0.000005
vn 0.999654 -0.026319 -0.000005
vn 0.896400 0.018141 -0.442875
vn 0.896400 0.018141 -0.442875
vn 0.896400 0.018141 -0.442875
vn 0.896400 0.018141 -0.442875
vn -0.904556 -0.003101 -0.426343
vn -0.904556 -0.003101 -0.426343
vn -0.904556 -0.003101 -0.426343
vn -0.904556 -0.003101 -0.426343
vn 0.000000 -1.000000 0.000000
vn 0.000000 -1.000000 0.000000
vn 0.000000 -1.000000 0.000000
vn 0.000000 -1.000000 0.000000
vn -0.038214 0.017871 -0.999110
vn -0.038214 0.017871 -0.999110
vn -0.038214 0.017871 -0.999110
vn -0.038214 0.017871 -0.999110
vn 0.038416 -0.018035 0.999099
vn 0.038416 -0.018035 0.999099
vn 0.038416 -0.018035 0.999099
vn 0.038416 -0.018035 0.999099
vn -0.896305 -0.019052 0.443028
vn -0.896305 -0.019052 0.443028
vn -0.896305 -0.019052 0.443028
vn -0.896305 -0.019052 0.443028
vn 0.903969 0.002208 0.427592
vn 0.903969 0.002208 0.427592
vn 0.903969 0.002208 0.427592
vn 0.903969 0.002208 0.427592
vn 0.000000 -1.000000 0.000000
vn 0.000000 -1.000000 0.000000
vn 0.000000 -1.000000 0.000000
vn 0.000000 -1.000000 0.000000
vn 0.893438 0.018266 -0.448816
vn 0.893438 0.018266 -0.448816
vn 0.893438 0.018266 -0.448816
vn 0.893438 0.018266 -0.448816
vn -0.900659 -0.009288 -0.434428
vn -0.900659 -0.009288 -0.434428
vn -0.900659 -0.009288 -0.434428
vn -0.900659 -0.009288 -0.434428
vn 0.000000 -1.000000 0.000000
vn 0.000000 -1.000000 0.000000
vn 0.000000 -1.000000 0.000000
vn 0.000000 -1.000000 0.000000
vn -0.032231 0.009486 -0.999435
vn -0.032231 0.009486 -0.999435
vn -0.032231 0.009486 -0.999435
vn -0.032231 0.009486 -0.999435
vn 0.032802 -0.009603 0.999416
vn 0.032802 -0.009603 0.999416
vn 0.032802 -0.009603 0.999416
vn 0.032802 -0.009603 0.999416
vn -0.893578 -0.017135 0.448581
vn -0.893578 -0.017135 0.448581
vn -0.893578 -0.017135 0.448581
vn -0.893578 -0.017135 0.448581
vn 0.900944 0.008584 0.433851
vn 0.900944 0.008584 0.433851
vn 0.900944 0.008584 0.433851
vn 0.900944 0.008584 0.433851
vn 0.000000 -1.000000 0.000000
vn 0.000000 -1.000000 0.000000
vn 0.000000 -1.000000 0.000000
vn 0.000000 -1.000000 0.000000
vn 0.063018 -0.003052 0.998008
vn 0.063018 -0.003052 0.998008
vn 0.063018 -0.003052 0.998008
vn 0.063018 -0.003052 0.998008
vn -0.075908 0.997019 0.013821
vn -0.075908 0.997019 0.013821
vn -0.075908 0.997019 0.013821
vn -0.075908 0.997019 0.013821
vn -0.079882 0.004482 -0.996794
vn -0.079882 0.004482 -0.996794
vn -0.079882 0.004482 -0.996794
vn -0.079882 0.004482 -0.996794
vn 0.054573 -0.998434 -0.012283
vn 0.054573 -0.998434 -0.012283
vn 0.054573 -0.998434 -0.012283
vn 0.054573 -0.998434 -0.012283
vn -0.996093 0.088275 0.002364
vn -0.996093 0.088275 0.002364
vn -0.996093 0.088275 0.002364
vn -0.996093 0.088275 0.002364
vn 0.997454 -0.071299 -0.001419
vn 0.997454 -0.071299 -0.001419
vn 0.997454 -0.071299 -0.001419
vn 0.997454 -0.071299 -0.001419
vn 0.066483 -0.103838 0.992370
vn 0.066483 -0.103838 0.992370
vn 0.066483 -0.103838 0.992370
vn 0.066483 -0.103838 0.992370
vn -0.072887 0.997139 0.020017
vn -0.072887 0.997139 0.020017
vn -0.072887 0.997139 0.020017
vn -0.072887 0.997139 0.020017
vn -0.057261 0.102817 -0.993051
vn -0.057261 0.102817 -0.993051
vn -0.057261 0.102817 -0.993051
vn -0.057261 0.102817 -0.993051
vn 0.089033 -0.995829 -0.019935
vn 0.089033 -0.995829 -0.019935
vn 0.089033 -0.995829 -0.019935
vn 0.089033 -0.995829 -0.019935
vn -0.998799 0.048876 0.003545
vn -0.998799 0.048876 0.003545
vn -0.998799 0.048876 0.003545
vn -0.998799 0.048876 0.003545
vn 0.998889 -0.047066 -0.002499
vn 0.998889 -0.047066 -0.002499
vn 0.998889 -0.047066 -0.002499
vn 0.998889 -0.047066 -0.002499
vn 0.059519 -0.115088 0.991571
vn 0.059519 -0.115088 0.991571
vn 0.059519 -0.115088 0.991571
vn 0.059519 -0.115088 0.991571
vn -0.043920 0.998862 0.018600
vn -0.043920 0.998862 0.018600
vn -0.043920 0.998862 0.018600
vn -0.043920 0.998862 0.018600
vn -0.073397 0.114226 -0.990740
vn -0.073397 0.114226 -0.990740
vn -0.073397 0.114226 -0.990740
vn -0.073397 0.114226 -0.990740
vn 0.038110 -0.999090 -0.019159
vn 0.038110 -0.999090 -0.019159
vn 0.038110 -0.999090 -0.019159
vn 0.038110 -0.999090 -0.019159
vn -0.999864 -0.016154 0.003232
vn -0.999864 -0.016154 0.003232
vn -0.999864 -0.016154 0.003232
vn -0.999864 -0.016154 0.003232
vn 0.999943 0.010284 -0.002737
vn 0.999943 0.010284 -0.002737
vn 0.999943 0.010284 -0.002737
vn 0.999943 0.010284 -0.002737
vn 0.062171 0.005206 0.998052
vn 0.062171 0.005206 0.998052
vn 0.062171 0.005206 0.998052
vn 0.062171 0.005206 0.998052
vn 0.024380 0.999635 0.011685
vn 0.024380 0.999635 0.011685
vn 0.024380 0.999635 0.011685
vn 0.024380 0.999635 0.011685
vn -0.061945 -0.005397 -0.998065
vn -0.061945 -0.005397 -0.998065
vn -0.061945 -0.005397 -0.998065
vn -0.061945 -0.005397 -0.998065
vn -0.018971 -0.999738 -0.012793
vn -0.018971 -0.999738 -0.012793
vn -0.018971 -0.999738 -0.012793
vn -0.018971 -0.999738 -0.012793
vn -0.999621 -0.027419 0.002628
vn -0.999621 -0.027419 0.002628
vn -0.999621 -0.027419 0.002628
vn -0.999621 -0.027419 0.002628
vn 0.999737 0.022856 -0.002132
vn 0.999736 0.022856 -0.002132
vn 0.999736 0.022856 -0.002132
vn 0.999737 0.022856 -0.002132
vn 0.063090 0.067862 0.995698
vn 0.063090 0.067862 0.995698
vn 0.063090 0.067862 0.995698
vn 0.063090 0.067862 0.995698
vn 0.033713 0.999430 0.001703
vn 0.033713 0.999430 0.001703
vn 0.033713 0.999430 0.001703
vn 0.033713 0.999430 0.001703
vn -0.043867 -0.067329 -0.996766
vn -0.043867 -0.067329 -0.996766
vn -0.043867 -0.067329 -0.996766
vn -0.043867 -0.067329 -0.996766
vn -0.016214 -0.999863 -0.003260
vn -0.016214 -0.999863 -0.003260
vn -0.016214 -0.999863 -0.003260
vn -0.016214 -0.999863 -0.003260
vn -0.999845 -0.017570 0.001414
vn -0.999845 -0.017570 0.001414
vn -0.999845 -0.017570 0.001414
vn -0.999845 -0.017570 0.001414
vn 0.999930 0.011766 -0.000967
vn 0.999930 0.011766 -0.000967
vn 0.999930 0.011766 -0.000967
vn 0.999930 0.011766 -0.000967
vn 0.025171 0.061453 0.997792
vn 0.025171 0.061453 0.997793
vn 0.025171 0.061453 0.997792
vn 0.025171 0.061453 0.997792
vn 0.064414 0.997918 -0.003211
vn 0.064414 0.997918 -0.003211
vn 0.064414 0.997918 -0.003211
vn 0.064414 0.997918 -0.003211
vn -0.025893 -0.061264 -0.997786
vn -0.025893 -0.061264 -0.997786
vn -0.025893 -0.061264 -0.997786
vn -0.025893 -0.061264 -0.997786
vn -0.062322 -0.998053 0.002426
vn -0.062322 -0.998053 0.002426
vn -0.062322 -0.998053 0.002426
vn -0.062322 -0.998053 0.002426
vn -0.999998 -0.001789 0.000756
vn -0.999998 -0.001789 0.000756
vn -0.999998 -0.001789 0.000756
vn -0.999998 -0.001789 0.000756
vn 0.999997 0.002379 -0.001105
vn 0.999997 0.002379 -0.001105
vn 0.999997 0.002379 -0.001105
vn 0.999997 0.002379 -0.001105
vn -0.897437 0.015997 0.440853
vn -0.897437 0.015997 0.440852
vn -0.897437 0.015997 0.440852
vn -0.897437 0.015997 0.440853
vn 0.022882 0.002684 0.999735
vn 0.022882 0.002684 0.999735
vn 0.022882 0.002684 0.999735
vn 0.022882 0.002684 0.999735
vn 0.902031 -0.011873 0.431508
vn 0.902031 -0.011873 0.431508
vn 0.902031 -0.011873 0.431508
vn 0.902031 -0.011873 0.431508
vn 0.897005 -0.014875 -0.441770
vn 0.897005 -0.014875 -0.441770
vn 0.897005 -0.014875 -0.441770
vn 0.897005 -0.014875 -0.441770
vn -0.022798 -0.002678 -0.999737
vn -0.022798 -0.002678 -0.999736
vn -0.022798 -0.002678 -0.999736
vn -0.022798 -0.002678 -0.999737
vn -0.902416 0.013852 -0.430644
vn -0.902416 0.013852 -0.430644
vn -0.902416 0.013852 -0.430644
vn -0.902416 0.013852 -0.430644
vn -0.891787 0.016380 0.452158
vn -0.891787 0.016380 0.452158
vn -0.891787 0.016380 0.452158
vn -0.891787 0.016380 0.452158
vn 0.047857 -0.008743 0.998816
vn 0.047857 -0.008743 0.998816
vn 0.047857 -0.008743 0.998816
vn 0.047857 -0.008743 0.998816
vn 0.901479 -0.023447 0.432187
vn 0.901479 -0.023447 0.432187
vn 0.901479 -0.023447 0.432187
vn 0.901479 -0.023447 0.432187
vn 0.891256 -0.017033 -0.453181
vn 0.891256 -0.017033 -0.453181
vn 0.891256 -0.017033 -0.453181
vn 0.891256 -0.017033 -0.453181
vn -0.047528 0.008697 -0.998832
vn -0.047528 0.008697 -0.998832
vn -0.047528 0.008697 -0.998832
vn -0.047528 0.008697 -0.998832
vn -0.900999 0.023950 -0.433159
vn -0.900999 0.023950 -0.433159
vn -0.900999 0.023950 -0.433159
vn -0.900999 0.023950 -0.433159
vn 0.094367 0.995537 0.000291
vn 0.094367 0.995538 0.000291
vn 0.094367 0.995537 0.000291
vn 0.094331 0.995541 0.000364
vn 0.094331 0.995541 0.000364
vn 0.094331 0.995541 0.000364
vn 0.094320 0.995529 -0.005169
vn 0.094320 0.995529 -0.005169
vn 0.094320 0.995529 -0.005169
vn 0.093713 0.995580 -0.006214
vn 0.093713 0.995580 -0.006214
vn 0.093713 0.995580 -0.006214
vn 0.020728 0.999780 -0.003175
vn 0.020728 0.999780 -0.003175
vn 0.020728 0.999780 -0.003175
vn 0.020688 0.999781 -0.003121
vn 0.020688 0.999781 -0.003121
vn 0.020688 0.999781 -0.003121
vn 0.020657 0.999779 -0.003900
vn 0.020657 0.999779 -0.003900
vn 0.020657 0.999779 -0.003900
vn 0.020704 0.999778 -0.003980
vn 0.020704 0.999778 -0.003980
vn 0.020704 0.999778 -0.003980
s off
f 1/1/1 2/2/2 4/3/3 3/4/4
f 3/4/5 4/3/6 6/5/7 5/6/8
f 5/6/9 6/5/10 8/7/11 7/8/12
f 7/8/13 8/7/14 2/9/15 1/10/16
f 3/129/17 5/130/18 7/131/19 1/132/20
f 4/133/21 2/134/22 8/135/23 6/136/24
f 9/11/25 10/12/26 12/13/27 11/14/28
f 11/14/29 12/13/30 14/15/31 13/16/32
f 13/16/33 14/15/34 16/17/35 15/18/36
f 15/18/37 16/17/38 10/19/39 9/20/40
f 11/137/41 13/138/42 15/139/43 9/140/44
f 12/141/45 10/142/46 16/143/47 14/144/48
f 88/21/49 83/22/50 92/23/51 93/24/52
f 94/25/53 89/26/54 86/27/55 87/28/56
f 22/145/57 21/146/58 20/147/59 18/148/60
f 93/24/61 94/31/62 87/32/63 88/21/64
f 90/33/65 91/34/66 84/35/67 85/36/68
f 85/37/69 86/27/70 89/26/71 90/38/72
f 91/34/73 92/23/74 83/22/75 84/35/76
f 19/149/77 21/146/78 22/145/79 17/150/80
f 79/40/81 80/41/82 98/42/83 99/43/84
f 100/44/85 95/45/86 77/46/87 78/47/88
f 28/151/89 27/152/90 26/153/91 24/154/92
f 99/43/93 100/50/94 78/51/95 79/40/96
f 96/52/97 97/53/98 81/54/99 82/55/100
f 82/56/101 77/46/102 95/45/103 96/57/104
f 97/53/105 98/42/106 80/41/107 81/54/108
f 25/155/109 27/152/110 28/151/111 23/156/112
f 29/59/113 30/60/114 32/61/115 31/62/116
f 31/62/117 32/61/118 34/63/119 33/64/120
f 33/64/121 34/63/122 36/65/123 35/66/124
f 35/66/125 36/65/126 30/67/127 29/68/128
f 31/157/129 33/158/130 35/159/131 29/160/132
f 32/161/133 30/162/134 36/163/135 34/164/136
f 37/69/137 38/70/138 40/71/139 39/72/140
f 39/72/141 40/71/142 42/73/143 41/74/144
f 41/74/145 42/73/146 44/75/147 43/76/148
f 43/76/149 44/75/150 38/77/151 37/78/152
f 39/165/153 41/166/154 43/167/155 37/168/156
f 40/169/157 38/170/158 44/171/159 42/172/160
f 45/79/161 46/80/162 48/81/163 47/82/164
f 47/82/165 48/81/166 50/83/167 49/84/168
f 49/84/169 50/83/170 52/85/171 51/86/172
f 51/86/173 52/85/174 46/87/175 45/88/176
f 47/173/177 49/174/178 51/175/179 45/176/180
f 48/177/181 46/178/182 52/179/183 50/180/184
f 53/89/185 54/90/186 56/91/187 55/92/188
f 55/92/189 56/91/190 58/93/191 57/94/192
f 57/94/193 58/93/194 60/95/195 59/96/196
f 59/96/197 60/95/198 54/97/199 53/98/200
f 55/181/201 57/182/202 59/183/203 53/184/204
f 56/185/205 54/186/206 60/187/207 58/188/208
f 61/99/209 62/100/210 64/101/211 63/102/212
f 63/102/213 64/101/214 66/103/215 65/104/216
f 65/104/217 66/103/218 68/105/219 67/106/220
f 67/106/221 68/105/222 62/107/223 61/108/224
f 63/189/225 65/190/226 67/191/227 61/192/228
f 64/193/229 62/194/230 68/195/231 66/196/232
f 69/109/233 70/110/234 72/111/235 71/112/236
f 71/112/237 72/111/238 74/113/239 73/114/240
f 73/114/241 74/113/242 76/115/243 75/116/244
f 75/116/245 76/115/246 70/117/247 69/118/248
f 71/197/249 73/198/250 75/199/251 69/200/252
f 72/201/253 70/202/254 76/203/255 74/204/256
f 90/38/257 89/26/258 21/29/259 19/39/260
f 19/119/261 17/120/262 91/34/263 90/33/264
f 17/120/265 22/121/266 92/23/267 91/34/268
f 93/24/269 92/23/270 22/121/271 18/122/272
f 18/122/273 20/123/274 94/31/275 93/24/276
f 21/29/277 89/26/278 94/25/279 20/30/280
f 96/57/281 95/45/282 27/48/283 25/58/284
f 25/124/285 23/125/286 97/53/287 96/52/288
f 23/125/289 28/126/290 98/42/291 97/53/292
f 99/43/293 98/42/294 28/126/295 24/127/296
f 24/127/297 26/128/298 100/50/299 99/43/300
f 27/48/301 95/45/302 100/44/303 26/49/304
f 79/205/305 78/206/306 80/210/307
f 78/206/308 77/207/309 80/210/310
f 77/207/311 82/208/312 80/210/313
f 82/208/314 81/209/315 80/210/316
f 88/211/317 87/212/318 83/216/319
f 87/212/320 86/213/321 83/216/322
f 83/216/323 86/213/324 84/215/325
f 86/213/326 85/214/327 84/215/328
