# This file uses centimeters as units for non-parametric coordinates.

v -79.882088 110.256973 -9.224777
v 79.882088 110.256973 -9.224777
v -79.882088 110.256973 -19.639496
v 79.882088 110.256973 -19.639496
v 69.943939 110.256973 -9.224777
v 48.338768 110.256973 -9.224777
v 58.096062 110.256973 -19.639496
v 38.785351 110.256973 -9.224777
v 19.420856 110.256973 -9.224777
v 29.048027 110.256973 -19.639496
v 9.655110 110.206039 -9.224777
v -10.324724 109.381897 -9.224777
v -0.258634 109.962372 -19.639496
v -20.506828 109.164642 -9.224777
v -38.757572 109.803108 -9.224777
v -29.653742 109.567017 -19.639496
v -48.732460 110.193802 -9.224777
v -69.483177 110.256973 -9.224777
v -58.096069 110.256973 -19.639496
v 49.471165 109.687851 -2.640518
v 68.222366 109.687851 -2.640518
v 20.612169 109.687851 -2.640518
v 37.614582 109.687851 -2.640518
v -9.165238 108.910942 -2.640518
v 8.605463 109.630775 -2.640518
v -37.628529 109.111435 -2.640518
v -21.704329 108.595520 -2.640518
v -68.115265 109.687851 -2.640518
v -49.700142 109.629326 -2.640518
v -79.882088 105.408936 -9.224777
v -69.483177 105.408936 -9.224777
v -58.096069 105.408936 -19.639496
v -79.882088 105.408936 -19.639496
v 69.943939 105.408936 -9.224777
v 79.882088 105.408936 -9.224777
v 79.882088 105.408936 -19.639496
v 48.338768 105.408936 -9.224777
v 58.096062 105.408936 -19.639496
v 38.785351 105.408936 -9.224777
v 19.420856 105.408936 -9.224777
v 29.048027 105.408936 -19.639496
v 9.655110 105.358009 -9.224777
v -10.324724 104.533859 -9.224777
v -0.258634 105.114334 -19.639496
v -20.506828 104.316612 -9.224777
v -38.757572 104.955070 -9.224777
v -29.653742 104.718979 -19.639496
v -48.732460 105.345772 -9.224777
v 49.471165 105.978065 -2.640518
v 68.222366 105.978065 -2.640518
v 20.612169 105.978065 -2.640518
v 37.614582 105.978065 -2.640518
v -9.165238 105.201157 -2.640518
v 8.605463 105.920990 -2.640518
v -37.628529 105.401649 -2.640518
v -21.704329 104.885735 -2.640518
v -68.115265 105.978065 -2.640518
v -49.700142 105.919540 -2.640518
v -87.857033 0.000000 22.644562
v 87.857033 0.000000 22.644562
v -87.857033 6.720801 22.644562
v 87.857033 6.720801 22.644562
v -87.857033 6.720801 -22.644562
v 87.857033 6.720801 -22.644562
v -87.857033 0.000000 -22.644562
v 87.857033 0.000000 -22.644562
v 79.017113 115.002747 -2.396759
v 79.017113 6.720802 19.642349
v 85.737907 115.002747 -2.396759
v 85.737907 6.720802 19.642349
v 85.737907 115.002747 -19.642349
v 85.737907 6.720802 -19.642349
v 79.017113 115.002747 -19.642349
v 79.017113 6.720802 -19.642349
v -86.187424 115.002747 -2.396759
v -86.187424 6.720802 19.642349
v -79.466621 115.002747 -2.396759
v -79.466621 6.720802 19.642349
v -79.466621 115.002747 -19.642349
v -79.466621 6.720802 -19.642349
v -86.187424 115.002747 -19.642349
v -86.187424 6.720802 -19.642349
v -86.187424 36.999584 13.479568
v -79.466621 35.838596 10.807983
v -79.466621 36.999584 -19.642349
v -86.187424 36.999584 -19.642349
v -52.293976 6.720800 20.671936
v -48.884853 6.720800 -22.644562
v -48.884853 0.000000 -22.644562
v -48.884853 0.000000 22.644562
v 44.267422 6.720801 18.366104
v 46.734810 6.720800 -19.277359
v 43.986984 0.000000 -22.644562
v 43.986984 0.000000 22.644562
v 79.017113 34.567497 13.974594
v 85.737907 34.567497 13.974594
v 85.737907 34.567497 -19.642349
v 79.017113 34.567497 -19.642349
v 79.017113 83.663338 3.981888
v 85.737900 82.098091 2.021255
v 85.737900 83.663338 -19.642365
v 79.017113 83.663338 -19.642365
v -86.187424 92.728630 2.136795
v -86.187424 53.390625 10.143417
v -86.187424 61.248863 3.016495
v -83.277191 64.212288 7.699738
v 20.723577 6.720800 22.167938
v 61.986290 6.720800 22.644562
v 43.986984 2.693791 22.644562
vt 0.210740 0.255887
vt 0.210740 0.255887
vt 0.210740 0.255887
vt 0.210740 0.255887
vt 0.210740 0.255887
vt 0.210740 0.255887
vt 0.210740 0.255887
vt 0.210740 0.255887
vt 0.210740 0.255887
vt 0.210740 0.255887
vt 0.210740 0.255887
vt 0.210740 0.255887
vt 0.210740 0.255887
vt 0.210740 0.255887
vt 0.210740 0.255887
vt 0.210740 0.255887
vt 0.210740 0.255887
vt 0.210740 0.255887
vt 0.210740 0.255887
vt 0.210740 0.255887
vt 0.210740 0.255887
vt 0.210740 0.255887
vt 0.210740 0.255887
vt 0.210740 0.255887
vt 0.210740 0.255887
vt 0.210740 0.255887
vt 0.210740 0.255887
vt 0.210740 0.255887
vt 0.210740 0.255887
vt 0.210740 0.255887
vt 0.210740 0.255887
vt 0.210740 0.255887
vt 0.210740 0.255887
vt 0.210740 0.255887
vt 0.210740 0.255887
vt 0.210740 0.255887
vt 0.210740 0.255887
vt 0.210740 0.255887
vt 0.210740 0.255887
vt 0.210740 0.255887
vt 0.210740 0.255887
vt 0.210740 0.255887
vt 0.210740 0.255887
vt 0.210740 0.255887
vt 0.210740 0.255887
vt 0.210740 0.255887
vt 0.210740 0.255887
vt 0.210740 0.255887
vt 0.210740 0.255887
vt 0.210740 0.255887
vt 0.210740 0.255887
vt 0.210740 0.255887
vt 0.210740 0.255887
vt 0.210740 0.255887
vt 0.210740 0.255887
vt 0.210740 0.255887
vt 0.210740 0.255887
vt 0.210740 0.255887
vt 0.210740 0.255887
vt 0.210740 0.255887
vt 0.210740 0.255887
vt 0.210740 0.255887
vt 0.210740 0.255887
vt 0.210740 0.255887
vt 0.210740 0.255887
vt 0.210740 0.255887
vt 0.210740 0.255887
vt 0.210740 0.255887
vt 0.210740 0.255887
vt 0.210740 0.255887
vt 0.210740 0.255887
vt 0.210740 0.255887
vt 0.210740 0.255887
vt 0.210740 0.255887
vt 0.210740 0.255887
vt 0.210740 0.255887
vt 0.210740 0.255887
vt 0.210740 0.255887
vt 0.210740 0.255887
vt 0.210740 0.255887
vt 0.210740 0.255887
vt 0.210740 0.255887
vt 0.210740 0.255887
vt 0.210740 0.255887
vt 0.210740 0.255887
vt 0.210740 0.255887
vt 0.210740 0.255887
vt 0.210740 0.255887
vt 0.210740 0.255887
vt 0.210740 0.255887
vt 0.210740 0.255887
vt 0.210740 0.255887
vt 0.210740 0.255887
vt 0.210740 0.255887
vt 0.210740 0.255887
vt 0.210740 0.255887
vt 0.210740 0.255887
vt 0.210740 0.255887
vt 0.210740 0.255887
vt 0.210740 0.255887
vt 0.210740 0.255887
vt 0.210740 0.255887
vt 0.210740 0.255887
vt 0.210740 0.255887
vt 0.210740 0.255887
vt 0.210740 0.255887
vt 0.210740 0.255887
vt 0.210740 0.255887
vt 0.210740 0.255887
vt 0.210740 0.255887
vt 0.210740 0.255887
vt 0.210740 0.255887
vt 0.210740 0.255887
vt 0.210740 0.255887
vt 0.210740 0.255887
vt 0.210740 0.255887
vt 0.210740 0.255887
vt 0.210740 0.255887
vt 0.210740 0.255887
vt 0.210740 0.255887
vt 0.210740 0.255887
vt 0.210740 0.255887
vt 0.210740 0.255887
vt 0.210740 0.255887
vt 0.210740 0.255887
vt 0.210740 0.255887
vt 0.210740 0.255887
vt 0.210740 0.255887
vt 0.210740 0.255887
vt 0.210740 0.255887
vt 0.210740 0.255887
vt 0.210740 0.255887
vt 0.210740 0.255887
vt 0.210740 0.255887
vt 0.210740 0.255887
vt 0.210740 0.255887
vt 0.210740 0.255887
vt 0.210740 0.255887
vt 0.210740 0.255887
vt 0.210740 0.255887
vt 0.210740 0.255887
vt 0.210740 0.255887
vt 0.210740 0.255887
vt 0.210740 0.255887
vt 0.210740 0.255887
vt 0.210740 0.255887
vt 0.210740 0.255887
vt 0.210740 0.255887
vt 0.210740 0.255887
vt 0.210740 0.255887
vt 0.210740 0.255887
vt 0.210740 0.255887
vt 0.210740 0.255887
vt 0.210740 0.255887
vt 0.210740 0.255887
vt 0.210740 0.255887
vt 0.210740 0.255887
vt 0.210740 0.255887
vt 0.210740 0.255887
vt 0.210740 0.255887
vt 0.210740 0.255887
vt 0.210740 0.255887
vt 0.210740 0.255887
vt 0.210740 0.255887
vt 0.210740 0.255887
vt 0.210740 0.255887
vt 0.210740 0.255887
vt 0.210740 0.255887
vt 0.210740 0.255887
vt 0.210740 0.255887
vt 0.210740 0.255887
vt 0.210740 0.255887
vt 0.210740 0.255887
vt 0.210740 0.255887
vt 0.210740 0.255887
vt 0.210740 0.255887
vt 0.210740 0.255887
vt 0.210740 0.255887
vt 0.210740 0.255887
vt 0.210740 0.255887
vt 0.210740 0.255887
vt 0.210740 0.255887
vt 0.210740 0.255887
vt 0.210740 0.255887
vt 0.210740 0.255887
vt 0.210740 0.255887
vt 0.210740 0.255887
vt 0.210740 0.255887
vt 0.210740 0.255887
vt 0.210740 0.255887
vt 0.210740 0.255887
vt 0.210740 0.255887
vt 0.210740 0.255887
vt 0.210740 0.255887
vn 0.000000 -1.000000 0.000000
vn 0.000000 -1.000000 0.000000
vn 0.000000 -1.000000 0.000000
vn 0.000000 -1.000000 0.000000
vn 0.000000 -1.000000 0.000000
vn 0.000000 -1.000000 0.000000
vn 0.000000 -1.000000 0.000000
vn 0.000000 -1.000000 0.000000
vn 0.000000 -1.000000 0.000000
vn 0.000000 -1.000000 0.000000
vn 0.000000 -1.000000 0.000000
vn 0.000000 -1.000000 0.000000
vn 0.000000 -1.000000 0.000000
vn 0.000000 -1.000000 0.000000
vn 0.000000 -1.000000 0.000000
vn 0.000000 -1.000000 0.000000
vn 0.000000 -1.000000 0.000000
vn 0.000000 -1.000000 0.000000
vn 0.008842 -0.999894 0.011575
vn 0.008842 -0.999894 0.011575
vn 0.008842 -0.999894 0.011575
vn 0.008842 -0.999894 0.011575
vn 0.041209 -0.999025 -0.015852
vn 0.041209 -0.999025 -0.015852
vn 0.041209 -0.999025 -0.015852
vn 0.015460 -0.998801 -0.046447
vn 0.015460 -0.998801 -0.046447
vn 0.015460 -0.998801 -0.046447
vn 0.015460 -0.998801 -0.046447
vn -0.034960 -0.999357 -0.007904
vn -0.034960 -0.999357 -0.007904
vn -0.034960 -0.999358 -0.007904
vn -0.028117 -0.999567 0.008649
vn -0.028117 -0.999567 0.008649
vn -0.028117 -0.999567 0.008649
vn -0.028117 -0.999567 0.008649
vn -0.003044 -0.999990 -0.003328
vn -0.003044 -0.999990 -0.003328
vn -0.003044 -0.999990 -0.003328
vn 0.000000 -0.996285 0.086116
vn 0.000000 -0.996285 0.086116
vn 0.000000 -0.996285 0.086116
vn 0.000000 -0.996285 0.086116
vn 0.000000 -0.996285 0.086118
vn 0.000000 -0.996285 0.086118
vn 0.000000 -0.996285 0.086118
vn 0.000000 -0.996285 0.086118
vn 0.040690 -0.994871 0.092606
vn 0.040690 -0.994871 0.092606
vn 0.040690 -0.994871 0.092606
vn 0.040690 -0.994871 0.092606
vn -0.033660 -0.996487 0.076686
vn -0.033660 -0.996487 0.076686
vn -0.033660 -0.996487 0.076686
vn -0.033660 -0.996487 0.076686
vn -0.003095 -0.996242 0.086559
vn -0.003095 -0.996242 0.086559
vn -0.003095 -0.996242 0.086559
vn -0.003095 -0.996242 0.086559
vn 0.000000 1.000000 0.000000
vn 0.000000 1.000000 0.000000
vn 0.000000 1.000000 0.000000
vn 0.000000 1.000000 0.000000
vn 0.000000 1.000000 0.000000
vn 0.000000 1.000000 0.000000
vn 0.000000 1.000000 0.000000
vn 0.000000 1.000000 0.000000
vn 0.000000 1.000000 0.000000
vn 0.000000 1.000000 0.000000
vn 0.000000 1.000000 0.000000
vn 0.000000 1.000000 -0.000001
vn 0.000000 1.000000 -0.000001
vn 0.000000 1.000000 -0.000001
vn 0.000000 1.000000 -0.000001
vn 0.000000 1.000000 -0.000001
vn 0.000000 1.000000 -0.000001
vn 0.000000 1.000000 -0.000001
vn -0.008843 0.999894 -0.011574
vn -0.008843 0.999894 -0.011574
vn -0.008843 0.999894 -0.011574
vn -0.008843 0.999894 -0.011574
vn -0.041208 0.999025 0.015851
vn -0.041208 0.999025 0.015851
vn -0.041208 0.999025 0.015851
vn -0.015460 0.998801 0.046445
vn -0.015460 0.998801 0.046445
vn -0.015460 0.998801 0.046445
vn -0.015460 0.998801 0.046445
vn 0.034960 0.999357 0.007906
vn 0.034960 0.999357 0.007906
vn 0.034960 0.999357 0.007906
vn 0.028117 0.999567 -0.008648
vn 0.028117 0.999567 -0.008648
vn 0.028117 0.999567 -0.008648
vn 0.028117 0.999567 -0.008648
vn 0.003044 0.999990 0.003328
vn 0.003044 0.999990 0.003328
vn 0.003044 0.999990 0.003328
vn 0.000000 0.996285 0.086115
vn 0.000000 0.996285 0.086115
vn 0.000000 0.996285 0.086115
vn 0.000000 0.996285 0.086115
vn 0.000000 0.996285 0.086116
vn 0.000000 0.996285 0.086116
vn 0.000000 0.996285 0.086116
vn 0.000000 0.996285 0.086116
vn -0.040736 0.996005 0.079471
vn -0.040736 0.996004 0.079471
vn -0.040736 0.996005 0.079471
vn -0.040736 0.996004 0.079471
vn 0.033605 0.994869 0.095426
vn 0.033605 0.994869 0.095426
vn 0.033605 0.994869 0.095426
vn 0.033605 0.994869 0.095426
vn 0.003096 0.996319 0.085673
vn 0.003096 0.996319 0.085673
vn 0.003096 0.996318 0.085673
vn 0.003096 0.996319 0.085673
vn 0.000000 0.000000 1.000000
vn 0.000000 0.000000 1.000000
vn 0.000000 0.000000 1.000000
vn 0.000000 0.000000 1.000000
vn 0.000000 0.000000 -1.000000
vn 0.000000 0.000000 -1.000000
vn 0.000000 0.000000 -1.000000
vn 0.000000 0.000000 -1.000000
vn -1.000000 0.000000 0.000000
vn -1.000000 0.000000 0.000000
vn -1.000000 0.000000 0.000000
vn -1.000000 0.000000 0.000000
vn 0.000000 0.000000 1.000000
vn 0.000000 0.000000 1.000000
vn 0.000000 0.000000 1.000000
vn 0.000000 0.000000 1.000000
vn 1.000000 0.000000 0.000000
vn 1.000000 0.000000 0.000000
vn 1.000000 0.000000 0.000000
vn 1.000000 0.000000 0.000000
vn 0.000000 0.000000 -1.000000
vn 0.000000 0.000000 -1.000000
vn 0.000000 0.000000 -1.000000
vn 0.000000 0.000000 -1.000000
vn 0.000000 0.000000 1.000000
vn 0.000000 0.000000 1.000000
vn 0.000000 0.000000 1.000000
vn 0.000000 0.000000 1.000000
vn 0.000000 0.000000 -1.000000
vn 0.000000 0.000000 -1.000000
vn 0.000000 0.000000 -1.000000
vn 0.000000 0.000000 -1.000000
vn -0.000001 0.000000 1.000000
vn -0.000001 0.000000 1.000000
vn -0.000001 0.000000 1.000000
vn -0.000001 0.000000 1.000000
vn -0.000000 0.000000 -1.000000
vn -0.000000 0.000000 -1.000000
vn -0.000000 0.000000 -1.000000
vn -0.000000 0.000000 -1.000000
vn -0.000001 0.000000 1.000000
vn -0.000001 0.000000 1.000000
vn -0.000001 0.000000 1.000000
vn -0.000001 0.000000 1.000000
vn 0.000000 0.000000 -1.000000
vn 0.000000 0.000000 -1.000000
vn 0.000000 0.000000 -1.000000
vn 0.000000 0.000000 -1.000000
vn -0.000000 0.000000 1.000000
vn -0.000000 0.000000 1.000000
vn -0.000000 0.000000 1.000000
vn -0.000000 0.000000 1.000000
vn 0.000000 0.000000 -1.000000
vn 0.000000 0.000000 -1.000000
vn 0.000000 0.000000 -1.000000
vn 0.000000 0.000000 -1.000000
vn -0.985531 0.000000 0.169497
vn -0.985531 0.000000 0.169497
vn -0.985531 0.000000 0.169497
vn -0.985531 0.000000 0.169497
vn 0.000000 0.000000 1.000000
vn 0.000000 0.000000 1.000000
vn 0.000000 0.000000 1.000000
vn 0.000000 0.000000 1.000000
vn 0.967476 0.000000 0.252964
vn 0.967476 0.000000 0.252964
vn 0.967476 0.000000 0.252964
vn 0.967476 0.000000 0.252964
vn -0.984023 0.000000 0.178043
vn -0.984023 0.000000 0.178043
vn -0.984023 0.000000 0.178043
vn -0.984023 0.000000 0.178043
vn 0.000000 0.000000 1.000000
vn 0.000000 0.000000 1.000000
vn 0.000000 0.000000 1.000000
vn 0.000000 0.000000 1.000000
vn 0.984556 0.000000 0.175067
vn 0.984556 0.000000 0.175067
vn 0.984556 0.000000 0.175067
vn 0.984557 0.000000 0.175067
vn -0.984846 0.000000 0.173432
vn -0.984846 0.000000 0.173432
vn -0.984846 0.000000 0.173432
vn -0.984846 0.000000 0.173432
vn 0.000000 0.000000 1.000000
vn 0.000000 0.000000 1.000000
vn 0.000000 0.000000 1.000000
vn 0.000000 0.000000 1.000000
vn 0.987530 0.000000 0.157430
vn 0.987530 0.000000 0.157430
vn 0.987530 0.000000 0.157430
vn 0.987530 0.000000 0.157430
vn -0.985614 0.000000 0.169010
vn -0.985614 0.000000 0.169010
vn -0.985614 0.000000 0.169010
vn -0.985614 0.000000 0.169010
vn 0.000000 0.000000 1.000000
vn 0.000000 0.000000 1.000000
vn 0.000000 0.000000 1.000000
vn 0.000000 0.000000 1.000000
vn 0.983860 0.000000 0.178938
vn 0.983860 0.000000 0.178938
vn 0.983860 0.000000 0.178938
vn 0.983860 0.000000 0.178938
vn -0.979093 0.000000 0.203412
vn -0.979093 0.000000 0.203412
vn -0.979093 0.000000 0.203412
vn -0.979093 0.000000 0.203412
vn -0.000000 0.000000 1.000000
vn -0.000000 0.000000 1.000000
vn -0.000000 0.000000 1.000000
vn -0.000000 0.000000 1.000000
vn 0.989372 0.000000 0.145407
vn 0.989372 0.000000 0.145407
vn 0.989372 0.000000 0.145407
vn 0.989372 0.000000 0.145407
vn 0.026150 0.151640 0.988090
vn 0.026150 0.151640 0.988090
vn 0.026150 0.151640 0.988090
vn 0.026150 0.151640 0.988090
vn 0.000000 1.000000 0.000000
vn 0.000000 1.000000 0.000000
vn 0.000000 1.000000 0.000000
vn 0.000000 1.000000 0.000000
vn 0.000000 0.000000 -1.000000
vn 0.000000 0.000000 -1.000000
vn 0.000000 0.000000 -1.000000
vn 0.000000 0.000000 -1.000000
vn 0.000000 -1.000000 0.000000
vn 0.000000 -1.000000 0.000000
vn 0.000000 -1.000000 0.000000
vn 0.000000 -1.000000 0.000000
vn 1.000000 0.000000 0.000000
vn 1.000000 0.000000 0.000000
vn 1.000000 0.000000 0.000000
vn 1.000000 0.000000 0.000000
vn -1.000000 0.000000 0.000000
vn -1.000000 0.000000 0.000000
vn -1.000000 0.000000 0.000000
vn -1.000000 0.000000 0.000000
vn 0.161018 0.163570 0.973303
vn 0.161018 0.163570 0.973303
vn 0.161018 0.163570 0.973303
vn 0.161018 0.163570 0.973303
vn 1.000000 -0.000000 -0.000000
vn 1.000000 -0.000000 -0.000000
vn 1.000000 -0.000000 -0.000000
vn 1.000000 -0.000000 -0.000000
vn 0.000000 0.000000 -1.000000
vn 0.000000 0.000000 -1.000000
vn 0.000000 0.000000 -1.000000
vn 0.000000 0.000000 -1.000000
vn -1.000000 0.000000 0.000000
vn -1.000000 0.000000 0.000000
vn -1.000000 0.000000 0.000000
vn -1.000000 0.000000 0.000000
vn 0.000000 -1.000000 0.000000
vn 0.000000 -1.000000 0.000000
vn 0.000000 -1.000000 0.000000
vn 0.000000 -1.000000 0.000000
vn 0.000000 1.000000 0.000000
vn 0.000000 1.000000 0.000000
vn 0.000000 1.000000 0.000000
vn 0.000000 1.000000 0.000000
vn 0.012967 0.195671 0.980584
vn 0.012967 0.195671 0.980584
vn 0.012967 0.195671 0.980584
vn 0.012967 0.195671 0.980584
vn 1.000000 -0.000000 0.000000
vn 1.000000 -0.000000 0.000000
vn 1.000000 -0.000000 0.000000
vn 1.000000 -0.000000 0.000000
vn 0.000000 0.000000 -1.000000
vn 0.000000 0.000000 -1.000000
vn 0.000000 0.000000 -1.000000
vn 0.000000 0.000000 -1.000000
vn -1.000000 0.000000 0.000000
vn -1.000000 0.000000 0.000000
vn -1.000000 0.000000 0.000000
vn -1.000000 0.000000 0.000000
vn 0.000000 -1.000000 0.000000
vn 0.000000 -1.000000 0.000000
vn 0.000000 -1.000000 0.000000
vn 0.000000 -1.000000 0.000000
vn 0.000000 1.000000 0.000000
vn 0.000000 1.000000 0.000000
vn 0.000000 1.000000 0.000000
vn 0.000000 1.000000 0.000000
vn 0.209125 0.239396 0.948133
vn 0.209125 0.239396 0.948133
vn 0.209125 0.239396 0.948133
vn 0.209125 0.239396 0.948133
vn 1.000000 0.000000 0.000000
vn 1.000000 0.000000 0.000000
vn 1.000000 0.000000 0.000000
vn 1.000000 0.000000 0.000000
vn 0.000000 0.000000 -1.000000
vn 0.000000 0.000000 -1.000000
vn 0.000000 0.000000 -1.000000
vn 0.000000 0.000000 -1.000000
vn -1.000000 -0.000000 0.000000
vn -1.000000 -0.000000 0.000000
vn -1.000000 -0.000000 0.000000
vn -1.000000 -0.000000 0.000000
vn -0.000000 1.000000 -0.000000
vn -0.000000 1.000000 -0.000000
vn -0.000000 1.000000 -0.000000
vn -0.000000 1.000000 -0.000000
vn -0.000000 1.000000 -0.000000
vn 0.017341 0.239624 -0.970711
vn 0.017341 0.239624 -0.970711
vn 0.017341 0.239624 -0.970711
vn 0.017341 0.239624 -0.970711
vn 0.000000 -1.000000 0.000000
vn 0.000000 -1.000000 0.000000
vn 0.000000 -1.000000 0.000000
vn 0.000000 -1.000000 0.000000
vn -0.009514 0.153719 0.988069
vn -0.009514 0.153719 0.988069
vn -0.009514 0.153719 0.988069
vn -0.009514 0.153719 0.988069
vn -0.009514 0.153719 0.988069
vn -0.000000 1.000000 -0.000000
vn -0.000000 1.000000 -0.000000
vn -0.000000 1.000000 -0.000000
vn -0.000000 1.000000 -0.000000
vn -0.000000 1.000000 -0.000000
vn -0.038328 0.250185 -0.967439
vn -0.038328 0.250185 -0.967439
vn -0.038328 0.250185 -0.967439
vn -0.038328 0.250185 -0.967439
vn 0.000000 -1.000000 0.000000
vn 0.000000 -1.000000 0.000000
vn 0.000000 -1.000000 0.000000
vn 0.000000 -1.000000 0.000000
vn -0.000000 0.000000 1.000000
vn -0.000000 0.000000 1.000000
vn -0.000000 0.000000 1.000000
vn -0.000000 0.000000 1.000000
vn -0.000000 0.000000 1.000000
vn 0.000000 0.199445 0.979909
vn 0.000000 0.199445 0.979909
vn 0.000000 0.199445 0.979909
vn 0.000000 0.199445 0.979909
vn 1.000000 0.000000 0.000000
vn 1.000000 0.000000 0.000000
vn 1.000000 0.000000 0.000000
vn 1.000000 0.000000 0.000000
vn 0.000000 0.000000 -1.000000
vn 0.000000 0.000000 -1.000000
vn 0.000000 0.000000 -1.000000
vn 0.000000 0.000000 -1.000000
vn -1.000000 0.000000 0.000000
vn -1.000000 0.000000 0.000000
vn -1.000000 0.000000 0.000000
vn -1.000000 0.000000 0.000000
vn 0.165708 0.218420 0.961683
vn 0.165708 0.218420 0.961683
vn 0.165708 0.218420 0.961683
vn 0.165708 0.218420 0.961683
vn 1.000000 0.000000 0.000000
vn 1.000000 0.000000 0.000000
vn 1.000000 0.000000 0.000000
vn 1.000000 0.000000 0.000000
vn 0.000000 -0.000000 -1.000000
vn 0.000000 -0.000000 -1.000000
vn 0.000000 -0.000000 -1.000000
vn 0.000000 -0.000000 -1.000000
vn -1.000000 0.000000 0.000000
vn -1.000000 0.000000 0.000000
vn -1.000000 0.000000 0.000000
vn -1.000000 0.000000 0.000000
vn -0.853380 0.014562 0.521085
vn -0.853380 0.014562 0.521085
vn -0.853380 0.014562 0.521085
vn 0.387636 0.151664 0.909250
vn 0.387636 0.151664 0.909250
vn 0.387636 0.151664 0.909250
vn 0.331192 0.162012 0.929550
vn 0.331192 0.162012 0.929550
vn 0.331192 0.162012 0.929550
vn 0.331192 0.162012 0.929550
vn -0.882466 0.315999 0.348424
vn -0.882466 0.315999 0.348424
vn -0.882466 0.315999 0.348424
vn -1.000000 -0.000000 0.000000
vn -1.000000 -0.000000 0.000000
vn -1.000000 -0.000000 0.000000
vn -1.000000 -0.000000 0.000000
vn -1.000000 -0.000000 0.000000
vn -0.161946 0.723844 0.670689
vn -0.161946 0.723844 0.670689
vn -0.161946 0.723844 0.670689
vn 0.110615 0.720083 0.685014
vn 0.110615 0.720083 0.685014
vn 0.110615 0.720083 0.685014
s off
f 30/79/1 33/82/2 32/81/3 31/80/4
f 34/83/5 38/86/6 36/85/7 35/84/8
f 37/6/9 38/86/10 34/83/11
f 39/87/12 41/89/13 38/86/14 37/88/15
f 40/9/16 41/89/17 39/87/18
f 42/90/19 44/92/20 41/89/21 40/91/22
f 43/12/23 44/92/24 42/90/25
f 45/93/26 47/95/27 44/92/28 43/94/29
f 46/15/30 47/95/31 45/93/32
f 48/96/33 32/81/34 47/95/35 46/97/36
f 31/80/37 32/81/38 48/96/39
f 34/101/40 50/100/41 49/99/42 37/98/43
f 39/105/44 52/104/45 51/103/46 40/102/47
f 42/109/48 54/108/49 53/107/50 43/106/51
f 45/113/52 56/112/53 55/111/54 46/110/55
f 48/117/56 58/116/57 57/115/58 31/114/59
f 1/40/60 18/41/61 19/42/62 3/43/63
f 5/44/64 2/45/65 4/46/66 7/48/67
f 6/47/68 5/44/69 7/48/70
f 8/49/71 6/47/72 7/48/73 10/51/74
f 9/50/75 8/49/76 10/51/77
f 11/52/78 9/50/79 10/51/80 13/54/81
f 12/53/82 11/52/83 13/54/84
f 14/55/85 12/53/86 13/54/87 16/57/88
f 15/56/89 14/55/90 16/57/91
f 17/58/92 15/56/93 16/57/94 19/42/95
f 18/41/96 17/58/97 19/42/98
f 5/59/99 6/60/100 20/61/101 21/62/102
f 8/63/103 9/64/104 22/65/105 23/66/106
f 11/67/107 12/68/108 24/69/109 25/70/110
f 14/71/111 15/72/112 26/73/113 27/74/114
f 17/75/115 18/76/116 28/77/117 29/78/118
f 1/1/119 30/79/120 31/80/121 18/18/122
f 19/19/123 32/81/124 33/82/125 3/3/126
f 3/3/127 33/82/128 30/79/129 1/1/130
f 5/5/131 34/83/132 35/84/133 2/2/134
f 2/2/135 35/84/136 36/85/137 4/4/138
f 4/4/139 36/85/140 38/86/141 7/7/142
f 8/8/143 39/87/144 37/88/145 6/6/146
f 7/7/147 38/86/148 41/89/149 10/10/150
f 11/11/151 42/90/152 40/91/153 9/9/154
f 10/10/155 41/89/156 44/92/157 13/13/158
f 14/14/159 45/93/160 43/94/161 12/12/162
f 13/13/163 44/92/164 47/95/165 16/16/166
f 17/17/167 48/96/168 46/97/169 15/15/170
f 16/16/171 47/95/172 32/81/173 19/19/174
f 6/21/175 37/98/176 49/99/177 20/22/178
f 20/22/179 49/99/180 50/100/181 21/23/182
f 21/23/183 50/100/184 34/101/185 5/20/186
f 9/25/187 40/102/188 51/103/189 22/26/190
f 22/26/191 51/103/192 52/104/193 23/27/194
f 23/27/195 52/104/196 39/105/197 8/24/198
f 12/29/199 43/106/200 53/107/201 24/30/202
f 24/30/203 53/107/204 54/108/205 25/31/206
f 25/31/207 54/108/208 42/109/209 11/28/210
f 15/33/211 46/110/212 55/111/213 26/34/214
f 26/34/215 55/111/216 56/112/217 27/35/218
f 27/35/219 56/112/220 45/113/221 14/32/222
f 18/37/223 31/114/224 57/115/225 28/38/226
f 28/38/227 57/115/228 58/116/229 29/39/230
f 29/39/231 58/116/232 48/117/233 17/36/234
f 59/118/235 90/168/236 87/165/237 61/121/238
f 61/121/239 87/165/240 88/166/241 63/123/242
f 63/123/243 88/166/244 89/167/245 65/125/246
f 65/125/247 89/167/248 90/169/249 59/127/250
f 60/119/251 66/128/252 64/129/253 62/120/254
f 65/130/255 59/118/256 61/121/257 63/131/258
f 67/132/259 99/180/260 100/182/261 69/135/262
f 69/135/263 100/182/264 101/183/265 71/137/266
f 71/137/267 101/183/268 102/184/269 73/139/270
f 73/139/271 102/184/272 99/181/273 67/141/274
f 68/133/275 74/142/276 72/143/277 70/134/278
f 73/144/279 67/132/280 69/135/281 71/145/282
f 75/146/283 103/185/284 106/190/285 77/149/286
f 77/149/287 84/162/288 85/163/289 79/151/290
f 79/151/291 85/163/292 86/164/293 81/153/294
f 105/189/295 86/164/296 83/161/297 104/188/298
f 76/147/299 82/156/300 80/157/301 78/148/302
f 81/158/303 75/146/304 77/149/305 79/159/306
f 83/160/307 76/147/308 78/148/309 84/162/310
f 85/163/311 84/162/312 78/148/313 80/150/314
f 86/164/315 85/163/316 80/150/317 82/152/318
f 83/161/319 86/164/320 82/152/321 76/154/322
f 87/165/323 107/192/324 91/170/325 92/171/326 88/166/327
f 89/167/328 88/166/329 92/171/330 93/172/331
f 90/169/332 89/167/333 93/172/334 94/174/335
f 87/165/336 90/168/337 94/173/338 109/194/339 107/192/340
f 91/170/341 108/193/342 62/120/343 64/122/344 92/171/345
f 93/172/346 92/171/347 64/122/348 66/124/349
f 94/174/350 93/172/351 66/124/352 60/126/353
f 108/193/354 109/194/355 94/173/356 60/119/357 62/120/358
f 95/175/359 68/133/360 70/134/361 96/177/362
f 97/178/363 96/177/364 70/134/365 72/136/366
f 98/179/367 97/178/368 72/136/369 74/138/370
f 95/176/371 98/179/372 74/138/373 68/140/374
f 99/180/375 95/175/376 96/177/377 100/182/378
f 101/183/379 100/182/380 96/177/381 97/178/382
f 102/184/383 101/183/384 97/178/385 98/179/386
f 99/181/387 102/184/388 98/179/389 95/176/390
f 103/186/391 105/189/392 106/191/393
f 77/149/394 106/190/395 84/162/396
f 84/162/397 106/190/398 104/187/399 83/160/400
f 106/191/401 105/189/402 104/188/403
f 81/153/404 86/164/405 105/189/406 103/186/407 75/155/408
f 91/170/409 109/194/410 108/193/411
f 107/192/412 109/194/413 91/170/414
