# This file uses centimeters as units for non-parametric coordinates.

v -11.969490 0.000000 6.863934
v 11.969490 0.000000 6.863934
v -1.232155 264.344177 -0.992447
v 1.425121 265.416138 -0.668913
v -1.097317 265.005249 -4.018276
v 1.559958 266.077179 -3.694742
v -11.969490 0.000000 -6.863934
v 11.969490 0.000000 -6.863934
v 9.470162 172.011505 8.178179
v -10.920914 133.600311 5.843305
v -10.317507 145.554779 -6.901189
v 12.264053 178.785934 -4.789120
v 7.970872 187.799225 11.378000
v -11.586756 206.900787 3.148344
v -10.178245 237.514252 -8.052031
v 8.550323 227.392517 -1.680515
v -3.379760 117.374855 10.892896
v 0.000000 0.000000 13.077202
v 0.000000 0.000000 -13.077202
v 0.053221 167.903778 -13.245155
v -0.388834 237.462067 -9.818508
v -2.389491 178.484375 12.211123
v 10.373779 104.697601 11.347456
v 14.451021 113.640862 -6.940922
v 0.312389 119.753845 -14.237519
v 12.821629 115.987015 -6.211000
v 9.662809 108.340065 8.805356
vt 0.527857 0.513041
vt 0.528393 0.512872
vt 0.004643 0.329978
vt 0.004774 0.329944
vt 0.004724 0.329896
vt 0.004549 0.329886
vt 0.004549 0.327353
vt 0.004724 0.327180
vt 0.004579 0.326610
vt 0.004468 0.327617
vt 0.528372 0.512819
vt 0.004418 0.327569
vt 0.528122 0.512556
vt 0.004549 0.326573
vt 0.528527 0.512685
vt 0.528657 0.512768
vt 0.528162 0.512618
vt 0.527631 0.517391
vt 0.527489 0.517253
vt 0.527521 0.512716
vt 0.004562 0.326576
vt 0.004593 0.326612
vt 0.004774 0.327228
vt 0.004643 0.327445
vt 0.004468 0.329968
vt 0.004418 0.329920
vt 0.527628 0.512653
vt 0.527864 0.509874
vt 0.528136 0.517420
vt 0.528511 0.517323
vt 0.528368 0.509377
vt 0.528368 0.517185
vt 0.527864 0.517156
vt 0.527489 0.510496
vt 0.527631 0.510634
vt 0.528136 0.510138
vt 0.528515 0.510308
vt 0.528592 0.512727
vt 0.528382 0.512846
vn 0.494476 0.560283 0.664513
vn 0.494476 0.560283 0.664513
vn 0.494476 0.560283 0.664513
vn 0.557640 0.573871 -0.599758
vn 0.557640 0.573871 -0.599758
vn 0.557640 0.573871 -0.599758
vn 0.000000 -1.000000 0.000000
vn 0.000000 -1.000000 0.000000
vn 0.000000 -1.000000 0.000000
vn 0.000000 -1.000000 0.000000
vn 0.809969 0.435425 0.392880
vn 0.809970 0.435425 0.392880
vn 0.809970 0.435425 0.392880
vn 0.809970 0.435425 0.392880
vn -0.999784 0.009602 -0.018453
vn -0.999784 0.009602 -0.018453
vn -0.999784 0.009602 -0.018453
vn -0.999784 0.009602 -0.018453
vn 0.294886 -0.054100 0.954000
vn 0.294886 -0.054100 0.954000
vn 0.294886 -0.054100 0.954000
vn 0.294886 -0.054100 0.954000
vn -0.995638 -0.005340 -0.093150
vn -0.995638 -0.005340 -0.093150
vn -0.995638 -0.005340 -0.093150
vn -0.995638 -0.005340 -0.093150
vn 0.972324 0.056506 0.226699
vn 0.972324 0.056506 0.226699
vn 0.972324 0.056506 0.226699
vn 0.972324 0.056506 0.226699
vn -0.054272 0.148677 0.987396
vn -0.054272 0.148677 0.987395
vn -0.054272 0.148677 0.987395
vn -0.909414 0.208554 0.359822
vn -0.909414 0.208555 0.359822
vn -0.909414 0.208555 0.359822
vn -0.909414 0.208555 0.359822
vn 0.727038 0.095978 -0.679856
vn 0.727038 0.095978 -0.679856
vn 0.727038 0.095978 -0.679856
vn 0.890106 0.155397 0.428442
vn 0.890106 0.155397 0.428442
vn 0.890106 0.155397 0.428442
vn 0.890106 0.155397 0.428442
vn -0.495886 0.006483 0.868363
vn -0.495886 0.006483 0.868363
vn -0.495886 0.006483 0.868363
vn -0.495886 0.006483 0.868363
vn 0.000000 -1.000000 0.000000
vn 0.000000 -1.000000 0.000000
vn 0.000000 -1.000000 0.000000
vn 0.000000 -1.000000 0.000000
vn -0.544112 0.014361 -0.838890
vn -0.544112 0.014361 -0.838890
vn -0.544112 0.014361 -0.838890
vn -0.384864 0.012282 -0.922892
vn -0.384864 0.012282 -0.922892
vn -0.384864 0.012282 -0.922892
vn -0.384864 0.012282 -0.922892
vn -0.129051 0.201165 -0.971019
vn -0.129051 0.201165 -0.971019
vn -0.129051 0.201165 -0.971019
vn -0.129052 0.201165 -0.971019
vn -0.386779 0.904368 0.180335
vn -0.386779 0.904368 0.180335
vn -0.386779 0.904368 0.180335
vn -0.386779 0.904368 0.180335
vn -0.386134 0.145288 0.910929
vn -0.386134 0.145288 0.910929
vn -0.386134 0.145288 0.910929
vn -0.386134 0.145288 0.910929
vn -0.629664 0.009477 0.776810
vn -0.629664 0.009477 0.776810
vn -0.629664 0.009477 0.776810
vn -0.629664 0.009477 0.776810
vn 0.215989 -0.005270 0.976382
vn 0.215989 -0.005270 0.976382
vn 0.215989 -0.005270 0.976382
vn 0.215989 -0.005270 0.976382
vn 0.992195 -0.006539 0.124529
vn 0.992195 -0.006539 0.124529
vn 0.992194 -0.006539 0.124529
vn 0.992195 -0.006539 0.124529
vn 0.457668 -0.010192 -0.889065
vn 0.457668 -0.010192 -0.889065
vn 0.457668 -0.010192 -0.889065
vn 0.457668 -0.010192 -0.889065
vn -0.514269 -0.000064 -0.857629
vn -0.514269 -0.000064 -0.857629
vn -0.514269 -0.000064 -0.857629
vn -0.514269 -0.000064 -0.857629
vn 0.614415 0.065095 -0.786293
vn 0.614415 0.065095 -0.786293
vn 0.614415 0.065095 -0.786293
vn 0.614415 0.065095 -0.786293
vn 0.550188 0.022214 -0.834745
vn 0.550188 0.022214 -0.834745
vn 0.550188 0.022214 -0.834745
vn 0.550188 0.022214 -0.834745
vn 0.977633 0.004478 0.210271
vn 0.977633 0.004478 0.210271
vn 0.977633 0.004478 0.210271
vn 0.977633 0.004478 0.210271
vn 0.164931 0.010214 0.986252
vn 0.164931 0.010214 0.986252
vn 0.164931 0.010214 0.986252
s off
f 17/1/1 23/2/2 27/39/3
f 25/17/4 26/38/5 24/16/6
f 19/3/7 8/4/8 2/5/9 18/6/10
f 23/2/11 24/16/12 26/38/13 27/39/14
f 7/18/15 1/19/16 10/20/17 11/27/18
f 22/28/19 17/1/20 9/11/21 13/31/22
f 11/27/23 10/20/24 14/34/25 15/35/26
f 9/11/27 12/15/28 16/37/29 13/31/30
f 22/7/31 13/8/32 4/9/33
f 15/10/34 14/12/35 3/14/36 5/21/37
f 6/22/38 16/23/39 21/24/40
f 13/8/41 16/23/42 6/22/43 4/9/44
f 1/19/45 18/33/46 17/1/47 10/20/48
f 7/25/49 19/3/50 18/6/51 1/26/52
f 11/27/53 20/13/54 25/17/55
f 15/35/56 21/36/57 20/13/58 11/27/59
f 5/21/60 6/22/61 21/24/62 15/10/63
f 3/14/64 4/9/65 6/22/66 5/21/67
f 14/12/68 22/7/69 4/9/70 3/14/71
f 10/20/72 17/1/73 22/28/74 14/34/75
f 18/33/76 2/32/77 23/2/78 17/1/79
f 2/32/80 8/30/81 24/16/82 23/2/83
f 25/17/84 24/16/85 8/30/86 19/29/87
f 11/27/88 25/17/89 19/29/90 7/18/91
f 21/36/92 16/37/93 12/15/94 20/13/95
f 20/13/96 12/15/97 26/38/98 25/17/99
f 27/39/100 26/38/101 12/15/102 9/11/103
f 17/1/104 27/39/105 9/11/106
