# This file uses centimeters as units for non-parametric coordinates.

v 180.356262 18.999022 -13.803600
v 175.824478 7.256979 -22.334694
v 180.356247 -7.256983 -22.334690
v 180.356247 -18.999025 -13.803596
v 180.356247 -23.484083 0.000001
v 180.356247 -18.999022 13.803599
v 180.356232 -7.256979 22.334690
v 175.824478 7.256982 22.334690
v 178.483932 18.999022 13.803596
v 178.483917 23.484081 0.000000
v -178.386154 18.999022 -13.803600
v -180.356247 7.256979 -22.334694
v -180.356262 -7.256985 -22.334690
v -177.571732 -18.999023 -13.803596
v -180.356232 -23.484085 0.000001
v -180.356262 -18.999022 13.803599
v -180.356262 -7.256979 22.334690
v -180.356232 7.256980 22.334690
v -176.206482 18.999022 13.803596
v -178.386169 23.484081 0.000000
v 180.356262 16.018341 -11.638008
v 180.356262 6.118462 -18.830690
v -180.356232 6.118460 -18.830690
v -180.356247 16.018341 -11.638008
v 180.356247 -6.118463 -18.830687
v -180.356262 -6.118464 -18.830687
v 180.356247 -16.018341 -11.638004
v -180.356262 -16.018341 -11.638004
v 180.356262 -19.799759 0.000001
v -180.356232 -19.799759 0.000001
v 180.356247 -16.018341 11.638005
v -180.356262 -16.018341 11.638005
v 180.356232 -6.118460 18.830687
v -180.356262 -6.118462 18.830687
v 180.356262 6.118462 18.830687
v -180.356232 6.118462 18.830687
v 180.356262 16.018339 11.638004
v -180.356247 16.018337 11.638004
v 180.356247 19.799755 -0.000000
v -180.356262 19.799755 -0.000000
v -101.538010 23.013659 2.675114
v -61.416050 20.781048 13.206577
v -24.618605 7.578833 23.310978
v 45.163078 -8.938784 22.082930
v 94.919518 -18.999022 13.803599
v -23.248812 -24.373528 2.716713
v -73.924240 -18.999025 -13.803596
v 26.137831 -9.530533 -21.007904
v -26.760382 5.444806 -23.380434
v -76.374474 18.999022 -13.803600
vt 0.026065 0.276781
vt 0.026065 0.276781
vt 0.026065 0.276781
vt 0.026065 0.276781
vt 0.026065 0.276781
vt 0.026065 0.276781
vt 0.026065 0.276781
vt 0.026065 0.276781
vt 0.026065 0.276781
vt 0.026065 0.276781
vt 0.026065 0.276781
vt 0.026065 0.276781
vt 0.026065 0.276781
vt 0.026065 0.276781
vt 0.026065 0.276781
vt 0.026065 0.276781
vt 0.026065 0.276781
vt 0.026065 0.276781
vt 0.026065 0.276781
vt 0.026065 0.276781
vt 0.026065 0.276781
vt 0.026065 0.276781
vt 0.026065 0.276781
vt 0.026065 0.276781
vt 0.026065 0.276781
vt 0.026065 0.276781
vt 0.026065 0.276781
vt 0.026065 0.276781
vt 0.026065 0.276781
vt 0.026065 0.276781
vt 0.026065 0.276781
vt 0.026065 0.276781
vt 0.026065 0.276781
vt 0.026065 0.276781
vt 0.026065 0.276781
vt 0.026065 0.276781
vt 0.026065 0.276781
vt 0.026065 0.276781
vt 0.026065 0.276781
vt 0.026065 0.276781
vt 0.026065 0.276781
vt 0.026065 0.276781
vt 0.026065 0.276781
vt 0.026065 0.276781
vt 0.026065 0.276781
vt 0.026065 0.232410
vt 0.026065 0.276781
vt 0.026065 0.232410
vt 0.026065 0.232410
vt 0.026065 0.276781
vt 0.026065 0.232410
vt 0.026065 0.276781
vt 0.026065 0.232410
vt 0.026065 0.276781
vt 0.026065 0.232410
vt 0.026065 0.276781
vt 0.026065 0.232410
vt 0.026065 0.276781
vt 0.026065 0.232410
vt 0.026065 0.276781
vt 0.026065 0.232410
vt 0.026065 0.276781
vt 0.026065 0.232410
vt 0.026065 0.276781
vt 0.026065 0.276781
vt 0.026065 0.232410
vt 0.026065 0.232410
vt 0.026065 0.232410
vt 0.026065 0.276781
vt 0.026065 0.276781
vt 0.026065 0.232410
vt 0.026065 0.276781
vt 0.026065 0.232410
vt 0.026065 0.232410
vt 0.026065 0.232410
vt 0.026065 0.232410
vt 0.026065 0.232410
vt 0.026065 0.276781
vt 0.026065 0.232410
vt 0.026065 0.232410
vt 0.026065 0.232410
vt 0.026065 0.276781
vt 0.026065 0.232410
vt 0.026065 0.232410
vt 0.026065 0.232410
vt 0.026065 0.276781
vt 0.026065 0.232410
vt 0.026065 0.232410
vt 0.026065 0.232410
vt 0.026065 0.276781
vt 0.026065 0.232410
vt 0.026065 0.232410
vt 0.026065 0.232410
vt 0.026065 0.276781
vt 0.026065 0.232410
vt 0.026065 0.232410
vt 0.026065 0.232410
vt 0.026065 0.276781
vt 0.026065 0.232410
vt 0.026065 0.232410
vt 0.026065 0.232410
vt 0.026065 0.276781
vt 0.026065 0.232410
vt 0.026065 0.232410
vt 0.026065 0.232410
vt 0.026065 0.276781
vt 0.026065 0.276781
vt 0.026065 0.276781
vt 0.026065 0.276781
vt 0.026065 0.276781
vt 0.026065 0.276781
vt 0.026065 0.276781
vt 0.026065 0.276781
vt 0.026065 0.276781
vt 0.026065 0.276781
vt 0.026065 0.276781
vt 0.026065 0.276781
vn 0.000000 -0.587785 0.809017
vn 0.000000 -0.587785 0.809017
vn 0.000000 -0.587785 0.809017
vn 0.000000 -0.587785 0.809017
vn 0.000000 0.000000 1.000000
vn 0.000000 0.000000 1.000000
vn 0.000000 0.000000 1.000000
vn 0.000000 0.000000 1.000000
vn -0.000000 0.587785 0.809017
vn -0.000000 0.587785 0.809017
vn -0.000000 0.587785 0.809017
vn -0.000000 0.587785 0.809017
vn 0.000000 0.951057 0.309017
vn 0.000000 0.951056 0.309017
vn 0.000000 0.951057 0.309017
vn 0.000000 0.951056 0.309017
vn 0.000000 0.951056 -0.309017
vn 0.000000 0.951056 -0.309017
vn 0.000000 0.951056 -0.309017
vn 0.000000 0.951057 -0.309017
vn 0.000000 0.587785 -0.809017
vn 0.000000 0.587785 -0.809017
vn 0.000000 0.587785 -0.809017
vn 0.000000 0.587785 -0.809017
vn -0.000000 0.000000 -1.000000
vn -0.000000 0.000000 -1.000000
vn -0.000000 0.000000 -1.000000
vn -0.000000 0.000000 -1.000000
vn 0.000000 -0.587785 -0.809017
vn 0.000000 -0.587785 -0.809017
vn 0.000000 -0.587785 -0.809017
vn 0.000000 -0.587785 -0.809017
vn 0.000000 -0.951056 -0.309017
vn 0.000000 -0.951057 -0.309017
vn 0.000000 -0.951056 -0.309017
vn 0.000000 -0.951057 -0.309017
vn 0.000000 -0.951057 0.309017
vn 0.000000 -0.951057 0.309017
vn 0.000000 -0.951057 0.309017
vn 0.000000 -0.951057 0.309017
vn -0.000442 0.581550 -0.813510
vn -0.000442 0.581550 -0.813510
vn -0.000442 0.581550 -0.813510
vn -0.000442 0.581550 -0.813510
vn 0.000130 -0.079943 -0.996799
vn 0.000130 -0.079943 -0.996800
vn 0.000130 -0.079943 -0.996799
vn 0.000130 -0.079943 -0.996799
vn 0.000725 -0.598016 -0.801484
vn 0.000725 -0.598016 -0.801484
vn 0.000725 -0.598016 -0.801484
vn 0.000725 -0.598016 -0.801484
vn 0.000013 -0.950988 -0.309227
vn 0.000013 -0.950988 -0.309227
vn 0.000013 -0.950988 -0.309227
vn 0.000013 -0.950988 -0.309227
vn 0.006115 -0.939300 0.343044
vn 0.006115 -0.939300 0.343044
vn 0.006115 -0.939300 0.343044
vn 0.006115 -0.939300 0.343044
vn 0.003706 -0.605289 0.795997
vn 0.003706 -0.605289 0.795997
vn 0.003706 -0.605289 0.795997
vn 0.003706 -0.605289 0.795997
vn 0.002295 -0.034054 0.999417
vn 0.002295 -0.034054 0.999417
vn 0.002295 -0.034054 0.999417
vn 0.002295 -0.034054 0.999417
vn 0.003562 0.601625 0.798770
vn 0.003562 0.601625 0.798770
vn 0.003562 0.601625 0.798770
vn 0.003562 0.601625 0.798770
vn 0.003478 0.965397 0.260763
vn 0.003478 0.965397 0.260763
vn 0.003478 0.965397 0.260763
vn 0.003478 0.965397 0.260763
vn -0.002199 0.962279 -0.272058
vn -0.002199 0.962278 -0.272058
vn -0.002199 0.962279 -0.272058
vn -0.002199 0.962279 -0.272058
vn 0.831354 0.202053 -0.517711
vn 0.831354 0.202053 -0.517711
vn 0.831354 0.202053 -0.517711
vn 0.831354 0.202053 -0.517711
vn -0.960274 0.215883 -0.176827
vn -0.960274 0.215883 -0.176827
vn -0.960274 0.215883 -0.176827
vn -0.960274 0.215883 -0.176827
vn 0.831354 0.140837 -0.537602
vn 0.831354 0.140837 -0.537602
vn 0.831354 0.140837 -0.537602
vn 0.831354 0.140837 -0.537602
vn -1.000000 0.000003 0.000002
vn -1.000000 0.000003 0.000002
vn -1.000000 0.000003 0.000002
vn -1.000000 0.000003 0.000002
vn 1.000000 0.000000 0.000000
vn 1.000000 0.000000 0.000000
vn 1.000000 0.000000 0.000000
vn 1.000000 0.000000 0.000000
vn -0.925010 -0.293932 -0.240751
vn -0.925010 -0.293932 -0.240751
vn -0.925010 -0.293932 -0.240751
vn -0.925010 -0.293932 -0.240751
vn 1.000000 -0.000005 -0.000001
vn 1.000000 -0.000005 -0.000001
vn 1.000000 -0.000005 -0.000001
vn 1.000000 -0.000005 -0.000001
vn -0.925011 -0.319796 -0.205147
vn -0.925011 -0.319796 -0.205147
vn -0.925011 -0.319796 -0.205147
vn -0.925011 -0.319796 -0.205147
vn 1.000000 -0.000005 0.000001
vn 1.000000 -0.000005 0.000001
vn 1.000000 -0.000005 0.000001
vn 1.000000 -0.000005 0.000001
vn -1.000000 0.000000 -0.000002
vn -1.000000 0.000000 -0.000002
vn -1.000000 0.000000 -0.000002
vn -1.000000 0.000000 -0.000002
vn 1.000000 0.000003 0.000001
vn 1.000000 0.000003 0.000001
vn 1.000000 0.000003 0.000001
vn 1.000000 0.000003 0.000001
vn -1.000000 0.000000 0.000000
vn -1.000000 0.000000 0.000000
vn -1.000000 0.000000 0.000000
vn -1.000000 0.000000 0.000000
vn 0.831354 0.140836 0.537602
vn 0.831354 0.140836 0.537602
vn 0.831354 0.140836 0.537602
vn 0.831354 0.140836 0.537602
vn -1.000000 0.000003 -0.000000
vn -1.000000 0.000003 -0.000000
vn -1.000000 0.000003 -0.000000
vn -1.000000 0.000003 -0.000000
vn 0.736218 0.336233 0.587309
vn 0.736218 0.336233 0.587309
vn 0.736218 0.336232 0.587309
vn 0.736218 0.336232 0.587309
vn -0.852895 0.403892 0.330818
vn -0.852895 0.403892 0.330818
vn -0.852895 0.403892 0.330818
vn -0.852895 0.403892 0.330818
vn 0.881982 0.448219 0.145632
vn 0.881981 0.448219 0.145632
vn 0.881981 0.448219 0.145632
vn 0.881981 0.448219 0.145632
vn -0.751807 0.605469 0.261139
vn -0.751807 0.605469 0.261139
vn -0.751807 0.605469 0.261139
vn -0.751807 0.605469 0.261139
vn 0.963913 0.265771 -0.015416
vn 0.963913 0.265771 -0.015416
vn 0.963913 0.265771 -0.015416
vn 0.963913 0.265771 -0.015416
vn -0.871673 0.466101 -0.151447
vn -0.871673 0.466101 -0.151447
vn -0.871673 0.466101 -0.151447
vn -0.871673 0.466101 -0.151447
vn -0.009620 0.959487 0.281589
vn -0.009620 0.959487 0.281589
vn -0.009620 0.959487 0.281589
vn -0.009620 0.959487 0.281589
vn -0.005745 0.593658 0.804697
vn -0.005745 0.593658 0.804697
vn -0.005745 0.593658 0.804697
vn -0.005745 0.593658 0.804697
vn -0.002056 -0.044159 0.999022
vn -0.002056 -0.044159 0.999022
vn -0.002056 -0.044159 0.999022
vn -0.002056 -0.044159 0.999022
vn -0.001661 -0.612985 0.790093
vn -0.001661 -0.612985 0.790093
vn -0.001661 -0.612985 0.790093
vn -0.001661 -0.612985 0.790093
vn -0.004323 -0.922512 0.385945
vn -0.004323 -0.922512 0.385945
vn -0.004323 -0.922512 0.385945
vn -0.004323 -0.922512 0.385945
vn -0.000023 -0.951005 -0.309175
vn -0.000023 -0.951005 -0.309175
vn -0.000023 -0.951005 -0.309175
vn -0.000023 -0.951005 -0.309175
vn -0.000904 -0.593134 -0.805103
vn -0.000904 -0.593134 -0.805103
vn -0.000904 -0.593134 -0.805103
vn -0.000904 -0.593134 -0.805103
vn -0.000135 -0.080435 -0.996760
vn -0.000135 -0.080435 -0.996760
vn -0.000135 -0.080435 -0.996760
vn -0.000135 -0.080435 -0.996760
vn 0.000810 0.583080 -0.812414
vn 0.000810 0.583080 -0.812414
vn 0.000810 0.583080 -0.812414
vn 0.000810 0.583080 -0.812414
vn 0.006503 0.964166 -0.265220
vn 0.006503 0.964166 -0.265220
vn 0.006503 0.964166 -0.265220
vn 0.006503 0.964166 -0.265220
s off
f 21/73/1 24/48/2 23/103/3 22/105/4
f 22/46/5 23/104/6 26/99/7 25/101/8
f 25/49/9 26/100/10 28/95/11 27/97/12
f 27/51/13 28/96/14 30/91/15 29/93/16
f 29/53/17 30/92/18 32/87/19 31/89/20
f 31/55/21 32/88/22 34/83/23 33/85/24
f 33/57/25 34/84/26 36/79/27 35/81/28
f 35/59/29 36/80/30 38/75/31 37/77/32
f 37/61/33 38/76/34 40/67/35 39/71/36
f 39/63/37 40/68/38 24/66/39 21/74/40
f 1/23/41 2/24/42 49/115/43 50/117/44
f 2/24/45 3/27/46 48/114/47 49/115/48
f 3/27/49 4/29/50 47/113/51 48/114/52
f 4/29/53 5/31/54 46/112/55 47/113/56
f 5/31/57 6/33/58 45/111/59 46/112/60
f 6/33/61 7/35/62 44/110/63 45/111/64
f 7/35/65 8/37/66 43/109/67 44/110/68
f 8/37/69 9/39/70 42/108/71 43/109/72
f 9/39/73 10/41/74 41/107/75 42/108/76
f 10/41/77 1/43/78 50/116/79 41/107/80
f 1/1/81 21/45/82 22/106/83 2/2/84
f 12/13/85 23/47/86 24/69/87 11/12/88
f 2/2/89 22/106/90 25/102/91 3/3/92
f 13/14/93 26/50/94 23/47/95 12/13/96
f 3/3/97 25/102/98 27/98/99 4/4/100
f 14/15/101 28/52/102 26/50/103 13/14/104
f 4/4/105 27/98/106 29/94/107 5/5/108
f 15/16/109 30/54/110 28/52/111 14/15/112
f 5/5/113 29/94/114 31/90/115 6/6/116
f 16/17/117 32/56/118 30/54/119 15/16/120
f 6/6/121 31/90/122 33/86/123 7/7/124
f 17/18/125 34/58/126 32/56/127 16/17/128
f 7/7/129 33/86/130 35/82/131 8/8/132
f 18/19/133 36/60/134 34/58/135 17/18/136
f 8/8/137 35/82/138 37/78/139 9/9/140
f 19/20/141 38/62/142 36/60/143 18/19/144
f 9/9/145 37/78/146 39/72/147 10/10/148
f 20/21/149 40/64/150 38/62/151 19/20/152
f 10/10/153 39/72/154 21/65/155 1/11/156
f 11/22/157 24/70/158 40/64/159 20/21/160
f 42/108/161 41/107/162 20/42/163 19/40/164
f 43/109/165 42/108/166 19/40/167 18/38/168
f 44/110/169 43/109/170 18/38/171 17/36/172
f 45/111/173 44/110/174 17/36/175 16/34/176
f 46/112/177 45/111/178 16/34/179 15/32/180
f 47/113/181 46/112/182 15/32/183 14/30/184
f 48/114/185 47/113/186 14/30/187 13/28/188
f 49/115/189 48/114/190 13/28/191 12/25/192
f 50/117/193 49/115/194 12/25/195 11/26/196
f 41/107/197 50/116/198 11/44/199 20/42/200
