# This file uses centimeters as units for non-parametric coordinates.

v -9.919426 0.164857 9.706989
v 9.919418 0.164857 9.706989
v -13.577505 31.655342 13.286727
v 13.577494 31.655342 13.286727
v -13.577505 31.655342 -13.286725
v 13.577494 31.655342 -13.286725
v -9.919426 0.164857 -9.706987
v 9.919418 0.164857 -9.706987
v -10.295069 32.113525 9.999331
v 10.295057 32.113525 9.999331
v 10.295057 32.113525 -9.999289
v -10.295069 32.113525 -9.999289
v -10.121716 26.834873 9.830958
v 10.121704 26.834873 9.830958
v 10.121704 26.834873 -9.830914
v -10.121716 26.834873 -9.830914
v -11.436934 4.264466 11.191998
v 11.436924 4.264466 11.191998
v 11.436924 4.264467 -11.191996
v -11.436934 4.264467 -11.191996
v 13.577494 24.364803 -13.286725
v 13.577494 24.364801 13.286727
v -13.577505 24.364801 13.286727
v -13.577505 24.364803 -13.286725
v -0.000006 24.364803 -18.241421
v -0.000006 31.905844 -15.773870
v -0.000006 32.113525 -13.728078
v -0.000006 26.834873 -13.496919
v -0.000006 26.834873 13.496960
v -0.000006 32.113525 13.728119
v -0.123512 31.615423 17.095474
v -0.000006 24.364801 18.241425
v -0.000005 4.264466 15.365563
v -0.000004 0.164857 13.326784
v -0.000004 0.164857 -13.326782
v -0.000005 4.264467 -15.365561
v 15.701845 4.264466 0.000001
v 13.618446 0.164857 0.000001
v -0.000004 0.164857 0.000001
v -13.618448 0.164857 0.000001
v -15.701844 4.264466 0.000001
v -18.640652 24.364801 0.000001
v -18.640652 31.655342 0.000001
v -14.134163 32.113525 0.000001
v -13.896165 26.834873 0.000001
v -0.000006 29.357550 0.000001
v 13.896165 26.834873 0.000001
v 14.134163 32.113525 0.000001
v 18.640650 31.655342 0.000001
v 18.640650 24.364801 0.000001
v 17.094395 23.372204 0.000001
v 12.451229 23.372208 -12.184579
v -0.000005 23.372208 -16.728285
v -12.451239 23.372208 -12.184579
v -17.094395 23.372204 0.000001
v -12.451239 23.372204 12.184581
v -0.000005 23.372204 16.728287
v 12.451229 23.372204 12.184581
v -0.000006 29.665260 18.241425
v 2.075436 32.034508 -13.118519
v 2.733204 31.581902 -17.414572
v 1.384919 24.364803 -17.736036
v 1.061633 23.372208 -16.340870
v -0.000005 15.263217 -16.149967
v 0.862936 23.753765 -15.886026
v 0.821907 24.396847 -14.516225
v 1.264333 26.834873 -13.038985
v 1.111108 24.380861 -14.417057
v 0.201702 24.003321 -16.036030
v 0.124773 24.391472 -14.496035
v 0.182647 25.543852 -14.582614
v -0.000006 28.567562 -18.241425
v -5.246326 31.655342 -16.326939
vt 0.027833 0.328979
vt 0.027833 0.328979
vt 0.027833 0.328979
vt 0.027833 0.328979
vt 0.036456 0.302707
vt 0.036456 0.302707
vt 0.036456 0.302707
vt 0.036456 0.302707
vt 0.027833 0.328979
vt 0.027833 0.328979
vt 0.027833 0.328979
vt 0.027833 0.328979
vt 0.027833 0.328979
vt 0.027833 0.328979
vt 0.027833 0.328979
vt 0.027833 0.328979
vt 0.027833 0.328979
vt 0.027833 0.328979
vt 0.027833 0.328979
vt 0.027833 0.328979
vt 0.027833 0.328979
vt 0.027833 0.328979
vt 0.027833 0.328979
vt 0.027833 0.328979
vt 0.027833 0.328979
vt 0.027833 0.328979
vt 0.027833 0.328979
vt 0.027833 0.328979
vt 0.027833 0.328979
vt 0.027833 0.328979
vt 0.027833 0.328979
vt 0.027833 0.328979
vt 0.027833 0.328979
vt 0.027833 0.328979
vt 0.027833 0.328979
vt 0.027833 0.328979
vt 0.027833 0.328979
vt 0.027833 0.328979
vt 0.027833 0.328979
vt 0.027833 0.328979
vt 0.027833 0.328979
vt 0.027833 0.328979
vt 0.027833 0.328979
vt 0.027833 0.328979
vt 0.027833 0.328979
vt 0.027833 0.328979
vt 0.027833 0.328979
vt 0.027833 0.328979
vt 0.027833 0.328979
vt 0.027833 0.328979
vt 0.027833 0.328979
vt 0.027833 0.328979
vt 0.027833 0.328979
vt 0.027833 0.328979
vt 0.027833 0.328979
vt 0.027833 0.328979
vt 0.027833 0.328979
vt 0.027833 0.328979
vt 0.027833 0.328979
vt 0.027833 0.328979
vt 0.027833 0.328979
vt 0.027833 0.328979
vt 0.027833 0.328979
vt 0.027833 0.328979
vt 0.036456 0.302707
vt 0.036456 0.302707
vt 0.027833 0.328979
vt 0.027833 0.328979
vt 0.027833 0.328979
vt 0.027833 0.328979
vt 0.027833 0.328979
vt 0.027833 0.328979
vt 0.027833 0.328979
vt 0.027833 0.328979
vt 0.027833 0.328979
vt 0.027833 0.328979
vt 0.027833 0.328979
vt 0.027833 0.328979
vt 0.027833 0.328979
vt 0.027833 0.328979
vt 0.036456 0.302707
vt 0.036456 0.302707
vt 0.036456 0.302707
vt 0.027833 0.328979
vt 0.027833 0.328979
vt 0.027833 0.328979
vt 0.027833 0.328979
vt 0.027833 0.328979
vt 0.027833 0.328979
vt 0.027833 0.328979
vt 0.027833 0.328979
vt 0.036456 0.302707
vt 0.027833 0.328979
vt 0.036456 0.302707
vt 0.027833 0.328979
vt 0.027833 0.328979
vt 0.027833 0.328979
vt 0.036456 0.302707
vt 0.027833 0.328979
vt 0.037061 0.303435
vt 0.037061 0.303435
vt 0.037061 0.303435
vt 0.037061 0.303435
vt 0.037061 0.303435
vt 0.027833 0.328979
vt 0.027833 0.328979
vt 0.026575 0.379294
vt 0.026575 0.379294
vt 0.026575 0.379294
vn 0.196266 -0.819887 0.537834
vn 0.196266 -0.819887 0.537834
vn 0.196266 -0.819887 0.537834
vn 0.196266 -0.819887 0.537834
vn 0.130377 0.981636 -0.139257
vn 0.130377 0.981636 -0.139257
vn 0.130377 0.981636 -0.139257
vn 0.130377 0.981636 -0.139257
vn 0.130377 0.981636 -0.139257
vn 0.130377 0.981636 -0.139257
vn 0.130377 0.981636 -0.139257
vn -0.943359 -0.124818 -0.307397
vn -0.943359 -0.124818 -0.307397
vn -0.943359 -0.124818 -0.307397
vn 0.000000 -1.000000 0.000000
vn 0.000000 -1.000000 0.000000
vn 0.000000 -1.000000 0.000000
vn 0.000000 -1.000000 0.000000
vn 0.529114 -0.824248 -0.201629
vn 0.529114 -0.824248 -0.201629
vn 0.529114 -0.824248 -0.201629
vn 0.529114 -0.824248 -0.201629
vn -0.529114 -0.824248 -0.201629
vn -0.529114 -0.824248 -0.201629
vn -0.529114 -0.824248 -0.201629
vn -0.529114 -0.824248 -0.201629
vn 0.037511 0.991489 0.124670
vn 0.037511 0.991489 0.124670
vn 0.037511 0.991489 0.124670
vn 0.037511 0.991489 0.124670
vn 0.100713 0.994170 -0.038503
vn 0.100713 0.994170 -0.038503
vn 0.100713 0.994170 -0.038503
vn 0.100713 0.994170 -0.038503
vn -0.968308 0.194252 -0.156991
vn -0.968308 0.194252 -0.156991
vn -0.968308 0.194252 -0.156991
vn -0.968308 0.194252 -0.156991
vn -0.100713 0.994170 -0.038503
vn -0.100713 0.994170 -0.038503
vn -0.100713 0.994170 -0.038503
vn -0.100713 0.994170 -0.038503
vn -0.340255 0.041139 -0.939433
vn -0.340255 0.041139 -0.939433
vn -0.340255 0.041139 -0.939433
vn -0.340255 0.041139 -0.939433
vn -0.932732 0.042054 0.358111
vn -0.932732 0.042054 0.358111
vn -0.932732 0.042054 0.358111
vn -0.932732 0.042054 0.358111
vn -0.347136 0.054764 0.936215
vn -0.347136 0.054764 0.936215
vn -0.347136 0.054764 0.936215
vn -0.347136 0.054764 0.936215
vn 0.932732 0.042054 0.358110
vn 0.932732 0.042054 0.358110
vn 0.932732 0.042054 0.358110
vn 0.932732 0.042054 0.358110
vn 0.310586 -0.423264 0.851107
vn 0.310586 -0.423264 0.851107
vn 0.310586 -0.423265 0.851107
vn 0.310586 -0.423264 0.851107
vn 0.844108 -0.428970 -0.321663
vn 0.844108 -0.428970 -0.321663
vn 0.844108 -0.428970 -0.321663
vn 0.844108 -0.428970 -0.321663
vn 0.310586 -0.423264 -0.851107
vn 0.310586 -0.423264 -0.851107
vn 0.310586 -0.423264 -0.851107
vn 0.310586 -0.423264 -0.851107
vn -0.844108 -0.428970 -0.321662
vn -0.844108 -0.428970 -0.321662
vn -0.844108 -0.428970 -0.321662
vn -0.844108 -0.428970 -0.321662
vn 0.934452 0.000000 -0.356090
vn 0.934452 0.000000 -0.356090
vn 0.934452 0.000000 -0.356090
vn 0.934452 0.000000 -0.356090
vn 0.229993 0.503829 0.832623
vn 0.229993 0.503828 0.832622
vn 0.229993 0.503829 0.832623
vn -0.934452 0.000000 -0.356090
vn -0.934452 0.000000 -0.356090
vn -0.934452 0.000000 -0.356090
vn -0.934452 0.000000 -0.356090
vn -0.959673 0.188571 -0.208490
vn -0.959673 0.188571 -0.208490
vn -0.959673 0.188571 -0.208490
vn 0.056304 0.593468 -0.802886
vn 0.056304 0.593468 -0.802886
vn 0.056304 0.593468 -0.802886
vn 0.340255 0.041139 0.939433
vn 0.340255 0.041139 0.939433
vn 0.340255 0.041139 0.939433
vn 0.340255 0.041139 0.939433
vn -0.122670 0.984378 -0.126299
vn -0.122670 0.984378 -0.126299
vn -0.122670 0.984378 -0.126299
vn -0.122670 0.984378 -0.126299
vn 0.340255 0.041139 -0.939433
vn 0.340255 0.041139 -0.939433
vn 0.340255 0.041139 -0.939433
vn 0.340255 0.041139 -0.939433
vn -0.037473 0.991659 0.123322
vn -0.037473 0.991659 0.123322
vn -0.037473 0.991659 0.123322
vn -0.037473 0.991659 0.123322
vn -0.237503 0.480904 0.843993
vn -0.237503 0.480904 0.843993
vn -0.237503 0.480904 0.843993
vn -0.196266 -0.819887 0.537834
vn -0.196266 -0.819887 0.537834
vn -0.196266 -0.819887 0.537834
vn -0.196266 -0.819887 0.537834
vn -0.310586 -0.423265 0.851107
vn -0.310586 -0.423265 0.851107
vn -0.310586 -0.423265 0.851107
vn -0.310586 -0.423265 0.851107
vn 0.000000 -1.000000 -0.000000
vn 0.000000 -1.000000 -0.000000
vn 0.000000 -1.000000 -0.000000
vn 0.000000 -1.000000 -0.000000
vn -0.310586 -0.423264 -0.851107
vn -0.310586 -0.423264 -0.851107
vn -0.310586 -0.423264 -0.851107
vn -0.310586 -0.423264 -0.851107
vn -0.196266 -0.819887 -0.537834
vn -0.196266 -0.819887 -0.537834
vn -0.196266 -0.819887 -0.537834
vn -0.196266 -0.819887 -0.537834
vn 0.844108 -0.428970 0.321663
vn 0.844107 -0.428970 0.321663
vn 0.844107 -0.428970 0.321663
vn 0.844107 -0.428970 0.321663
vn 0.000000 -1.000000 -0.000000
vn 0.000000 -1.000000 -0.000000
vn 0.000000 -1.000000 -0.000000
vn 0.000000 -1.000000 -0.000000
vn 0.000000 -1.000000 0.000000
vn 0.000000 -1.000000 0.000000
vn 0.000000 -1.000000 0.000000
vn 0.000000 -1.000000 0.000000
vn -0.844108 -0.428971 0.321662
vn -0.844108 -0.428971 0.321662
vn -0.844108 -0.428971 0.321662
vn -0.844108 -0.428971 0.321662
vn -0.529114 -0.824248 0.201629
vn -0.529114 -0.824248 0.201629
vn -0.529114 -0.824248 0.201629
vn -0.529114 -0.824248 0.201629
vn -0.934452 0.000000 0.356090
vn -0.934452 0.000000 0.356090
vn -0.934452 0.000000 0.356090
vn -0.934452 0.000000 0.356090
vn -0.100714 0.994170 0.038503
vn -0.100714 0.994170 0.038503
vn -0.100714 0.994170 0.038503
vn -0.100714 0.994170 0.038503
vn 0.932732 0.042054 -0.358109
vn 0.932732 0.042054 -0.358109
vn 0.932732 0.042054 -0.358109
vn 0.932732 0.042054 -0.358109
vn -0.122670 0.984378 0.126298
vn -0.122670 0.984378 0.126298
vn -0.122670 0.984378 0.126298
vn -0.122670 0.984378 0.126298
vn 0.122670 0.984378 0.126299
vn 0.122670 0.984378 0.126299
vn 0.122670 0.984378 0.126299
vn 0.122670 0.984378 0.126298
vn -0.932732 0.042054 -0.358110
vn -0.932732 0.042054 -0.358110
vn -0.932732 0.042054 -0.358110
vn -0.932732 0.042054 -0.358110
vn 0.100714 0.994170 0.038503
vn 0.100714 0.994170 0.038503
vn 0.100714 0.994170 0.038503
vn 0.100714 0.994170 0.038503
vn 0.934452 0.000000 0.356090
vn 0.934452 0.000000 0.356090
vn 0.934452 0.000000 0.356090
vn 0.934452 0.000000 0.356090
vn 0.529114 -0.824248 0.201629
vn 0.529114 -0.824248 0.201629
vn 0.529114 -0.824248 0.201629
vn 0.529114 -0.824248 0.201629
vn 0.932292 -0.067944 -0.355268
vn 0.932292 -0.067944 -0.355268
vn 0.932292 -0.067944 -0.355268
vn 0.932292 -0.067944 -0.355268
vn -0.876590 0.103702 -0.469931
vn -0.876590 0.103702 -0.469931
vn -0.876590 0.103702 -0.469931
vn -0.342041 -0.066847 -0.937304
vn -0.342041 -0.066847 -0.937304
vn -0.342041 -0.066847 -0.937304
vn -0.342041 -0.066847 -0.937304
vn -0.932292 -0.067944 -0.355267
vn -0.932292 -0.067944 -0.355267
vn -0.932292 -0.067944 -0.355267
vn -0.932292 -0.067944 -0.355267
vn -0.932292 -0.067944 0.355267
vn -0.932292 -0.067944 0.355267
vn -0.932292 -0.067944 0.355267
vn -0.932292 -0.067944 0.355267
vn -0.342041 -0.066847 0.937304
vn -0.342041 -0.066847 0.937304
vn -0.342041 -0.066847 0.937304
vn -0.342041 -0.066847 0.937304
vn 0.342041 -0.066847 0.937304
vn 0.342041 -0.066847 0.937304
vn 0.342041 -0.066847 0.937304
vn 0.342041 -0.066847 0.937304
vn 0.932292 -0.067944 0.355268
vn 0.932292 -0.067944 0.355268
vn 0.932292 -0.067944 0.355267
vn 0.932292 -0.067944 0.355268
vn -0.342808 0.000000 0.939406
vn -0.342808 0.000000 0.939406
vn -0.342808 0.000000 0.939406
vn -0.342808 0.000000 0.939406
vn 0.342808 0.000000 0.939406
vn 0.342808 0.000000 0.939406
vn 0.342808 0.000000 0.939406
vn 0.342808 0.000000 0.939406
vn 0.031264 0.994174 -0.103158
vn 0.031264 0.994174 -0.103158
vn 0.031264 0.994174 -0.103158
vn 0.031264 0.994174 -0.103158
vn 0.348932 -0.011664 -0.937075
vn 0.348932 -0.011664 -0.937075
vn 0.348932 -0.011664 -0.937075
vn 0.348932 -0.011664 -0.937075
vn 0.196266 -0.819887 -0.537833
vn 0.196266 -0.819887 -0.537833
vn 0.196266 -0.819887 -0.537833
vn 0.196266 -0.819887 -0.537833
vn 0.342041 -0.066846 -0.937304
vn 0.342041 -0.066846 -0.937304
vn 0.342041 -0.066846 -0.937304
vn 0.342041 -0.066847 -0.937304
vn 0.342041 -0.066847 -0.937304
vn 0.342041 -0.066847 -0.937304
vn 0.342041 -0.066847 -0.937304
vn -0.342041 -0.066846 -0.937304
vn -0.342041 -0.066846 -0.937304
vn -0.342041 -0.066846 -0.937304
vn -0.991585 0.103209 -0.078154
vn -0.991584 0.103209 -0.078154
vn -0.991585 0.103209 -0.078154
vn -0.986732 0.103036 0.125471
vn -0.986732 0.103036 0.125471
vn -0.986732 0.103036 0.125471
vn -0.986732 0.103036 0.125471
vn 0.079666 -0.013290 -0.996733
vn 0.079666 -0.013290 -0.996733
vn 0.079666 -0.013290 -0.996733
vn 0.079666 -0.013290 -0.996733
vn 0.964382 -0.018817 -0.263845
vn 0.964382 -0.018817 -0.263845
vn 0.964382 -0.018817 -0.263845
vn 0.976173 -0.181438 -0.119022
vn 0.976173 -0.181438 -0.119022
vn 0.976173 -0.181438 -0.119022
vn 0.996395 0.016888 0.083137
vn 0.996395 0.016888 0.083137
vn 0.996395 0.016888 0.083137
vn 0.996395 0.016888 0.083137
vn 0.998156 -0.023764 0.055852
vn 0.998156 -0.023764 0.055852
vn 0.998156 -0.023764 0.055852
vn -0.029859 0.178601 -0.983468
vn -0.029859 0.178601 -0.983468
vn -0.029859 0.178601 -0.983468
vn 0.999740 0.022516 -0.003660
vn 0.999740 0.022516 -0.003660
vn 0.999740 0.022516 -0.003660
vn 0.999740 0.022516 -0.003660
vn 0.999740 0.022516 -0.003660
vn 0.995843 -0.000000 -0.091081
vn 0.995844 -0.000000 -0.091081
vn 0.995844 -0.000000 -0.091081
vn -0.342808 -0.000000 -0.939406
vn -0.342808 -0.000000 -0.939406
vn -0.342808 -0.000000 -0.939406
vn -0.342808 -0.000000 -0.939406
vn -0.342808 -0.000000 -0.939406
vn -0.036843 0.994170 -0.101333
vn -0.036843 0.994170 -0.101333
vn -0.036843 0.994170 -0.101333
vn -0.036843 0.994170 -0.101333
vn -0.036843 0.994170 -0.101333
s off
f 22/1/1 32/2/2 57/3/3 58/4/4
f 28/5/5 46/6/6 47/7/7 15/8/8 67/92/9 68/94/10 71/98/11
f 65/90/12 62/87/13 63/88/14
f 38/13/15 39/14/16 35/15/17 8/16/18
f 21/17/19 50/18/20 51/19/21 52/20/22
f 42/21/23 24/22/24 54/23/25 55/24/26
f 30/25/27 31/26/28 4/27/29 10/28/30
f 48/29/31 49/30/32 6/31/33 11/32/34
f 60/85/35 61/86/36 65/90/37 66/91/38
f 5/35/39 43/36/40 44/37/41 12/38/42
f 29/39/43 30/25/44 10/28/45 14/40/46
f 47/41/47 48/29/48 11/32/49 15/42/50
f 11/32/51 60/85/52 67/93/53 15/42/54
f 12/38/55 44/37/56 45/44/57 16/45/58
f 33/46/59 34/47/60 2/48/61 18/49/62
f 37/50/63 38/51/64 8/52/65 19/53/66
f 35/15/67 36/54/68 19/55/69 8/16/70
f 7/56/71 40/57/72 41/58/73 20/59/74
f 49/60/75 50/18/76 21/17/77 6/61/78
f 31/26/79 59/84/80 4/27/81
f 24/22/82 42/21/83 43/62/84 5/63/85
f 65/90/86 61/86/87 62/87/88
f 72/107/89 73/108/90 26/109/91
f 28/43/92 27/34/93 12/38/94 16/45/95
f 45/65/96 46/6/97 28/5/98 16/66/99
f 9/67/100 30/25/101 29/39/102 13/68/103
f 3/69/104 31/26/105 30/25/106 9/67/107
f 3/69/108 59/84/109 31/26/110
f 57/3/111 32/2/112 23/70/113 56/71/114
f 1/72/115 34/47/116 33/46/117 17/73/118
f 7/74/119 35/15/120 39/14/121 40/75/122
f 20/76/123 36/54/124 35/15/125 7/74/126
f 25/9/127 53/12/128 54/77/129 24/64/130
f 2/48/131 38/51/132 37/50/133 18/49/134
f 34/78/135 39/14/136 38/13/137 2/79/138
f 40/75/139 39/14/140 34/78/141 1/80/142
f 41/58/143 40/57/144 1/72/145 17/73/146
f 42/21/147 55/24/148 56/71/149 23/70/150
f 43/62/151 42/21/152 23/70/153 3/69/154
f 44/37/155 43/36/156 3/69/157 9/67/158
f 45/44/159 44/37/160 9/67/161 13/68/162
f 13/81/163 29/82/164 46/6/165 45/65/166
f 47/7/167 46/6/168 29/82/169 14/83/170
f 10/28/171 48/29/172 47/41/173 14/40/174
f 4/27/175 49/30/176 48/29/177 10/28/178
f 22/1/179 50/18/180 49/60/181 4/27/182
f 58/4/183 51/19/184 50/18/185 22/1/186
f 52/20/187 51/19/188 37/50/189 19/53/190
f 64/89/191 65/90/192 63/88/193
f 20/76/194 54/77/195 53/12/196 64/89/197
f 55/24/198 54/23/199 20/59/200 41/58/201
f 17/73/202 56/71/203 55/24/204 41/58/205
f 33/46/206 57/3/207 56/71/208 17/73/209
f 58/4/210 57/3/211 33/46/212 18/49/213
f 37/50/214 51/19/215 58/4/216 18/49/217
f 23/70/218 32/2/219 59/84/220 3/69/221
f 4/27/222 59/84/223 32/2/224 22/1/225
f 6/31/226 61/86/227 60/85/228 11/32/229
f 62/87/230 61/86/231 6/31/232 21/10/233
f 63/88/234 62/87/235 21/10/236 52/11/237
f 64/89/238 19/55/239 36/54/240
f 64/89/241 63/88/242 52/11/243 19/55/244
f 20/76/245 64/89/246 36/54/247
f 66/91/248 65/90/249 64/89/250
f 67/93/251 60/85/252 66/91/253 68/95/254
f 68/100/255 66/101/256 70/102/257 71/103/258
f 53/12/259 69/96/260 64/89/261
f 25/9/262 69/96/263 53/12/264
f 71/99/265 70/97/266 27/34/267 28/43/268
f 70/97/269 64/89/270 69/96/271
f 66/101/272 64/104/273 70/102/274
f 70/97/275 69/96/276 72/105/277 26/33/278 27/34/279
f 25/9/280 72/105/281 69/96/282
f 5/35/283 73/106/284 72/105/285 25/9/286 24/64/287
f 27/34/288 26/33/289 73/106/290 5/35/291 12/38/292
