# This file uses centimeters as units for non-parametric coordinates.

v -5.872215 7.936593 -12.132526
v -5.826469 2.987449 -10.678516
v -2.027618 -0.037608 -13.390682
v 2.514114 0.785615 -12.581013
v 4.524498 5.244634 -13.078060
v 2.621490 9.637009 -12.387669
v -1.820511 10.808602 -11.973125
v 5.984299 6.155295 20.341282
v 6.246284 1.211127 20.223682
v 11.403229 -0.893627 24.589565
v 18.261658 1.445021 27.495022
v 19.740456 5.965673 26.746387
v 17.242638 10.041529 25.326885
v 11.990997 11.227342 22.092999
v 2.158936 3.133833 6.744190
v 1.968880 7.307567 6.670765
v 5.111900 10.306584 6.225414
v 9.095047 9.546865 4.996777
v 10.795082 6.070599 3.984173
v 12.110359 0.885582 8.970661
v 7.992844 -0.238652 9.486851
v -5.155914 7.422317 -9.317219
v -5.117783 2.516411 -7.876728
v 8.022079 6.094188 21.724483
v 8.434410 2.615816 22.601757
v 14.454506 5.436126 26.054111
v 11.544342 0.655175 24.475719
v 17.226601 2.570799 27.249516
v 18.304787 5.866868 26.703663
v 16.483627 8.838592 25.668743
v 12.476341 9.872246 22.711544
v -4.723831 7.322385 -11.777172
v -4.688492 3.496713 -10.653301
v -0.764664 5.330564 -12.257618
v -1.751999 1.158356 -12.749752
v 1.758682 1.794754 -12.123913
v 3.312714 5.241511 -12.508091
v 1.841728 8.636766 -11.974430
v -1.591919 9.542397 -11.654011
v 16.193878 2.073756 25.585789
v 16.665878 0.745464 25.768253
v 15.260803 1.716360 27.199345
v 15.985115 0.452897 27.090977
v -16.088585 0.474018 -31.865162
v -11.870522 -0.169791 -28.966267
v -8.586052 4.318387 -28.884464
v -10.109322 8.193995 -26.735035
v -14.385262 10.340328 -27.866817
v -18.540398 8.421142 -29.429699
v -19.291672 4.202085 -31.135906
v -16.514549 -0.333696 27.642933
v -11.713951 -0.160843 28.847828
v -8.953598 3.416231 30.726841
v -10.312111 7.703917 31.865162
v -14.766449 9.473499 31.405499
v -18.962463 7.392439 29.694065
v -19.740448 3.027837 28.019535
v -12.101486 0.309177 13.951221
v -16.116035 0.259743 12.792507
v -19.156639 3.393196 12.878147
v -18.433968 7.519958 13.510380
v -14.955917 9.400402 14.116306
v -11.193558 8.529584 20.326427
v -9.913345 4.515824 19.469067
v -16.554153 0.013959 -28.988529
v -12.371902 -0.630531 -26.118389
v -16.007935 0.906262 28.408482
v -12.507774 1.032293 29.286961
v -14.483231 4.328397 29.939724
v -10.495193 3.640356 30.656948
v -11.485687 6.766528 31.486927
v -14.733376 8.056729 31.151783
v -17.792717 6.539429 29.903957
v -18.359947 3.357172 28.683064
v -15.743790 1.375772 -30.921627
v -12.483223 0.878119 -28.680859
v -14.144844 5.157940 -29.186199
v -9.944382 4.347435 -28.617588
v -11.121857 7.343228 -26.956135
v -14.427116 9.002333 -27.830959
v -17.638985 7.518828 -29.039051
v -18.219719 4.257532 -30.357944
v -11.048912 5.968467 29.683048
v -9.699158 6.349829 29.913677
v -10.721954 4.793818 31.137440
v -9.427711 5.470061 31.118237
vt 0.530895 0.512155
vt 0.530895 0.512155
vt 0.530895 0.512155
vt 0.530895 0.512155
vt 0.530895 0.512155
vt 0.530895 0.512155
vt 0.530895 0.512155
vt 0.530895 0.512155
vt 0.530895 0.512155
vt 0.530895 0.512155
vt 0.530895 0.512155
vt 0.530895 0.512155
vt 0.530895 0.512155
vt 0.530895 0.512155
vt 0.004734 0.352656
vt 0.004734 0.352656
vt 0.004734 0.352656
vt 0.004734 0.352656
vt 0.004734 0.352656
vt 0.004734 0.352656
vt 0.004734 0.352656
vt 0.004734 0.352656
vt 0.004734 0.352656
vt 0.004734 0.352656
vt 0.004734 0.352656
vt 0.004734 0.352656
vt 0.004734 0.352656
vt 0.004734 0.352656
vt 0.004734 0.352656
vt 0.004734 0.352656
vt 0.004734 0.352656
vt 0.530895 0.512155
vt 0.530895 0.512155
vt 0.530895 0.512155
vt 0.530895 0.512155
vt 0.530895 0.512155
vt 0.530895 0.512155
vt 0.530895 0.512155
vt 0.530895 0.512155
vt 0.530895 0.512155
vt 0.530895 0.512155
vt 0.530895 0.512155
vt 0.530895 0.512155
vt 0.530895 0.512155
vt 0.530895 0.512155
vt 0.530895 0.512155
vt 0.530895 0.512155
vt 0.530895 0.512155
vt 0.530895 0.512155
vt 0.530895 0.512155
vt 0.530895 0.512155
vt 0.530895 0.512155
vt 0.530895 0.512155
vt 0.530895 0.512155
vt 0.530895 0.512155
vt 0.530895 0.512155
vt 0.004734 0.352656
vt 0.530895 0.512155
vt 0.530895 0.512155
vt 0.530895 0.512155
vt 0.530895 0.512155
vt 0.530895 0.512155
vt 0.530895 0.512155
vt 0.530895 0.512155
vt 0.530895 0.512155
vt 0.530895 0.512155
vt 0.530895 0.512155
vt 0.530895 0.512155
vt 0.530895 0.512155
vt 0.530895 0.512155
vt 0.530895 0.512155
vt 0.530895 0.512155
vt 0.530895 0.512155
vt 0.004734 0.352656
vt 0.004734 0.352656
vt 0.004734 0.352656
vt 0.004734 0.352656
vt 0.004734 0.352656
vt 0.004734 0.352656
vt 0.004734 0.352656
vt 0.004734 0.352656
vt 0.004734 0.352656
vt 0.004734 0.352656
vt 0.004734 0.352656
vt 0.004734 0.352656
vt 0.004734 0.352656
vt 0.004734 0.352656
vt 0.004734 0.352656
vt 0.004734 0.352656
vt 0.004734 0.352656
vt 0.530895 0.512155
vt 0.530895 0.512155
vt 0.530895 0.512155
vt 0.530895 0.512155
vt 0.530895 0.512155
vt 0.530895 0.512155
vt 0.530895 0.512155
vt 0.530895 0.512155
vt 0.530895 0.512155
vt 0.530895 0.512155
vt 0.530895 0.512155
vt 0.530895 0.512155
vt 0.530895 0.512155
vt 0.530895 0.512155
vt 0.530895 0.512155
vt 0.530895 0.512155
vt 0.530895 0.512155
vt 0.530895 0.512155
vt 0.530895 0.512155
vt 0.530895 0.512155
vt 0.530895 0.512155
vt 0.530895 0.512155
vt 0.530895 0.512155
vt 0.530895 0.512155
vt 0.530895 0.512155
vt 0.004734 0.352656
vt 0.530895 0.512155
vt 0.530895 0.512155
vn -0.904107 0.048074 0.424593
vn -0.904107 0.048074 0.424593
vn -0.904107 0.048074 0.424593
vn -0.904107 0.048074 0.424593
vn -0.486481 -0.841842 0.233750
vn -0.486481 -0.841842 0.233750
vn -0.486481 -0.841842 0.233750
vn -0.486481 -0.841842 0.233750
vn 0.221544 -0.970007 -0.100024
vn 0.221544 -0.970007 -0.100024
vn 0.221544 -0.970007 -0.100024
vn 0.221544 -0.970007 -0.100024
vn 0.893028 -0.269341 -0.360495
vn 0.893028 -0.269341 -0.360495
vn 0.893028 -0.269341 -0.360495
vn 0.893028 -0.269341 -0.360495
vn 0.834012 0.450757 -0.318186
vn 0.834012 0.450757 -0.318186
vn 0.834012 0.450757 -0.318186
vn 0.834012 0.450757 -0.318186
vn 0.211233 0.975381 -0.063350
vn 0.211233 0.975381 -0.063350
vn 0.211233 0.975381 -0.063350
vn 0.211233 0.975381 -0.063350
vn -0.609888 0.747130 0.264260
vn -0.609888 0.747130 0.264260
vn -0.609888 0.747130 0.264260
vn -0.609888 0.747130 0.264260
vn -0.250964 -0.274973 -0.928120
vn -0.250964 -0.274973 -0.928120
vn -0.250964 -0.274973 -0.928120
vn -0.452289 0.209295 -0.866966
vn -0.452289 0.209295 -0.866966
vn -0.452289 0.209295 -0.866966
vn 0.161266 0.077885 -0.983833
vn 0.161266 0.077885 -0.983833
vn 0.161266 0.077885 -0.983833
vn -0.062900 -0.082500 -0.994604
vn -0.062900 -0.082500 -0.994604
vn -0.062900 -0.082500 -0.994604
vn -0.057951 0.130461 -0.989758
vn -0.057951 0.130461 -0.989758
vn -0.057951 0.130461 -0.989758
vn -0.057952 0.130462 -0.989758
vn -0.057952 0.130462 -0.989758
vn -0.057952 0.130462 -0.989758
vn -0.054098 0.131236 -0.989874
vn -0.054098 0.131236 -0.989874
vn -0.054098 0.131236 -0.989874
vn -0.542316 0.144456 0.827663
vn -0.542316 0.144456 0.827663
vn -0.542316 0.144456 0.827663
vn -0.505376 0.022844 0.862597
vn -0.505377 0.022844 0.862597
vn -0.505377 0.022844 0.862597
vn -0.698218 -0.439861 0.564814
vn -0.698218 -0.439861 0.564814
vn -0.698218 -0.439861 0.564814
vn -0.186120 0.219484 0.957698
vn -0.186120 0.219484 0.957698
vn -0.186120 0.219484 0.957698
vn -0.186119 0.219466 0.957703
vn -0.186119 0.219466 0.957703
vn -0.186119 0.219466 0.957703
vn -0.484503 0.378280 0.788772
vn -0.484503 0.378280 0.788772
vn -0.484503 0.378280 0.788772
vn -0.491315 0.373708 0.786735
vn -0.491315 0.373708 0.786735
vn -0.491315 0.373708 0.786735
vn -0.958594 -0.048884 0.280550
vn -0.958594 -0.048884 0.280550
vn -0.958594 -0.048884 0.280550
vn -0.958594 -0.048884 0.280550
vn -0.660422 0.708360 0.249135
vn -0.660422 0.708360 0.249135
vn -0.660422 0.708360 0.249135
vn -0.660422 0.708360 0.249135
vn 0.232068 0.963424 -0.134010
vn 0.232068 0.963424 -0.134010
vn 0.232068 0.963424 -0.134010
vn 0.232068 0.963424 -0.134010
vn 0.831434 0.444168 -0.333813
vn 0.831434 0.444168 -0.333813
vn 0.831434 0.444168 -0.333813
vn 0.831434 0.444168 -0.333813
vn 0.918476 -0.212545 -0.333506
vn 0.918476 -0.212545 -0.333506
vn 0.918476 -0.212545 -0.333506
vn 0.918476 -0.212545 -0.333506
vn 0.528908 -0.835245 -0.150407
vn 0.528908 -0.835245 -0.150407
vn 0.528908 -0.835245 -0.150407
vn -0.467806 -0.882779 0.043102
vn -0.467806 -0.882780 0.043102
vn -0.467806 -0.882779 0.043102
vn -0.467806 -0.882780 0.043102
vn -0.561773 0.776718 0.284817
vn -0.561773 0.776718 0.284817
vn -0.561773 0.776718 0.284817
vn -0.964243 0.067096 0.256386
vn -0.964243 0.067096 0.256386
vn -0.964243 0.067096 0.256386
vn -0.964243 0.067096 0.256386
vn -0.612998 -0.789771 0.022275
vn -0.612998 -0.789771 0.022275
vn -0.612998 -0.789771 0.022275
vn -0.667223 0.013753 0.744731
vn -0.667223 0.013753 0.744731
vn -0.667223 0.013753 0.744731
vn -0.667223 0.013753 0.744731
vn -0.629129 -0.095254 0.771442
vn -0.629129 -0.095254 0.771442
vn -0.629129 -0.095254 0.771442
vn -0.629129 -0.095254 0.771442
vn -0.693914 -0.313052 0.648446
vn -0.693914 -0.313052 0.648446
vn -0.693914 -0.313052 0.648446
vn -0.693914 -0.313052 0.648446
vn -0.041402 0.176407 0.983446
vn -0.041402 0.176407 0.983446
vn -0.041402 0.176407 0.983446
vn -0.041402 0.176407 0.983446
vn -0.049073 0.301541 0.952189
vn -0.049073 0.301541 0.952190
vn -0.049073 0.301541 0.952190
vn -0.049073 0.301541 0.952190
vn -0.459402 0.354860 0.814263
vn -0.459402 0.354860 0.814263
vn -0.459402 0.354860 0.814263
vn -0.459402 0.354860 0.814263
vn -0.477769 0.310408 0.821817
vn -0.477769 0.310408 0.821817
vn -0.477769 0.310408 0.821817
vn -0.477769 0.310408 0.821817
vn 0.145324 -0.277641 -0.949630
vn 0.145324 -0.277641 -0.949630
vn 0.145324 -0.277641 -0.949630
vn 0.145324 -0.277641 -0.949630
vn -0.204427 0.498552 -0.842410
vn -0.204427 0.498552 -0.842410
vn -0.204427 0.498552 -0.842410
vn -0.204427 0.498552 -0.842410
vn 0.075020 0.457521 -0.886028
vn 0.075020 0.457521 -0.886028
vn 0.075020 0.457521 -0.886028
vn 0.075020 0.457521 -0.886028
vn -0.424044 0.090745 -0.901084
vn -0.424044 0.090745 -0.901084
vn -0.424044 0.090745 -0.901084
vn -0.424044 0.090745 -0.901084
vn -0.425160 -0.042089 -0.904139
vn -0.425160 -0.042089 -0.904139
vn -0.425160 -0.042089 -0.904139
vn -0.425160 -0.042089 -0.904139
vn -0.159408 -0.268230 -0.950074
vn -0.159408 -0.268230 -0.950075
vn -0.159408 -0.268230 -0.950075
vn -0.159408 -0.268230 -0.950074
vn 0.185582 -0.208526 -0.960248
vn 0.185582 -0.208526 -0.960248
vn 0.185582 -0.208526 -0.960248
vn 0.185582 -0.208526 -0.960248
vn 0.782958 0.331733 0.526241
vn 0.782958 0.331733 0.526241
vn 0.782958 0.331733 0.526241
vn 0.775920 0.372703 0.508961
vn 0.775920 0.372703 0.508961
vn 0.775920 0.372702 0.508961
vn 0.775920 0.372702 0.508961
vn 0.253642 -0.964242 -0.076831
vn 0.253642 -0.964242 -0.076831
vn 0.253642 -0.964242 -0.076831
vn -0.607811 0.110358 0.786376
vn -0.607811 0.110358 0.786376
vn -0.607811 0.110358 0.786376
vn -0.508224 -0.103728 0.854955
vn -0.508224 -0.103728 0.854955
vn -0.508224 -0.103728 0.854955
vn -0.508224 -0.103728 0.854955
vn 0.258844 -0.962625 -0.079700
vn 0.258844 -0.962626 -0.079700
vn 0.258844 -0.962626 -0.079700
vn 0.338224 -0.933780 -0.116871
vn 0.338224 -0.933780 -0.116871
vn 0.338224 -0.933780 -0.116871
vn -0.079791 -0.996697 0.015126
vn -0.079791 -0.996697 0.015126
vn -0.079791 -0.996697 0.015126
vn -0.079791 -0.996697 0.015126
vn 0.835011 -0.549969 0.017053
vn 0.835011 -0.549969 0.017053
vn 0.835011 -0.549969 0.017053
vn 0.835011 -0.549969 0.017053
vn 0.944668 0.327285 0.022047
vn 0.944669 0.327285 0.022047
vn 0.944668 0.327285 0.022047
vn 0.944669 0.327285 0.022047
vn 0.341176 0.939913 0.012720
vn 0.341176 0.939913 0.012720
vn 0.341176 0.939913 0.012720
vn 0.341176 0.939913 0.012720
vn -0.449403 0.893169 0.016907
vn -0.449403 0.893169 0.016907
vn -0.449403 0.893169 0.016907
vn -0.449403 0.893169 0.016907
vn -0.985034 0.172250 0.006123
vn -0.985034 0.172250 0.006123
vn -0.985034 0.172250 0.006123
vn -0.985034 0.172250 0.006123
vn -0.785152 -0.619302 0.001180
vn -0.785152 -0.619302 0.001180
vn -0.785152 -0.619302 0.001180
vn -0.785152 -0.619302 0.001180
vn 0.574910 0.127780 -0.808177
vn 0.574910 0.127780 -0.808177
vn 0.574910 0.127780 -0.808177
vn 0.120514 -0.070133 -0.990231
vn 0.120514 -0.070133 -0.990231
vn 0.120514 -0.070133 -0.990231
vn 0.214049 0.536756 -0.816135
vn 0.214049 0.536756 -0.816135
vn 0.214049 0.536756 -0.816135
vn 0.393273 0.331230 -0.857685
vn 0.393273 0.331230 -0.857684
vn 0.393273 0.331230 -0.857684
vn 0.190108 0.338793 -0.921454
vn 0.190108 0.338793 -0.921454
vn 0.190108 0.338793 -0.921454
vn 0.190107 0.338792 -0.921455
vn 0.190107 0.338792 -0.921455
vn 0.190107 0.338792 -0.921455
vn 0.188992 0.342400 -0.920350
vn 0.188992 0.342400 -0.920350
vn 0.188992 0.342400 -0.920350
vn -0.220363 -0.314901 0.923189
vn -0.220363 -0.314901 0.923189
vn -0.220363 -0.314901 0.923189
vn -0.220359 -0.314897 0.923191
vn -0.220359 -0.314897 0.923191
vn -0.220359 -0.314897 0.923191
vn 0.411966 -0.792198 0.450229
vn 0.411966 -0.792198 0.450229
vn 0.411966 -0.792198 0.450229
vn -0.220371 -0.314907 0.923185
vn -0.220371 -0.314907 0.923185
vn -0.220371 -0.314907 0.923185
vn -0.220363 -0.314907 0.923187
vn -0.220363 -0.314907 0.923187
vn -0.220363 -0.314908 0.923187
vn -0.220362 -0.314907 0.923187
vn -0.220362 -0.314907 0.923187
vn -0.220362 -0.314907 0.923187
vn -0.220366 -0.314901 0.923188
vn -0.220366 -0.314901 0.923188
vn -0.220366 -0.314901 0.923188
vn 0.034756 -0.998758 -0.035693
vn 0.034756 -0.998758 -0.035693
vn 0.034756 -0.998758 -0.035693
vn 0.034756 -0.998758 -0.035693
vn -0.720523 -0.691922 -0.045719
vn -0.720523 -0.691922 -0.045719
vn -0.720523 -0.691922 -0.045719
vn -0.720523 -0.691922 -0.045719
vn -0.982708 0.182371 -0.032025
vn -0.982708 0.182371 -0.032025
vn -0.982708 0.182371 -0.032025
vn -0.982708 0.182371 -0.032025
vn -0.457943 0.888976 -0.003193
vn -0.457943 0.888976 -0.003193
vn -0.457943 0.888976 -0.003193
vn -0.457943 0.888976 -0.003193
vn 0.295623 0.955203 0.013954
vn 0.295623 0.955203 0.013954
vn 0.295623 0.955203 0.013954
vn 0.295623 0.955203 0.013954
vn 0.890219 0.454146 -0.035507
vn 0.890219 0.454146 -0.035507
vn 0.890219 0.454146 -0.035507
vn 0.871918 -0.484034 -0.073963
vn 0.871918 -0.484034 -0.073963
vn 0.871918 -0.484034 -0.073963
vn 0.871918 -0.484034 -0.073963
vn -0.760708 -0.610407 -0.220739
vn -0.760708 -0.610407 -0.220739
vn -0.760708 -0.610407 -0.220739
vn -0.037882 -0.985577 -0.164931
vn -0.037882 -0.985577 -0.164931
vn -0.037882 -0.985577 -0.164931
vn -0.037882 -0.985577 -0.164931
vn 0.805724 -0.590477 0.046322
vn 0.805724 -0.590477 0.046322
vn 0.805724 -0.590477 0.046322
vn -0.201550 -0.453613 0.868109
vn -0.201550 -0.453613 0.868109
vn -0.201550 -0.453613 0.868109
vn -0.201550 -0.453613 0.868109
vn -0.099629 -0.401383 0.910476
vn -0.099629 -0.401383 0.910476
vn -0.099629 -0.401383 0.910476
vn -0.099629 -0.401383 0.910476
vn 0.286123 -0.794664 0.535390
vn 0.286123 -0.794664 0.535390
vn 0.286123 -0.794664 0.535391
vn 0.286123 -0.794664 0.535390
vn -0.170554 -0.177550 0.969220
vn -0.170554 -0.177550 0.969220
vn -0.170554 -0.177550 0.969220
vn -0.170554 -0.177550 0.969220
vn -0.296150 -0.175067 0.938960
vn -0.296150 -0.175067 0.938960
vn -0.296150 -0.175067 0.938960
vn -0.296150 -0.175067 0.938960
vn -0.361754 -0.277037 0.890160
vn -0.361754 -0.277037 0.890160
vn -0.361754 -0.277037 0.890160
vn -0.361754 -0.277037 0.890160
vn -0.317419 -0.400890 0.859379
vn -0.317419 -0.400890 0.859379
vn -0.317418 -0.400890 0.859380
vn -0.317419 -0.400890 0.859379
vn 0.540946 0.500427 -0.675981
vn 0.540946 0.500427 -0.675981
vn 0.540946 0.500427 -0.675981
vn 0.540946 0.500427 -0.675981
vn -0.187267 0.154727 -0.970047
vn -0.187267 0.154727 -0.970047
vn -0.187267 0.154727 -0.970047
vn -0.187267 0.154727 -0.970047
vn -0.165428 0.427801 -0.888606
vn -0.165428 0.427801 -0.888606
vn -0.165428 0.427801 -0.888606
vn -0.165428 0.427801 -0.888606
vn 0.239981 -0.033495 -0.970200
vn 0.239981 -0.033495 -0.970200
vn 0.239981 -0.033495 -0.970200
vn 0.239981 -0.033495 -0.970200
vn 0.366496 -0.036379 -0.929708
vn 0.366496 -0.036379 -0.929708
vn 0.366496 -0.036379 -0.929708
vn 0.366496 -0.036379 -0.929708
vn 0.565371 0.220729 -0.794754
vn 0.565371 0.220729 -0.794754
vn 0.565371 0.220729 -0.794754
vn 0.565371 0.220729 -0.794754
vn 0.474567 0.543219 -0.692604
vn 0.474567 0.543219 -0.692604
vn 0.474567 0.543219 -0.692604
vn 0.474567 0.543219 -0.692604
vn -0.291720 0.711001 0.639825
vn -0.291720 0.711001 0.639825
vn -0.291720 0.711001 0.639825
vn -0.333112 0.708375 0.622288
vn -0.333112 0.708375 0.622288
vn -0.333112 0.708375 0.622288
vn -0.333112 0.708375 0.622288
vn 0.945260 0.317548 -0.075144
vn 0.945260 0.317548 -0.075144
vn 0.945260 0.317548 -0.075144
vn -0.229694 -0.412389 0.881576
vn -0.229694 -0.412389 0.881576
vn -0.229694 -0.412389 0.881576
vn 0.023771 -0.257410 0.966010
vn 0.023771 -0.257410 0.966010
vn 0.023771 -0.257410 0.966010
vn 0.023771 -0.257410 0.966010
vn 0.973701 0.220159 -0.058626
vn 0.973701 0.220159 -0.058626
vn 0.973701 0.220159 -0.058626
vn 0.970082 0.235317 -0.059717
vn 0.970082 0.235317 -0.059717
vn 0.970082 0.235317 -0.059717
s off
f 22/1/1 23/2/2 15/3/3 16/4/4
f 23/2/5 3/5/6 21/6/7 15/3/8
f 3/5/9 4/7/10 20/8/11 21/6/12
f 4/7/13 5/9/14 19/10/15 20/8/16
f 5/9/17 6/11/18 18/12/19 19/10/20
f 6/11/21 7/13/22 17/14/23 18/12/24
f 7/13/25 22/1/26 16/4/27 17/14/28
f 33/15/29 32/16/30 34/17/31
f 35/18/32 33/15/33 34/17/34
f 36/19/35 35/18/36 34/17/37
f 37/20/38 36/19/39 34/17/40
f 38/21/41 37/20/42 34/17/43
f 39/22/44 38/21/45 34/17/46
f 32/16/47 39/22/48 34/17/49
f 24/23/50 25/24/51 26/25/52
f 25/24/53 27/26/54 26/25/55
f 26/25/56 40/27/57 28/28/58
f 28/28/59 29/29/60 26/25/61
f 29/29/62 30/30/63 26/25/64
f 30/30/65 31/31/66 26/25/67
f 31/31/68 24/23/69 26/25/70
f 16/4/71 15/3/72 9/32/73 8/33/74
f 17/14/75 16/4/76 8/33/77 14/34/78
f 18/12/79 17/14/80 14/34/81 13/35/82
f 19/10/83 18/12/84 13/35/85 12/36/86
f 20/8/87 19/10/88 12/36/89 11/37/90
f 41/38/91 20/8/92 11/37/93
f 15/3/94 21/6/95 10/39/96 9/32/97
f 7/13/98 1/40/99 22/1/100
f 1/40/101 2/41/102 23/2/103 22/1/104
f 2/41/105 3/5/106 23/2/107
f 8/33/108 9/32/109 25/42/110 24/43/111
f 9/32/112 10/39/113 27/44/114 25/42/115
f 40/45/116 41/38/117 11/37/118 28/46/119
f 11/37/120 12/36/121 29/47/122 28/46/123
f 12/36/124 13/35/125 30/48/126 29/47/127
f 13/35/128 14/34/129 31/49/130 30/48/131
f 14/34/132 8/33/133 24/43/134 31/49/135
f 2/41/136 1/40/137 32/50/138 33/51/139
f 3/5/140 2/41/141 33/51/142 35/52/143
f 4/7/144 3/5/145 35/52/146 36/53/147
f 5/9/148 4/7/149 36/53/150 37/54/151
f 6/11/152 5/9/153 37/54/154 38/55/155
f 7/13/156 6/11/157 38/55/158 39/56/159
f 1/40/160 7/13/161 39/56/162 32/50/163
f 26/25/164 42/57/165 40/27/166
f 42/58/167 43/59/168 41/38/169 40/45/170
f 20/8/171 41/38/172 21/6/173
f 27/26/174 42/57/175 26/25/176
f 10/39/177 43/59/178 42/58/179 27/44/180
f 21/6/181 41/38/182 43/59/183
f 21/6/184 43/59/185 10/39/186
f 65/60/187 66/61/188 58/62/189 59/63/190
f 66/61/191 46/64/192 64/65/193 58/62/194
f 46/64/195 47/66/196 63/67/197 64/65/198
f 47/66/199 48/68/200 62/69/201 63/67/202
f 48/68/203 49/70/204 61/71/205 62/69/206
f 49/70/207 50/72/208 60/73/209 61/71/210
f 50/72/211 65/60/212 59/63/213 60/73/214
f 76/74/215 75/75/216 77/76/217
f 78/77/218 76/74/219 77/76/220
f 79/78/221 78/77/222 77/76/223
f 80/79/224 79/78/225 77/76/226
f 81/80/227 80/79/228 77/76/229
f 82/81/230 81/80/231 77/76/232
f 75/75/233 82/81/234 77/76/235
f 67/82/236 68/83/237 69/84/238
f 68/83/239 70/85/240 69/84/241
f 69/84/242 83/86/243 71/87/244
f 71/87/245 72/88/246 69/84/247
f 72/88/248 73/89/249 69/84/250
f 73/89/251 74/90/252 69/84/253
f 74/90/254 67/82/255 69/84/256
f 59/63/257 58/62/258 52/91/259 51/92/260
f 60/73/261 59/63/262 51/92/263 57/93/264
f 61/71/265 60/73/266 57/93/267 56/94/268
f 62/69/269 61/71/270 56/94/271 55/95/272
f 63/67/273 62/69/274 55/95/275 54/96/276
f 84/97/277 63/67/278 54/96/279
f 58/62/280 64/65/281 53/98/282 52/91/283
f 50/72/284 44/99/285 65/60/286
f 44/99/287 45/100/288 66/61/289 65/60/290
f 45/100/291 46/64/292 66/61/293
f 51/92/294 52/91/295 68/101/296 67/102/297
f 52/91/298 53/98/299 70/103/300 68/101/301
f 83/104/302 84/97/303 54/96/304 71/105/305
f 54/96/306 55/95/307 72/106/308 71/105/309
f 55/95/310 56/94/311 73/107/312 72/106/313
f 56/94/314 57/93/315 74/108/316 73/107/317
f 57/93/318 51/92/319 67/102/320 74/108/321
f 45/100/322 44/99/323 75/109/324 76/110/325
f 46/64/326 45/100/327 76/110/328 78/111/329
f 47/66/330 46/64/331 78/111/332 79/112/333
f 48/68/334 47/66/335 79/112/336 80/113/337
f 49/70/338 48/68/339 80/113/340 81/114/341
f 50/72/342 49/70/343 81/114/344 82/115/345
f 44/99/346 50/72/347 82/115/348 75/109/349
f 69/84/350 85/116/351 83/86/352
f 85/117/353 86/118/354 84/97/355 83/104/356
f 63/67/357 84/97/358 64/65/359
f 70/85/360 85/116/361 69/84/362
f 53/98/363 86/118/364 85/117/365 70/103/366
f 64/65/367 84/97/368 86/118/369
f 64/65/370 86/118/371 53/98/372
